G75*
%MOIN*%
%OFA0B0*%
%FSLAX25Y25*%
%IPPOS*%
%LPD*%
%AMOC8*
5,1,8,0,0,1.08239X$1,22.5*
%
%ADD10C,0.01600*%
%ADD11OC8,0.06300*%
%ADD12C,0.06600*%
%ADD13OC8,0.12500*%
%ADD14R,0.06890X0.01575*%
%ADD15R,0.07874X0.07874*%
%ADD16C,0.00000*%
%ADD17R,0.02165X0.04724*%
%ADD18C,0.02000*%
%ADD19C,0.03962*%
D10*
X0037595Y0033933D02*
X0250981Y0033933D01*
X0250981Y0267004D01*
X0037595Y0267004D01*
X0037595Y0033933D01*
X0040695Y0037033D02*
X0247881Y0037033D01*
X0247881Y0111920D01*
X0239570Y0111920D01*
X0238633Y0112857D01*
X0238633Y0122056D01*
X0239570Y0122994D01*
X0247881Y0122994D01*
X0247881Y0133376D01*
X0239570Y0133376D01*
X0238633Y0134314D01*
X0238633Y0143513D01*
X0239570Y0144450D01*
X0247881Y0144450D01*
X0247881Y0263904D01*
X0040695Y0263904D01*
X0040695Y0037033D01*
X0040695Y0037130D02*
X0247881Y0037130D01*
X0247881Y0038729D02*
X0040695Y0038729D01*
X0040695Y0040327D02*
X0247881Y0040327D01*
X0247881Y0041926D02*
X0040695Y0041926D01*
X0040695Y0043524D02*
X0247881Y0043524D01*
X0247881Y0045123D02*
X0040695Y0045123D01*
X0040695Y0046721D02*
X0247881Y0046721D01*
X0247881Y0048320D02*
X0040695Y0048320D01*
X0040695Y0049918D02*
X0054610Y0049918D01*
X0055545Y0048983D02*
X0057595Y0048983D01*
X0057595Y0053933D01*
X0052645Y0053933D01*
X0052645Y0051883D01*
X0055545Y0048983D01*
X0057595Y0048983D02*
X0057595Y0053933D01*
X0057595Y0053933D01*
X0057595Y0053933D01*
X0052645Y0053933D01*
X0052645Y0055983D01*
X0055545Y0058883D01*
X0057595Y0058883D01*
X0057595Y0053933D01*
X0057595Y0053933D01*
X0057595Y0053933D01*
X0062545Y0053933D01*
X0062545Y0051883D01*
X0059645Y0048983D01*
X0057595Y0048983D01*
X0057595Y0049918D02*
X0057595Y0049918D01*
X0057595Y0051517D02*
X0057595Y0051517D01*
X0057595Y0053115D02*
X0057595Y0053115D01*
X0057595Y0053933D02*
X0062545Y0053933D01*
X0062545Y0055983D01*
X0059645Y0058883D01*
X0057595Y0058883D01*
X0057595Y0053933D01*
X0057595Y0054714D02*
X0057595Y0054714D01*
X0057595Y0056312D02*
X0057595Y0056312D01*
X0057595Y0057911D02*
X0057595Y0057911D01*
X0055628Y0059183D02*
X0059563Y0059183D01*
X0062345Y0061966D01*
X0062345Y0065901D01*
X0059563Y0068683D01*
X0055628Y0068683D01*
X0052845Y0065901D01*
X0052845Y0061966D01*
X0055628Y0059183D01*
X0055301Y0059509D02*
X0040695Y0059509D01*
X0040695Y0057911D02*
X0054572Y0057911D01*
X0052974Y0056312D02*
X0040695Y0056312D01*
X0040695Y0054714D02*
X0052645Y0054714D01*
X0052645Y0053115D02*
X0040695Y0053115D01*
X0040695Y0051517D02*
X0053011Y0051517D01*
X0060581Y0049918D02*
X0064610Y0049918D01*
X0065545Y0048983D02*
X0067595Y0048983D01*
X0067595Y0053933D01*
X0062645Y0053933D01*
X0062645Y0051883D01*
X0065545Y0048983D01*
X0067595Y0048983D02*
X0067595Y0053933D01*
X0067595Y0053933D01*
X0067595Y0053933D01*
X0062645Y0053933D01*
X0062645Y0055983D01*
X0065545Y0058883D01*
X0067595Y0058883D01*
X0067595Y0053933D01*
X0067595Y0053933D01*
X0067595Y0053933D01*
X0072545Y0053933D01*
X0072545Y0051883D01*
X0069645Y0048983D01*
X0067595Y0048983D01*
X0067595Y0049918D02*
X0067595Y0049918D01*
X0067595Y0051517D02*
X0067595Y0051517D01*
X0067595Y0053115D02*
X0067595Y0053115D01*
X0067595Y0053933D02*
X0072545Y0053933D01*
X0072545Y0055983D01*
X0069645Y0058883D01*
X0067595Y0058883D01*
X0067595Y0053933D01*
X0067595Y0054714D02*
X0067595Y0054714D01*
X0067595Y0056312D02*
X0067595Y0056312D01*
X0067595Y0057911D02*
X0067595Y0057911D01*
X0065628Y0059183D02*
X0069563Y0059183D01*
X0072345Y0061966D01*
X0072345Y0065901D01*
X0069563Y0068683D01*
X0065628Y0068683D01*
X0062845Y0065901D01*
X0062845Y0061966D01*
X0065628Y0059183D01*
X0065301Y0059509D02*
X0059889Y0059509D01*
X0060618Y0057911D02*
X0064572Y0057911D01*
X0062974Y0056312D02*
X0062216Y0056312D01*
X0062545Y0054714D02*
X0062645Y0054714D01*
X0062645Y0053115D02*
X0062545Y0053115D01*
X0062179Y0051517D02*
X0063011Y0051517D01*
X0070581Y0049918D02*
X0074610Y0049918D01*
X0075545Y0048983D02*
X0077595Y0048983D01*
X0077595Y0053933D01*
X0072645Y0053933D01*
X0072645Y0051883D01*
X0075545Y0048983D01*
X0077595Y0048983D02*
X0077595Y0053933D01*
X0077595Y0053933D01*
X0077595Y0053933D01*
X0072645Y0053933D01*
X0072645Y0055983D01*
X0075545Y0058883D01*
X0077595Y0058883D01*
X0077595Y0053933D01*
X0077595Y0053933D01*
X0077595Y0053933D01*
X0082545Y0053933D01*
X0082545Y0051883D01*
X0079645Y0048983D01*
X0077595Y0048983D01*
X0077595Y0049918D02*
X0077595Y0049918D01*
X0077595Y0051517D02*
X0077595Y0051517D01*
X0077595Y0053115D02*
X0077595Y0053115D01*
X0077595Y0053933D02*
X0082545Y0053933D01*
X0082545Y0055983D01*
X0079645Y0058883D01*
X0077595Y0058883D01*
X0077595Y0053933D01*
X0077595Y0054714D02*
X0077595Y0054714D01*
X0077595Y0056312D02*
X0077595Y0056312D01*
X0077595Y0057911D02*
X0077595Y0057911D01*
X0075628Y0059183D02*
X0079563Y0059183D01*
X0082345Y0061966D01*
X0082345Y0065901D01*
X0079563Y0068683D01*
X0075628Y0068683D01*
X0072845Y0065901D01*
X0072845Y0061966D01*
X0075628Y0059183D01*
X0075301Y0059509D02*
X0069889Y0059509D01*
X0070618Y0057911D02*
X0074572Y0057911D01*
X0072974Y0056312D02*
X0072216Y0056312D01*
X0072545Y0054714D02*
X0072645Y0054714D01*
X0072645Y0053115D02*
X0072545Y0053115D01*
X0072179Y0051517D02*
X0073011Y0051517D01*
X0080581Y0049918D02*
X0084610Y0049918D01*
X0085545Y0048983D02*
X0087595Y0048983D01*
X0087595Y0053933D01*
X0082645Y0053933D01*
X0082645Y0051883D01*
X0085545Y0048983D01*
X0087595Y0048983D02*
X0087595Y0053933D01*
X0087595Y0053933D01*
X0087595Y0053933D01*
X0082645Y0053933D01*
X0082645Y0055983D01*
X0085545Y0058883D01*
X0087595Y0058883D01*
X0087595Y0053933D01*
X0087595Y0053933D01*
X0087595Y0053933D01*
X0092545Y0053933D01*
X0092545Y0051883D01*
X0089645Y0048983D01*
X0087595Y0048983D01*
X0087595Y0049918D02*
X0087595Y0049918D01*
X0087595Y0051517D02*
X0087595Y0051517D01*
X0087595Y0053115D02*
X0087595Y0053115D01*
X0087595Y0053933D02*
X0092545Y0053933D01*
X0092545Y0055983D01*
X0089645Y0058883D01*
X0087595Y0058883D01*
X0087595Y0053933D01*
X0087595Y0054714D02*
X0087595Y0054714D01*
X0087595Y0056312D02*
X0087595Y0056312D01*
X0087595Y0057911D02*
X0087595Y0057911D01*
X0085628Y0059183D02*
X0089563Y0059183D01*
X0092345Y0061966D01*
X0092345Y0065901D01*
X0089563Y0068683D01*
X0085628Y0068683D01*
X0082845Y0065901D01*
X0082845Y0061966D01*
X0085628Y0059183D01*
X0085301Y0059509D02*
X0079889Y0059509D01*
X0080618Y0057911D02*
X0084572Y0057911D01*
X0082974Y0056312D02*
X0082216Y0056312D01*
X0082545Y0054714D02*
X0082645Y0054714D01*
X0082645Y0053115D02*
X0082545Y0053115D01*
X0082179Y0051517D02*
X0083011Y0051517D01*
X0090581Y0049918D02*
X0094610Y0049918D01*
X0095545Y0048983D02*
X0092645Y0051883D01*
X0092645Y0053933D01*
X0097595Y0053933D01*
X0097595Y0053933D01*
X0097595Y0053933D01*
X0097595Y0048983D01*
X0095545Y0048983D01*
X0097595Y0048983D02*
X0097595Y0053933D01*
X0092645Y0053933D01*
X0092645Y0055983D01*
X0095545Y0058883D01*
X0097595Y0058883D01*
X0097595Y0053933D01*
X0097595Y0053933D01*
X0097595Y0053933D01*
X0102545Y0053933D01*
X0102545Y0051883D01*
X0099645Y0048983D01*
X0097595Y0048983D01*
X0097595Y0049918D02*
X0097595Y0049918D01*
X0097595Y0051517D02*
X0097595Y0051517D01*
X0097595Y0053115D02*
X0097595Y0053115D01*
X0097595Y0053933D02*
X0102545Y0053933D01*
X0102545Y0055983D01*
X0099645Y0058883D01*
X0097595Y0058883D01*
X0097595Y0053933D01*
X0097595Y0054714D02*
X0097595Y0054714D01*
X0097595Y0056312D02*
X0097595Y0056312D01*
X0097595Y0057911D02*
X0097595Y0057911D01*
X0095628Y0059183D02*
X0099563Y0059183D01*
X0102345Y0061966D01*
X0102345Y0065901D01*
X0099563Y0068683D01*
X0095628Y0068683D01*
X0092845Y0065901D01*
X0092845Y0061966D01*
X0095628Y0059183D01*
X0095301Y0059509D02*
X0089889Y0059509D01*
X0090618Y0057911D02*
X0094572Y0057911D01*
X0092974Y0056312D02*
X0092216Y0056312D01*
X0092545Y0054714D02*
X0092645Y0054714D01*
X0092645Y0053115D02*
X0092545Y0053115D01*
X0092179Y0051517D02*
X0093011Y0051517D01*
X0100581Y0049918D02*
X0104610Y0049918D01*
X0105545Y0048983D02*
X0102645Y0051883D01*
X0102645Y0053933D01*
X0107595Y0053933D01*
X0107595Y0053933D01*
X0107595Y0053933D01*
X0107595Y0048983D01*
X0105545Y0048983D01*
X0107595Y0048983D02*
X0107595Y0053933D01*
X0102645Y0053933D01*
X0102645Y0055983D01*
X0105545Y0058883D01*
X0107595Y0058883D01*
X0107595Y0053933D01*
X0107595Y0053933D01*
X0107595Y0053933D01*
X0112545Y0053933D01*
X0112545Y0051883D01*
X0109645Y0048983D01*
X0107595Y0048983D01*
X0107595Y0049918D02*
X0107595Y0049918D01*
X0107595Y0051517D02*
X0107595Y0051517D01*
X0107595Y0053115D02*
X0107595Y0053115D01*
X0107595Y0053933D02*
X0112545Y0053933D01*
X0112545Y0055983D01*
X0109645Y0058883D01*
X0107595Y0058883D01*
X0107595Y0053933D01*
X0107595Y0054714D02*
X0107595Y0054714D01*
X0107595Y0056312D02*
X0107595Y0056312D01*
X0107595Y0057911D02*
X0107595Y0057911D01*
X0105628Y0059183D02*
X0109563Y0059183D01*
X0112345Y0061966D01*
X0112345Y0065901D01*
X0109563Y0068683D01*
X0105628Y0068683D01*
X0102845Y0065901D01*
X0102845Y0061966D01*
X0105628Y0059183D01*
X0105301Y0059509D02*
X0099889Y0059509D01*
X0100618Y0057911D02*
X0104572Y0057911D01*
X0102974Y0056312D02*
X0102216Y0056312D01*
X0102545Y0054714D02*
X0102645Y0054714D01*
X0102645Y0053115D02*
X0102545Y0053115D01*
X0102179Y0051517D02*
X0103011Y0051517D01*
X0110581Y0049918D02*
X0114610Y0049918D01*
X0115545Y0048983D02*
X0112645Y0051883D01*
X0112645Y0053933D01*
X0117595Y0053933D01*
X0117595Y0053933D01*
X0117595Y0053933D01*
X0117595Y0048983D01*
X0115545Y0048983D01*
X0117595Y0048983D02*
X0119645Y0048983D01*
X0122545Y0051883D01*
X0122545Y0053933D01*
X0117595Y0053933D01*
X0112645Y0053933D01*
X0112645Y0055983D01*
X0115545Y0058883D01*
X0117595Y0058883D01*
X0117595Y0053933D01*
X0117595Y0048983D01*
X0117595Y0049918D02*
X0117595Y0049918D01*
X0117595Y0051517D02*
X0117595Y0051517D01*
X0117595Y0053115D02*
X0117595Y0053115D01*
X0117595Y0053933D02*
X0117595Y0053933D01*
X0117595Y0053933D01*
X0117595Y0058883D01*
X0119645Y0058883D01*
X0122545Y0055983D01*
X0122545Y0053933D01*
X0117595Y0053933D01*
X0117595Y0054714D02*
X0117595Y0054714D01*
X0117595Y0056312D02*
X0117595Y0056312D01*
X0117595Y0057911D02*
X0117595Y0057911D01*
X0115628Y0059183D02*
X0119563Y0059183D01*
X0122345Y0061966D01*
X0122345Y0065901D01*
X0119563Y0068683D01*
X0115628Y0068683D01*
X0112845Y0065901D01*
X0112845Y0061966D01*
X0115628Y0059183D01*
X0115301Y0059509D02*
X0109889Y0059509D01*
X0110618Y0057911D02*
X0114572Y0057911D01*
X0112974Y0056312D02*
X0112216Y0056312D01*
X0112545Y0054714D02*
X0112645Y0054714D01*
X0112645Y0053115D02*
X0112545Y0053115D01*
X0112179Y0051517D02*
X0113011Y0051517D01*
X0120581Y0049918D02*
X0124610Y0049918D01*
X0125545Y0048983D02*
X0122645Y0051883D01*
X0122645Y0053933D01*
X0127595Y0053933D01*
X0127595Y0053933D01*
X0127595Y0053933D01*
X0127595Y0048983D01*
X0125545Y0048983D01*
X0127595Y0048983D02*
X0129645Y0048983D01*
X0132545Y0051883D01*
X0132545Y0053933D01*
X0127595Y0053933D01*
X0122645Y0053933D01*
X0122645Y0055983D01*
X0125545Y0058883D01*
X0127595Y0058883D01*
X0127595Y0053933D01*
X0127595Y0048983D01*
X0127595Y0049918D02*
X0127595Y0049918D01*
X0127595Y0051517D02*
X0127595Y0051517D01*
X0127595Y0053115D02*
X0127595Y0053115D01*
X0127595Y0053933D02*
X0127595Y0053933D01*
X0127595Y0053933D01*
X0127595Y0058883D01*
X0129645Y0058883D01*
X0132545Y0055983D01*
X0132545Y0053933D01*
X0127595Y0053933D01*
X0127595Y0054714D02*
X0127595Y0054714D01*
X0127595Y0056312D02*
X0127595Y0056312D01*
X0127595Y0057911D02*
X0127595Y0057911D01*
X0125628Y0059183D02*
X0129563Y0059183D01*
X0132345Y0061966D01*
X0132345Y0065901D01*
X0129563Y0068683D01*
X0125628Y0068683D01*
X0122845Y0065901D01*
X0122845Y0061966D01*
X0125628Y0059183D01*
X0125301Y0059509D02*
X0119889Y0059509D01*
X0120618Y0057911D02*
X0124572Y0057911D01*
X0122974Y0056312D02*
X0122216Y0056312D01*
X0122545Y0054714D02*
X0122645Y0054714D01*
X0122645Y0053115D02*
X0122545Y0053115D01*
X0122179Y0051517D02*
X0123011Y0051517D01*
X0130581Y0049918D02*
X0134610Y0049918D01*
X0135545Y0048983D02*
X0137595Y0048983D01*
X0137595Y0053933D01*
X0132645Y0053933D01*
X0132645Y0051883D01*
X0135545Y0048983D01*
X0137595Y0048983D02*
X0137595Y0053933D01*
X0137595Y0053933D01*
X0137595Y0053933D01*
X0132645Y0053933D01*
X0132645Y0055983D01*
X0135545Y0058883D01*
X0137595Y0058883D01*
X0137595Y0053933D01*
X0137595Y0053933D01*
X0137595Y0053933D01*
X0142545Y0053933D01*
X0142545Y0051883D01*
X0139645Y0048983D01*
X0137595Y0048983D01*
X0137595Y0049918D02*
X0137595Y0049918D01*
X0137595Y0051517D02*
X0137595Y0051517D01*
X0137595Y0053115D02*
X0137595Y0053115D01*
X0137595Y0053933D02*
X0142545Y0053933D01*
X0142545Y0055983D01*
X0139645Y0058883D01*
X0137595Y0058883D01*
X0137595Y0053933D01*
X0137595Y0054714D02*
X0137595Y0054714D01*
X0137595Y0056312D02*
X0137595Y0056312D01*
X0137595Y0057911D02*
X0137595Y0057911D01*
X0135628Y0059183D02*
X0139563Y0059183D01*
X0142345Y0061966D01*
X0142345Y0065901D01*
X0139563Y0068683D01*
X0135628Y0068683D01*
X0132845Y0065901D01*
X0132845Y0061966D01*
X0135628Y0059183D01*
X0135301Y0059509D02*
X0129889Y0059509D01*
X0130618Y0057911D02*
X0134572Y0057911D01*
X0132974Y0056312D02*
X0132216Y0056312D01*
X0132545Y0054714D02*
X0132645Y0054714D01*
X0132645Y0053115D02*
X0132545Y0053115D01*
X0132179Y0051517D02*
X0133011Y0051517D01*
X0140581Y0049918D02*
X0144610Y0049918D01*
X0145545Y0048983D02*
X0147595Y0048983D01*
X0147595Y0053933D01*
X0142645Y0053933D01*
X0142645Y0051883D01*
X0145545Y0048983D01*
X0147595Y0048983D02*
X0147595Y0053933D01*
X0147595Y0053933D01*
X0147595Y0053933D01*
X0142645Y0053933D01*
X0142645Y0055983D01*
X0145545Y0058883D01*
X0147595Y0058883D01*
X0147595Y0053933D01*
X0147595Y0053933D01*
X0147595Y0053933D01*
X0152545Y0053933D01*
X0152545Y0051883D01*
X0149645Y0048983D01*
X0147595Y0048983D01*
X0147595Y0049918D02*
X0147595Y0049918D01*
X0147595Y0051517D02*
X0147595Y0051517D01*
X0147595Y0053115D02*
X0147595Y0053115D01*
X0147595Y0053933D02*
X0152545Y0053933D01*
X0152545Y0055983D01*
X0149645Y0058883D01*
X0147595Y0058883D01*
X0147595Y0053933D01*
X0147595Y0054714D02*
X0147595Y0054714D01*
X0147595Y0056312D02*
X0147595Y0056312D01*
X0147595Y0057911D02*
X0147595Y0057911D01*
X0145628Y0059183D02*
X0149563Y0059183D01*
X0152345Y0061966D01*
X0152345Y0065901D01*
X0149563Y0068683D01*
X0145628Y0068683D01*
X0142845Y0065901D01*
X0142845Y0061966D01*
X0145628Y0059183D01*
X0145301Y0059509D02*
X0139889Y0059509D01*
X0140618Y0057911D02*
X0144572Y0057911D01*
X0142974Y0056312D02*
X0142216Y0056312D01*
X0142545Y0054714D02*
X0142645Y0054714D01*
X0142645Y0053115D02*
X0142545Y0053115D01*
X0142179Y0051517D02*
X0143011Y0051517D01*
X0150581Y0049918D02*
X0154610Y0049918D01*
X0155545Y0048983D02*
X0157595Y0048983D01*
X0157595Y0053933D01*
X0152645Y0053933D01*
X0152645Y0051883D01*
X0155545Y0048983D01*
X0157595Y0048983D02*
X0157595Y0053933D01*
X0157595Y0053933D01*
X0157595Y0053933D01*
X0152645Y0053933D01*
X0152645Y0055983D01*
X0155545Y0058883D01*
X0157595Y0058883D01*
X0157595Y0053933D01*
X0157595Y0053933D01*
X0157595Y0053933D01*
X0162545Y0053933D01*
X0162545Y0051883D01*
X0159645Y0048983D01*
X0157595Y0048983D01*
X0157595Y0049918D02*
X0157595Y0049918D01*
X0157595Y0051517D02*
X0157595Y0051517D01*
X0157595Y0053115D02*
X0157595Y0053115D01*
X0157595Y0053933D02*
X0162545Y0053933D01*
X0162545Y0055983D01*
X0159645Y0058883D01*
X0157595Y0058883D01*
X0157595Y0053933D01*
X0157595Y0054714D02*
X0157595Y0054714D01*
X0157595Y0056312D02*
X0157595Y0056312D01*
X0157595Y0057911D02*
X0157595Y0057911D01*
X0155628Y0059183D02*
X0159563Y0059183D01*
X0162345Y0061966D01*
X0162345Y0065901D01*
X0159563Y0068683D01*
X0155628Y0068683D01*
X0152845Y0065901D01*
X0152845Y0061966D01*
X0155628Y0059183D01*
X0155301Y0059509D02*
X0149889Y0059509D01*
X0150618Y0057911D02*
X0154572Y0057911D01*
X0152974Y0056312D02*
X0152216Y0056312D01*
X0152545Y0054714D02*
X0152645Y0054714D01*
X0152645Y0053115D02*
X0152545Y0053115D01*
X0152179Y0051517D02*
X0153011Y0051517D01*
X0160581Y0049918D02*
X0164610Y0049918D01*
X0165545Y0048983D02*
X0167595Y0048983D01*
X0167595Y0053933D01*
X0162645Y0053933D01*
X0162645Y0051883D01*
X0165545Y0048983D01*
X0167595Y0048983D02*
X0167595Y0053933D01*
X0167595Y0053933D01*
X0167595Y0053933D01*
X0162645Y0053933D01*
X0162645Y0055983D01*
X0165545Y0058883D01*
X0167595Y0058883D01*
X0167595Y0053933D01*
X0167595Y0053933D01*
X0167595Y0053933D01*
X0172545Y0053933D01*
X0172545Y0051883D01*
X0169645Y0048983D01*
X0167595Y0048983D01*
X0167595Y0049918D02*
X0167595Y0049918D01*
X0167595Y0051517D02*
X0167595Y0051517D01*
X0167595Y0053115D02*
X0167595Y0053115D01*
X0167595Y0053933D02*
X0172545Y0053933D01*
X0172545Y0055983D01*
X0169645Y0058883D01*
X0167595Y0058883D01*
X0167595Y0053933D01*
X0167595Y0054714D02*
X0167595Y0054714D01*
X0167595Y0056312D02*
X0167595Y0056312D01*
X0167595Y0057911D02*
X0167595Y0057911D01*
X0165628Y0059183D02*
X0169563Y0059183D01*
X0172345Y0061966D01*
X0172345Y0065901D01*
X0169563Y0068683D01*
X0165628Y0068683D01*
X0162845Y0065901D01*
X0162845Y0061966D01*
X0165628Y0059183D01*
X0165301Y0059509D02*
X0159889Y0059509D01*
X0160618Y0057911D02*
X0164572Y0057911D01*
X0162974Y0056312D02*
X0162216Y0056312D01*
X0162545Y0054714D02*
X0162645Y0054714D01*
X0162645Y0053115D02*
X0162545Y0053115D01*
X0162179Y0051517D02*
X0163011Y0051517D01*
X0170581Y0049918D02*
X0174610Y0049918D01*
X0175545Y0048983D02*
X0177595Y0048983D01*
X0177595Y0053933D01*
X0172645Y0053933D01*
X0172645Y0051883D01*
X0175545Y0048983D01*
X0177595Y0048983D02*
X0177595Y0053933D01*
X0177595Y0053933D01*
X0177595Y0053933D01*
X0172645Y0053933D01*
X0172645Y0055983D01*
X0175545Y0058883D01*
X0177595Y0058883D01*
X0177595Y0053933D01*
X0177595Y0053933D01*
X0177595Y0053933D01*
X0182545Y0053933D01*
X0182545Y0051883D01*
X0179645Y0048983D01*
X0177595Y0048983D01*
X0177595Y0049918D02*
X0177595Y0049918D01*
X0177595Y0051517D02*
X0177595Y0051517D01*
X0177595Y0053115D02*
X0177595Y0053115D01*
X0177595Y0053933D02*
X0182545Y0053933D01*
X0182545Y0055983D01*
X0179645Y0058883D01*
X0177595Y0058883D01*
X0177595Y0053933D01*
X0177595Y0054714D02*
X0177595Y0054714D01*
X0177595Y0056312D02*
X0177595Y0056312D01*
X0177595Y0057911D02*
X0177595Y0057911D01*
X0175628Y0059183D02*
X0179563Y0059183D01*
X0182345Y0061966D01*
X0182345Y0065901D01*
X0179563Y0068683D01*
X0175628Y0068683D01*
X0172845Y0065901D01*
X0172845Y0061966D01*
X0175628Y0059183D01*
X0175301Y0059509D02*
X0169889Y0059509D01*
X0170618Y0057911D02*
X0174572Y0057911D01*
X0172974Y0056312D02*
X0172216Y0056312D01*
X0172545Y0054714D02*
X0172645Y0054714D01*
X0172645Y0053115D02*
X0172545Y0053115D01*
X0172179Y0051517D02*
X0173011Y0051517D01*
X0180581Y0049918D02*
X0184610Y0049918D01*
X0185545Y0048983D02*
X0187595Y0048983D01*
X0187595Y0053933D01*
X0182645Y0053933D01*
X0182645Y0051883D01*
X0185545Y0048983D01*
X0187595Y0048983D02*
X0187595Y0053933D01*
X0187595Y0053933D01*
X0187595Y0053933D01*
X0182645Y0053933D01*
X0182645Y0055983D01*
X0185545Y0058883D01*
X0187595Y0058883D01*
X0187595Y0053933D01*
X0187595Y0053933D01*
X0187595Y0053933D01*
X0192545Y0053933D01*
X0192545Y0051883D01*
X0189645Y0048983D01*
X0187595Y0048983D01*
X0187595Y0049918D02*
X0187595Y0049918D01*
X0187595Y0051517D02*
X0187595Y0051517D01*
X0187595Y0053115D02*
X0187595Y0053115D01*
X0187595Y0053933D02*
X0192545Y0053933D01*
X0192545Y0055983D01*
X0189645Y0058883D01*
X0187595Y0058883D01*
X0187595Y0053933D01*
X0187595Y0054714D02*
X0187595Y0054714D01*
X0187595Y0056312D02*
X0187595Y0056312D01*
X0187595Y0057911D02*
X0187595Y0057911D01*
X0185628Y0059183D02*
X0189563Y0059183D01*
X0192345Y0061966D01*
X0192345Y0065901D01*
X0189563Y0068683D01*
X0185628Y0068683D01*
X0182845Y0065901D01*
X0182845Y0061966D01*
X0185628Y0059183D01*
X0185301Y0059509D02*
X0179889Y0059509D01*
X0180618Y0057911D02*
X0184572Y0057911D01*
X0182974Y0056312D02*
X0182216Y0056312D01*
X0182545Y0054714D02*
X0182645Y0054714D01*
X0182645Y0053115D02*
X0182545Y0053115D01*
X0182179Y0051517D02*
X0183011Y0051517D01*
X0190581Y0049918D02*
X0194610Y0049918D01*
X0195545Y0048983D02*
X0197595Y0048983D01*
X0197595Y0053933D01*
X0192645Y0053933D01*
X0192645Y0051883D01*
X0195545Y0048983D01*
X0197595Y0048983D02*
X0197595Y0053933D01*
X0197595Y0053933D01*
X0197595Y0053933D01*
X0192645Y0053933D01*
X0192645Y0055983D01*
X0195545Y0058883D01*
X0197595Y0058883D01*
X0197595Y0053933D01*
X0197595Y0053933D01*
X0197595Y0053933D01*
X0202545Y0053933D01*
X0202545Y0051883D01*
X0199645Y0048983D01*
X0197595Y0048983D01*
X0197595Y0049918D02*
X0197595Y0049918D01*
X0197595Y0051517D02*
X0197595Y0051517D01*
X0197595Y0053115D02*
X0197595Y0053115D01*
X0197595Y0053933D02*
X0202545Y0053933D01*
X0202545Y0055983D01*
X0199645Y0058883D01*
X0197595Y0058883D01*
X0197595Y0053933D01*
X0197595Y0054714D02*
X0197595Y0054714D01*
X0197595Y0056312D02*
X0197595Y0056312D01*
X0197595Y0057911D02*
X0197595Y0057911D01*
X0195628Y0059183D02*
X0199563Y0059183D01*
X0202345Y0061966D01*
X0202345Y0065901D01*
X0199563Y0068683D01*
X0195628Y0068683D01*
X0192845Y0065901D01*
X0192845Y0061966D01*
X0195628Y0059183D01*
X0195301Y0059509D02*
X0189889Y0059509D01*
X0190618Y0057911D02*
X0194572Y0057911D01*
X0192974Y0056312D02*
X0192216Y0056312D01*
X0192545Y0054714D02*
X0192645Y0054714D01*
X0192645Y0053115D02*
X0192545Y0053115D01*
X0192179Y0051517D02*
X0193011Y0051517D01*
X0200581Y0049918D02*
X0204610Y0049918D01*
X0205545Y0048983D02*
X0202645Y0051883D01*
X0202645Y0053933D01*
X0207595Y0053933D01*
X0207595Y0053933D01*
X0207595Y0053933D01*
X0207595Y0048983D01*
X0205545Y0048983D01*
X0207595Y0048983D02*
X0207595Y0053933D01*
X0202645Y0053933D01*
X0202645Y0055983D01*
X0205545Y0058883D01*
X0207595Y0058883D01*
X0207595Y0053933D01*
X0207595Y0053933D01*
X0207595Y0053933D01*
X0212545Y0053933D01*
X0212545Y0051883D01*
X0209645Y0048983D01*
X0207595Y0048983D01*
X0207595Y0049918D02*
X0207595Y0049918D01*
X0207595Y0051517D02*
X0207595Y0051517D01*
X0207595Y0053115D02*
X0207595Y0053115D01*
X0207595Y0053933D02*
X0212545Y0053933D01*
X0212545Y0055983D01*
X0209645Y0058883D01*
X0207595Y0058883D01*
X0207595Y0053933D01*
X0207595Y0054714D02*
X0207595Y0054714D01*
X0207595Y0056312D02*
X0207595Y0056312D01*
X0207595Y0057911D02*
X0207595Y0057911D01*
X0205628Y0059183D02*
X0209563Y0059183D01*
X0212345Y0061966D01*
X0212345Y0065901D01*
X0209563Y0068683D01*
X0205628Y0068683D01*
X0202845Y0065901D01*
X0202845Y0061966D01*
X0205628Y0059183D01*
X0205301Y0059509D02*
X0199889Y0059509D01*
X0200618Y0057911D02*
X0204572Y0057911D01*
X0202974Y0056312D02*
X0202216Y0056312D01*
X0202545Y0054714D02*
X0202645Y0054714D01*
X0202645Y0053115D02*
X0202545Y0053115D01*
X0202179Y0051517D02*
X0203011Y0051517D01*
X0210581Y0049918D02*
X0214610Y0049918D01*
X0215545Y0048983D02*
X0212645Y0051883D01*
X0212645Y0053933D01*
X0217595Y0053933D01*
X0217595Y0053933D01*
X0217595Y0053933D01*
X0217595Y0048983D01*
X0215545Y0048983D01*
X0217595Y0048983D02*
X0217595Y0053933D01*
X0212645Y0053933D01*
X0212645Y0055983D01*
X0215545Y0058883D01*
X0217595Y0058883D01*
X0217595Y0053933D01*
X0217595Y0053933D01*
X0217595Y0053933D01*
X0222545Y0053933D01*
X0222545Y0051883D01*
X0219645Y0048983D01*
X0217595Y0048983D01*
X0217595Y0049918D02*
X0217595Y0049918D01*
X0217595Y0051517D02*
X0217595Y0051517D01*
X0217595Y0053115D02*
X0217595Y0053115D01*
X0217595Y0053933D02*
X0222545Y0053933D01*
X0222545Y0055983D01*
X0219645Y0058883D01*
X0217595Y0058883D01*
X0217595Y0053933D01*
X0217595Y0054714D02*
X0217595Y0054714D01*
X0217595Y0056312D02*
X0217595Y0056312D01*
X0217595Y0057911D02*
X0217595Y0057911D01*
X0215628Y0059183D02*
X0219563Y0059183D01*
X0222345Y0061966D01*
X0222345Y0065901D01*
X0219563Y0068683D01*
X0215628Y0068683D01*
X0212845Y0065901D01*
X0212845Y0061966D01*
X0215628Y0059183D01*
X0215301Y0059509D02*
X0209889Y0059509D01*
X0210618Y0057911D02*
X0214572Y0057911D01*
X0212974Y0056312D02*
X0212216Y0056312D01*
X0212545Y0054714D02*
X0212645Y0054714D01*
X0212645Y0053115D02*
X0212545Y0053115D01*
X0212179Y0051517D02*
X0213011Y0051517D01*
X0220581Y0049918D02*
X0224610Y0049918D01*
X0225545Y0048983D02*
X0222645Y0051883D01*
X0222645Y0053933D01*
X0227595Y0053933D01*
X0227595Y0053933D01*
X0227595Y0053933D01*
X0227595Y0048983D01*
X0225545Y0048983D01*
X0227595Y0048983D02*
X0229645Y0048983D01*
X0232545Y0051883D01*
X0232545Y0053933D01*
X0227595Y0053933D01*
X0222645Y0053933D01*
X0222645Y0055983D01*
X0225545Y0058883D01*
X0227595Y0058883D01*
X0227595Y0053933D01*
X0227595Y0048983D01*
X0227595Y0049918D02*
X0227595Y0049918D01*
X0227595Y0051517D02*
X0227595Y0051517D01*
X0227595Y0053115D02*
X0227595Y0053115D01*
X0227595Y0053933D02*
X0227595Y0053933D01*
X0227595Y0053933D01*
X0227595Y0058883D01*
X0229645Y0058883D01*
X0232545Y0055983D01*
X0232545Y0053933D01*
X0227595Y0053933D01*
X0227595Y0054714D02*
X0227595Y0054714D01*
X0227595Y0056312D02*
X0227595Y0056312D01*
X0227595Y0057911D02*
X0227595Y0057911D01*
X0225628Y0059183D02*
X0229563Y0059183D01*
X0232345Y0061966D01*
X0232345Y0065901D01*
X0229563Y0068683D01*
X0225628Y0068683D01*
X0222845Y0065901D01*
X0222845Y0061966D01*
X0225628Y0059183D01*
X0225301Y0059509D02*
X0219889Y0059509D01*
X0220618Y0057911D02*
X0224572Y0057911D01*
X0222974Y0056312D02*
X0222216Y0056312D01*
X0222545Y0054714D02*
X0222645Y0054714D01*
X0222645Y0053115D02*
X0222545Y0053115D01*
X0222179Y0051517D02*
X0223011Y0051517D01*
X0230581Y0049918D02*
X0234610Y0049918D01*
X0235545Y0048983D02*
X0232645Y0051883D01*
X0232645Y0053933D01*
X0237595Y0053933D01*
X0237595Y0053933D01*
X0237595Y0053933D01*
X0237595Y0048983D01*
X0235545Y0048983D01*
X0237595Y0048983D02*
X0239645Y0048983D01*
X0242545Y0051883D01*
X0242545Y0053933D01*
X0237595Y0053933D01*
X0232645Y0053933D01*
X0232645Y0055983D01*
X0235545Y0058883D01*
X0237595Y0058883D01*
X0237595Y0053933D01*
X0237595Y0048983D01*
X0237595Y0049918D02*
X0237595Y0049918D01*
X0237595Y0051517D02*
X0237595Y0051517D01*
X0237595Y0053115D02*
X0237595Y0053115D01*
X0237595Y0053933D02*
X0237595Y0053933D01*
X0237595Y0053933D01*
X0237595Y0058883D01*
X0239645Y0058883D01*
X0242545Y0055983D01*
X0242545Y0053933D01*
X0237595Y0053933D01*
X0237595Y0054714D02*
X0237595Y0054714D01*
X0237595Y0056312D02*
X0237595Y0056312D01*
X0237595Y0057911D02*
X0237595Y0057911D01*
X0235628Y0059183D02*
X0239563Y0059183D01*
X0242345Y0061966D01*
X0242345Y0065901D01*
X0239563Y0068683D01*
X0235628Y0068683D01*
X0232845Y0065901D01*
X0232845Y0061966D01*
X0235628Y0059183D01*
X0235301Y0059509D02*
X0229889Y0059509D01*
X0230618Y0057911D02*
X0234572Y0057911D01*
X0232974Y0056312D02*
X0232216Y0056312D01*
X0232545Y0054714D02*
X0232645Y0054714D01*
X0232645Y0053115D02*
X0232545Y0053115D01*
X0232179Y0051517D02*
X0233011Y0051517D01*
X0240581Y0049918D02*
X0247881Y0049918D01*
X0247881Y0051517D02*
X0242179Y0051517D01*
X0242545Y0053115D02*
X0247881Y0053115D01*
X0247881Y0054714D02*
X0242545Y0054714D01*
X0242216Y0056312D02*
X0247881Y0056312D01*
X0247881Y0057911D02*
X0240618Y0057911D01*
X0239889Y0059509D02*
X0247881Y0059509D01*
X0247881Y0061108D02*
X0241487Y0061108D01*
X0242345Y0062706D02*
X0247881Y0062706D01*
X0247881Y0064305D02*
X0242345Y0064305D01*
X0242342Y0065903D02*
X0247881Y0065903D01*
X0247881Y0067502D02*
X0240744Y0067502D01*
X0247881Y0069100D02*
X0231207Y0069100D01*
X0231469Y0069209D02*
X0232060Y0069800D01*
X0232791Y0070531D01*
X0233187Y0071487D01*
X0233187Y0075080D01*
X0232791Y0076035D01*
X0231902Y0076925D01*
X0233950Y0078973D01*
X0234681Y0079704D01*
X0235077Y0080660D01*
X0235077Y0092723D01*
X0235128Y0092969D01*
X0235077Y0093235D01*
X0235077Y0093505D01*
X0234981Y0093738D01*
X0234750Y0094945D01*
X0235568Y0095764D01*
X0236314Y0097565D01*
X0236314Y0099514D01*
X0235568Y0101315D01*
X0234190Y0102693D01*
X0232389Y0103439D01*
X0231766Y0103439D01*
X0225195Y0110010D01*
X0225195Y0118132D01*
X0227333Y0120270D01*
X0228190Y0120270D01*
X0227874Y0119506D01*
X0227874Y0117769D01*
X0228539Y0116164D01*
X0229767Y0114936D01*
X0231372Y0114271D01*
X0233109Y0114271D01*
X0234714Y0114936D01*
X0235943Y0116164D01*
X0236608Y0117769D01*
X0236608Y0119506D01*
X0236122Y0120680D01*
X0237156Y0120680D01*
X0238093Y0121617D01*
X0238093Y0131687D01*
X0238170Y0131821D01*
X0238293Y0132279D01*
X0238293Y0133303D01*
X0233048Y0133303D01*
X0233048Y0133303D01*
X0238293Y0133303D01*
X0238293Y0134328D01*
X0238170Y0134785D01*
X0237933Y0135196D01*
X0237598Y0135531D01*
X0237188Y0135768D01*
X0236730Y0135891D01*
X0236205Y0135891D01*
X0236608Y0136864D01*
X0236608Y0138601D01*
X0235943Y0140206D01*
X0234714Y0141434D01*
X0233109Y0142099D01*
X0231372Y0142099D01*
X0229767Y0141434D01*
X0228539Y0140206D01*
X0227874Y0138601D01*
X0227874Y0136864D01*
X0228447Y0135480D01*
X0228163Y0135196D01*
X0227926Y0134785D01*
X0227803Y0134328D01*
X0227803Y0133303D01*
X0227803Y0132279D01*
X0227926Y0131821D01*
X0228003Y0131687D01*
X0228003Y0125470D01*
X0225779Y0125470D01*
X0224823Y0125074D01*
X0224615Y0124866D01*
X0224548Y0124838D01*
X0223816Y0124107D01*
X0223816Y0124107D01*
X0220391Y0120681D01*
X0219995Y0119726D01*
X0219995Y0108416D01*
X0220391Y0107460D01*
X0227048Y0100803D01*
X0226514Y0099514D01*
X0226514Y0097565D01*
X0227260Y0095764D01*
X0228638Y0094385D01*
X0229642Y0093970D01*
X0229877Y0092741D01*
X0229877Y0082254D01*
X0229037Y0081415D01*
X0229018Y0081415D01*
X0229018Y0081840D01*
X0228081Y0082777D01*
X0224590Y0082777D01*
X0224559Y0082746D01*
X0224373Y0082854D01*
X0223915Y0082977D01*
X0222595Y0082977D01*
X0221275Y0082977D01*
X0220818Y0082854D01*
X0220631Y0082746D01*
X0220600Y0082777D01*
X0217110Y0082777D01*
X0216172Y0081840D01*
X0216172Y0076069D01*
X0213721Y0073618D01*
X0212989Y0072886D01*
X0212594Y0071931D01*
X0212594Y0070896D01*
X0212989Y0069941D01*
X0213721Y0069209D01*
X0214676Y0068813D01*
X0230514Y0068813D01*
X0231469Y0069209D01*
X0230744Y0067502D02*
X0234446Y0067502D01*
X0232848Y0065903D02*
X0232342Y0065903D01*
X0232345Y0064305D02*
X0232845Y0064305D01*
X0232845Y0062706D02*
X0232345Y0062706D01*
X0231487Y0061108D02*
X0233703Y0061108D01*
X0232861Y0070699D02*
X0247881Y0070699D01*
X0247881Y0072297D02*
X0233187Y0072297D01*
X0233187Y0073896D02*
X0247881Y0073896D01*
X0247881Y0075494D02*
X0233016Y0075494D01*
X0232070Y0077093D02*
X0247881Y0077093D01*
X0247881Y0078691D02*
X0233668Y0078691D01*
X0233950Y0078973D02*
X0233950Y0078973D01*
X0234924Y0080290D02*
X0247881Y0080290D01*
X0247881Y0081888D02*
X0235077Y0081888D01*
X0235077Y0083487D02*
X0247881Y0083487D01*
X0247881Y0085085D02*
X0235077Y0085085D01*
X0235077Y0086684D02*
X0247881Y0086684D01*
X0247881Y0088282D02*
X0235077Y0088282D01*
X0235077Y0089881D02*
X0247881Y0089881D01*
X0247881Y0091479D02*
X0235077Y0091479D01*
X0235107Y0093078D02*
X0247881Y0093078D01*
X0247881Y0094677D02*
X0234801Y0094677D01*
X0235780Y0096275D02*
X0247881Y0096275D01*
X0247881Y0097874D02*
X0236314Y0097874D01*
X0236314Y0099472D02*
X0247881Y0099472D01*
X0247881Y0101071D02*
X0235669Y0101071D01*
X0234214Y0102669D02*
X0247881Y0102669D01*
X0247881Y0104268D02*
X0230938Y0104268D01*
X0229339Y0105866D02*
X0247881Y0105866D01*
X0247881Y0107465D02*
X0227741Y0107465D01*
X0226142Y0109063D02*
X0247881Y0109063D01*
X0247881Y0110662D02*
X0225195Y0110662D01*
X0225195Y0112260D02*
X0239230Y0112260D01*
X0238633Y0113859D02*
X0225195Y0113859D01*
X0225195Y0115457D02*
X0229246Y0115457D01*
X0228169Y0117056D02*
X0225195Y0117056D01*
X0225718Y0118654D02*
X0227874Y0118654D01*
X0228183Y0120253D02*
X0227316Y0120253D01*
X0223159Y0123450D02*
X0202345Y0123450D01*
X0202345Y0121966D02*
X0199563Y0119183D01*
X0195628Y0119183D01*
X0192845Y0121966D01*
X0192845Y0125901D01*
X0195628Y0128683D01*
X0199563Y0128683D01*
X0202345Y0125901D01*
X0202345Y0121966D01*
X0202231Y0121851D02*
X0221561Y0121851D01*
X0220213Y0120253D02*
X0200632Y0120253D01*
X0199563Y0118683D02*
X0202345Y0115901D01*
X0202345Y0111966D01*
X0199563Y0109183D01*
X0195628Y0109183D01*
X0192845Y0111966D01*
X0192845Y0115901D01*
X0195628Y0118683D01*
X0199563Y0118683D01*
X0199592Y0118654D02*
X0219995Y0118654D01*
X0219995Y0117056D02*
X0201190Y0117056D01*
X0202345Y0115457D02*
X0219995Y0115457D01*
X0219995Y0113859D02*
X0202345Y0113859D01*
X0202345Y0112260D02*
X0219995Y0112260D01*
X0219995Y0110662D02*
X0201041Y0110662D01*
X0194149Y0110662D02*
X0191041Y0110662D01*
X0192345Y0111966D02*
X0189563Y0109183D01*
X0185628Y0109183D01*
X0182845Y0111966D01*
X0182845Y0115901D01*
X0185628Y0118683D01*
X0189563Y0118683D01*
X0192345Y0115901D01*
X0192345Y0111966D01*
X0192345Y0112260D02*
X0192845Y0112260D01*
X0192845Y0113859D02*
X0192345Y0113859D01*
X0192345Y0115457D02*
X0192845Y0115457D01*
X0194000Y0117056D02*
X0191190Y0117056D01*
X0189592Y0118654D02*
X0195599Y0118654D01*
X0194558Y0120253D02*
X0190632Y0120253D01*
X0189563Y0119183D02*
X0192345Y0121966D01*
X0192345Y0125901D01*
X0189563Y0128683D01*
X0185628Y0128683D01*
X0182845Y0125901D01*
X0182845Y0121966D01*
X0185628Y0119183D01*
X0189563Y0119183D01*
X0192231Y0121851D02*
X0192959Y0121851D01*
X0192845Y0123450D02*
X0192345Y0123450D01*
X0192345Y0125048D02*
X0192845Y0125048D01*
X0193591Y0126647D02*
X0191599Y0126647D01*
X0190000Y0128245D02*
X0195190Y0128245D01*
X0195628Y0129183D02*
X0199563Y0129183D01*
X0202345Y0131966D01*
X0202345Y0135901D01*
X0199563Y0138683D01*
X0195628Y0138683D01*
X0192845Y0135901D01*
X0192845Y0131966D01*
X0195628Y0129183D01*
X0194967Y0129844D02*
X0190223Y0129844D01*
X0189563Y0129183D02*
X0192345Y0131966D01*
X0192345Y0135901D01*
X0189563Y0138683D01*
X0185628Y0138683D01*
X0182845Y0135901D01*
X0182845Y0131966D01*
X0185628Y0129183D01*
X0189563Y0129183D01*
X0191822Y0131442D02*
X0193368Y0131442D01*
X0192845Y0133041D02*
X0192345Y0133041D01*
X0192345Y0134639D02*
X0192845Y0134639D01*
X0193182Y0136238D02*
X0192008Y0136238D01*
X0190409Y0137836D02*
X0194781Y0137836D01*
X0195628Y0139183D02*
X0199563Y0139183D01*
X0202345Y0141966D01*
X0202345Y0145901D01*
X0199563Y0148683D01*
X0195628Y0148683D01*
X0192845Y0145901D01*
X0192845Y0141966D01*
X0195628Y0139183D01*
X0195376Y0139435D02*
X0189814Y0139435D01*
X0189563Y0139183D02*
X0192345Y0141966D01*
X0192345Y0145901D01*
X0189563Y0148683D01*
X0185628Y0148683D01*
X0182845Y0145901D01*
X0182845Y0141966D01*
X0185628Y0139183D01*
X0189563Y0139183D01*
X0191413Y0141033D02*
X0193777Y0141033D01*
X0192845Y0142632D02*
X0192345Y0142632D01*
X0192345Y0144230D02*
X0192845Y0144230D01*
X0192845Y0145829D02*
X0192345Y0145829D01*
X0190818Y0147427D02*
X0194372Y0147427D01*
X0200818Y0147427D02*
X0247881Y0147427D01*
X0247881Y0145829D02*
X0202345Y0145829D01*
X0202345Y0144230D02*
X0239350Y0144230D01*
X0238633Y0142632D02*
X0202345Y0142632D01*
X0201413Y0141033D02*
X0229366Y0141033D01*
X0228219Y0139435D02*
X0199814Y0139435D01*
X0200409Y0137836D02*
X0227874Y0137836D01*
X0228133Y0136238D02*
X0202008Y0136238D01*
X0202345Y0134639D02*
X0227887Y0134639D01*
X0227803Y0133303D02*
X0233048Y0133303D01*
X0227803Y0133303D01*
X0227803Y0133041D02*
X0202345Y0133041D01*
X0201822Y0131442D02*
X0228003Y0131442D01*
X0228003Y0129844D02*
X0200223Y0129844D01*
X0200000Y0128245D02*
X0228003Y0128245D01*
X0228003Y0126647D02*
X0201599Y0126647D01*
X0202345Y0125048D02*
X0224797Y0125048D01*
X0233048Y0133303D02*
X0233048Y0133303D01*
X0236348Y0136238D02*
X0238633Y0136238D01*
X0238633Y0137836D02*
X0236608Y0137836D01*
X0236262Y0139435D02*
X0238633Y0139435D01*
X0238633Y0141033D02*
X0235116Y0141033D01*
X0238209Y0134639D02*
X0238633Y0134639D01*
X0238293Y0133041D02*
X0247881Y0133041D01*
X0247881Y0131442D02*
X0238093Y0131442D01*
X0238093Y0129844D02*
X0247881Y0129844D01*
X0247881Y0128245D02*
X0238093Y0128245D01*
X0238093Y0126647D02*
X0247881Y0126647D01*
X0247881Y0125048D02*
X0238093Y0125048D01*
X0238093Y0123450D02*
X0247881Y0123450D01*
X0238633Y0121851D02*
X0238093Y0121851D01*
X0238633Y0120253D02*
X0236299Y0120253D01*
X0236608Y0118654D02*
X0238633Y0118654D01*
X0238633Y0117056D02*
X0236312Y0117056D01*
X0235236Y0115457D02*
X0238633Y0115457D01*
X0225182Y0102669D02*
X0224407Y0102669D01*
X0224087Y0102901D02*
X0223372Y0103266D01*
X0222608Y0103514D01*
X0221815Y0103639D01*
X0221598Y0103639D01*
X0221598Y0098724D01*
X0221230Y0098724D01*
X0221230Y0103639D01*
X0221013Y0103639D01*
X0220220Y0103514D01*
X0219456Y0103266D01*
X0218741Y0102901D01*
X0218092Y0102429D01*
X0217524Y0101862D01*
X0217052Y0101212D01*
X0216688Y0100497D01*
X0216440Y0099734D01*
X0216314Y0098941D01*
X0216314Y0098724D01*
X0221230Y0098724D01*
X0221230Y0098355D01*
X0221598Y0098355D01*
X0221598Y0093439D01*
X0221815Y0093439D01*
X0222608Y0093565D01*
X0223372Y0093813D01*
X0224087Y0094177D01*
X0224736Y0094649D01*
X0225304Y0095217D01*
X0225776Y0095866D01*
X0226140Y0096582D01*
X0226388Y0097345D01*
X0226514Y0098138D01*
X0226514Y0098355D01*
X0221598Y0098355D01*
X0221598Y0098724D01*
X0226514Y0098724D01*
X0226514Y0098941D01*
X0226388Y0099734D01*
X0226140Y0100497D01*
X0225776Y0101212D01*
X0225304Y0101862D01*
X0224736Y0102429D01*
X0224087Y0102901D01*
X0223584Y0104268D02*
X0192345Y0104268D01*
X0192345Y0105866D02*
X0221985Y0105866D01*
X0220389Y0107465D02*
X0190781Y0107465D01*
X0189563Y0108683D02*
X0185628Y0108683D01*
X0182845Y0105901D01*
X0182845Y0101966D01*
X0185628Y0099183D01*
X0189563Y0099183D01*
X0192345Y0101966D01*
X0192345Y0105901D01*
X0189563Y0108683D01*
X0184409Y0107465D02*
X0180781Y0107465D01*
X0179563Y0108683D02*
X0175628Y0108683D01*
X0172845Y0105901D01*
X0172845Y0101966D01*
X0175628Y0099183D01*
X0179563Y0099183D01*
X0182345Y0101966D01*
X0182345Y0105901D01*
X0179563Y0108683D01*
X0179563Y0109183D02*
X0182345Y0111966D01*
X0182345Y0115901D01*
X0179563Y0118683D01*
X0175628Y0118683D01*
X0172845Y0115901D01*
X0172845Y0111966D01*
X0175628Y0109183D01*
X0179563Y0109183D01*
X0181041Y0110662D02*
X0184149Y0110662D01*
X0182845Y0112260D02*
X0182345Y0112260D01*
X0182345Y0113859D02*
X0182845Y0113859D01*
X0182845Y0115457D02*
X0182345Y0115457D01*
X0181190Y0117056D02*
X0184000Y0117056D01*
X0185599Y0118654D02*
X0179592Y0118654D01*
X0179563Y0119183D02*
X0182345Y0121966D01*
X0182345Y0125901D01*
X0179563Y0128683D01*
X0175628Y0128683D01*
X0172845Y0125901D01*
X0172845Y0121966D01*
X0175628Y0119183D01*
X0179563Y0119183D01*
X0180632Y0120253D02*
X0184558Y0120253D01*
X0182959Y0121851D02*
X0182231Y0121851D01*
X0182345Y0123450D02*
X0182845Y0123450D01*
X0182845Y0125048D02*
X0182345Y0125048D01*
X0181599Y0126647D02*
X0183591Y0126647D01*
X0185190Y0128245D02*
X0180000Y0128245D01*
X0179563Y0129183D02*
X0182345Y0131966D01*
X0182345Y0135901D01*
X0179563Y0138683D01*
X0175628Y0138683D01*
X0172845Y0135901D01*
X0172845Y0131966D01*
X0175628Y0129183D01*
X0179563Y0129183D01*
X0180223Y0129844D02*
X0184967Y0129844D01*
X0183368Y0131442D02*
X0181822Y0131442D01*
X0182345Y0133041D02*
X0182845Y0133041D01*
X0182845Y0134639D02*
X0182345Y0134639D01*
X0182008Y0136238D02*
X0183182Y0136238D01*
X0184781Y0137836D02*
X0180409Y0137836D01*
X0179563Y0139183D02*
X0182345Y0141966D01*
X0182345Y0145901D01*
X0179563Y0148683D01*
X0175628Y0148683D01*
X0172845Y0145901D01*
X0172845Y0141966D01*
X0175628Y0139183D01*
X0179563Y0139183D01*
X0179814Y0139435D02*
X0185376Y0139435D01*
X0183777Y0141033D02*
X0181413Y0141033D01*
X0182345Y0142632D02*
X0182845Y0142632D01*
X0182845Y0144230D02*
X0182345Y0144230D01*
X0182345Y0145829D02*
X0182845Y0145829D01*
X0184372Y0147427D02*
X0180818Y0147427D01*
X0174372Y0147427D02*
X0170818Y0147427D01*
X0169563Y0148683D02*
X0165628Y0148683D01*
X0162845Y0145901D01*
X0162845Y0141966D01*
X0165628Y0139183D01*
X0169563Y0139183D01*
X0172345Y0141966D01*
X0172345Y0145901D01*
X0169563Y0148683D01*
X0172345Y0145829D02*
X0172845Y0145829D01*
X0172845Y0144230D02*
X0172345Y0144230D01*
X0172345Y0142632D02*
X0172845Y0142632D01*
X0173777Y0141033D02*
X0171413Y0141033D01*
X0169814Y0139435D02*
X0175376Y0139435D01*
X0174781Y0137836D02*
X0170409Y0137836D01*
X0169563Y0138683D02*
X0165628Y0138683D01*
X0162845Y0135901D01*
X0162845Y0131966D01*
X0165628Y0129183D01*
X0169563Y0129183D01*
X0172345Y0131966D01*
X0172345Y0135901D01*
X0169563Y0138683D01*
X0172008Y0136238D02*
X0173182Y0136238D01*
X0172845Y0134639D02*
X0172345Y0134639D01*
X0172345Y0133041D02*
X0172845Y0133041D01*
X0173368Y0131442D02*
X0171822Y0131442D01*
X0170223Y0129844D02*
X0174967Y0129844D01*
X0175190Y0128245D02*
X0170000Y0128245D01*
X0169563Y0128683D02*
X0165628Y0128683D01*
X0162845Y0125901D01*
X0162845Y0121966D01*
X0165628Y0119183D01*
X0169563Y0119183D01*
X0172345Y0121966D01*
X0172345Y0125901D01*
X0169563Y0128683D01*
X0171599Y0126647D02*
X0173591Y0126647D01*
X0172845Y0125048D02*
X0172345Y0125048D01*
X0172345Y0123450D02*
X0172845Y0123450D01*
X0172959Y0121851D02*
X0172231Y0121851D01*
X0170632Y0120253D02*
X0174558Y0120253D01*
X0175599Y0118654D02*
X0169592Y0118654D01*
X0169563Y0118683D02*
X0165628Y0118683D01*
X0162845Y0115901D01*
X0162845Y0111966D01*
X0165628Y0109183D01*
X0169563Y0109183D01*
X0172345Y0111966D01*
X0172345Y0115901D01*
X0169563Y0118683D01*
X0171190Y0117056D02*
X0174000Y0117056D01*
X0172845Y0115457D02*
X0172345Y0115457D01*
X0172345Y0113859D02*
X0172845Y0113859D01*
X0172845Y0112260D02*
X0172345Y0112260D01*
X0171041Y0110662D02*
X0174149Y0110662D01*
X0174409Y0107465D02*
X0170781Y0107465D01*
X0169563Y0108683D02*
X0165628Y0108683D01*
X0162845Y0105901D01*
X0162845Y0101966D01*
X0165628Y0099183D01*
X0169563Y0099183D01*
X0172345Y0101966D01*
X0172345Y0105901D01*
X0169563Y0108683D01*
X0172345Y0105866D02*
X0172845Y0105866D01*
X0172845Y0104268D02*
X0172345Y0104268D01*
X0172345Y0102669D02*
X0172845Y0102669D01*
X0173740Y0101071D02*
X0171450Y0101071D01*
X0169852Y0099472D02*
X0175339Y0099472D01*
X0175628Y0098683D02*
X0172845Y0095901D01*
X0172845Y0091966D01*
X0175628Y0089183D01*
X0179563Y0089183D01*
X0182345Y0091966D01*
X0182345Y0095901D01*
X0179563Y0098683D01*
X0175628Y0098683D01*
X0174818Y0097874D02*
X0170372Y0097874D01*
X0169563Y0098683D02*
X0165628Y0098683D01*
X0162845Y0095901D01*
X0162845Y0091966D01*
X0165628Y0089183D01*
X0169563Y0089183D01*
X0172345Y0091966D01*
X0172345Y0095901D01*
X0169563Y0098683D01*
X0171971Y0096275D02*
X0173220Y0096275D01*
X0172845Y0094677D02*
X0172345Y0094677D01*
X0172345Y0093078D02*
X0172845Y0093078D01*
X0173331Y0091479D02*
X0171859Y0091479D01*
X0170261Y0089881D02*
X0174930Y0089881D01*
X0175628Y0088683D02*
X0172845Y0085901D01*
X0172845Y0081966D01*
X0175628Y0079183D01*
X0179563Y0079183D01*
X0182345Y0081966D01*
X0182345Y0085901D01*
X0179563Y0088683D01*
X0175628Y0088683D01*
X0175227Y0088282D02*
X0169963Y0088282D01*
X0169563Y0088683D02*
X0165628Y0088683D01*
X0162845Y0085901D01*
X0162845Y0081966D01*
X0165628Y0079183D01*
X0169563Y0079183D01*
X0172345Y0081966D01*
X0172345Y0085901D01*
X0169563Y0088683D01*
X0171562Y0086684D02*
X0173629Y0086684D01*
X0172845Y0085085D02*
X0172345Y0085085D01*
X0172345Y0083487D02*
X0172845Y0083487D01*
X0172922Y0081888D02*
X0172268Y0081888D01*
X0170669Y0080290D02*
X0174521Y0080290D01*
X0180669Y0080290D02*
X0216172Y0080290D01*
X0216172Y0078691D02*
X0040695Y0078691D01*
X0040695Y0077093D02*
X0045866Y0077093D01*
X0045567Y0076969D02*
X0044559Y0075962D01*
X0044014Y0074645D01*
X0044014Y0073221D01*
X0044559Y0071905D01*
X0045567Y0070897D01*
X0046883Y0070352D01*
X0048307Y0070352D01*
X0049624Y0070897D01*
X0050631Y0071905D01*
X0051176Y0073221D01*
X0051176Y0074645D01*
X0050631Y0075962D01*
X0049624Y0076969D01*
X0048307Y0077514D01*
X0046883Y0077514D01*
X0045567Y0076969D01*
X0044366Y0075494D02*
X0040695Y0075494D01*
X0040695Y0073896D02*
X0044014Y0073896D01*
X0044397Y0072297D02*
X0040695Y0072297D01*
X0040695Y0070699D02*
X0046045Y0070699D01*
X0049145Y0070699D02*
X0186045Y0070699D01*
X0185567Y0070897D02*
X0186883Y0070352D01*
X0188307Y0070352D01*
X0189624Y0070897D01*
X0190631Y0071905D01*
X0191176Y0073221D01*
X0191176Y0074645D01*
X0190631Y0075962D01*
X0189624Y0076969D01*
X0188307Y0077514D01*
X0186883Y0077514D01*
X0185567Y0076969D01*
X0184559Y0075962D01*
X0184014Y0074645D01*
X0184014Y0073221D01*
X0184559Y0071905D01*
X0185567Y0070897D01*
X0184397Y0072297D02*
X0050794Y0072297D01*
X0051176Y0073896D02*
X0184014Y0073896D01*
X0184366Y0075494D02*
X0050825Y0075494D01*
X0049325Y0077093D02*
X0185866Y0077093D01*
X0189325Y0077093D02*
X0216172Y0077093D01*
X0215598Y0075494D02*
X0190825Y0075494D01*
X0191176Y0073896D02*
X0213999Y0073896D01*
X0212745Y0072297D02*
X0190794Y0072297D01*
X0189145Y0070699D02*
X0212675Y0070699D01*
X0213984Y0069100D02*
X0040695Y0069100D01*
X0040695Y0067502D02*
X0054446Y0067502D01*
X0052848Y0065903D02*
X0040695Y0065903D01*
X0040695Y0064305D02*
X0052845Y0064305D01*
X0052845Y0062706D02*
X0040695Y0062706D01*
X0040695Y0061108D02*
X0053703Y0061108D01*
X0060744Y0067502D02*
X0064446Y0067502D01*
X0062848Y0065903D02*
X0062342Y0065903D01*
X0062345Y0064305D02*
X0062845Y0064305D01*
X0062845Y0062706D02*
X0062345Y0062706D01*
X0061487Y0061108D02*
X0063703Y0061108D01*
X0071487Y0061108D02*
X0073703Y0061108D01*
X0072845Y0062706D02*
X0072345Y0062706D01*
X0072345Y0064305D02*
X0072845Y0064305D01*
X0072848Y0065903D02*
X0072342Y0065903D01*
X0070744Y0067502D02*
X0074446Y0067502D01*
X0080744Y0067502D02*
X0084446Y0067502D01*
X0082848Y0065903D02*
X0082342Y0065903D01*
X0082345Y0064305D02*
X0082845Y0064305D01*
X0082845Y0062706D02*
X0082345Y0062706D01*
X0081487Y0061108D02*
X0083703Y0061108D01*
X0091487Y0061108D02*
X0093703Y0061108D01*
X0092845Y0062706D02*
X0092345Y0062706D01*
X0092345Y0064305D02*
X0092845Y0064305D01*
X0092848Y0065903D02*
X0092342Y0065903D01*
X0090744Y0067502D02*
X0094446Y0067502D01*
X0100744Y0067502D02*
X0104446Y0067502D01*
X0102848Y0065903D02*
X0102342Y0065903D01*
X0102345Y0064305D02*
X0102845Y0064305D01*
X0102845Y0062706D02*
X0102345Y0062706D01*
X0101487Y0061108D02*
X0103703Y0061108D01*
X0111487Y0061108D02*
X0113703Y0061108D01*
X0112845Y0062706D02*
X0112345Y0062706D01*
X0112345Y0064305D02*
X0112845Y0064305D01*
X0112848Y0065903D02*
X0112342Y0065903D01*
X0110744Y0067502D02*
X0114446Y0067502D01*
X0120744Y0067502D02*
X0124446Y0067502D01*
X0122848Y0065903D02*
X0122342Y0065903D01*
X0122345Y0064305D02*
X0122845Y0064305D01*
X0122845Y0062706D02*
X0122345Y0062706D01*
X0121487Y0061108D02*
X0123703Y0061108D01*
X0131487Y0061108D02*
X0133703Y0061108D01*
X0132845Y0062706D02*
X0132345Y0062706D01*
X0132345Y0064305D02*
X0132845Y0064305D01*
X0132848Y0065903D02*
X0132342Y0065903D01*
X0130744Y0067502D02*
X0134446Y0067502D01*
X0140744Y0067502D02*
X0144446Y0067502D01*
X0142848Y0065903D02*
X0142342Y0065903D01*
X0142345Y0064305D02*
X0142845Y0064305D01*
X0142845Y0062706D02*
X0142345Y0062706D01*
X0141487Y0061108D02*
X0143703Y0061108D01*
X0150744Y0067502D02*
X0154446Y0067502D01*
X0152848Y0065903D02*
X0152342Y0065903D01*
X0152345Y0064305D02*
X0152845Y0064305D01*
X0152845Y0062706D02*
X0152345Y0062706D01*
X0151487Y0061108D02*
X0153703Y0061108D01*
X0160744Y0067502D02*
X0164446Y0067502D01*
X0162848Y0065903D02*
X0162342Y0065903D01*
X0162345Y0064305D02*
X0162845Y0064305D01*
X0162845Y0062706D02*
X0162345Y0062706D01*
X0161487Y0061108D02*
X0163703Y0061108D01*
X0170744Y0067502D02*
X0174446Y0067502D01*
X0172848Y0065903D02*
X0172342Y0065903D01*
X0172345Y0064305D02*
X0172845Y0064305D01*
X0172845Y0062706D02*
X0172345Y0062706D01*
X0171487Y0061108D02*
X0173703Y0061108D01*
X0181487Y0061108D02*
X0183703Y0061108D01*
X0182845Y0062706D02*
X0182345Y0062706D01*
X0182345Y0064305D02*
X0182845Y0064305D01*
X0182848Y0065903D02*
X0182342Y0065903D01*
X0180744Y0067502D02*
X0184446Y0067502D01*
X0190744Y0067502D02*
X0194446Y0067502D01*
X0192848Y0065903D02*
X0192342Y0065903D01*
X0192345Y0064305D02*
X0192845Y0064305D01*
X0192845Y0062706D02*
X0192345Y0062706D01*
X0191487Y0061108D02*
X0193703Y0061108D01*
X0201487Y0061108D02*
X0203703Y0061108D01*
X0202845Y0062706D02*
X0202345Y0062706D01*
X0202345Y0064305D02*
X0202845Y0064305D01*
X0202848Y0065903D02*
X0202342Y0065903D01*
X0200744Y0067502D02*
X0204446Y0067502D01*
X0210744Y0067502D02*
X0214446Y0067502D01*
X0212848Y0065903D02*
X0212342Y0065903D01*
X0212345Y0064305D02*
X0212845Y0064305D01*
X0212845Y0062706D02*
X0212345Y0062706D01*
X0211487Y0061108D02*
X0213703Y0061108D01*
X0221487Y0061108D02*
X0223703Y0061108D01*
X0222845Y0062706D02*
X0222345Y0062706D01*
X0222345Y0064305D02*
X0222845Y0064305D01*
X0222848Y0065903D02*
X0222342Y0065903D01*
X0220744Y0067502D02*
X0224446Y0067502D01*
X0223915Y0074652D02*
X0222595Y0074652D01*
X0222595Y0078814D01*
X0222595Y0078814D01*
X0222595Y0074652D01*
X0221455Y0074652D01*
X0221455Y0074558D01*
X0221230Y0074013D01*
X0227460Y0074013D01*
X0226621Y0074852D01*
X0224590Y0074852D01*
X0224559Y0074883D01*
X0224373Y0074775D01*
X0223915Y0074652D01*
X0222595Y0075494D02*
X0222595Y0075494D01*
X0222595Y0077093D02*
X0222595Y0077093D01*
X0222595Y0078691D02*
X0222595Y0078691D01*
X0222595Y0078815D02*
X0222595Y0082977D01*
X0222595Y0078815D01*
X0222595Y0078815D01*
X0222595Y0080290D02*
X0222595Y0080290D01*
X0222595Y0081888D02*
X0222595Y0081888D01*
X0220600Y0085089D02*
X0221538Y0086027D01*
X0221538Y0092077D01*
X0220600Y0093014D01*
X0218336Y0093014D01*
X0214294Y0094489D01*
X0215568Y0095764D01*
X0216314Y0097565D01*
X0216314Y0099514D01*
X0215568Y0101315D01*
X0214190Y0102693D01*
X0212389Y0103439D01*
X0210439Y0103439D01*
X0208638Y0102693D01*
X0207260Y0101315D01*
X0206514Y0099514D01*
X0206514Y0097565D01*
X0207260Y0095764D01*
X0208384Y0094639D01*
X0208272Y0093580D01*
X0208204Y0093394D01*
X0208218Y0093071D01*
X0208183Y0092749D01*
X0208239Y0092559D01*
X0208248Y0092360D01*
X0208384Y0092067D01*
X0208476Y0091757D01*
X0208601Y0091603D01*
X0208684Y0091423D01*
X0208923Y0091204D01*
X0209126Y0090952D01*
X0209300Y0090857D01*
X0209446Y0090723D01*
X0209750Y0090612D01*
X0210034Y0090457D01*
X0210231Y0090437D01*
X0216172Y0088268D01*
X0216172Y0086027D01*
X0217110Y0085089D01*
X0220600Y0085089D01*
X0221538Y0086684D02*
X0223653Y0086684D01*
X0223653Y0086027D02*
X0224590Y0085089D01*
X0228081Y0085089D01*
X0229018Y0086027D01*
X0229018Y0092077D01*
X0228081Y0093014D01*
X0224590Y0093014D01*
X0223653Y0092077D01*
X0223653Y0086027D01*
X0223653Y0088282D02*
X0221538Y0088282D01*
X0221538Y0089881D02*
X0223653Y0089881D01*
X0223653Y0091479D02*
X0221538Y0091479D01*
X0221230Y0093439D02*
X0221230Y0098355D01*
X0216314Y0098355D01*
X0216314Y0098138D01*
X0216440Y0097345D01*
X0216688Y0096582D01*
X0217052Y0095866D01*
X0217524Y0095217D01*
X0218092Y0094649D01*
X0218741Y0094177D01*
X0219456Y0093813D01*
X0220220Y0093565D01*
X0221013Y0093439D01*
X0221230Y0093439D01*
X0221230Y0094677D02*
X0221598Y0094677D01*
X0221598Y0096275D02*
X0221230Y0096275D01*
X0221230Y0097874D02*
X0221598Y0097874D01*
X0221598Y0099472D02*
X0221230Y0099472D01*
X0221230Y0101071D02*
X0221598Y0101071D01*
X0221598Y0102669D02*
X0221230Y0102669D01*
X0218421Y0102669D02*
X0214214Y0102669D01*
X0215669Y0101071D02*
X0216980Y0101071D01*
X0216398Y0099472D02*
X0216314Y0099472D01*
X0216314Y0097874D02*
X0216356Y0097874D01*
X0216844Y0096275D02*
X0215780Y0096275D01*
X0214481Y0094677D02*
X0218064Y0094677D01*
X0218160Y0093078D02*
X0229813Y0093078D01*
X0229877Y0091479D02*
X0229018Y0091479D01*
X0229018Y0089881D02*
X0229877Y0089881D01*
X0229877Y0088282D02*
X0229018Y0088282D01*
X0229018Y0086684D02*
X0229877Y0086684D01*
X0229877Y0085085D02*
X0182345Y0085085D01*
X0182345Y0083487D02*
X0229877Y0083487D01*
X0229511Y0081888D02*
X0228969Y0081888D01*
X0228347Y0094677D02*
X0224764Y0094677D01*
X0225984Y0096275D02*
X0227048Y0096275D01*
X0226514Y0097874D02*
X0226472Y0097874D01*
X0226430Y0099472D02*
X0226514Y0099472D01*
X0226781Y0101071D02*
X0225848Y0101071D01*
X0219995Y0109063D02*
X0040695Y0109063D01*
X0040695Y0107465D02*
X0054409Y0107465D01*
X0055628Y0108683D02*
X0052845Y0105901D01*
X0052845Y0101966D01*
X0055628Y0099183D01*
X0059563Y0099183D01*
X0062345Y0101966D01*
X0062345Y0105901D01*
X0059563Y0108683D01*
X0055628Y0108683D01*
X0055628Y0109183D02*
X0052845Y0111966D01*
X0052845Y0115901D01*
X0055628Y0118683D01*
X0059563Y0118683D01*
X0062345Y0115901D01*
X0062345Y0111966D01*
X0059563Y0109183D01*
X0055628Y0109183D01*
X0054149Y0110662D02*
X0040695Y0110662D01*
X0040695Y0112260D02*
X0052845Y0112260D01*
X0052845Y0113859D02*
X0040695Y0113859D01*
X0040695Y0115457D02*
X0052845Y0115457D01*
X0054000Y0117056D02*
X0040695Y0117056D01*
X0040695Y0118654D02*
X0055599Y0118654D01*
X0055628Y0119183D02*
X0059563Y0119183D01*
X0062345Y0121966D01*
X0062345Y0125901D01*
X0059563Y0128683D01*
X0055628Y0128683D01*
X0052845Y0125901D01*
X0052845Y0121966D01*
X0055628Y0119183D01*
X0054558Y0120253D02*
X0040695Y0120253D01*
X0040695Y0121851D02*
X0052959Y0121851D01*
X0052845Y0123450D02*
X0040695Y0123450D01*
X0040695Y0125048D02*
X0052845Y0125048D01*
X0053591Y0126647D02*
X0040695Y0126647D01*
X0040695Y0128245D02*
X0055190Y0128245D01*
X0055628Y0129183D02*
X0059563Y0129183D01*
X0062345Y0131966D01*
X0062345Y0135901D01*
X0059563Y0138683D01*
X0055628Y0138683D01*
X0052845Y0135901D01*
X0052845Y0131966D01*
X0055628Y0129183D01*
X0054967Y0129844D02*
X0040695Y0129844D01*
X0040695Y0131442D02*
X0053368Y0131442D01*
X0052845Y0133041D02*
X0040695Y0133041D01*
X0040695Y0134639D02*
X0052845Y0134639D01*
X0053182Y0136238D02*
X0040695Y0136238D01*
X0040695Y0137836D02*
X0054781Y0137836D01*
X0055628Y0139183D02*
X0059563Y0139183D01*
X0062345Y0141966D01*
X0062345Y0145901D01*
X0059563Y0148683D01*
X0055628Y0148683D01*
X0052845Y0145901D01*
X0052845Y0141966D01*
X0055628Y0139183D01*
X0055376Y0139435D02*
X0040695Y0139435D01*
X0040695Y0141033D02*
X0053777Y0141033D01*
X0052845Y0142632D02*
X0040695Y0142632D01*
X0040695Y0144230D02*
X0052845Y0144230D01*
X0052845Y0145829D02*
X0040695Y0145829D01*
X0040695Y0147427D02*
X0054372Y0147427D01*
X0050631Y0151905D02*
X0051176Y0153221D01*
X0051176Y0154645D01*
X0050631Y0155962D01*
X0049624Y0156969D01*
X0048307Y0157514D01*
X0046883Y0157514D01*
X0045567Y0156969D01*
X0044559Y0155962D01*
X0044014Y0154645D01*
X0044014Y0153221D01*
X0044559Y0151905D01*
X0045567Y0150897D01*
X0046883Y0150352D01*
X0048307Y0150352D01*
X0049624Y0150897D01*
X0050631Y0151905D01*
X0050763Y0152223D02*
X0247881Y0152223D01*
X0247881Y0153821D02*
X0051176Y0153821D01*
X0050855Y0155420D02*
X0241719Y0155420D01*
X0241883Y0155352D02*
X0243307Y0155352D01*
X0244624Y0155897D01*
X0245631Y0156905D01*
X0246176Y0158221D01*
X0246176Y0159645D01*
X0245631Y0160962D01*
X0244624Y0161969D01*
X0243307Y0162514D01*
X0241883Y0162514D01*
X0240567Y0161969D01*
X0239559Y0160962D01*
X0239014Y0159645D01*
X0239014Y0158221D01*
X0239559Y0156905D01*
X0240567Y0155897D01*
X0241883Y0155352D01*
X0243472Y0155420D02*
X0247881Y0155420D01*
X0247881Y0157018D02*
X0245678Y0157018D01*
X0246176Y0158617D02*
X0247881Y0158617D01*
X0247881Y0160215D02*
X0245940Y0160215D01*
X0244779Y0161814D02*
X0247881Y0161814D01*
X0247881Y0163412D02*
X0232345Y0163412D01*
X0232345Y0161966D02*
X0229563Y0159183D01*
X0225628Y0159183D01*
X0222845Y0161966D01*
X0222845Y0165901D01*
X0225628Y0168683D01*
X0229563Y0168683D01*
X0232345Y0165901D01*
X0232345Y0161966D01*
X0232194Y0161814D02*
X0240412Y0161814D01*
X0239250Y0160215D02*
X0230595Y0160215D01*
X0232345Y0165011D02*
X0247881Y0165011D01*
X0247881Y0166610D02*
X0231636Y0166610D01*
X0230038Y0168208D02*
X0247881Y0168208D01*
X0247881Y0169807D02*
X0210186Y0169807D01*
X0209563Y0169183D02*
X0212345Y0171966D01*
X0212345Y0175901D01*
X0209563Y0178683D01*
X0205628Y0178683D01*
X0202845Y0175901D01*
X0202845Y0171966D01*
X0205628Y0169183D01*
X0209563Y0169183D01*
X0209563Y0168683D02*
X0205628Y0168683D01*
X0202845Y0165901D01*
X0202845Y0161966D01*
X0205628Y0159183D01*
X0209563Y0159183D01*
X0212345Y0161966D01*
X0212345Y0165901D01*
X0209563Y0168683D01*
X0210038Y0168208D02*
X0215153Y0168208D01*
X0215628Y0168683D02*
X0212845Y0165901D01*
X0212845Y0161966D01*
X0215628Y0159183D01*
X0219563Y0159183D01*
X0222345Y0161966D01*
X0222345Y0165901D01*
X0219563Y0168683D01*
X0215628Y0168683D01*
X0213554Y0166610D02*
X0211636Y0166610D01*
X0212345Y0165011D02*
X0212845Y0165011D01*
X0212845Y0163412D02*
X0212345Y0163412D01*
X0212194Y0161814D02*
X0212997Y0161814D01*
X0214595Y0160215D02*
X0210595Y0160215D01*
X0204595Y0160215D02*
X0200595Y0160215D01*
X0199563Y0159183D02*
X0202345Y0161966D01*
X0202345Y0165901D01*
X0199563Y0168683D01*
X0195628Y0168683D01*
X0192845Y0165901D01*
X0192845Y0161966D01*
X0195628Y0159183D01*
X0199563Y0159183D01*
X0194595Y0160215D02*
X0190595Y0160215D01*
X0189563Y0159183D02*
X0192345Y0161966D01*
X0192345Y0165901D01*
X0189563Y0168683D01*
X0185628Y0168683D01*
X0182845Y0165901D01*
X0182845Y0161966D01*
X0185628Y0159183D01*
X0189563Y0159183D01*
X0192194Y0161814D02*
X0192997Y0161814D01*
X0192845Y0163412D02*
X0192345Y0163412D01*
X0192345Y0165011D02*
X0192845Y0165011D01*
X0193554Y0166610D02*
X0191636Y0166610D01*
X0190038Y0168208D02*
X0195153Y0168208D01*
X0195628Y0169183D02*
X0199563Y0169183D01*
X0202345Y0171966D01*
X0202345Y0175901D01*
X0199563Y0178683D01*
X0195628Y0178683D01*
X0192845Y0175901D01*
X0192845Y0171966D01*
X0195628Y0169183D01*
X0195004Y0169807D02*
X0190186Y0169807D01*
X0189563Y0169183D02*
X0192345Y0171966D01*
X0192345Y0175901D01*
X0189563Y0178683D01*
X0185628Y0178683D01*
X0182845Y0175901D01*
X0182845Y0171966D01*
X0185628Y0169183D01*
X0189563Y0169183D01*
X0191785Y0171405D02*
X0193406Y0171405D01*
X0192845Y0173004D02*
X0192345Y0173004D01*
X0192345Y0174602D02*
X0192845Y0174602D01*
X0193145Y0176201D02*
X0192045Y0176201D01*
X0190447Y0177799D02*
X0194744Y0177799D01*
X0195628Y0179183D02*
X0199563Y0179183D01*
X0202345Y0181966D01*
X0202345Y0185901D01*
X0199563Y0188683D01*
X0195628Y0188683D01*
X0192845Y0185901D01*
X0192845Y0181966D01*
X0195628Y0179183D01*
X0195413Y0179398D02*
X0189777Y0179398D01*
X0189563Y0179183D02*
X0192345Y0181966D01*
X0192345Y0185901D01*
X0189563Y0188683D01*
X0185628Y0188683D01*
X0182845Y0185901D01*
X0182845Y0181966D01*
X0185628Y0179183D01*
X0189563Y0179183D01*
X0191376Y0180996D02*
X0193815Y0180996D01*
X0192845Y0182595D02*
X0192345Y0182595D01*
X0192345Y0184193D02*
X0192845Y0184193D01*
X0192845Y0185792D02*
X0192345Y0185792D01*
X0190856Y0187390D02*
X0194335Y0187390D01*
X0195628Y0189183D02*
X0199563Y0189183D01*
X0202345Y0191966D01*
X0202345Y0195901D01*
X0199563Y0198683D01*
X0195628Y0198683D01*
X0192845Y0195901D01*
X0192845Y0191966D01*
X0195628Y0189183D01*
X0194224Y0190587D02*
X0190967Y0190587D01*
X0192345Y0191966D02*
X0189563Y0189183D01*
X0185628Y0189183D01*
X0182845Y0191966D01*
X0182845Y0195901D01*
X0185628Y0198683D01*
X0189563Y0198683D01*
X0192345Y0195901D01*
X0192345Y0191966D01*
X0192345Y0192186D02*
X0192845Y0192186D01*
X0192845Y0193784D02*
X0192345Y0193784D01*
X0192345Y0195383D02*
X0192845Y0195383D01*
X0193926Y0196981D02*
X0191264Y0196981D01*
X0189666Y0198580D02*
X0195524Y0198580D01*
X0195628Y0199183D02*
X0199563Y0199183D01*
X0202345Y0201966D01*
X0202345Y0205901D01*
X0199563Y0208683D01*
X0195628Y0208683D01*
X0192845Y0205901D01*
X0192845Y0201966D01*
X0195628Y0199183D01*
X0194632Y0200178D02*
X0190558Y0200178D01*
X0189563Y0199183D02*
X0192345Y0201966D01*
X0192345Y0205901D01*
X0189563Y0208683D01*
X0185628Y0208683D01*
X0182845Y0205901D01*
X0182845Y0201966D01*
X0185628Y0199183D01*
X0189563Y0199183D01*
X0192156Y0201777D02*
X0193034Y0201777D01*
X0192845Y0203375D02*
X0192345Y0203375D01*
X0192345Y0204974D02*
X0192845Y0204974D01*
X0193517Y0206572D02*
X0191673Y0206572D01*
X0190075Y0208171D02*
X0195115Y0208171D01*
X0195628Y0209183D02*
X0192845Y0211966D01*
X0192845Y0215901D01*
X0195628Y0218683D01*
X0199563Y0218683D01*
X0202345Y0215901D01*
X0202345Y0211966D01*
X0199563Y0209183D01*
X0195628Y0209183D01*
X0195041Y0209769D02*
X0190149Y0209769D01*
X0189563Y0209183D02*
X0192345Y0211966D01*
X0192345Y0215901D01*
X0189563Y0218683D01*
X0185628Y0218683D01*
X0182845Y0215901D01*
X0182845Y0211966D01*
X0185628Y0209183D01*
X0189563Y0209183D01*
X0191747Y0211368D02*
X0193443Y0211368D01*
X0192845Y0212966D02*
X0192345Y0212966D01*
X0192345Y0214565D02*
X0192845Y0214565D01*
X0193108Y0216163D02*
X0192082Y0216163D01*
X0190484Y0217762D02*
X0194706Y0217762D01*
X0195628Y0219183D02*
X0199563Y0219183D01*
X0202345Y0221966D01*
X0202345Y0225901D01*
X0199563Y0228683D01*
X0195628Y0228683D01*
X0192845Y0225901D01*
X0192845Y0221966D01*
X0195628Y0219183D01*
X0195450Y0219360D02*
X0189740Y0219360D01*
X0189563Y0219183D02*
X0192345Y0221966D01*
X0192345Y0225901D01*
X0189563Y0228683D01*
X0185628Y0228683D01*
X0182845Y0225901D01*
X0182845Y0221966D01*
X0185628Y0219183D01*
X0189563Y0219183D01*
X0191338Y0220959D02*
X0193852Y0220959D01*
X0192845Y0222557D02*
X0192345Y0222557D01*
X0192345Y0224156D02*
X0192845Y0224156D01*
X0192845Y0225754D02*
X0192345Y0225754D01*
X0190893Y0227353D02*
X0194298Y0227353D01*
X0195628Y0234183D02*
X0199563Y0234183D01*
X0202345Y0236966D01*
X0202345Y0240901D01*
X0199563Y0243683D01*
X0195628Y0243683D01*
X0192845Y0240901D01*
X0192845Y0236966D01*
X0195628Y0234183D01*
X0194465Y0235345D02*
X0190725Y0235345D01*
X0189563Y0234183D02*
X0192345Y0236966D01*
X0192345Y0240901D01*
X0189563Y0243683D01*
X0185628Y0243683D01*
X0182845Y0240901D01*
X0182845Y0236966D01*
X0185628Y0234183D01*
X0189563Y0234183D01*
X0192324Y0236944D02*
X0192867Y0236944D01*
X0192845Y0238543D02*
X0192345Y0238543D01*
X0192345Y0240141D02*
X0192845Y0240141D01*
X0193684Y0241740D02*
X0191506Y0241740D01*
X0189908Y0243338D02*
X0195283Y0243338D01*
X0195545Y0243983D02*
X0197595Y0243983D01*
X0197595Y0248933D01*
X0192645Y0248933D01*
X0192645Y0246883D01*
X0195545Y0243983D01*
X0194591Y0244937D02*
X0190599Y0244937D01*
X0189645Y0243983D02*
X0192545Y0246883D01*
X0192545Y0248933D01*
X0187595Y0248933D01*
X0182645Y0248933D01*
X0182645Y0246883D01*
X0185545Y0243983D01*
X0187595Y0243983D01*
X0187595Y0248933D01*
X0187595Y0248933D01*
X0187595Y0248933D01*
X0182645Y0248933D01*
X0182645Y0250983D01*
X0185545Y0253883D01*
X0187595Y0253883D01*
X0187595Y0248933D01*
X0187595Y0243983D01*
X0189645Y0243983D01*
X0187595Y0244937D02*
X0187595Y0244937D01*
X0187595Y0246535D02*
X0187595Y0246535D01*
X0187595Y0248134D02*
X0187595Y0248134D01*
X0187595Y0248933D02*
X0187595Y0248933D01*
X0187595Y0248933D01*
X0187595Y0253883D01*
X0189645Y0253883D01*
X0192545Y0250983D01*
X0192545Y0248933D01*
X0187595Y0248933D01*
X0187595Y0249732D02*
X0187595Y0249732D01*
X0187595Y0251331D02*
X0187595Y0251331D01*
X0187595Y0252929D02*
X0187595Y0252929D01*
X0184591Y0252929D02*
X0180599Y0252929D01*
X0179645Y0253883D02*
X0177595Y0253883D01*
X0175545Y0253883D01*
X0172645Y0250983D01*
X0172645Y0248933D01*
X0172645Y0246883D01*
X0175545Y0243983D01*
X0177595Y0243983D01*
X0177595Y0248933D01*
X0172645Y0248933D01*
X0177595Y0248933D01*
X0177595Y0248933D01*
X0177595Y0248933D01*
X0177595Y0243983D01*
X0179645Y0243983D01*
X0182545Y0246883D01*
X0182545Y0248933D01*
X0177595Y0248933D01*
X0177595Y0253883D01*
X0177595Y0248933D01*
X0177595Y0248933D01*
X0177595Y0248933D01*
X0182545Y0248933D01*
X0182545Y0250983D01*
X0179645Y0253883D01*
X0177595Y0252929D02*
X0177595Y0252929D01*
X0177595Y0251331D02*
X0177595Y0251331D01*
X0177595Y0249732D02*
X0177595Y0249732D01*
X0177595Y0248134D02*
X0177595Y0248134D01*
X0177595Y0246535D02*
X0177595Y0246535D01*
X0177595Y0244937D02*
X0177595Y0244937D01*
X0175628Y0243683D02*
X0172845Y0240901D01*
X0172845Y0236966D01*
X0175628Y0234183D01*
X0179563Y0234183D01*
X0182345Y0236966D01*
X0182345Y0240901D01*
X0179563Y0243683D01*
X0175628Y0243683D01*
X0175283Y0243338D02*
X0169908Y0243338D01*
X0169563Y0243683D02*
X0165628Y0243683D01*
X0162845Y0240901D01*
X0162845Y0236966D01*
X0165628Y0234183D01*
X0169563Y0234183D01*
X0172345Y0236966D01*
X0172345Y0240901D01*
X0169563Y0243683D01*
X0169645Y0243983D02*
X0172545Y0246883D01*
X0172545Y0248933D01*
X0167595Y0248933D01*
X0162645Y0248933D01*
X0162645Y0246883D01*
X0165545Y0243983D01*
X0167595Y0243983D01*
X0167595Y0248933D01*
X0167595Y0248933D01*
X0167595Y0248933D01*
X0162645Y0248933D01*
X0162645Y0250983D01*
X0165545Y0253883D01*
X0167595Y0253883D01*
X0167595Y0248933D01*
X0167595Y0243983D01*
X0169645Y0243983D01*
X0170599Y0244937D02*
X0174591Y0244937D01*
X0172993Y0246535D02*
X0172197Y0246535D01*
X0172545Y0248134D02*
X0172645Y0248134D01*
X0172545Y0248933D02*
X0172545Y0250983D01*
X0169645Y0253883D01*
X0167595Y0253883D01*
X0167595Y0248933D01*
X0167595Y0248933D01*
X0167595Y0248933D01*
X0172545Y0248933D01*
X0172545Y0249732D02*
X0172645Y0249732D01*
X0172992Y0251331D02*
X0172198Y0251331D01*
X0170599Y0252929D02*
X0174591Y0252929D01*
X0167595Y0252929D02*
X0167595Y0252929D01*
X0167595Y0251331D02*
X0167595Y0251331D01*
X0167595Y0249732D02*
X0167595Y0249732D01*
X0167595Y0248134D02*
X0167595Y0248134D01*
X0167595Y0246535D02*
X0167595Y0246535D01*
X0167595Y0244937D02*
X0167595Y0244937D01*
X0165283Y0243338D02*
X0159908Y0243338D01*
X0159563Y0243683D02*
X0155628Y0243683D01*
X0152845Y0240901D01*
X0152845Y0236966D01*
X0155628Y0234183D01*
X0159563Y0234183D01*
X0162345Y0236966D01*
X0162345Y0240901D01*
X0159563Y0243683D01*
X0159645Y0243983D02*
X0162545Y0246883D01*
X0162545Y0248933D01*
X0157595Y0248933D01*
X0152645Y0248933D01*
X0152645Y0246883D01*
X0155545Y0243983D01*
X0157595Y0243983D01*
X0157595Y0248933D01*
X0157595Y0248933D01*
X0157595Y0248933D01*
X0152645Y0248933D01*
X0152645Y0250983D01*
X0155545Y0253883D01*
X0157595Y0253883D01*
X0157595Y0248933D01*
X0157595Y0243983D01*
X0159645Y0243983D01*
X0160599Y0244937D02*
X0164591Y0244937D01*
X0162993Y0246535D02*
X0162197Y0246535D01*
X0162545Y0248134D02*
X0162645Y0248134D01*
X0162545Y0248933D02*
X0162545Y0250983D01*
X0159645Y0253883D01*
X0157595Y0253883D01*
X0157595Y0248933D01*
X0157595Y0248933D01*
X0157595Y0248933D01*
X0162545Y0248933D01*
X0162545Y0249732D02*
X0162645Y0249732D01*
X0162992Y0251331D02*
X0162198Y0251331D01*
X0160599Y0252929D02*
X0164591Y0252929D01*
X0157595Y0252929D02*
X0157595Y0252929D01*
X0157595Y0251331D02*
X0157595Y0251331D01*
X0157595Y0249732D02*
X0157595Y0249732D01*
X0157595Y0248134D02*
X0157595Y0248134D01*
X0157595Y0246535D02*
X0157595Y0246535D01*
X0157595Y0244937D02*
X0157595Y0244937D01*
X0155283Y0243338D02*
X0149908Y0243338D01*
X0149563Y0243683D02*
X0145628Y0243683D01*
X0142845Y0240901D01*
X0142845Y0236966D01*
X0145628Y0234183D01*
X0149563Y0234183D01*
X0152345Y0236966D01*
X0152345Y0240901D01*
X0149563Y0243683D01*
X0149645Y0243983D02*
X0152545Y0246883D01*
X0152545Y0248933D01*
X0147595Y0248933D01*
X0142645Y0248933D01*
X0142645Y0246883D01*
X0145545Y0243983D01*
X0147595Y0243983D01*
X0147595Y0248933D01*
X0147595Y0248933D01*
X0147595Y0248933D01*
X0142645Y0248933D01*
X0142645Y0250983D01*
X0145545Y0253883D01*
X0147595Y0253883D01*
X0147595Y0248933D01*
X0147595Y0243983D01*
X0149645Y0243983D01*
X0150599Y0244937D02*
X0154591Y0244937D01*
X0152993Y0246535D02*
X0152197Y0246535D01*
X0152545Y0248134D02*
X0152645Y0248134D01*
X0152545Y0248933D02*
X0152545Y0250983D01*
X0149645Y0253883D01*
X0147595Y0253883D01*
X0147595Y0248933D01*
X0147595Y0248933D01*
X0147595Y0248933D01*
X0152545Y0248933D01*
X0152545Y0249732D02*
X0152645Y0249732D01*
X0152992Y0251331D02*
X0152198Y0251331D01*
X0150599Y0252929D02*
X0154591Y0252929D01*
X0147595Y0252929D02*
X0147595Y0252929D01*
X0147595Y0251331D02*
X0147595Y0251331D01*
X0147595Y0249732D02*
X0147595Y0249732D01*
X0147595Y0248134D02*
X0147595Y0248134D01*
X0147595Y0246535D02*
X0147595Y0246535D01*
X0147595Y0244937D02*
X0147595Y0244937D01*
X0145283Y0243338D02*
X0139908Y0243338D01*
X0139563Y0243683D02*
X0135628Y0243683D01*
X0132845Y0240901D01*
X0132845Y0236966D01*
X0135628Y0234183D01*
X0139563Y0234183D01*
X0142345Y0236966D01*
X0142345Y0240901D01*
X0139563Y0243683D01*
X0139645Y0243983D02*
X0142545Y0246883D01*
X0142545Y0248933D01*
X0137595Y0248933D01*
X0132645Y0248933D01*
X0132645Y0246883D01*
X0135545Y0243983D01*
X0137595Y0243983D01*
X0137595Y0248933D01*
X0137595Y0248933D01*
X0137595Y0248933D01*
X0132645Y0248933D01*
X0132645Y0250983D01*
X0135545Y0253883D01*
X0137595Y0253883D01*
X0137595Y0248933D01*
X0137595Y0243983D01*
X0139645Y0243983D01*
X0140599Y0244937D02*
X0144591Y0244937D01*
X0142993Y0246535D02*
X0142197Y0246535D01*
X0142545Y0248134D02*
X0142645Y0248134D01*
X0142545Y0248933D02*
X0142545Y0250983D01*
X0139645Y0253883D01*
X0137595Y0253883D01*
X0137595Y0248933D01*
X0137595Y0248933D01*
X0137595Y0248933D01*
X0142545Y0248933D01*
X0142545Y0249732D02*
X0142645Y0249732D01*
X0142992Y0251331D02*
X0142198Y0251331D01*
X0140599Y0252929D02*
X0144591Y0252929D01*
X0137595Y0252929D02*
X0137595Y0252929D01*
X0137595Y0251331D02*
X0137595Y0251331D01*
X0137595Y0249732D02*
X0137595Y0249732D01*
X0137595Y0248134D02*
X0137595Y0248134D01*
X0137595Y0246535D02*
X0137595Y0246535D01*
X0137595Y0244937D02*
X0137595Y0244937D01*
X0135283Y0243338D02*
X0129908Y0243338D01*
X0129563Y0243683D02*
X0125628Y0243683D01*
X0122845Y0240901D01*
X0122845Y0236966D01*
X0125628Y0234183D01*
X0129563Y0234183D01*
X0132345Y0236966D01*
X0132345Y0240901D01*
X0129563Y0243683D01*
X0129645Y0243983D02*
X0132545Y0246883D01*
X0132545Y0248933D01*
X0127595Y0248933D01*
X0122645Y0248933D01*
X0122645Y0246883D01*
X0125545Y0243983D01*
X0127595Y0243983D01*
X0127595Y0248933D01*
X0127595Y0248933D01*
X0127595Y0248933D01*
X0122645Y0248933D01*
X0122645Y0250983D01*
X0125545Y0253883D01*
X0127595Y0253883D01*
X0127595Y0248933D01*
X0127595Y0243983D01*
X0129645Y0243983D01*
X0130599Y0244937D02*
X0134591Y0244937D01*
X0132993Y0246535D02*
X0132197Y0246535D01*
X0132545Y0248134D02*
X0132645Y0248134D01*
X0132545Y0248933D02*
X0132545Y0250983D01*
X0129645Y0253883D01*
X0127595Y0253883D01*
X0127595Y0248933D01*
X0127595Y0248933D01*
X0127595Y0248933D01*
X0132545Y0248933D01*
X0132545Y0249732D02*
X0132645Y0249732D01*
X0132992Y0251331D02*
X0132198Y0251331D01*
X0130599Y0252929D02*
X0134591Y0252929D01*
X0127595Y0252929D02*
X0127595Y0252929D01*
X0127595Y0251331D02*
X0127595Y0251331D01*
X0127595Y0249732D02*
X0127595Y0249732D01*
X0127595Y0248134D02*
X0127595Y0248134D01*
X0127595Y0246535D02*
X0127595Y0246535D01*
X0127595Y0244937D02*
X0127595Y0244937D01*
X0125283Y0243338D02*
X0119908Y0243338D01*
X0119563Y0243683D02*
X0115628Y0243683D01*
X0112845Y0240901D01*
X0112845Y0236966D01*
X0115628Y0234183D01*
X0119563Y0234183D01*
X0122345Y0236966D01*
X0122345Y0240901D01*
X0119563Y0243683D01*
X0119645Y0243983D02*
X0122545Y0246883D01*
X0122545Y0248933D01*
X0117595Y0248933D01*
X0112645Y0248933D01*
X0112645Y0246883D01*
X0115545Y0243983D01*
X0117595Y0243983D01*
X0117595Y0248933D01*
X0117595Y0248933D01*
X0117595Y0248933D01*
X0112645Y0248933D01*
X0112645Y0250983D01*
X0115545Y0253883D01*
X0117595Y0253883D01*
X0117595Y0248933D01*
X0117595Y0243983D01*
X0119645Y0243983D01*
X0120599Y0244937D02*
X0124591Y0244937D01*
X0122993Y0246535D02*
X0122197Y0246535D01*
X0122545Y0248134D02*
X0122645Y0248134D01*
X0122545Y0248933D02*
X0122545Y0250983D01*
X0119645Y0253883D01*
X0117595Y0253883D01*
X0117595Y0248933D01*
X0117595Y0248933D01*
X0117595Y0248933D01*
X0122545Y0248933D01*
X0122545Y0249732D02*
X0122645Y0249732D01*
X0122992Y0251331D02*
X0122198Y0251331D01*
X0120599Y0252929D02*
X0124591Y0252929D01*
X0117595Y0252929D02*
X0117595Y0252929D01*
X0117595Y0251331D02*
X0117595Y0251331D01*
X0117595Y0249732D02*
X0117595Y0249732D01*
X0117595Y0248134D02*
X0117595Y0248134D01*
X0117595Y0246535D02*
X0117595Y0246535D01*
X0117595Y0244937D02*
X0117595Y0244937D01*
X0115283Y0243338D02*
X0109908Y0243338D01*
X0109563Y0243683D02*
X0105628Y0243683D01*
X0102845Y0240901D01*
X0102845Y0236966D01*
X0105628Y0234183D01*
X0109563Y0234183D01*
X0112345Y0236966D01*
X0112345Y0240901D01*
X0109563Y0243683D01*
X0109645Y0243983D02*
X0112545Y0246883D01*
X0112545Y0248933D01*
X0107595Y0248933D01*
X0102645Y0248933D01*
X0102645Y0246883D01*
X0105545Y0243983D01*
X0107595Y0243983D01*
X0107595Y0248933D01*
X0107595Y0248933D01*
X0107595Y0248933D01*
X0102645Y0248933D01*
X0102645Y0250983D01*
X0105545Y0253883D01*
X0107595Y0253883D01*
X0107595Y0248933D01*
X0107595Y0243983D01*
X0109645Y0243983D01*
X0110599Y0244937D02*
X0114591Y0244937D01*
X0112993Y0246535D02*
X0112197Y0246535D01*
X0112545Y0248134D02*
X0112645Y0248134D01*
X0112545Y0248933D02*
X0112545Y0250983D01*
X0109645Y0253883D01*
X0107595Y0253883D01*
X0107595Y0248933D01*
X0107595Y0248933D01*
X0107595Y0248933D01*
X0112545Y0248933D01*
X0112545Y0249732D02*
X0112645Y0249732D01*
X0112992Y0251331D02*
X0112198Y0251331D01*
X0110599Y0252929D02*
X0114591Y0252929D01*
X0107595Y0252929D02*
X0107595Y0252929D01*
X0107595Y0251331D02*
X0107595Y0251331D01*
X0107595Y0249732D02*
X0107595Y0249732D01*
X0107595Y0248134D02*
X0107595Y0248134D01*
X0107595Y0246535D02*
X0107595Y0246535D01*
X0107595Y0244937D02*
X0107595Y0244937D01*
X0105283Y0243338D02*
X0099908Y0243338D01*
X0099563Y0243683D02*
X0102345Y0240901D01*
X0102345Y0236966D01*
X0099563Y0234183D01*
X0095628Y0234183D01*
X0092845Y0236966D01*
X0092845Y0240901D01*
X0095628Y0243683D01*
X0099563Y0243683D01*
X0099645Y0243983D02*
X0102545Y0246883D01*
X0102545Y0248933D01*
X0097595Y0248933D01*
X0092645Y0248933D01*
X0092645Y0246883D01*
X0095545Y0243983D01*
X0097595Y0243983D01*
X0097595Y0248933D01*
X0097595Y0248933D01*
X0097595Y0248933D01*
X0092645Y0248933D01*
X0092645Y0250983D01*
X0095545Y0253883D01*
X0097595Y0253883D01*
X0097595Y0248933D01*
X0097595Y0243983D01*
X0099645Y0243983D01*
X0100599Y0244937D02*
X0104591Y0244937D01*
X0102993Y0246535D02*
X0102197Y0246535D01*
X0102545Y0248134D02*
X0102645Y0248134D01*
X0102545Y0248933D02*
X0102545Y0250983D01*
X0099645Y0253883D01*
X0097595Y0253883D01*
X0097595Y0248933D01*
X0097595Y0248933D01*
X0097595Y0248933D01*
X0102545Y0248933D01*
X0102545Y0249732D02*
X0102645Y0249732D01*
X0102992Y0251331D02*
X0102198Y0251331D01*
X0100599Y0252929D02*
X0104591Y0252929D01*
X0097595Y0252929D02*
X0097595Y0252929D01*
X0097595Y0251331D02*
X0097595Y0251331D01*
X0097595Y0249732D02*
X0097595Y0249732D01*
X0097595Y0248134D02*
X0097595Y0248134D01*
X0097595Y0246535D02*
X0097595Y0246535D01*
X0097595Y0244937D02*
X0097595Y0244937D01*
X0095283Y0243338D02*
X0089908Y0243338D01*
X0089563Y0243683D02*
X0085628Y0243683D01*
X0082845Y0240901D01*
X0082845Y0236966D01*
X0085628Y0234183D01*
X0089563Y0234183D01*
X0092345Y0236966D01*
X0092345Y0240901D01*
X0089563Y0243683D01*
X0089645Y0243983D02*
X0092545Y0246883D01*
X0092545Y0248933D01*
X0087595Y0248933D01*
X0082645Y0248933D01*
X0082645Y0246883D01*
X0085545Y0243983D01*
X0087595Y0243983D01*
X0087595Y0248933D01*
X0087595Y0248933D01*
X0087595Y0248933D01*
X0082645Y0248933D01*
X0082645Y0250983D01*
X0085545Y0253883D01*
X0087595Y0253883D01*
X0087595Y0248933D01*
X0087595Y0243983D01*
X0089645Y0243983D01*
X0090599Y0244937D02*
X0094591Y0244937D01*
X0092993Y0246535D02*
X0092197Y0246535D01*
X0092545Y0248134D02*
X0092645Y0248134D01*
X0092545Y0248933D02*
X0092545Y0250983D01*
X0089645Y0253883D01*
X0087595Y0253883D01*
X0087595Y0248933D01*
X0087595Y0248933D01*
X0087595Y0248933D01*
X0092545Y0248933D01*
X0092545Y0249732D02*
X0092645Y0249732D01*
X0092992Y0251331D02*
X0092198Y0251331D01*
X0090599Y0252929D02*
X0094591Y0252929D01*
X0087595Y0252929D02*
X0087595Y0252929D01*
X0087595Y0251331D02*
X0087595Y0251331D01*
X0087595Y0249732D02*
X0087595Y0249732D01*
X0087595Y0248134D02*
X0087595Y0248134D01*
X0087595Y0246535D02*
X0087595Y0246535D01*
X0087595Y0244937D02*
X0087595Y0244937D01*
X0085283Y0243338D02*
X0079908Y0243338D01*
X0079563Y0243683D02*
X0075628Y0243683D01*
X0072845Y0240901D01*
X0072845Y0236966D01*
X0075628Y0234183D01*
X0079563Y0234183D01*
X0082345Y0236966D01*
X0082345Y0240901D01*
X0079563Y0243683D01*
X0079645Y0243983D02*
X0082545Y0246883D01*
X0082545Y0248933D01*
X0077595Y0248933D01*
X0072645Y0248933D01*
X0072645Y0246883D01*
X0075545Y0243983D01*
X0077595Y0243983D01*
X0077595Y0248933D01*
X0077595Y0248933D01*
X0077595Y0248933D01*
X0072645Y0248933D01*
X0072645Y0250983D01*
X0075545Y0253883D01*
X0077595Y0253883D01*
X0077595Y0248933D01*
X0077595Y0243983D01*
X0079645Y0243983D01*
X0080599Y0244937D02*
X0084591Y0244937D01*
X0082993Y0246535D02*
X0082197Y0246535D01*
X0082545Y0248134D02*
X0082645Y0248134D01*
X0082545Y0248933D02*
X0082545Y0250983D01*
X0079645Y0253883D01*
X0077595Y0253883D01*
X0077595Y0248933D01*
X0077595Y0248933D01*
X0077595Y0248933D01*
X0082545Y0248933D01*
X0082545Y0249732D02*
X0082645Y0249732D01*
X0082992Y0251331D02*
X0082198Y0251331D01*
X0080599Y0252929D02*
X0084591Y0252929D01*
X0077595Y0252929D02*
X0077595Y0252929D01*
X0077595Y0251331D02*
X0077595Y0251331D01*
X0077595Y0249732D02*
X0077595Y0249732D01*
X0077595Y0248134D02*
X0077595Y0248134D01*
X0077595Y0246535D02*
X0077595Y0246535D01*
X0077595Y0244937D02*
X0077595Y0244937D01*
X0075283Y0243338D02*
X0069908Y0243338D01*
X0069563Y0243683D02*
X0065628Y0243683D01*
X0062845Y0240901D01*
X0062845Y0236966D01*
X0065628Y0234183D01*
X0069563Y0234183D01*
X0072345Y0236966D01*
X0072345Y0240901D01*
X0069563Y0243683D01*
X0069645Y0243983D02*
X0072545Y0246883D01*
X0072545Y0248933D01*
X0067595Y0248933D01*
X0062645Y0248933D01*
X0062645Y0246883D01*
X0065545Y0243983D01*
X0067595Y0243983D01*
X0067595Y0248933D01*
X0067595Y0248933D01*
X0067595Y0248933D01*
X0062645Y0248933D01*
X0062645Y0250983D01*
X0065545Y0253883D01*
X0067595Y0253883D01*
X0067595Y0248933D01*
X0067595Y0243983D01*
X0069645Y0243983D01*
X0070599Y0244937D02*
X0074591Y0244937D01*
X0072993Y0246535D02*
X0072197Y0246535D01*
X0072545Y0248134D02*
X0072645Y0248134D01*
X0072545Y0248933D02*
X0072545Y0250983D01*
X0069645Y0253883D01*
X0067595Y0253883D01*
X0067595Y0248933D01*
X0067595Y0248933D01*
X0067595Y0248933D01*
X0072545Y0248933D01*
X0072545Y0249732D02*
X0072645Y0249732D01*
X0072992Y0251331D02*
X0072198Y0251331D01*
X0070599Y0252929D02*
X0074591Y0252929D01*
X0067595Y0252929D02*
X0067595Y0252929D01*
X0067595Y0251331D02*
X0067595Y0251331D01*
X0067595Y0249732D02*
X0067595Y0249732D01*
X0067595Y0248134D02*
X0067595Y0248134D01*
X0067595Y0246535D02*
X0067595Y0246535D01*
X0067595Y0244937D02*
X0067595Y0244937D01*
X0065283Y0243338D02*
X0059908Y0243338D01*
X0059563Y0243683D02*
X0055628Y0243683D01*
X0052845Y0240901D01*
X0052845Y0236966D01*
X0055628Y0234183D01*
X0059563Y0234183D01*
X0062345Y0236966D01*
X0062345Y0240901D01*
X0059563Y0243683D01*
X0059645Y0243983D02*
X0062545Y0246883D01*
X0062545Y0248933D01*
X0057595Y0248933D01*
X0052645Y0248933D01*
X0052645Y0246883D01*
X0055545Y0243983D01*
X0057595Y0243983D01*
X0057595Y0248933D01*
X0057595Y0248933D01*
X0057595Y0248933D01*
X0052645Y0248933D01*
X0052645Y0250983D01*
X0055545Y0253883D01*
X0057595Y0253883D01*
X0057595Y0248933D01*
X0057595Y0243983D01*
X0059645Y0243983D01*
X0060599Y0244937D02*
X0064591Y0244937D01*
X0062993Y0246535D02*
X0062197Y0246535D01*
X0062545Y0248134D02*
X0062645Y0248134D01*
X0062545Y0248933D02*
X0062545Y0250983D01*
X0059645Y0253883D01*
X0057595Y0253883D01*
X0057595Y0248933D01*
X0057595Y0248933D01*
X0057595Y0248933D01*
X0062545Y0248933D01*
X0062545Y0249732D02*
X0062645Y0249732D01*
X0062992Y0251331D02*
X0062198Y0251331D01*
X0060599Y0252929D02*
X0064591Y0252929D01*
X0057595Y0252929D02*
X0057595Y0252929D01*
X0057595Y0251331D02*
X0057595Y0251331D01*
X0057595Y0249732D02*
X0057595Y0249732D01*
X0057595Y0248134D02*
X0057595Y0248134D01*
X0057595Y0246535D02*
X0057595Y0246535D01*
X0057595Y0244937D02*
X0057595Y0244937D01*
X0055283Y0243338D02*
X0040695Y0243338D01*
X0040695Y0241740D02*
X0053684Y0241740D01*
X0052845Y0240141D02*
X0040695Y0240141D01*
X0040695Y0238543D02*
X0052845Y0238543D01*
X0052867Y0236944D02*
X0040695Y0236944D01*
X0040695Y0235345D02*
X0054465Y0235345D01*
X0060725Y0235345D02*
X0064465Y0235345D01*
X0062867Y0236944D02*
X0062324Y0236944D01*
X0062345Y0238543D02*
X0062845Y0238543D01*
X0062845Y0240141D02*
X0062345Y0240141D01*
X0061506Y0241740D02*
X0063684Y0241740D01*
X0071506Y0241740D02*
X0073684Y0241740D01*
X0072845Y0240141D02*
X0072345Y0240141D01*
X0072345Y0238543D02*
X0072845Y0238543D01*
X0072867Y0236944D02*
X0072324Y0236944D01*
X0070725Y0235345D02*
X0074465Y0235345D01*
X0080725Y0235345D02*
X0084465Y0235345D01*
X0082867Y0236944D02*
X0082324Y0236944D01*
X0082345Y0238543D02*
X0082845Y0238543D01*
X0082845Y0240141D02*
X0082345Y0240141D01*
X0081506Y0241740D02*
X0083684Y0241740D01*
X0091506Y0241740D02*
X0093684Y0241740D01*
X0092845Y0240141D02*
X0092345Y0240141D01*
X0092345Y0238543D02*
X0092845Y0238543D01*
X0092867Y0236944D02*
X0092324Y0236944D01*
X0090725Y0235345D02*
X0094465Y0235345D01*
X0095628Y0228683D02*
X0092845Y0225901D01*
X0092845Y0221966D01*
X0095628Y0219183D01*
X0099563Y0219183D01*
X0102345Y0221966D01*
X0102345Y0225901D01*
X0099563Y0228683D01*
X0095628Y0228683D01*
X0094298Y0227353D02*
X0090893Y0227353D01*
X0089563Y0228683D02*
X0085628Y0228683D01*
X0082845Y0225901D01*
X0082845Y0221966D01*
X0085628Y0219183D01*
X0089563Y0219183D01*
X0092345Y0221966D01*
X0092345Y0225901D01*
X0089563Y0228683D01*
X0092345Y0225754D02*
X0092845Y0225754D01*
X0092845Y0224156D02*
X0092345Y0224156D01*
X0092345Y0222557D02*
X0092845Y0222557D01*
X0093852Y0220959D02*
X0091338Y0220959D01*
X0089740Y0219360D02*
X0095450Y0219360D01*
X0095628Y0218683D02*
X0092845Y0215901D01*
X0092845Y0211966D01*
X0095628Y0209183D01*
X0099563Y0209183D01*
X0102345Y0211966D01*
X0102345Y0215901D01*
X0099563Y0218683D01*
X0095628Y0218683D01*
X0094706Y0217762D02*
X0090484Y0217762D01*
X0089563Y0218683D02*
X0085628Y0218683D01*
X0082845Y0215901D01*
X0082845Y0211966D01*
X0085628Y0209183D01*
X0089563Y0209183D01*
X0092345Y0211966D01*
X0092345Y0215901D01*
X0089563Y0218683D01*
X0092082Y0216163D02*
X0093108Y0216163D01*
X0092845Y0214565D02*
X0092345Y0214565D01*
X0092345Y0212966D02*
X0092845Y0212966D01*
X0093443Y0211368D02*
X0091747Y0211368D01*
X0090149Y0209769D02*
X0095041Y0209769D01*
X0095628Y0208683D02*
X0092845Y0205901D01*
X0092845Y0201966D01*
X0095628Y0199183D01*
X0099563Y0199183D01*
X0102345Y0201966D01*
X0102345Y0205901D01*
X0099563Y0208683D01*
X0095628Y0208683D01*
X0095115Y0208171D02*
X0090075Y0208171D01*
X0089563Y0208683D02*
X0085628Y0208683D01*
X0082845Y0205901D01*
X0082845Y0201966D01*
X0085628Y0199183D01*
X0089563Y0199183D01*
X0092345Y0201966D01*
X0092345Y0205901D01*
X0089563Y0208683D01*
X0091673Y0206572D02*
X0093517Y0206572D01*
X0092845Y0204974D02*
X0092345Y0204974D01*
X0092345Y0203375D02*
X0092845Y0203375D01*
X0093034Y0201777D02*
X0092156Y0201777D01*
X0090558Y0200178D02*
X0094632Y0200178D01*
X0095628Y0198683D02*
X0092845Y0195901D01*
X0092845Y0191966D01*
X0095628Y0189183D01*
X0099563Y0189183D01*
X0102345Y0191966D01*
X0102345Y0195901D01*
X0099563Y0198683D01*
X0095628Y0198683D01*
X0095524Y0198580D02*
X0089666Y0198580D01*
X0089563Y0198683D02*
X0085628Y0198683D01*
X0082845Y0195901D01*
X0082845Y0191966D01*
X0085628Y0189183D01*
X0089563Y0189183D01*
X0092345Y0191966D01*
X0092345Y0195901D01*
X0089563Y0198683D01*
X0091264Y0196981D02*
X0093926Y0196981D01*
X0092845Y0195383D02*
X0092345Y0195383D01*
X0092345Y0193784D02*
X0092845Y0193784D01*
X0092845Y0192186D02*
X0092345Y0192186D01*
X0090967Y0190587D02*
X0094224Y0190587D01*
X0095628Y0188683D02*
X0092845Y0185901D01*
X0092845Y0181966D01*
X0095628Y0179183D01*
X0099563Y0179183D01*
X0102345Y0181966D01*
X0102345Y0185901D01*
X0099563Y0188683D01*
X0095628Y0188683D01*
X0094335Y0187390D02*
X0090856Y0187390D01*
X0089563Y0188683D02*
X0085628Y0188683D01*
X0082845Y0185901D01*
X0082845Y0181966D01*
X0085628Y0179183D01*
X0089563Y0179183D01*
X0092345Y0181966D01*
X0092345Y0185901D01*
X0089563Y0188683D01*
X0092345Y0185792D02*
X0092845Y0185792D01*
X0092845Y0184193D02*
X0092345Y0184193D01*
X0092345Y0182595D02*
X0092845Y0182595D01*
X0093815Y0180996D02*
X0091376Y0180996D01*
X0089777Y0179398D02*
X0095413Y0179398D01*
X0095628Y0178683D02*
X0092845Y0175901D01*
X0092845Y0171966D01*
X0095628Y0169183D01*
X0099563Y0169183D01*
X0102345Y0171966D01*
X0102345Y0175901D01*
X0099563Y0178683D01*
X0095628Y0178683D01*
X0094744Y0177799D02*
X0090447Y0177799D01*
X0089563Y0178683D02*
X0085628Y0178683D01*
X0082845Y0175901D01*
X0082845Y0171966D01*
X0085628Y0169183D01*
X0089563Y0169183D01*
X0092345Y0171966D01*
X0092345Y0175901D01*
X0089563Y0178683D01*
X0092045Y0176201D02*
X0093145Y0176201D01*
X0092845Y0174602D02*
X0092345Y0174602D01*
X0092345Y0173004D02*
X0092845Y0173004D01*
X0093406Y0171405D02*
X0091785Y0171405D01*
X0090186Y0169807D02*
X0095004Y0169807D01*
X0095628Y0168683D02*
X0092845Y0165901D01*
X0092845Y0161966D01*
X0095628Y0159183D01*
X0099563Y0159183D01*
X0102345Y0161966D01*
X0102345Y0165901D01*
X0099563Y0168683D01*
X0095628Y0168683D01*
X0095153Y0168208D02*
X0090038Y0168208D01*
X0089563Y0168683D02*
X0085628Y0168683D01*
X0082845Y0165901D01*
X0082845Y0161966D01*
X0085628Y0159183D01*
X0089563Y0159183D01*
X0092345Y0161966D01*
X0092345Y0165901D01*
X0089563Y0168683D01*
X0091636Y0166610D02*
X0093554Y0166610D01*
X0092845Y0165011D02*
X0092345Y0165011D01*
X0092345Y0163412D02*
X0092845Y0163412D01*
X0092997Y0161814D02*
X0092194Y0161814D01*
X0090595Y0160215D02*
X0094595Y0160215D01*
X0100595Y0160215D02*
X0104595Y0160215D01*
X0105628Y0159183D02*
X0102845Y0161966D01*
X0102845Y0165901D01*
X0105628Y0168683D01*
X0109563Y0168683D01*
X0112345Y0165901D01*
X0112345Y0161966D01*
X0109563Y0159183D01*
X0105628Y0159183D01*
X0102997Y0161814D02*
X0102194Y0161814D01*
X0102345Y0163412D02*
X0102845Y0163412D01*
X0102845Y0165011D02*
X0102345Y0165011D01*
X0101636Y0166610D02*
X0103554Y0166610D01*
X0105153Y0168208D02*
X0100038Y0168208D01*
X0100186Y0169807D02*
X0105004Y0169807D01*
X0105628Y0169183D02*
X0109563Y0169183D01*
X0112345Y0171966D01*
X0112345Y0175901D01*
X0109563Y0178683D01*
X0105628Y0178683D01*
X0102845Y0175901D01*
X0102845Y0171966D01*
X0105628Y0169183D01*
X0103406Y0171405D02*
X0101785Y0171405D01*
X0102345Y0173004D02*
X0102845Y0173004D01*
X0102845Y0174602D02*
X0102345Y0174602D01*
X0102045Y0176201D02*
X0103145Y0176201D01*
X0104744Y0177799D02*
X0100447Y0177799D01*
X0099777Y0179398D02*
X0105413Y0179398D01*
X0105628Y0179183D02*
X0109563Y0179183D01*
X0112345Y0181966D01*
X0112345Y0185901D01*
X0109563Y0188683D01*
X0105628Y0188683D01*
X0102845Y0185901D01*
X0102845Y0181966D01*
X0105628Y0179183D01*
X0103815Y0180996D02*
X0101376Y0180996D01*
X0102345Y0182595D02*
X0102845Y0182595D01*
X0102845Y0184193D02*
X0102345Y0184193D01*
X0102345Y0185792D02*
X0102845Y0185792D01*
X0104335Y0187390D02*
X0100856Y0187390D01*
X0100967Y0190587D02*
X0104224Y0190587D01*
X0102845Y0191966D02*
X0105628Y0189183D01*
X0109563Y0189183D01*
X0112345Y0191966D01*
X0112345Y0195901D01*
X0109563Y0198683D01*
X0105628Y0198683D01*
X0102845Y0195901D01*
X0102845Y0191966D01*
X0102845Y0192186D02*
X0102345Y0192186D01*
X0102345Y0193784D02*
X0102845Y0193784D01*
X0102845Y0195383D02*
X0102345Y0195383D01*
X0101264Y0196981D02*
X0103926Y0196981D01*
X0105524Y0198580D02*
X0099666Y0198580D01*
X0100558Y0200178D02*
X0104632Y0200178D01*
X0105628Y0199183D02*
X0102845Y0201966D01*
X0102845Y0205901D01*
X0105628Y0208683D01*
X0109563Y0208683D01*
X0112345Y0205901D01*
X0112345Y0201966D01*
X0109563Y0199183D01*
X0105628Y0199183D01*
X0103034Y0201777D02*
X0102156Y0201777D01*
X0102345Y0203375D02*
X0102845Y0203375D01*
X0102845Y0204974D02*
X0102345Y0204974D01*
X0101673Y0206572D02*
X0103517Y0206572D01*
X0105115Y0208171D02*
X0100075Y0208171D01*
X0100149Y0209769D02*
X0105041Y0209769D01*
X0105628Y0209183D02*
X0109563Y0209183D01*
X0112345Y0211966D01*
X0112345Y0215901D01*
X0109563Y0218683D01*
X0105628Y0218683D01*
X0102845Y0215901D01*
X0102845Y0211966D01*
X0105628Y0209183D01*
X0103443Y0211368D02*
X0101747Y0211368D01*
X0102345Y0212966D02*
X0102845Y0212966D01*
X0102845Y0214565D02*
X0102345Y0214565D01*
X0102082Y0216163D02*
X0103108Y0216163D01*
X0104706Y0217762D02*
X0100484Y0217762D01*
X0099740Y0219360D02*
X0105450Y0219360D01*
X0105628Y0219183D02*
X0109563Y0219183D01*
X0112345Y0221966D01*
X0112345Y0225901D01*
X0109563Y0228683D01*
X0105628Y0228683D01*
X0102845Y0225901D01*
X0102845Y0221966D01*
X0105628Y0219183D01*
X0103852Y0220959D02*
X0101338Y0220959D01*
X0102345Y0222557D02*
X0102845Y0222557D01*
X0102845Y0224156D02*
X0102345Y0224156D01*
X0102345Y0225754D02*
X0102845Y0225754D01*
X0104298Y0227353D02*
X0100893Y0227353D01*
X0100725Y0235345D02*
X0104465Y0235345D01*
X0102867Y0236944D02*
X0102324Y0236944D01*
X0102345Y0238543D02*
X0102845Y0238543D01*
X0102845Y0240141D02*
X0102345Y0240141D01*
X0101506Y0241740D02*
X0103684Y0241740D01*
X0111506Y0241740D02*
X0113684Y0241740D01*
X0112845Y0240141D02*
X0112345Y0240141D01*
X0112345Y0238543D02*
X0112845Y0238543D01*
X0112867Y0236944D02*
X0112324Y0236944D01*
X0110725Y0235345D02*
X0114465Y0235345D01*
X0115628Y0228683D02*
X0112845Y0225901D01*
X0112845Y0221966D01*
X0115628Y0219183D01*
X0119563Y0219183D01*
X0122345Y0221966D01*
X0122345Y0225901D01*
X0119563Y0228683D01*
X0115628Y0228683D01*
X0114298Y0227353D02*
X0110893Y0227353D01*
X0112345Y0225754D02*
X0112845Y0225754D01*
X0112845Y0224156D02*
X0112345Y0224156D01*
X0112345Y0222557D02*
X0112845Y0222557D01*
X0113852Y0220959D02*
X0111338Y0220959D01*
X0109740Y0219360D02*
X0115450Y0219360D01*
X0115628Y0218683D02*
X0112845Y0215901D01*
X0112845Y0211966D01*
X0115628Y0209183D01*
X0119563Y0209183D01*
X0122345Y0211966D01*
X0122345Y0215901D01*
X0119563Y0218683D01*
X0115628Y0218683D01*
X0114706Y0217762D02*
X0110484Y0217762D01*
X0112082Y0216163D02*
X0113108Y0216163D01*
X0112845Y0214565D02*
X0112345Y0214565D01*
X0112345Y0212966D02*
X0112845Y0212966D01*
X0113443Y0211368D02*
X0111747Y0211368D01*
X0110149Y0209769D02*
X0115041Y0209769D01*
X0115628Y0208683D02*
X0112845Y0205901D01*
X0112845Y0201966D01*
X0115628Y0199183D01*
X0119563Y0199183D01*
X0122345Y0201966D01*
X0122345Y0205901D01*
X0119563Y0208683D01*
X0115628Y0208683D01*
X0115115Y0208171D02*
X0110075Y0208171D01*
X0111673Y0206572D02*
X0113517Y0206572D01*
X0112845Y0204974D02*
X0112345Y0204974D01*
X0112345Y0203375D02*
X0112845Y0203375D01*
X0113034Y0201777D02*
X0112156Y0201777D01*
X0110558Y0200178D02*
X0114632Y0200178D01*
X0115628Y0198683D02*
X0112845Y0195901D01*
X0112845Y0191966D01*
X0115628Y0189183D01*
X0119563Y0189183D01*
X0122345Y0191966D01*
X0122345Y0195901D01*
X0119563Y0198683D01*
X0115628Y0198683D01*
X0115524Y0198580D02*
X0109666Y0198580D01*
X0111264Y0196981D02*
X0113926Y0196981D01*
X0112845Y0195383D02*
X0112345Y0195383D01*
X0112345Y0193784D02*
X0112845Y0193784D01*
X0112845Y0192186D02*
X0112345Y0192186D01*
X0110967Y0190587D02*
X0114224Y0190587D01*
X0115628Y0188683D02*
X0112845Y0185901D01*
X0112845Y0181966D01*
X0115628Y0179183D01*
X0119563Y0179183D01*
X0122345Y0181966D01*
X0122345Y0185901D01*
X0119563Y0188683D01*
X0115628Y0188683D01*
X0114335Y0187390D02*
X0110856Y0187390D01*
X0112345Y0185792D02*
X0112845Y0185792D01*
X0112845Y0184193D02*
X0112345Y0184193D01*
X0112345Y0182595D02*
X0112845Y0182595D01*
X0113815Y0180996D02*
X0111376Y0180996D01*
X0109777Y0179398D02*
X0115413Y0179398D01*
X0115628Y0178683D02*
X0112845Y0175901D01*
X0112845Y0171966D01*
X0115628Y0169183D01*
X0119563Y0169183D01*
X0122345Y0171966D01*
X0122345Y0175901D01*
X0119563Y0178683D01*
X0115628Y0178683D01*
X0114744Y0177799D02*
X0110447Y0177799D01*
X0112045Y0176201D02*
X0113145Y0176201D01*
X0112845Y0174602D02*
X0112345Y0174602D01*
X0112345Y0173004D02*
X0112845Y0173004D01*
X0113406Y0171405D02*
X0111785Y0171405D01*
X0110186Y0169807D02*
X0115004Y0169807D01*
X0115628Y0168683D02*
X0112845Y0165901D01*
X0112845Y0161966D01*
X0115628Y0159183D01*
X0119563Y0159183D01*
X0122345Y0161966D01*
X0122345Y0165901D01*
X0119563Y0168683D01*
X0115628Y0168683D01*
X0115153Y0168208D02*
X0110038Y0168208D01*
X0111636Y0166610D02*
X0113554Y0166610D01*
X0112845Y0165011D02*
X0112345Y0165011D01*
X0112345Y0163412D02*
X0112845Y0163412D01*
X0112997Y0161814D02*
X0112194Y0161814D01*
X0110595Y0160215D02*
X0114595Y0160215D01*
X0120595Y0160215D02*
X0124595Y0160215D01*
X0125628Y0159183D02*
X0122845Y0161966D01*
X0122845Y0165901D01*
X0125628Y0168683D01*
X0129563Y0168683D01*
X0132345Y0165901D01*
X0132345Y0161966D01*
X0129563Y0159183D01*
X0125628Y0159183D01*
X0122997Y0161814D02*
X0122194Y0161814D01*
X0122345Y0163412D02*
X0122845Y0163412D01*
X0122845Y0165011D02*
X0122345Y0165011D01*
X0121636Y0166610D02*
X0123554Y0166610D01*
X0125153Y0168208D02*
X0120038Y0168208D01*
X0120186Y0169807D02*
X0125004Y0169807D01*
X0125628Y0169183D02*
X0122845Y0171966D01*
X0122845Y0175901D01*
X0125628Y0178683D01*
X0129563Y0178683D01*
X0132345Y0175901D01*
X0132345Y0171966D01*
X0129563Y0169183D01*
X0125628Y0169183D01*
X0123406Y0171405D02*
X0121785Y0171405D01*
X0122345Y0173004D02*
X0122845Y0173004D01*
X0122845Y0174602D02*
X0122345Y0174602D01*
X0122045Y0176201D02*
X0123145Y0176201D01*
X0124744Y0177799D02*
X0120447Y0177799D01*
X0119777Y0179398D02*
X0125413Y0179398D01*
X0125628Y0179183D02*
X0129563Y0179183D01*
X0132345Y0181966D01*
X0132345Y0185901D01*
X0129563Y0188683D01*
X0125628Y0188683D01*
X0122845Y0185901D01*
X0122845Y0181966D01*
X0125628Y0179183D01*
X0123815Y0180996D02*
X0121376Y0180996D01*
X0122345Y0182595D02*
X0122845Y0182595D01*
X0122845Y0184193D02*
X0122345Y0184193D01*
X0122345Y0185792D02*
X0122845Y0185792D01*
X0124335Y0187390D02*
X0120856Y0187390D01*
X0120967Y0190587D02*
X0124224Y0190587D01*
X0122845Y0191966D02*
X0125628Y0189183D01*
X0129563Y0189183D01*
X0132345Y0191966D01*
X0132345Y0195901D01*
X0129563Y0198683D01*
X0125628Y0198683D01*
X0122845Y0195901D01*
X0122845Y0191966D01*
X0122845Y0192186D02*
X0122345Y0192186D01*
X0122345Y0193784D02*
X0122845Y0193784D01*
X0122845Y0195383D02*
X0122345Y0195383D01*
X0121264Y0196981D02*
X0123926Y0196981D01*
X0125524Y0198580D02*
X0119666Y0198580D01*
X0120558Y0200178D02*
X0124632Y0200178D01*
X0125628Y0199183D02*
X0122845Y0201966D01*
X0122845Y0205901D01*
X0125628Y0208683D01*
X0129563Y0208683D01*
X0132345Y0205901D01*
X0132345Y0201966D01*
X0129563Y0199183D01*
X0125628Y0199183D01*
X0123034Y0201777D02*
X0122156Y0201777D01*
X0122345Y0203375D02*
X0122845Y0203375D01*
X0122845Y0204974D02*
X0122345Y0204974D01*
X0121673Y0206572D02*
X0123517Y0206572D01*
X0125115Y0208171D02*
X0120075Y0208171D01*
X0120149Y0209769D02*
X0125041Y0209769D01*
X0125628Y0209183D02*
X0122845Y0211966D01*
X0122845Y0215901D01*
X0125628Y0218683D01*
X0129563Y0218683D01*
X0132345Y0215901D01*
X0132345Y0211966D01*
X0129563Y0209183D01*
X0125628Y0209183D01*
X0123443Y0211368D02*
X0121747Y0211368D01*
X0122345Y0212966D02*
X0122845Y0212966D01*
X0122845Y0214565D02*
X0122345Y0214565D01*
X0122082Y0216163D02*
X0123108Y0216163D01*
X0124706Y0217762D02*
X0120484Y0217762D01*
X0119740Y0219360D02*
X0125450Y0219360D01*
X0125628Y0219183D02*
X0129563Y0219183D01*
X0132345Y0221966D01*
X0132345Y0225901D01*
X0129563Y0228683D01*
X0125628Y0228683D01*
X0122845Y0225901D01*
X0122845Y0221966D01*
X0125628Y0219183D01*
X0123852Y0220959D02*
X0121338Y0220959D01*
X0122345Y0222557D02*
X0122845Y0222557D01*
X0122845Y0224156D02*
X0122345Y0224156D01*
X0122345Y0225754D02*
X0122845Y0225754D01*
X0124298Y0227353D02*
X0120893Y0227353D01*
X0120725Y0235345D02*
X0124465Y0235345D01*
X0122867Y0236944D02*
X0122324Y0236944D01*
X0122345Y0238543D02*
X0122845Y0238543D01*
X0122845Y0240141D02*
X0122345Y0240141D01*
X0121506Y0241740D02*
X0123684Y0241740D01*
X0131506Y0241740D02*
X0133684Y0241740D01*
X0132845Y0240141D02*
X0132345Y0240141D01*
X0132345Y0238543D02*
X0132845Y0238543D01*
X0132867Y0236944D02*
X0132324Y0236944D01*
X0130725Y0235345D02*
X0134465Y0235345D01*
X0135628Y0228683D02*
X0132845Y0225901D01*
X0132845Y0221966D01*
X0135628Y0219183D01*
X0139563Y0219183D01*
X0142345Y0221966D01*
X0142345Y0225901D01*
X0139563Y0228683D01*
X0135628Y0228683D01*
X0134298Y0227353D02*
X0130893Y0227353D01*
X0132345Y0225754D02*
X0132845Y0225754D01*
X0132845Y0224156D02*
X0132345Y0224156D01*
X0132345Y0222557D02*
X0132845Y0222557D01*
X0133852Y0220959D02*
X0131338Y0220959D01*
X0129740Y0219360D02*
X0135450Y0219360D01*
X0135628Y0218683D02*
X0132845Y0215901D01*
X0132845Y0211966D01*
X0135628Y0209183D01*
X0139563Y0209183D01*
X0142345Y0211966D01*
X0142345Y0215901D01*
X0139563Y0218683D01*
X0135628Y0218683D01*
X0134706Y0217762D02*
X0130484Y0217762D01*
X0132082Y0216163D02*
X0133108Y0216163D01*
X0132845Y0214565D02*
X0132345Y0214565D01*
X0132345Y0212966D02*
X0132845Y0212966D01*
X0133443Y0211368D02*
X0131747Y0211368D01*
X0130149Y0209769D02*
X0135041Y0209769D01*
X0135628Y0208683D02*
X0132845Y0205901D01*
X0132845Y0201966D01*
X0135628Y0199183D01*
X0139563Y0199183D01*
X0142345Y0201966D01*
X0142345Y0205901D01*
X0139563Y0208683D01*
X0135628Y0208683D01*
X0135115Y0208171D02*
X0130075Y0208171D01*
X0131673Y0206572D02*
X0133517Y0206572D01*
X0132845Y0204974D02*
X0132345Y0204974D01*
X0132345Y0203375D02*
X0132845Y0203375D01*
X0133034Y0201777D02*
X0132156Y0201777D01*
X0130558Y0200178D02*
X0134632Y0200178D01*
X0135628Y0198683D02*
X0132845Y0195901D01*
X0132845Y0191966D01*
X0135628Y0189183D01*
X0139563Y0189183D01*
X0142345Y0191966D01*
X0142345Y0195901D01*
X0139563Y0198683D01*
X0135628Y0198683D01*
X0135524Y0198580D02*
X0129666Y0198580D01*
X0131264Y0196981D02*
X0133926Y0196981D01*
X0132845Y0195383D02*
X0132345Y0195383D01*
X0132345Y0193784D02*
X0132845Y0193784D01*
X0132845Y0192186D02*
X0132345Y0192186D01*
X0130967Y0190587D02*
X0134224Y0190587D01*
X0135628Y0188683D02*
X0132845Y0185901D01*
X0132845Y0181966D01*
X0135628Y0179183D01*
X0139563Y0179183D01*
X0142345Y0181966D01*
X0142345Y0185901D01*
X0139563Y0188683D01*
X0135628Y0188683D01*
X0134335Y0187390D02*
X0130856Y0187390D01*
X0132345Y0185792D02*
X0132845Y0185792D01*
X0132845Y0184193D02*
X0132345Y0184193D01*
X0132345Y0182595D02*
X0132845Y0182595D01*
X0133815Y0180996D02*
X0131376Y0180996D01*
X0129777Y0179398D02*
X0135413Y0179398D01*
X0135628Y0178683D02*
X0132845Y0175901D01*
X0132845Y0171966D01*
X0135628Y0169183D01*
X0139563Y0169183D01*
X0142345Y0171966D01*
X0142345Y0175901D01*
X0139563Y0178683D01*
X0135628Y0178683D01*
X0134744Y0177799D02*
X0130447Y0177799D01*
X0132045Y0176201D02*
X0133145Y0176201D01*
X0132845Y0174602D02*
X0132345Y0174602D01*
X0132345Y0173004D02*
X0132845Y0173004D01*
X0133406Y0171405D02*
X0131785Y0171405D01*
X0130186Y0169807D02*
X0135004Y0169807D01*
X0135628Y0168683D02*
X0132845Y0165901D01*
X0132845Y0161966D01*
X0135628Y0159183D01*
X0139563Y0159183D01*
X0142345Y0161966D01*
X0142345Y0165901D01*
X0139563Y0168683D01*
X0135628Y0168683D01*
X0135153Y0168208D02*
X0130038Y0168208D01*
X0131636Y0166610D02*
X0133554Y0166610D01*
X0132845Y0165011D02*
X0132345Y0165011D01*
X0132345Y0163412D02*
X0132845Y0163412D01*
X0132997Y0161814D02*
X0132194Y0161814D01*
X0130595Y0160215D02*
X0134595Y0160215D01*
X0140595Y0160215D02*
X0144595Y0160215D01*
X0145628Y0159183D02*
X0149563Y0159183D01*
X0152345Y0161966D01*
X0152345Y0165901D01*
X0149563Y0168683D01*
X0145628Y0168683D01*
X0142845Y0165901D01*
X0142845Y0161966D01*
X0145628Y0159183D01*
X0142997Y0161814D02*
X0142194Y0161814D01*
X0142345Y0163412D02*
X0142845Y0163412D01*
X0142845Y0165011D02*
X0142345Y0165011D01*
X0141636Y0166610D02*
X0143554Y0166610D01*
X0145153Y0168208D02*
X0140038Y0168208D01*
X0140186Y0169807D02*
X0145004Y0169807D01*
X0145628Y0169183D02*
X0149563Y0169183D01*
X0152345Y0171966D01*
X0152345Y0175901D01*
X0149563Y0178683D01*
X0145628Y0178683D01*
X0142845Y0175901D01*
X0142845Y0171966D01*
X0145628Y0169183D01*
X0143406Y0171405D02*
X0141785Y0171405D01*
X0142345Y0173004D02*
X0142845Y0173004D01*
X0142845Y0174602D02*
X0142345Y0174602D01*
X0142045Y0176201D02*
X0143145Y0176201D01*
X0144744Y0177799D02*
X0140447Y0177799D01*
X0139777Y0179398D02*
X0145413Y0179398D01*
X0145628Y0179183D02*
X0149563Y0179183D01*
X0152345Y0181966D01*
X0152345Y0185901D01*
X0149563Y0188683D01*
X0145628Y0188683D01*
X0142845Y0185901D01*
X0142845Y0181966D01*
X0145628Y0179183D01*
X0143815Y0180996D02*
X0141376Y0180996D01*
X0142345Y0182595D02*
X0142845Y0182595D01*
X0142845Y0184193D02*
X0142345Y0184193D01*
X0142345Y0185792D02*
X0142845Y0185792D01*
X0144335Y0187390D02*
X0140856Y0187390D01*
X0140967Y0190587D02*
X0144224Y0190587D01*
X0142845Y0191966D02*
X0145628Y0189183D01*
X0149563Y0189183D01*
X0152345Y0191966D01*
X0152345Y0195901D01*
X0149563Y0198683D01*
X0145628Y0198683D01*
X0142845Y0195901D01*
X0142845Y0191966D01*
X0142845Y0192186D02*
X0142345Y0192186D01*
X0142345Y0193784D02*
X0142845Y0193784D01*
X0142845Y0195383D02*
X0142345Y0195383D01*
X0141264Y0196981D02*
X0143926Y0196981D01*
X0145524Y0198580D02*
X0139666Y0198580D01*
X0140558Y0200178D02*
X0144632Y0200178D01*
X0145628Y0199183D02*
X0149563Y0199183D01*
X0152345Y0201966D01*
X0152345Y0205901D01*
X0149563Y0208683D01*
X0145628Y0208683D01*
X0142845Y0205901D01*
X0142845Y0201966D01*
X0145628Y0199183D01*
X0143034Y0201777D02*
X0142156Y0201777D01*
X0142345Y0203375D02*
X0142845Y0203375D01*
X0142845Y0204974D02*
X0142345Y0204974D01*
X0141673Y0206572D02*
X0143517Y0206572D01*
X0145115Y0208171D02*
X0140075Y0208171D01*
X0140149Y0209769D02*
X0145041Y0209769D01*
X0145628Y0209183D02*
X0149563Y0209183D01*
X0152345Y0211966D01*
X0152345Y0215901D01*
X0149563Y0218683D01*
X0145628Y0218683D01*
X0142845Y0215901D01*
X0142845Y0211966D01*
X0145628Y0209183D01*
X0143443Y0211368D02*
X0141747Y0211368D01*
X0142345Y0212966D02*
X0142845Y0212966D01*
X0142845Y0214565D02*
X0142345Y0214565D01*
X0142082Y0216163D02*
X0143108Y0216163D01*
X0144706Y0217762D02*
X0140484Y0217762D01*
X0139740Y0219360D02*
X0145450Y0219360D01*
X0145628Y0219183D02*
X0149563Y0219183D01*
X0152345Y0221966D01*
X0152345Y0225901D01*
X0149563Y0228683D01*
X0145628Y0228683D01*
X0142845Y0225901D01*
X0142845Y0221966D01*
X0145628Y0219183D01*
X0143852Y0220959D02*
X0141338Y0220959D01*
X0142345Y0222557D02*
X0142845Y0222557D01*
X0142845Y0224156D02*
X0142345Y0224156D01*
X0142345Y0225754D02*
X0142845Y0225754D01*
X0144298Y0227353D02*
X0140893Y0227353D01*
X0140725Y0235345D02*
X0144465Y0235345D01*
X0142867Y0236944D02*
X0142324Y0236944D01*
X0142345Y0238543D02*
X0142845Y0238543D01*
X0142845Y0240141D02*
X0142345Y0240141D01*
X0141506Y0241740D02*
X0143684Y0241740D01*
X0150725Y0235345D02*
X0154465Y0235345D01*
X0152867Y0236944D02*
X0152324Y0236944D01*
X0152345Y0238543D02*
X0152845Y0238543D01*
X0152845Y0240141D02*
X0152345Y0240141D01*
X0151506Y0241740D02*
X0153684Y0241740D01*
X0160725Y0235345D02*
X0164465Y0235345D01*
X0162867Y0236944D02*
X0162324Y0236944D01*
X0162345Y0238543D02*
X0162845Y0238543D01*
X0162845Y0240141D02*
X0162345Y0240141D01*
X0161506Y0241740D02*
X0163684Y0241740D01*
X0170725Y0235345D02*
X0174465Y0235345D01*
X0172867Y0236944D02*
X0172324Y0236944D01*
X0172345Y0238543D02*
X0172845Y0238543D01*
X0172845Y0240141D02*
X0172345Y0240141D01*
X0171506Y0241740D02*
X0173684Y0241740D01*
X0179908Y0243338D02*
X0185283Y0243338D01*
X0184591Y0244937D02*
X0180599Y0244937D01*
X0182197Y0246535D02*
X0182993Y0246535D01*
X0182645Y0248134D02*
X0182545Y0248134D01*
X0182545Y0249732D02*
X0182645Y0249732D01*
X0182992Y0251331D02*
X0182198Y0251331D01*
X0190599Y0252929D02*
X0194591Y0252929D01*
X0195545Y0253883D02*
X0192645Y0250983D01*
X0192645Y0248933D01*
X0197595Y0248933D01*
X0197595Y0248933D01*
X0197595Y0248933D01*
X0197595Y0243983D01*
X0199645Y0243983D01*
X0202545Y0246883D01*
X0202545Y0248933D01*
X0197595Y0248933D01*
X0197595Y0253883D01*
X0195545Y0253883D01*
X0197595Y0253883D02*
X0197595Y0248933D01*
X0197595Y0248933D01*
X0197595Y0248933D01*
X0202545Y0248933D01*
X0202545Y0250983D01*
X0199645Y0253883D01*
X0197595Y0253883D01*
X0197595Y0252929D02*
X0197595Y0252929D01*
X0197595Y0251331D02*
X0197595Y0251331D01*
X0197595Y0249732D02*
X0197595Y0249732D01*
X0197595Y0248134D02*
X0197595Y0248134D01*
X0197595Y0246535D02*
X0197595Y0246535D01*
X0197595Y0244937D02*
X0197595Y0244937D01*
X0199908Y0243338D02*
X0205283Y0243338D01*
X0205628Y0243683D02*
X0202845Y0240901D01*
X0202845Y0236966D01*
X0205628Y0234183D01*
X0209563Y0234183D01*
X0212345Y0236966D01*
X0212345Y0240901D01*
X0209563Y0243683D01*
X0205628Y0243683D01*
X0205545Y0243983D02*
X0207595Y0243983D01*
X0207595Y0248933D01*
X0202645Y0248933D01*
X0202645Y0246883D01*
X0205545Y0243983D01*
X0204591Y0244937D02*
X0200599Y0244937D01*
X0202197Y0246535D02*
X0202993Y0246535D01*
X0202645Y0248134D02*
X0202545Y0248134D01*
X0202645Y0248933D02*
X0207595Y0248933D01*
X0207595Y0248933D01*
X0207595Y0248933D01*
X0207595Y0243983D01*
X0209645Y0243983D01*
X0212545Y0246883D01*
X0212545Y0248933D01*
X0207595Y0248933D01*
X0207595Y0253883D01*
X0205545Y0253883D01*
X0202645Y0250983D01*
X0202645Y0248933D01*
X0202645Y0249732D02*
X0202545Y0249732D01*
X0202198Y0251331D02*
X0202992Y0251331D01*
X0204591Y0252929D02*
X0200599Y0252929D01*
X0207595Y0252929D02*
X0207595Y0252929D01*
X0207595Y0253883D02*
X0209645Y0253883D01*
X0212545Y0250983D01*
X0212545Y0248933D01*
X0207595Y0248933D01*
X0207595Y0248933D01*
X0207595Y0248933D01*
X0207595Y0253883D01*
X0207595Y0251331D02*
X0207595Y0251331D01*
X0207595Y0249732D02*
X0207595Y0249732D01*
X0207595Y0248134D02*
X0207595Y0248134D01*
X0207595Y0246535D02*
X0207595Y0246535D01*
X0207595Y0244937D02*
X0207595Y0244937D01*
X0209908Y0243338D02*
X0215899Y0243338D01*
X0214745Y0242185D02*
X0214745Y0235681D01*
X0219344Y0231083D01*
X0225847Y0231083D01*
X0230095Y0235332D01*
X0234344Y0231083D01*
X0240847Y0231083D01*
X0245445Y0235681D01*
X0245445Y0242185D01*
X0240847Y0246783D01*
X0234344Y0246783D01*
X0230095Y0242535D01*
X0225847Y0246783D01*
X0219344Y0246783D01*
X0214745Y0242185D01*
X0214745Y0241740D02*
X0211506Y0241740D01*
X0212345Y0240141D02*
X0214745Y0240141D01*
X0214745Y0238543D02*
X0212345Y0238543D01*
X0212324Y0236944D02*
X0214745Y0236944D01*
X0215081Y0235345D02*
X0210725Y0235345D01*
X0216680Y0233747D02*
X0040695Y0233747D01*
X0040695Y0232148D02*
X0218278Y0232148D01*
X0219344Y0226783D02*
X0214745Y0222185D01*
X0214745Y0215681D01*
X0219344Y0211083D01*
X0225847Y0211083D01*
X0230095Y0215332D01*
X0234344Y0211083D01*
X0240847Y0211083D01*
X0245445Y0215681D01*
X0245445Y0222185D01*
X0240847Y0226783D01*
X0234344Y0226783D01*
X0230095Y0222535D01*
X0225847Y0226783D01*
X0219344Y0226783D01*
X0218315Y0225754D02*
X0212345Y0225754D01*
X0212345Y0225901D02*
X0209563Y0228683D01*
X0205628Y0228683D01*
X0202845Y0225901D01*
X0202845Y0221966D01*
X0205628Y0219183D01*
X0209563Y0219183D01*
X0212345Y0221966D01*
X0212345Y0225901D01*
X0212345Y0224156D02*
X0216716Y0224156D01*
X0215118Y0222557D02*
X0212345Y0222557D01*
X0211338Y0220959D02*
X0214745Y0220959D01*
X0214745Y0219360D02*
X0209740Y0219360D01*
X0209563Y0218683D02*
X0205628Y0218683D01*
X0202845Y0215901D01*
X0202845Y0211966D01*
X0205628Y0209183D01*
X0209563Y0209183D01*
X0212345Y0211966D01*
X0212345Y0215901D01*
X0209563Y0218683D01*
X0210484Y0217762D02*
X0214745Y0217762D01*
X0214745Y0216163D02*
X0212082Y0216163D01*
X0212345Y0214565D02*
X0215862Y0214565D01*
X0217460Y0212966D02*
X0212345Y0212966D01*
X0211747Y0211368D02*
X0219059Y0211368D01*
X0219344Y0206783D02*
X0214745Y0202185D01*
X0214745Y0195681D01*
X0219344Y0191083D01*
X0225847Y0191083D01*
X0230095Y0195332D01*
X0234344Y0191083D01*
X0240847Y0191083D01*
X0245445Y0195681D01*
X0245445Y0202185D01*
X0240847Y0206783D01*
X0234344Y0206783D01*
X0230095Y0202535D01*
X0225847Y0206783D01*
X0219344Y0206783D01*
X0219133Y0206572D02*
X0211673Y0206572D01*
X0212345Y0205901D02*
X0209563Y0208683D01*
X0205628Y0208683D01*
X0202845Y0205901D01*
X0202845Y0201966D01*
X0205628Y0199183D01*
X0209563Y0199183D01*
X0212345Y0201966D01*
X0212345Y0205901D01*
X0212345Y0204974D02*
X0217534Y0204974D01*
X0215936Y0203375D02*
X0212345Y0203375D01*
X0212156Y0201777D02*
X0214745Y0201777D01*
X0214745Y0200178D02*
X0210558Y0200178D01*
X0209563Y0198683D02*
X0205628Y0198683D01*
X0202845Y0195901D01*
X0202845Y0191966D01*
X0205628Y0189183D01*
X0209563Y0189183D01*
X0212345Y0191966D01*
X0212345Y0195901D01*
X0209563Y0198683D01*
X0209666Y0198580D02*
X0214745Y0198580D01*
X0214745Y0196981D02*
X0211264Y0196981D01*
X0212345Y0195383D02*
X0215044Y0195383D01*
X0216642Y0193784D02*
X0212345Y0193784D01*
X0212345Y0192186D02*
X0218241Y0192186D01*
X0219344Y0186783D02*
X0214745Y0182185D01*
X0214745Y0175681D01*
X0219344Y0171083D01*
X0225847Y0171083D01*
X0230095Y0175332D01*
X0234344Y0171083D01*
X0240847Y0171083D01*
X0245445Y0175681D01*
X0245445Y0182185D01*
X0240847Y0186783D01*
X0234344Y0186783D01*
X0230095Y0182535D01*
X0225847Y0186783D01*
X0219344Y0186783D01*
X0218352Y0185792D02*
X0212345Y0185792D01*
X0212345Y0185901D02*
X0209563Y0188683D01*
X0205628Y0188683D01*
X0202845Y0185901D01*
X0202845Y0181966D01*
X0205628Y0179183D01*
X0209563Y0179183D01*
X0212345Y0181966D01*
X0212345Y0185901D01*
X0212345Y0184193D02*
X0216754Y0184193D01*
X0215155Y0182595D02*
X0212345Y0182595D01*
X0211376Y0180996D02*
X0214745Y0180996D01*
X0214745Y0179398D02*
X0209777Y0179398D01*
X0210447Y0177799D02*
X0214745Y0177799D01*
X0214745Y0176201D02*
X0212045Y0176201D01*
X0212345Y0174602D02*
X0215825Y0174602D01*
X0217423Y0173004D02*
X0212345Y0173004D01*
X0211785Y0171405D02*
X0219022Y0171405D01*
X0220038Y0168208D02*
X0225153Y0168208D01*
X0223554Y0166610D02*
X0221636Y0166610D01*
X0222345Y0165011D02*
X0222845Y0165011D01*
X0222845Y0163412D02*
X0222345Y0163412D01*
X0222194Y0161814D02*
X0222997Y0161814D01*
X0224595Y0160215D02*
X0220595Y0160215D01*
X0226169Y0171405D02*
X0234022Y0171405D01*
X0232423Y0173004D02*
X0227767Y0173004D01*
X0229366Y0174602D02*
X0230825Y0174602D01*
X0230155Y0182595D02*
X0230035Y0182595D01*
X0228437Y0184193D02*
X0231754Y0184193D01*
X0233352Y0185792D02*
X0226838Y0185792D01*
X0226949Y0192186D02*
X0233241Y0192186D01*
X0231642Y0193784D02*
X0228548Y0193784D01*
X0229254Y0203375D02*
X0230936Y0203375D01*
X0232534Y0204974D02*
X0227656Y0204974D01*
X0226057Y0206572D02*
X0234133Y0206572D01*
X0234059Y0211368D02*
X0226131Y0211368D01*
X0227730Y0212966D02*
X0232460Y0212966D01*
X0230862Y0214565D02*
X0229328Y0214565D01*
X0230072Y0222557D02*
X0230118Y0222557D01*
X0231716Y0224156D02*
X0228474Y0224156D01*
X0226875Y0225754D02*
X0233315Y0225754D01*
X0233278Y0232148D02*
X0226912Y0232148D01*
X0228511Y0233747D02*
X0231680Y0233747D01*
X0230899Y0243338D02*
X0229292Y0243338D01*
X0227693Y0244937D02*
X0232497Y0244937D01*
X0234096Y0246535D02*
X0226095Y0246535D01*
X0219096Y0246535D02*
X0212197Y0246535D01*
X0212545Y0248134D02*
X0247881Y0248134D01*
X0247881Y0249732D02*
X0212545Y0249732D01*
X0212198Y0251331D02*
X0247881Y0251331D01*
X0247881Y0252929D02*
X0210599Y0252929D01*
X0210599Y0244937D02*
X0217497Y0244937D01*
X0221883Y0255352D02*
X0223307Y0255352D01*
X0224624Y0255897D01*
X0225631Y0256905D01*
X0226176Y0258221D01*
X0226176Y0259645D01*
X0225631Y0260962D01*
X0224624Y0261969D01*
X0223307Y0262514D01*
X0221883Y0262514D01*
X0220567Y0261969D01*
X0219559Y0260962D01*
X0219014Y0259645D01*
X0219014Y0258221D01*
X0219559Y0256905D01*
X0220567Y0255897D01*
X0221883Y0255352D01*
X0220338Y0256126D02*
X0049853Y0256126D01*
X0049624Y0255897D02*
X0050631Y0256905D01*
X0051176Y0258221D01*
X0051176Y0259645D01*
X0050631Y0260962D01*
X0049624Y0261969D01*
X0048307Y0262514D01*
X0046883Y0262514D01*
X0045567Y0261969D01*
X0044559Y0260962D01*
X0044014Y0259645D01*
X0044014Y0258221D01*
X0044559Y0256905D01*
X0045567Y0255897D01*
X0046883Y0255352D01*
X0048307Y0255352D01*
X0049624Y0255897D01*
X0050971Y0257725D02*
X0219220Y0257725D01*
X0219014Y0259323D02*
X0051176Y0259323D01*
X0050648Y0260922D02*
X0219543Y0260922D01*
X0224853Y0256126D02*
X0235338Y0256126D01*
X0235567Y0255897D02*
X0234559Y0256905D01*
X0234014Y0258221D01*
X0234014Y0259645D01*
X0234559Y0260962D01*
X0235567Y0261969D01*
X0236883Y0262514D01*
X0238307Y0262514D01*
X0239624Y0261969D01*
X0240631Y0260962D01*
X0241176Y0259645D01*
X0241176Y0258221D01*
X0240631Y0256905D01*
X0239624Y0255897D01*
X0238307Y0255352D01*
X0236883Y0255352D01*
X0235567Y0255897D01*
X0234220Y0257725D02*
X0225971Y0257725D01*
X0226176Y0259323D02*
X0234014Y0259323D01*
X0234543Y0260922D02*
X0225648Y0260922D01*
X0239853Y0256126D02*
X0247881Y0256126D01*
X0247881Y0254528D02*
X0040695Y0254528D01*
X0040695Y0256126D02*
X0045338Y0256126D01*
X0044220Y0257725D02*
X0040695Y0257725D01*
X0040695Y0259323D02*
X0044014Y0259323D01*
X0044543Y0260922D02*
X0040695Y0260922D01*
X0040695Y0262520D02*
X0247881Y0262520D01*
X0247881Y0260922D02*
X0240648Y0260922D01*
X0241176Y0259323D02*
X0247881Y0259323D01*
X0247881Y0257725D02*
X0240971Y0257725D01*
X0241095Y0246535D02*
X0247881Y0246535D01*
X0247881Y0244937D02*
X0242693Y0244937D01*
X0244292Y0243338D02*
X0247881Y0243338D01*
X0247881Y0241740D02*
X0245445Y0241740D01*
X0245445Y0240141D02*
X0247881Y0240141D01*
X0247881Y0238543D02*
X0245445Y0238543D01*
X0245445Y0236944D02*
X0247881Y0236944D01*
X0247881Y0235345D02*
X0245109Y0235345D01*
X0243511Y0233747D02*
X0247881Y0233747D01*
X0247881Y0232148D02*
X0241912Y0232148D01*
X0247881Y0230550D02*
X0040695Y0230550D01*
X0040695Y0228951D02*
X0247881Y0228951D01*
X0247881Y0227353D02*
X0210893Y0227353D01*
X0204298Y0227353D02*
X0200893Y0227353D01*
X0202345Y0225754D02*
X0202845Y0225754D01*
X0202845Y0224156D02*
X0202345Y0224156D01*
X0202345Y0222557D02*
X0202845Y0222557D01*
X0203852Y0220959D02*
X0201338Y0220959D01*
X0199740Y0219360D02*
X0205450Y0219360D01*
X0204706Y0217762D02*
X0200484Y0217762D01*
X0202082Y0216163D02*
X0203108Y0216163D01*
X0202845Y0214565D02*
X0202345Y0214565D01*
X0202345Y0212966D02*
X0202845Y0212966D01*
X0203443Y0211368D02*
X0201747Y0211368D01*
X0200149Y0209769D02*
X0205041Y0209769D01*
X0205115Y0208171D02*
X0200075Y0208171D01*
X0201673Y0206572D02*
X0203517Y0206572D01*
X0202845Y0204974D02*
X0202345Y0204974D01*
X0202345Y0203375D02*
X0202845Y0203375D01*
X0203034Y0201777D02*
X0202156Y0201777D01*
X0200558Y0200178D02*
X0204632Y0200178D01*
X0205524Y0198580D02*
X0199666Y0198580D01*
X0201264Y0196981D02*
X0203926Y0196981D01*
X0202845Y0195383D02*
X0202345Y0195383D01*
X0202345Y0193784D02*
X0202845Y0193784D01*
X0202845Y0192186D02*
X0202345Y0192186D01*
X0200967Y0190587D02*
X0204224Y0190587D01*
X0204335Y0187390D02*
X0200856Y0187390D01*
X0202345Y0185792D02*
X0202845Y0185792D01*
X0202845Y0184193D02*
X0202345Y0184193D01*
X0202345Y0182595D02*
X0202845Y0182595D01*
X0203815Y0180996D02*
X0201376Y0180996D01*
X0199777Y0179398D02*
X0205413Y0179398D01*
X0204744Y0177799D02*
X0200447Y0177799D01*
X0202045Y0176201D02*
X0203145Y0176201D01*
X0202845Y0174602D02*
X0202345Y0174602D01*
X0202345Y0173004D02*
X0202845Y0173004D01*
X0203406Y0171405D02*
X0201785Y0171405D01*
X0200186Y0169807D02*
X0205004Y0169807D01*
X0205153Y0168208D02*
X0200038Y0168208D01*
X0201636Y0166610D02*
X0203554Y0166610D01*
X0202845Y0165011D02*
X0202345Y0165011D01*
X0202345Y0163412D02*
X0202845Y0163412D01*
X0202997Y0161814D02*
X0202194Y0161814D01*
X0184595Y0160215D02*
X0180595Y0160215D01*
X0179563Y0159183D02*
X0182345Y0161966D01*
X0182345Y0165901D01*
X0179563Y0168683D01*
X0175628Y0168683D01*
X0172845Y0165901D01*
X0172845Y0161966D01*
X0175628Y0159183D01*
X0179563Y0159183D01*
X0182194Y0161814D02*
X0182997Y0161814D01*
X0182845Y0163412D02*
X0182345Y0163412D01*
X0182345Y0165011D02*
X0182845Y0165011D01*
X0183554Y0166610D02*
X0181636Y0166610D01*
X0180038Y0168208D02*
X0185153Y0168208D01*
X0185004Y0169807D02*
X0180186Y0169807D01*
X0179563Y0169183D02*
X0182345Y0171966D01*
X0182345Y0175901D01*
X0179563Y0178683D01*
X0175628Y0178683D01*
X0172845Y0175901D01*
X0172845Y0171966D01*
X0175628Y0169183D01*
X0179563Y0169183D01*
X0181785Y0171405D02*
X0183406Y0171405D01*
X0182845Y0173004D02*
X0182345Y0173004D01*
X0182345Y0174602D02*
X0182845Y0174602D01*
X0183145Y0176201D02*
X0182045Y0176201D01*
X0180447Y0177799D02*
X0184744Y0177799D01*
X0185413Y0179398D02*
X0179777Y0179398D01*
X0179563Y0179183D02*
X0182345Y0181966D01*
X0182345Y0185901D01*
X0179563Y0188683D01*
X0175628Y0188683D01*
X0172845Y0185901D01*
X0172845Y0181966D01*
X0175628Y0179183D01*
X0179563Y0179183D01*
X0181376Y0180996D02*
X0183815Y0180996D01*
X0182845Y0182595D02*
X0182345Y0182595D01*
X0182345Y0184193D02*
X0182845Y0184193D01*
X0182845Y0185792D02*
X0182345Y0185792D01*
X0180856Y0187390D02*
X0184335Y0187390D01*
X0184224Y0190587D02*
X0180967Y0190587D01*
X0182345Y0191966D02*
X0179563Y0189183D01*
X0175628Y0189183D01*
X0172845Y0191966D01*
X0172845Y0195901D01*
X0175628Y0198683D01*
X0179563Y0198683D01*
X0182345Y0195901D01*
X0182345Y0191966D01*
X0182345Y0192186D02*
X0182845Y0192186D01*
X0182845Y0193784D02*
X0182345Y0193784D01*
X0182345Y0195383D02*
X0182845Y0195383D01*
X0183926Y0196981D02*
X0181264Y0196981D01*
X0179666Y0198580D02*
X0185524Y0198580D01*
X0184632Y0200178D02*
X0180558Y0200178D01*
X0179563Y0199183D02*
X0182345Y0201966D01*
X0182345Y0205901D01*
X0179563Y0208683D01*
X0175628Y0208683D01*
X0172845Y0205901D01*
X0172845Y0201966D01*
X0175628Y0199183D01*
X0179563Y0199183D01*
X0182156Y0201777D02*
X0183034Y0201777D01*
X0182845Y0203375D02*
X0182345Y0203375D01*
X0182345Y0204974D02*
X0182845Y0204974D01*
X0183517Y0206572D02*
X0181673Y0206572D01*
X0180075Y0208171D02*
X0185115Y0208171D01*
X0185041Y0209769D02*
X0180149Y0209769D01*
X0179563Y0209183D02*
X0182345Y0211966D01*
X0182345Y0215901D01*
X0179563Y0218683D01*
X0175628Y0218683D01*
X0172845Y0215901D01*
X0172845Y0211966D01*
X0175628Y0209183D01*
X0179563Y0209183D01*
X0181747Y0211368D02*
X0183443Y0211368D01*
X0182845Y0212966D02*
X0182345Y0212966D01*
X0182345Y0214565D02*
X0182845Y0214565D01*
X0183108Y0216163D02*
X0182082Y0216163D01*
X0180484Y0217762D02*
X0184706Y0217762D01*
X0185450Y0219360D02*
X0179740Y0219360D01*
X0179563Y0219183D02*
X0182345Y0221966D01*
X0182345Y0225901D01*
X0179563Y0228683D01*
X0175628Y0228683D01*
X0172845Y0225901D01*
X0172845Y0221966D01*
X0175628Y0219183D01*
X0179563Y0219183D01*
X0181338Y0220959D02*
X0183852Y0220959D01*
X0182845Y0222557D02*
X0182345Y0222557D01*
X0182345Y0224156D02*
X0182845Y0224156D01*
X0182845Y0225754D02*
X0182345Y0225754D01*
X0180893Y0227353D02*
X0184298Y0227353D01*
X0184465Y0235345D02*
X0180725Y0235345D01*
X0182324Y0236944D02*
X0182867Y0236944D01*
X0182845Y0238543D02*
X0182345Y0238543D01*
X0182345Y0240141D02*
X0182845Y0240141D01*
X0183684Y0241740D02*
X0181506Y0241740D01*
X0174298Y0227353D02*
X0170893Y0227353D01*
X0169563Y0228683D02*
X0165628Y0228683D01*
X0162845Y0225901D01*
X0162845Y0221966D01*
X0165628Y0219183D01*
X0169563Y0219183D01*
X0172345Y0221966D01*
X0172345Y0225901D01*
X0169563Y0228683D01*
X0172345Y0225754D02*
X0172845Y0225754D01*
X0172845Y0224156D02*
X0172345Y0224156D01*
X0172345Y0222557D02*
X0172845Y0222557D01*
X0173852Y0220959D02*
X0171338Y0220959D01*
X0169740Y0219360D02*
X0175450Y0219360D01*
X0174706Y0217762D02*
X0170484Y0217762D01*
X0169563Y0218683D02*
X0165628Y0218683D01*
X0162845Y0215901D01*
X0162845Y0211966D01*
X0165628Y0209183D01*
X0169563Y0209183D01*
X0172345Y0211966D01*
X0172345Y0215901D01*
X0169563Y0218683D01*
X0172082Y0216163D02*
X0173108Y0216163D01*
X0172845Y0214565D02*
X0172345Y0214565D01*
X0172345Y0212966D02*
X0172845Y0212966D01*
X0173443Y0211368D02*
X0171747Y0211368D01*
X0170149Y0209769D02*
X0175041Y0209769D01*
X0175115Y0208171D02*
X0170075Y0208171D01*
X0169563Y0208683D02*
X0165628Y0208683D01*
X0162845Y0205901D01*
X0162845Y0201966D01*
X0165628Y0199183D01*
X0169563Y0199183D01*
X0172345Y0201966D01*
X0172345Y0205901D01*
X0169563Y0208683D01*
X0171673Y0206572D02*
X0173517Y0206572D01*
X0172845Y0204974D02*
X0172345Y0204974D01*
X0172345Y0203375D02*
X0172845Y0203375D01*
X0173034Y0201777D02*
X0172156Y0201777D01*
X0170558Y0200178D02*
X0174632Y0200178D01*
X0175524Y0198580D02*
X0169666Y0198580D01*
X0169563Y0198683D02*
X0165628Y0198683D01*
X0162845Y0195901D01*
X0162845Y0191966D01*
X0165628Y0189183D01*
X0169563Y0189183D01*
X0172345Y0191966D01*
X0172345Y0195901D01*
X0169563Y0198683D01*
X0171264Y0196981D02*
X0173926Y0196981D01*
X0172845Y0195383D02*
X0172345Y0195383D01*
X0172345Y0193784D02*
X0172845Y0193784D01*
X0172845Y0192186D02*
X0172345Y0192186D01*
X0170967Y0190587D02*
X0174224Y0190587D01*
X0174335Y0187390D02*
X0170856Y0187390D01*
X0169563Y0188683D02*
X0165628Y0188683D01*
X0162845Y0185901D01*
X0162845Y0181966D01*
X0165628Y0179183D01*
X0169563Y0179183D01*
X0172345Y0181966D01*
X0172345Y0185901D01*
X0169563Y0188683D01*
X0172345Y0185792D02*
X0172845Y0185792D01*
X0172845Y0184193D02*
X0172345Y0184193D01*
X0172345Y0182595D02*
X0172845Y0182595D01*
X0173815Y0180996D02*
X0171376Y0180996D01*
X0169777Y0179398D02*
X0175413Y0179398D01*
X0174744Y0177799D02*
X0170447Y0177799D01*
X0169563Y0178683D02*
X0165628Y0178683D01*
X0162845Y0175901D01*
X0162845Y0171966D01*
X0165628Y0169183D01*
X0169563Y0169183D01*
X0172345Y0171966D01*
X0172345Y0175901D01*
X0169563Y0178683D01*
X0172045Y0176201D02*
X0173145Y0176201D01*
X0172845Y0174602D02*
X0172345Y0174602D01*
X0172345Y0173004D02*
X0172845Y0173004D01*
X0173406Y0171405D02*
X0171785Y0171405D01*
X0170186Y0169807D02*
X0175004Y0169807D01*
X0175153Y0168208D02*
X0170038Y0168208D01*
X0169563Y0168683D02*
X0165628Y0168683D01*
X0162845Y0165901D01*
X0162845Y0161966D01*
X0165628Y0159183D01*
X0169563Y0159183D01*
X0172345Y0161966D01*
X0172345Y0165901D01*
X0169563Y0168683D01*
X0171636Y0166610D02*
X0173554Y0166610D01*
X0172845Y0165011D02*
X0172345Y0165011D01*
X0172345Y0163412D02*
X0172845Y0163412D01*
X0172997Y0161814D02*
X0172194Y0161814D01*
X0170595Y0160215D02*
X0174595Y0160215D01*
X0164595Y0160215D02*
X0160595Y0160215D01*
X0159563Y0159183D02*
X0162345Y0161966D01*
X0162345Y0165901D01*
X0159563Y0168683D01*
X0155628Y0168683D01*
X0152845Y0165901D01*
X0152845Y0161966D01*
X0155628Y0159183D01*
X0159563Y0159183D01*
X0162194Y0161814D02*
X0162997Y0161814D01*
X0162845Y0163412D02*
X0162345Y0163412D01*
X0162345Y0165011D02*
X0162845Y0165011D01*
X0163554Y0166610D02*
X0161636Y0166610D01*
X0160038Y0168208D02*
X0165153Y0168208D01*
X0165004Y0169807D02*
X0160186Y0169807D01*
X0159563Y0169183D02*
X0162345Y0171966D01*
X0162345Y0175901D01*
X0159563Y0178683D01*
X0155628Y0178683D01*
X0152845Y0175901D01*
X0152845Y0171966D01*
X0155628Y0169183D01*
X0159563Y0169183D01*
X0161785Y0171405D02*
X0163406Y0171405D01*
X0162845Y0173004D02*
X0162345Y0173004D01*
X0162345Y0174602D02*
X0162845Y0174602D01*
X0163145Y0176201D02*
X0162045Y0176201D01*
X0160447Y0177799D02*
X0164744Y0177799D01*
X0165413Y0179398D02*
X0159777Y0179398D01*
X0159563Y0179183D02*
X0162345Y0181966D01*
X0162345Y0185901D01*
X0159563Y0188683D01*
X0155628Y0188683D01*
X0152845Y0185901D01*
X0152845Y0181966D01*
X0155628Y0179183D01*
X0159563Y0179183D01*
X0161376Y0180996D02*
X0163815Y0180996D01*
X0162845Y0182595D02*
X0162345Y0182595D01*
X0162345Y0184193D02*
X0162845Y0184193D01*
X0162845Y0185792D02*
X0162345Y0185792D01*
X0160856Y0187390D02*
X0164335Y0187390D01*
X0164224Y0190587D02*
X0160967Y0190587D01*
X0162345Y0191966D02*
X0159563Y0189183D01*
X0155628Y0189183D01*
X0152845Y0191966D01*
X0152845Y0195901D01*
X0155628Y0198683D01*
X0159563Y0198683D01*
X0162345Y0195901D01*
X0162345Y0191966D01*
X0162345Y0192186D02*
X0162845Y0192186D01*
X0162845Y0193784D02*
X0162345Y0193784D01*
X0162345Y0195383D02*
X0162845Y0195383D01*
X0163926Y0196981D02*
X0161264Y0196981D01*
X0159666Y0198580D02*
X0165524Y0198580D01*
X0164632Y0200178D02*
X0160558Y0200178D01*
X0159563Y0199183D02*
X0162345Y0201966D01*
X0162345Y0205901D01*
X0159563Y0208683D01*
X0155628Y0208683D01*
X0152845Y0205901D01*
X0152845Y0201966D01*
X0155628Y0199183D01*
X0159563Y0199183D01*
X0162156Y0201777D02*
X0163034Y0201777D01*
X0162845Y0203375D02*
X0162345Y0203375D01*
X0162345Y0204974D02*
X0162845Y0204974D01*
X0163517Y0206572D02*
X0161673Y0206572D01*
X0160075Y0208171D02*
X0165115Y0208171D01*
X0165041Y0209769D02*
X0160149Y0209769D01*
X0159563Y0209183D02*
X0162345Y0211966D01*
X0162345Y0215901D01*
X0159563Y0218683D01*
X0155628Y0218683D01*
X0152845Y0215901D01*
X0152845Y0211966D01*
X0155628Y0209183D01*
X0159563Y0209183D01*
X0161747Y0211368D02*
X0163443Y0211368D01*
X0162845Y0212966D02*
X0162345Y0212966D01*
X0162345Y0214565D02*
X0162845Y0214565D01*
X0163108Y0216163D02*
X0162082Y0216163D01*
X0160484Y0217762D02*
X0164706Y0217762D01*
X0165450Y0219360D02*
X0159740Y0219360D01*
X0159563Y0219183D02*
X0162345Y0221966D01*
X0162345Y0225901D01*
X0159563Y0228683D01*
X0155628Y0228683D01*
X0152845Y0225901D01*
X0152845Y0221966D01*
X0155628Y0219183D01*
X0159563Y0219183D01*
X0161338Y0220959D02*
X0163852Y0220959D01*
X0162845Y0222557D02*
X0162345Y0222557D01*
X0162345Y0224156D02*
X0162845Y0224156D01*
X0162845Y0225754D02*
X0162345Y0225754D01*
X0160893Y0227353D02*
X0164298Y0227353D01*
X0154298Y0227353D02*
X0150893Y0227353D01*
X0152345Y0225754D02*
X0152845Y0225754D01*
X0152845Y0224156D02*
X0152345Y0224156D01*
X0152345Y0222557D02*
X0152845Y0222557D01*
X0153852Y0220959D02*
X0151338Y0220959D01*
X0149740Y0219360D02*
X0155450Y0219360D01*
X0154706Y0217762D02*
X0150484Y0217762D01*
X0152082Y0216163D02*
X0153108Y0216163D01*
X0152845Y0214565D02*
X0152345Y0214565D01*
X0152345Y0212966D02*
X0152845Y0212966D01*
X0153443Y0211368D02*
X0151747Y0211368D01*
X0150149Y0209769D02*
X0155041Y0209769D01*
X0155115Y0208171D02*
X0150075Y0208171D01*
X0151673Y0206572D02*
X0153517Y0206572D01*
X0152845Y0204974D02*
X0152345Y0204974D01*
X0152345Y0203375D02*
X0152845Y0203375D01*
X0153034Y0201777D02*
X0152156Y0201777D01*
X0150558Y0200178D02*
X0154632Y0200178D01*
X0155524Y0198580D02*
X0149666Y0198580D01*
X0151264Y0196981D02*
X0153926Y0196981D01*
X0152845Y0195383D02*
X0152345Y0195383D01*
X0152345Y0193784D02*
X0152845Y0193784D01*
X0152845Y0192186D02*
X0152345Y0192186D01*
X0150967Y0190587D02*
X0154224Y0190587D01*
X0154335Y0187390D02*
X0150856Y0187390D01*
X0152345Y0185792D02*
X0152845Y0185792D01*
X0152845Y0184193D02*
X0152345Y0184193D01*
X0152345Y0182595D02*
X0152845Y0182595D01*
X0153815Y0180996D02*
X0151376Y0180996D01*
X0149777Y0179398D02*
X0155413Y0179398D01*
X0154744Y0177799D02*
X0150447Y0177799D01*
X0152045Y0176201D02*
X0153145Y0176201D01*
X0152845Y0174602D02*
X0152345Y0174602D01*
X0152345Y0173004D02*
X0152845Y0173004D01*
X0153406Y0171405D02*
X0151785Y0171405D01*
X0150186Y0169807D02*
X0155004Y0169807D01*
X0155153Y0168208D02*
X0150038Y0168208D01*
X0151636Y0166610D02*
X0153554Y0166610D01*
X0152845Y0165011D02*
X0152345Y0165011D01*
X0152345Y0163412D02*
X0152845Y0163412D01*
X0152997Y0161814D02*
X0152194Y0161814D01*
X0150595Y0160215D02*
X0154595Y0160215D01*
X0155628Y0148683D02*
X0152845Y0145901D01*
X0152845Y0141966D01*
X0155628Y0139183D01*
X0159563Y0139183D01*
X0162345Y0141966D01*
X0162345Y0145901D01*
X0159563Y0148683D01*
X0155628Y0148683D01*
X0154372Y0147427D02*
X0150818Y0147427D01*
X0149563Y0148683D02*
X0145628Y0148683D01*
X0142845Y0145901D01*
X0142845Y0141966D01*
X0145628Y0139183D01*
X0149563Y0139183D01*
X0152345Y0141966D01*
X0152345Y0145901D01*
X0149563Y0148683D01*
X0152345Y0145829D02*
X0152845Y0145829D01*
X0152845Y0144230D02*
X0152345Y0144230D01*
X0152345Y0142632D02*
X0152845Y0142632D01*
X0153777Y0141033D02*
X0151413Y0141033D01*
X0149814Y0139435D02*
X0155376Y0139435D01*
X0155628Y0138683D02*
X0152845Y0135901D01*
X0152845Y0131966D01*
X0155628Y0129183D01*
X0159563Y0129183D01*
X0162345Y0131966D01*
X0162345Y0135901D01*
X0159563Y0138683D01*
X0155628Y0138683D01*
X0154781Y0137836D02*
X0150409Y0137836D01*
X0149563Y0138683D02*
X0145628Y0138683D01*
X0142845Y0135901D01*
X0142845Y0131966D01*
X0145628Y0129183D01*
X0149563Y0129183D01*
X0152345Y0131966D01*
X0152345Y0135901D01*
X0149563Y0138683D01*
X0152008Y0136238D02*
X0153182Y0136238D01*
X0152845Y0134639D02*
X0152345Y0134639D01*
X0152345Y0133041D02*
X0152845Y0133041D01*
X0153368Y0131442D02*
X0151822Y0131442D01*
X0150223Y0129844D02*
X0154967Y0129844D01*
X0155628Y0128683D02*
X0152845Y0125901D01*
X0152845Y0121966D01*
X0155628Y0119183D01*
X0159563Y0119183D01*
X0162345Y0121966D01*
X0162345Y0125901D01*
X0159563Y0128683D01*
X0155628Y0128683D01*
X0155190Y0128245D02*
X0150000Y0128245D01*
X0149563Y0128683D02*
X0145628Y0128683D01*
X0142845Y0125901D01*
X0142845Y0121966D01*
X0145628Y0119183D01*
X0149563Y0119183D01*
X0152345Y0121966D01*
X0152345Y0125901D01*
X0149563Y0128683D01*
X0151599Y0126647D02*
X0153591Y0126647D01*
X0152845Y0125048D02*
X0152345Y0125048D01*
X0152345Y0123450D02*
X0152845Y0123450D01*
X0152959Y0121851D02*
X0152231Y0121851D01*
X0150632Y0120253D02*
X0154558Y0120253D01*
X0155628Y0118683D02*
X0152845Y0115901D01*
X0152845Y0111966D01*
X0155628Y0109183D01*
X0159563Y0109183D01*
X0162345Y0111966D01*
X0162345Y0115901D01*
X0159563Y0118683D01*
X0155628Y0118683D01*
X0155599Y0118654D02*
X0149592Y0118654D01*
X0149563Y0118683D02*
X0145628Y0118683D01*
X0142845Y0115901D01*
X0142845Y0111966D01*
X0145628Y0109183D01*
X0149563Y0109183D01*
X0152345Y0111966D01*
X0152345Y0115901D01*
X0149563Y0118683D01*
X0151190Y0117056D02*
X0154000Y0117056D01*
X0152845Y0115457D02*
X0152345Y0115457D01*
X0152345Y0113859D02*
X0152845Y0113859D01*
X0152845Y0112260D02*
X0152345Y0112260D01*
X0151041Y0110662D02*
X0154149Y0110662D01*
X0155628Y0108683D02*
X0152845Y0105901D01*
X0152845Y0101966D01*
X0155628Y0099183D01*
X0159563Y0099183D01*
X0162345Y0101966D01*
X0162345Y0105901D01*
X0159563Y0108683D01*
X0155628Y0108683D01*
X0154409Y0107465D02*
X0150781Y0107465D01*
X0149563Y0108683D02*
X0145628Y0108683D01*
X0142845Y0105901D01*
X0142845Y0101966D01*
X0145628Y0099183D01*
X0149563Y0099183D01*
X0152345Y0101966D01*
X0152345Y0105901D01*
X0149563Y0108683D01*
X0152345Y0105866D02*
X0152845Y0105866D01*
X0152845Y0104268D02*
X0152345Y0104268D01*
X0152345Y0102669D02*
X0152845Y0102669D01*
X0153740Y0101071D02*
X0151450Y0101071D01*
X0149852Y0099472D02*
X0155339Y0099472D01*
X0155628Y0098683D02*
X0152845Y0095901D01*
X0152845Y0091966D01*
X0155628Y0089183D01*
X0159563Y0089183D01*
X0162345Y0091966D01*
X0162345Y0095901D01*
X0159563Y0098683D01*
X0155628Y0098683D01*
X0154818Y0097874D02*
X0150372Y0097874D01*
X0149563Y0098683D02*
X0145628Y0098683D01*
X0142845Y0095901D01*
X0142845Y0091966D01*
X0145628Y0089183D01*
X0149563Y0089183D01*
X0152345Y0091966D01*
X0152345Y0095901D01*
X0149563Y0098683D01*
X0151971Y0096275D02*
X0153220Y0096275D01*
X0152845Y0094677D02*
X0152345Y0094677D01*
X0152345Y0093078D02*
X0152845Y0093078D01*
X0153331Y0091479D02*
X0151859Y0091479D01*
X0150261Y0089881D02*
X0154930Y0089881D01*
X0155628Y0088683D02*
X0152845Y0085901D01*
X0152845Y0081966D01*
X0155628Y0079183D01*
X0159563Y0079183D01*
X0162345Y0081966D01*
X0162345Y0085901D01*
X0159563Y0088683D01*
X0155628Y0088683D01*
X0155227Y0088282D02*
X0149963Y0088282D01*
X0149563Y0088683D02*
X0145628Y0088683D01*
X0142845Y0085901D01*
X0142845Y0081966D01*
X0145628Y0079183D01*
X0149563Y0079183D01*
X0152345Y0081966D01*
X0152345Y0085901D01*
X0149563Y0088683D01*
X0151562Y0086684D02*
X0153629Y0086684D01*
X0152845Y0085085D02*
X0152345Y0085085D01*
X0152345Y0083487D02*
X0152845Y0083487D01*
X0152922Y0081888D02*
X0152268Y0081888D01*
X0150669Y0080290D02*
X0154521Y0080290D01*
X0160669Y0080290D02*
X0164521Y0080290D01*
X0162922Y0081888D02*
X0162268Y0081888D01*
X0162345Y0083487D02*
X0162845Y0083487D01*
X0162845Y0085085D02*
X0162345Y0085085D01*
X0161562Y0086684D02*
X0163629Y0086684D01*
X0165227Y0088282D02*
X0159963Y0088282D01*
X0160261Y0089881D02*
X0164930Y0089881D01*
X0163331Y0091479D02*
X0161859Y0091479D01*
X0162345Y0093078D02*
X0162845Y0093078D01*
X0162845Y0094677D02*
X0162345Y0094677D01*
X0161971Y0096275D02*
X0163220Y0096275D01*
X0164818Y0097874D02*
X0160372Y0097874D01*
X0159852Y0099472D02*
X0165339Y0099472D01*
X0163740Y0101071D02*
X0161450Y0101071D01*
X0162345Y0102669D02*
X0162845Y0102669D01*
X0162845Y0104268D02*
X0162345Y0104268D01*
X0162345Y0105866D02*
X0162845Y0105866D01*
X0164409Y0107465D02*
X0160781Y0107465D01*
X0161041Y0110662D02*
X0164149Y0110662D01*
X0162845Y0112260D02*
X0162345Y0112260D01*
X0162345Y0113859D02*
X0162845Y0113859D01*
X0162845Y0115457D02*
X0162345Y0115457D01*
X0161190Y0117056D02*
X0164000Y0117056D01*
X0165599Y0118654D02*
X0159592Y0118654D01*
X0160632Y0120253D02*
X0164558Y0120253D01*
X0162959Y0121851D02*
X0162231Y0121851D01*
X0162345Y0123450D02*
X0162845Y0123450D01*
X0162845Y0125048D02*
X0162345Y0125048D01*
X0161599Y0126647D02*
X0163591Y0126647D01*
X0165190Y0128245D02*
X0160000Y0128245D01*
X0160223Y0129844D02*
X0164967Y0129844D01*
X0163368Y0131442D02*
X0161822Y0131442D01*
X0162345Y0133041D02*
X0162845Y0133041D01*
X0162845Y0134639D02*
X0162345Y0134639D01*
X0162008Y0136238D02*
X0163182Y0136238D01*
X0164781Y0137836D02*
X0160409Y0137836D01*
X0159814Y0139435D02*
X0165376Y0139435D01*
X0163777Y0141033D02*
X0161413Y0141033D01*
X0162345Y0142632D02*
X0162845Y0142632D01*
X0162845Y0144230D02*
X0162345Y0144230D01*
X0162345Y0145829D02*
X0162845Y0145829D01*
X0164372Y0147427D02*
X0160818Y0147427D01*
X0144372Y0147427D02*
X0140818Y0147427D01*
X0139563Y0148683D02*
X0142345Y0145901D01*
X0142345Y0141966D01*
X0139563Y0139183D01*
X0135628Y0139183D01*
X0132845Y0141966D01*
X0132845Y0145901D01*
X0135628Y0148683D01*
X0139563Y0148683D01*
X0142345Y0145829D02*
X0142845Y0145829D01*
X0142845Y0144230D02*
X0142345Y0144230D01*
X0142345Y0142632D02*
X0142845Y0142632D01*
X0143777Y0141033D02*
X0141413Y0141033D01*
X0139814Y0139435D02*
X0145376Y0139435D01*
X0144781Y0137836D02*
X0140409Y0137836D01*
X0139563Y0138683D02*
X0135628Y0138683D01*
X0132845Y0135901D01*
X0132845Y0131966D01*
X0135628Y0129183D01*
X0139563Y0129183D01*
X0142345Y0131966D01*
X0142345Y0135901D01*
X0139563Y0138683D01*
X0142008Y0136238D02*
X0143182Y0136238D01*
X0142845Y0134639D02*
X0142345Y0134639D01*
X0142345Y0133041D02*
X0142845Y0133041D01*
X0143368Y0131442D02*
X0141822Y0131442D01*
X0140223Y0129844D02*
X0144967Y0129844D01*
X0145190Y0128245D02*
X0140000Y0128245D01*
X0139563Y0128683D02*
X0135628Y0128683D01*
X0132845Y0125901D01*
X0132845Y0121966D01*
X0135628Y0119183D01*
X0139563Y0119183D01*
X0142345Y0121966D01*
X0142345Y0125901D01*
X0139563Y0128683D01*
X0141599Y0126647D02*
X0143591Y0126647D01*
X0142845Y0125048D02*
X0142345Y0125048D01*
X0142345Y0123450D02*
X0142845Y0123450D01*
X0142959Y0121851D02*
X0142231Y0121851D01*
X0140632Y0120253D02*
X0144558Y0120253D01*
X0145599Y0118654D02*
X0139592Y0118654D01*
X0139563Y0118683D02*
X0135628Y0118683D01*
X0132845Y0115901D01*
X0132845Y0111966D01*
X0135628Y0109183D01*
X0139563Y0109183D01*
X0142345Y0111966D01*
X0142345Y0115901D01*
X0139563Y0118683D01*
X0141190Y0117056D02*
X0144000Y0117056D01*
X0142845Y0115457D02*
X0142345Y0115457D01*
X0142345Y0113859D02*
X0142845Y0113859D01*
X0142845Y0112260D02*
X0142345Y0112260D01*
X0141041Y0110662D02*
X0144149Y0110662D01*
X0144409Y0107465D02*
X0140781Y0107465D01*
X0139563Y0108683D02*
X0142345Y0105901D01*
X0142345Y0101966D01*
X0139563Y0099183D01*
X0135628Y0099183D01*
X0132845Y0101966D01*
X0132845Y0105901D01*
X0135628Y0108683D01*
X0139563Y0108683D01*
X0142345Y0105866D02*
X0142845Y0105866D01*
X0142845Y0104268D02*
X0142345Y0104268D01*
X0142345Y0102669D02*
X0142845Y0102669D01*
X0143740Y0101071D02*
X0141450Y0101071D01*
X0139852Y0099472D02*
X0145339Y0099472D01*
X0144818Y0097874D02*
X0140372Y0097874D01*
X0139563Y0098683D02*
X0135628Y0098683D01*
X0132845Y0095901D01*
X0132845Y0091966D01*
X0135628Y0089183D01*
X0139563Y0089183D01*
X0142345Y0091966D01*
X0142345Y0095901D01*
X0139563Y0098683D01*
X0141971Y0096275D02*
X0143220Y0096275D01*
X0142845Y0094677D02*
X0142345Y0094677D01*
X0142345Y0093078D02*
X0142845Y0093078D01*
X0143331Y0091479D02*
X0141859Y0091479D01*
X0140261Y0089881D02*
X0144930Y0089881D01*
X0145227Y0088282D02*
X0139963Y0088282D01*
X0139563Y0088683D02*
X0135628Y0088683D01*
X0132845Y0085901D01*
X0132845Y0081966D01*
X0135628Y0079183D01*
X0139563Y0079183D01*
X0142345Y0081966D01*
X0142345Y0085901D01*
X0139563Y0088683D01*
X0141562Y0086684D02*
X0143629Y0086684D01*
X0142845Y0085085D02*
X0142345Y0085085D01*
X0142345Y0083487D02*
X0142845Y0083487D01*
X0142922Y0081888D02*
X0142268Y0081888D01*
X0140669Y0080290D02*
X0144521Y0080290D01*
X0134521Y0080290D02*
X0130669Y0080290D01*
X0129563Y0079183D02*
X0132345Y0081966D01*
X0132345Y0085901D01*
X0129563Y0088683D01*
X0125628Y0088683D01*
X0122845Y0085901D01*
X0122845Y0081966D01*
X0125628Y0079183D01*
X0129563Y0079183D01*
X0132268Y0081888D02*
X0132922Y0081888D01*
X0132845Y0083487D02*
X0132345Y0083487D01*
X0132345Y0085085D02*
X0132845Y0085085D01*
X0133629Y0086684D02*
X0131562Y0086684D01*
X0129963Y0088282D02*
X0135227Y0088282D01*
X0134930Y0089881D02*
X0130261Y0089881D01*
X0129563Y0089183D02*
X0132345Y0091966D01*
X0132345Y0095901D01*
X0129563Y0098683D01*
X0125628Y0098683D01*
X0122845Y0095901D01*
X0122845Y0091966D01*
X0125628Y0089183D01*
X0129563Y0089183D01*
X0131859Y0091479D02*
X0133331Y0091479D01*
X0132845Y0093078D02*
X0132345Y0093078D01*
X0132345Y0094677D02*
X0132845Y0094677D01*
X0133220Y0096275D02*
X0131971Y0096275D01*
X0130372Y0097874D02*
X0134818Y0097874D01*
X0135339Y0099472D02*
X0129852Y0099472D01*
X0129563Y0099183D02*
X0132345Y0101966D01*
X0132345Y0105901D01*
X0129563Y0108683D01*
X0125628Y0108683D01*
X0122845Y0105901D01*
X0122845Y0101966D01*
X0125628Y0099183D01*
X0129563Y0099183D01*
X0131450Y0101071D02*
X0133740Y0101071D01*
X0132845Y0102669D02*
X0132345Y0102669D01*
X0132345Y0104268D02*
X0132845Y0104268D01*
X0132845Y0105866D02*
X0132345Y0105866D01*
X0130781Y0107465D02*
X0134409Y0107465D01*
X0134149Y0110662D02*
X0131041Y0110662D01*
X0132345Y0111966D02*
X0129563Y0109183D01*
X0125628Y0109183D01*
X0122845Y0111966D01*
X0122845Y0115901D01*
X0125628Y0118683D01*
X0129563Y0118683D01*
X0132345Y0115901D01*
X0132345Y0111966D01*
X0132345Y0112260D02*
X0132845Y0112260D01*
X0132845Y0113859D02*
X0132345Y0113859D01*
X0132345Y0115457D02*
X0132845Y0115457D01*
X0134000Y0117056D02*
X0131190Y0117056D01*
X0129592Y0118654D02*
X0135599Y0118654D01*
X0134558Y0120253D02*
X0130632Y0120253D01*
X0129563Y0119183D02*
X0132345Y0121966D01*
X0132345Y0125901D01*
X0129563Y0128683D01*
X0125628Y0128683D01*
X0122845Y0125901D01*
X0122845Y0121966D01*
X0125628Y0119183D01*
X0129563Y0119183D01*
X0132231Y0121851D02*
X0132959Y0121851D01*
X0132845Y0123450D02*
X0132345Y0123450D01*
X0132345Y0125048D02*
X0132845Y0125048D01*
X0133591Y0126647D02*
X0131599Y0126647D01*
X0130000Y0128245D02*
X0135190Y0128245D01*
X0134967Y0129844D02*
X0130223Y0129844D01*
X0129563Y0129183D02*
X0132345Y0131966D01*
X0132345Y0135901D01*
X0129563Y0138683D01*
X0125628Y0138683D01*
X0122845Y0135901D01*
X0122845Y0131966D01*
X0125628Y0129183D01*
X0129563Y0129183D01*
X0131822Y0131442D02*
X0133368Y0131442D01*
X0132845Y0133041D02*
X0132345Y0133041D01*
X0132345Y0134639D02*
X0132845Y0134639D01*
X0133182Y0136238D02*
X0132008Y0136238D01*
X0130409Y0137836D02*
X0134781Y0137836D01*
X0135376Y0139435D02*
X0129814Y0139435D01*
X0129563Y0139183D02*
X0132345Y0141966D01*
X0132345Y0145901D01*
X0129563Y0148683D01*
X0125628Y0148683D01*
X0122845Y0145901D01*
X0122845Y0141966D01*
X0125628Y0139183D01*
X0129563Y0139183D01*
X0131413Y0141033D02*
X0133777Y0141033D01*
X0132845Y0142632D02*
X0132345Y0142632D01*
X0132345Y0144230D02*
X0132845Y0144230D01*
X0132845Y0145829D02*
X0132345Y0145829D01*
X0130818Y0147427D02*
X0134372Y0147427D01*
X0125376Y0139435D02*
X0119814Y0139435D01*
X0119563Y0139183D02*
X0122345Y0141966D01*
X0122345Y0145901D01*
X0119563Y0148683D01*
X0115628Y0148683D01*
X0112845Y0145901D01*
X0112845Y0141966D01*
X0115628Y0139183D01*
X0119563Y0139183D01*
X0119563Y0138683D02*
X0115628Y0138683D01*
X0112845Y0135901D01*
X0112845Y0131966D01*
X0115628Y0129183D01*
X0119563Y0129183D01*
X0122345Y0131966D01*
X0122345Y0135901D01*
X0119563Y0138683D01*
X0120409Y0137836D02*
X0124781Y0137836D01*
X0123182Y0136238D02*
X0122008Y0136238D01*
X0122345Y0134639D02*
X0122845Y0134639D01*
X0122845Y0133041D02*
X0122345Y0133041D01*
X0121822Y0131442D02*
X0123368Y0131442D01*
X0124967Y0129844D02*
X0120223Y0129844D01*
X0119563Y0128683D02*
X0115628Y0128683D01*
X0112845Y0125901D01*
X0112845Y0121966D01*
X0115628Y0119183D01*
X0119563Y0119183D01*
X0122345Y0121966D01*
X0122345Y0125901D01*
X0119563Y0128683D01*
X0120000Y0128245D02*
X0125190Y0128245D01*
X0123591Y0126647D02*
X0121599Y0126647D01*
X0122345Y0125048D02*
X0122845Y0125048D01*
X0122845Y0123450D02*
X0122345Y0123450D01*
X0122231Y0121851D02*
X0122959Y0121851D01*
X0124558Y0120253D02*
X0120632Y0120253D01*
X0119563Y0118683D02*
X0122345Y0115901D01*
X0122345Y0111966D01*
X0119563Y0109183D01*
X0115628Y0109183D01*
X0112845Y0111966D01*
X0112845Y0115901D01*
X0115628Y0118683D01*
X0119563Y0118683D01*
X0119592Y0118654D02*
X0125599Y0118654D01*
X0124000Y0117056D02*
X0121190Y0117056D01*
X0122345Y0115457D02*
X0122845Y0115457D01*
X0122845Y0113859D02*
X0122345Y0113859D01*
X0122345Y0112260D02*
X0122845Y0112260D01*
X0124149Y0110662D02*
X0121041Y0110662D01*
X0119563Y0108683D02*
X0115628Y0108683D01*
X0112845Y0105901D01*
X0112845Y0101966D01*
X0115628Y0099183D01*
X0119563Y0099183D01*
X0122345Y0101966D01*
X0122345Y0105901D01*
X0119563Y0108683D01*
X0120781Y0107465D02*
X0124409Y0107465D01*
X0122845Y0105866D02*
X0122345Y0105866D01*
X0122345Y0104268D02*
X0122845Y0104268D01*
X0122845Y0102669D02*
X0122345Y0102669D01*
X0121450Y0101071D02*
X0123740Y0101071D01*
X0125339Y0099472D02*
X0119852Y0099472D01*
X0119563Y0098683D02*
X0115628Y0098683D01*
X0112845Y0095901D01*
X0112845Y0091966D01*
X0115628Y0089183D01*
X0119563Y0089183D01*
X0122345Y0091966D01*
X0122345Y0095901D01*
X0119563Y0098683D01*
X0120372Y0097874D02*
X0124818Y0097874D01*
X0123220Y0096275D02*
X0121971Y0096275D01*
X0122345Y0094677D02*
X0122845Y0094677D01*
X0122845Y0093078D02*
X0122345Y0093078D01*
X0121859Y0091479D02*
X0123331Y0091479D01*
X0124930Y0089881D02*
X0120261Y0089881D01*
X0119563Y0088683D02*
X0122345Y0085901D01*
X0122345Y0081966D01*
X0119563Y0079183D01*
X0115628Y0079183D01*
X0112845Y0081966D01*
X0112845Y0085901D01*
X0115628Y0088683D01*
X0119563Y0088683D01*
X0119963Y0088282D02*
X0125227Y0088282D01*
X0123629Y0086684D02*
X0121562Y0086684D01*
X0122345Y0085085D02*
X0122845Y0085085D01*
X0122845Y0083487D02*
X0122345Y0083487D01*
X0122268Y0081888D02*
X0122922Y0081888D01*
X0124521Y0080290D02*
X0120669Y0080290D01*
X0114521Y0080290D02*
X0110669Y0080290D01*
X0109563Y0079183D02*
X0112345Y0081966D01*
X0112345Y0085901D01*
X0109563Y0088683D01*
X0105628Y0088683D01*
X0102845Y0085901D01*
X0102845Y0081966D01*
X0105628Y0079183D01*
X0109563Y0079183D01*
X0112268Y0081888D02*
X0112922Y0081888D01*
X0112845Y0083487D02*
X0112345Y0083487D01*
X0112345Y0085085D02*
X0112845Y0085085D01*
X0113629Y0086684D02*
X0111562Y0086684D01*
X0109963Y0088282D02*
X0115227Y0088282D01*
X0114930Y0089881D02*
X0110261Y0089881D01*
X0109563Y0089183D02*
X0112345Y0091966D01*
X0112345Y0095901D01*
X0109563Y0098683D01*
X0105628Y0098683D01*
X0102845Y0095901D01*
X0102845Y0091966D01*
X0105628Y0089183D01*
X0109563Y0089183D01*
X0111859Y0091479D02*
X0113331Y0091479D01*
X0112845Y0093078D02*
X0112345Y0093078D01*
X0112345Y0094677D02*
X0112845Y0094677D01*
X0113220Y0096275D02*
X0111971Y0096275D01*
X0110372Y0097874D02*
X0114818Y0097874D01*
X0115339Y0099472D02*
X0109852Y0099472D01*
X0109563Y0099183D02*
X0112345Y0101966D01*
X0112345Y0105901D01*
X0109563Y0108683D01*
X0105628Y0108683D01*
X0102845Y0105901D01*
X0102845Y0101966D01*
X0105628Y0099183D01*
X0109563Y0099183D01*
X0111450Y0101071D02*
X0113740Y0101071D01*
X0112845Y0102669D02*
X0112345Y0102669D01*
X0112345Y0104268D02*
X0112845Y0104268D01*
X0112845Y0105866D02*
X0112345Y0105866D01*
X0110781Y0107465D02*
X0114409Y0107465D01*
X0114149Y0110662D02*
X0111041Y0110662D01*
X0112345Y0111966D02*
X0109563Y0109183D01*
X0105628Y0109183D01*
X0102845Y0111966D01*
X0102845Y0115901D01*
X0105628Y0118683D01*
X0109563Y0118683D01*
X0112345Y0115901D01*
X0112345Y0111966D01*
X0112345Y0112260D02*
X0112845Y0112260D01*
X0112845Y0113859D02*
X0112345Y0113859D01*
X0112345Y0115457D02*
X0112845Y0115457D01*
X0114000Y0117056D02*
X0111190Y0117056D01*
X0109592Y0118654D02*
X0115599Y0118654D01*
X0114558Y0120253D02*
X0110632Y0120253D01*
X0109563Y0119183D02*
X0112345Y0121966D01*
X0112345Y0125901D01*
X0109563Y0128683D01*
X0105628Y0128683D01*
X0102845Y0125901D01*
X0102845Y0121966D01*
X0105628Y0119183D01*
X0109563Y0119183D01*
X0112231Y0121851D02*
X0112959Y0121851D01*
X0112845Y0123450D02*
X0112345Y0123450D01*
X0112345Y0125048D02*
X0112845Y0125048D01*
X0113591Y0126647D02*
X0111599Y0126647D01*
X0110000Y0128245D02*
X0115190Y0128245D01*
X0114967Y0129844D02*
X0110223Y0129844D01*
X0109563Y0129183D02*
X0112345Y0131966D01*
X0112345Y0135901D01*
X0109563Y0138683D01*
X0105628Y0138683D01*
X0102845Y0135901D01*
X0102845Y0131966D01*
X0105628Y0129183D01*
X0109563Y0129183D01*
X0111822Y0131442D02*
X0113368Y0131442D01*
X0112845Y0133041D02*
X0112345Y0133041D01*
X0112345Y0134639D02*
X0112845Y0134639D01*
X0113182Y0136238D02*
X0112008Y0136238D01*
X0110409Y0137836D02*
X0114781Y0137836D01*
X0115376Y0139435D02*
X0109814Y0139435D01*
X0109563Y0139183D02*
X0112345Y0141966D01*
X0112345Y0145901D01*
X0109563Y0148683D01*
X0105628Y0148683D01*
X0102845Y0145901D01*
X0102845Y0141966D01*
X0105628Y0139183D01*
X0109563Y0139183D01*
X0111413Y0141033D02*
X0113777Y0141033D01*
X0112845Y0142632D02*
X0112345Y0142632D01*
X0112345Y0144230D02*
X0112845Y0144230D01*
X0112845Y0145829D02*
X0112345Y0145829D01*
X0110818Y0147427D02*
X0114372Y0147427D01*
X0120818Y0147427D02*
X0124372Y0147427D01*
X0122845Y0145829D02*
X0122345Y0145829D01*
X0122345Y0144230D02*
X0122845Y0144230D01*
X0122845Y0142632D02*
X0122345Y0142632D01*
X0121413Y0141033D02*
X0123777Y0141033D01*
X0105376Y0139435D02*
X0099814Y0139435D01*
X0099563Y0139183D02*
X0102345Y0141966D01*
X0102345Y0145901D01*
X0099563Y0148683D01*
X0095628Y0148683D01*
X0092845Y0145901D01*
X0092845Y0141966D01*
X0095628Y0139183D01*
X0099563Y0139183D01*
X0099563Y0138683D02*
X0095628Y0138683D01*
X0092845Y0135901D01*
X0092845Y0131966D01*
X0095628Y0129183D01*
X0099563Y0129183D01*
X0102345Y0131966D01*
X0102345Y0135901D01*
X0099563Y0138683D01*
X0100409Y0137836D02*
X0104781Y0137836D01*
X0103182Y0136238D02*
X0102008Y0136238D01*
X0102345Y0134639D02*
X0102845Y0134639D01*
X0102845Y0133041D02*
X0102345Y0133041D01*
X0101822Y0131442D02*
X0103368Y0131442D01*
X0104967Y0129844D02*
X0100223Y0129844D01*
X0099563Y0128683D02*
X0102345Y0125901D01*
X0102345Y0121966D01*
X0099563Y0119183D01*
X0095628Y0119183D01*
X0092845Y0121966D01*
X0092845Y0125901D01*
X0095628Y0128683D01*
X0099563Y0128683D01*
X0100000Y0128245D02*
X0105190Y0128245D01*
X0103591Y0126647D02*
X0101599Y0126647D01*
X0102345Y0125048D02*
X0102845Y0125048D01*
X0102845Y0123450D02*
X0102345Y0123450D01*
X0102231Y0121851D02*
X0102959Y0121851D01*
X0104558Y0120253D02*
X0100632Y0120253D01*
X0099563Y0118683D02*
X0102345Y0115901D01*
X0102345Y0111966D01*
X0099563Y0109183D01*
X0095628Y0109183D01*
X0092845Y0111966D01*
X0092845Y0115901D01*
X0095628Y0118683D01*
X0099563Y0118683D01*
X0099592Y0118654D02*
X0105599Y0118654D01*
X0104000Y0117056D02*
X0101190Y0117056D01*
X0102345Y0115457D02*
X0102845Y0115457D01*
X0102845Y0113859D02*
X0102345Y0113859D01*
X0102345Y0112260D02*
X0102845Y0112260D01*
X0104149Y0110662D02*
X0101041Y0110662D01*
X0099563Y0108683D02*
X0095628Y0108683D01*
X0092845Y0105901D01*
X0092845Y0101966D01*
X0095628Y0099183D01*
X0099563Y0099183D01*
X0102345Y0101966D01*
X0102345Y0105901D01*
X0099563Y0108683D01*
X0100781Y0107465D02*
X0104409Y0107465D01*
X0102845Y0105866D02*
X0102345Y0105866D01*
X0102345Y0104268D02*
X0102845Y0104268D01*
X0102845Y0102669D02*
X0102345Y0102669D01*
X0101450Y0101071D02*
X0103740Y0101071D01*
X0105339Y0099472D02*
X0099852Y0099472D01*
X0099563Y0098683D02*
X0102345Y0095901D01*
X0102345Y0091966D01*
X0099563Y0089183D01*
X0095628Y0089183D01*
X0092845Y0091966D01*
X0092845Y0095901D01*
X0095628Y0098683D01*
X0099563Y0098683D01*
X0100372Y0097874D02*
X0104818Y0097874D01*
X0103220Y0096275D02*
X0101971Y0096275D01*
X0102345Y0094677D02*
X0102845Y0094677D01*
X0102845Y0093078D02*
X0102345Y0093078D01*
X0101859Y0091479D02*
X0103331Y0091479D01*
X0104930Y0089881D02*
X0100261Y0089881D01*
X0099563Y0088683D02*
X0102345Y0085901D01*
X0102345Y0081966D01*
X0099563Y0079183D01*
X0095628Y0079183D01*
X0092845Y0081966D01*
X0092845Y0085901D01*
X0095628Y0088683D01*
X0099563Y0088683D01*
X0099963Y0088282D02*
X0105227Y0088282D01*
X0103629Y0086684D02*
X0101562Y0086684D01*
X0102345Y0085085D02*
X0102845Y0085085D01*
X0102845Y0083487D02*
X0102345Y0083487D01*
X0102268Y0081888D02*
X0102922Y0081888D01*
X0104521Y0080290D02*
X0100669Y0080290D01*
X0094521Y0080290D02*
X0090669Y0080290D01*
X0089563Y0079183D02*
X0092345Y0081966D01*
X0092345Y0085901D01*
X0089563Y0088683D01*
X0085628Y0088683D01*
X0082845Y0085901D01*
X0082845Y0081966D01*
X0085628Y0079183D01*
X0089563Y0079183D01*
X0092268Y0081888D02*
X0092922Y0081888D01*
X0092845Y0083487D02*
X0092345Y0083487D01*
X0092345Y0085085D02*
X0092845Y0085085D01*
X0093629Y0086684D02*
X0091562Y0086684D01*
X0089963Y0088282D02*
X0095227Y0088282D01*
X0094930Y0089881D02*
X0090261Y0089881D01*
X0089563Y0089183D02*
X0092345Y0091966D01*
X0092345Y0095901D01*
X0089563Y0098683D01*
X0085628Y0098683D01*
X0082845Y0095901D01*
X0082845Y0091966D01*
X0085628Y0089183D01*
X0089563Y0089183D01*
X0091859Y0091479D02*
X0093331Y0091479D01*
X0092845Y0093078D02*
X0092345Y0093078D01*
X0092345Y0094677D02*
X0092845Y0094677D01*
X0093220Y0096275D02*
X0091971Y0096275D01*
X0090372Y0097874D02*
X0094818Y0097874D01*
X0095339Y0099472D02*
X0089852Y0099472D01*
X0089563Y0099183D02*
X0092345Y0101966D01*
X0092345Y0105901D01*
X0089563Y0108683D01*
X0085628Y0108683D01*
X0082845Y0105901D01*
X0082845Y0101966D01*
X0085628Y0099183D01*
X0089563Y0099183D01*
X0091450Y0101071D02*
X0093740Y0101071D01*
X0092845Y0102669D02*
X0092345Y0102669D01*
X0092345Y0104268D02*
X0092845Y0104268D01*
X0092845Y0105866D02*
X0092345Y0105866D01*
X0090781Y0107465D02*
X0094409Y0107465D01*
X0094149Y0110662D02*
X0091041Y0110662D01*
X0092345Y0111966D02*
X0089563Y0109183D01*
X0085628Y0109183D01*
X0082845Y0111966D01*
X0082845Y0115901D01*
X0085628Y0118683D01*
X0089563Y0118683D01*
X0092345Y0115901D01*
X0092345Y0111966D01*
X0092345Y0112260D02*
X0092845Y0112260D01*
X0092845Y0113859D02*
X0092345Y0113859D01*
X0092345Y0115457D02*
X0092845Y0115457D01*
X0094000Y0117056D02*
X0091190Y0117056D01*
X0089592Y0118654D02*
X0095599Y0118654D01*
X0094558Y0120253D02*
X0090632Y0120253D01*
X0089563Y0119183D02*
X0092345Y0121966D01*
X0092345Y0125901D01*
X0089563Y0128683D01*
X0085628Y0128683D01*
X0082845Y0125901D01*
X0082845Y0121966D01*
X0085628Y0119183D01*
X0089563Y0119183D01*
X0092231Y0121851D02*
X0092959Y0121851D01*
X0092845Y0123450D02*
X0092345Y0123450D01*
X0092345Y0125048D02*
X0092845Y0125048D01*
X0093591Y0126647D02*
X0091599Y0126647D01*
X0090000Y0128245D02*
X0095190Y0128245D01*
X0094967Y0129844D02*
X0090223Y0129844D01*
X0089563Y0129183D02*
X0092345Y0131966D01*
X0092345Y0135901D01*
X0089563Y0138683D01*
X0085628Y0138683D01*
X0082845Y0135901D01*
X0082845Y0131966D01*
X0085628Y0129183D01*
X0089563Y0129183D01*
X0091822Y0131442D02*
X0093368Y0131442D01*
X0092845Y0133041D02*
X0092345Y0133041D01*
X0092345Y0134639D02*
X0092845Y0134639D01*
X0093182Y0136238D02*
X0092008Y0136238D01*
X0090409Y0137836D02*
X0094781Y0137836D01*
X0095376Y0139435D02*
X0089814Y0139435D01*
X0089563Y0139183D02*
X0092345Y0141966D01*
X0092345Y0145901D01*
X0089563Y0148683D01*
X0085628Y0148683D01*
X0082845Y0145901D01*
X0082845Y0141966D01*
X0085628Y0139183D01*
X0089563Y0139183D01*
X0091413Y0141033D02*
X0093777Y0141033D01*
X0092845Y0142632D02*
X0092345Y0142632D01*
X0092345Y0144230D02*
X0092845Y0144230D01*
X0092845Y0145829D02*
X0092345Y0145829D01*
X0090818Y0147427D02*
X0094372Y0147427D01*
X0100818Y0147427D02*
X0104372Y0147427D01*
X0102845Y0145829D02*
X0102345Y0145829D01*
X0102345Y0144230D02*
X0102845Y0144230D01*
X0102845Y0142632D02*
X0102345Y0142632D01*
X0101413Y0141033D02*
X0103777Y0141033D01*
X0085376Y0139435D02*
X0079814Y0139435D01*
X0079563Y0139183D02*
X0082345Y0141966D01*
X0082345Y0145901D01*
X0079563Y0148683D01*
X0075628Y0148683D01*
X0072845Y0145901D01*
X0072845Y0141966D01*
X0075628Y0139183D01*
X0079563Y0139183D01*
X0079563Y0138683D02*
X0075628Y0138683D01*
X0072845Y0135901D01*
X0072845Y0131966D01*
X0075628Y0129183D01*
X0079563Y0129183D01*
X0082345Y0131966D01*
X0082345Y0135901D01*
X0079563Y0138683D01*
X0080409Y0137836D02*
X0084781Y0137836D01*
X0083182Y0136238D02*
X0082008Y0136238D01*
X0082345Y0134639D02*
X0082845Y0134639D01*
X0082845Y0133041D02*
X0082345Y0133041D01*
X0081822Y0131442D02*
X0083368Y0131442D01*
X0084967Y0129844D02*
X0080223Y0129844D01*
X0079563Y0128683D02*
X0075628Y0128683D01*
X0072845Y0125901D01*
X0072845Y0121966D01*
X0075628Y0119183D01*
X0079563Y0119183D01*
X0082345Y0121966D01*
X0082345Y0125901D01*
X0079563Y0128683D01*
X0080000Y0128245D02*
X0085190Y0128245D01*
X0083591Y0126647D02*
X0081599Y0126647D01*
X0082345Y0125048D02*
X0082845Y0125048D01*
X0082845Y0123450D02*
X0082345Y0123450D01*
X0082231Y0121851D02*
X0082959Y0121851D01*
X0084558Y0120253D02*
X0080632Y0120253D01*
X0079563Y0118683D02*
X0075628Y0118683D01*
X0072845Y0115901D01*
X0072845Y0111966D01*
X0075628Y0109183D01*
X0079563Y0109183D01*
X0082345Y0111966D01*
X0082345Y0115901D01*
X0079563Y0118683D01*
X0079592Y0118654D02*
X0085599Y0118654D01*
X0084000Y0117056D02*
X0081190Y0117056D01*
X0082345Y0115457D02*
X0082845Y0115457D01*
X0082845Y0113859D02*
X0082345Y0113859D01*
X0082345Y0112260D02*
X0082845Y0112260D01*
X0084149Y0110662D02*
X0081041Y0110662D01*
X0079563Y0108683D02*
X0075628Y0108683D01*
X0072845Y0105901D01*
X0072845Y0101966D01*
X0075628Y0099183D01*
X0079563Y0099183D01*
X0082345Y0101966D01*
X0082345Y0105901D01*
X0079563Y0108683D01*
X0080781Y0107465D02*
X0084409Y0107465D01*
X0082845Y0105866D02*
X0082345Y0105866D01*
X0082345Y0104268D02*
X0082845Y0104268D01*
X0082845Y0102669D02*
X0082345Y0102669D01*
X0081450Y0101071D02*
X0083740Y0101071D01*
X0085339Y0099472D02*
X0079852Y0099472D01*
X0079563Y0098683D02*
X0075628Y0098683D01*
X0072845Y0095901D01*
X0072845Y0091966D01*
X0075628Y0089183D01*
X0079563Y0089183D01*
X0082345Y0091966D01*
X0082345Y0095901D01*
X0079563Y0098683D01*
X0080372Y0097874D02*
X0084818Y0097874D01*
X0083220Y0096275D02*
X0081971Y0096275D01*
X0082345Y0094677D02*
X0082845Y0094677D01*
X0082845Y0093078D02*
X0082345Y0093078D01*
X0081859Y0091479D02*
X0083331Y0091479D01*
X0084930Y0089881D02*
X0080261Y0089881D01*
X0079563Y0088683D02*
X0075628Y0088683D01*
X0072845Y0085901D01*
X0072845Y0081966D01*
X0075628Y0079183D01*
X0079563Y0079183D01*
X0082345Y0081966D01*
X0082345Y0085901D01*
X0079563Y0088683D01*
X0079963Y0088282D02*
X0085227Y0088282D01*
X0083629Y0086684D02*
X0081562Y0086684D01*
X0082345Y0085085D02*
X0082845Y0085085D01*
X0082845Y0083487D02*
X0082345Y0083487D01*
X0082268Y0081888D02*
X0082922Y0081888D01*
X0084521Y0080290D02*
X0080669Y0080290D01*
X0074521Y0080290D02*
X0070669Y0080290D01*
X0069563Y0079183D02*
X0072345Y0081966D01*
X0072345Y0085901D01*
X0069563Y0088683D01*
X0065628Y0088683D01*
X0062845Y0085901D01*
X0062845Y0081966D01*
X0065628Y0079183D01*
X0069563Y0079183D01*
X0072268Y0081888D02*
X0072922Y0081888D01*
X0072845Y0083487D02*
X0072345Y0083487D01*
X0072345Y0085085D02*
X0072845Y0085085D01*
X0073629Y0086684D02*
X0071562Y0086684D01*
X0069963Y0088282D02*
X0075227Y0088282D01*
X0074930Y0089881D02*
X0070261Y0089881D01*
X0069563Y0089183D02*
X0072345Y0091966D01*
X0072345Y0095901D01*
X0069563Y0098683D01*
X0065628Y0098683D01*
X0062845Y0095901D01*
X0062845Y0091966D01*
X0065628Y0089183D01*
X0069563Y0089183D01*
X0071859Y0091479D02*
X0073331Y0091479D01*
X0072845Y0093078D02*
X0072345Y0093078D01*
X0072345Y0094677D02*
X0072845Y0094677D01*
X0073220Y0096275D02*
X0071971Y0096275D01*
X0070372Y0097874D02*
X0074818Y0097874D01*
X0075339Y0099472D02*
X0069852Y0099472D01*
X0069563Y0099183D02*
X0072345Y0101966D01*
X0072345Y0105901D01*
X0069563Y0108683D01*
X0065628Y0108683D01*
X0062845Y0105901D01*
X0062845Y0101966D01*
X0065628Y0099183D01*
X0069563Y0099183D01*
X0071450Y0101071D02*
X0073740Y0101071D01*
X0072845Y0102669D02*
X0072345Y0102669D01*
X0072345Y0104268D02*
X0072845Y0104268D01*
X0072845Y0105866D02*
X0072345Y0105866D01*
X0070781Y0107465D02*
X0074409Y0107465D01*
X0074149Y0110662D02*
X0071041Y0110662D01*
X0072345Y0111966D02*
X0069563Y0109183D01*
X0065628Y0109183D01*
X0062845Y0111966D01*
X0062845Y0115901D01*
X0065628Y0118683D01*
X0069563Y0118683D01*
X0072345Y0115901D01*
X0072345Y0111966D01*
X0072345Y0112260D02*
X0072845Y0112260D01*
X0072845Y0113859D02*
X0072345Y0113859D01*
X0072345Y0115457D02*
X0072845Y0115457D01*
X0074000Y0117056D02*
X0071190Y0117056D01*
X0069592Y0118654D02*
X0075599Y0118654D01*
X0074558Y0120253D02*
X0070632Y0120253D01*
X0069563Y0119183D02*
X0072345Y0121966D01*
X0072345Y0125901D01*
X0069563Y0128683D01*
X0065628Y0128683D01*
X0062845Y0125901D01*
X0062845Y0121966D01*
X0065628Y0119183D01*
X0069563Y0119183D01*
X0072231Y0121851D02*
X0072959Y0121851D01*
X0072845Y0123450D02*
X0072345Y0123450D01*
X0072345Y0125048D02*
X0072845Y0125048D01*
X0073591Y0126647D02*
X0071599Y0126647D01*
X0070000Y0128245D02*
X0075190Y0128245D01*
X0074967Y0129844D02*
X0070223Y0129844D01*
X0069563Y0129183D02*
X0072345Y0131966D01*
X0072345Y0135901D01*
X0069563Y0138683D01*
X0065628Y0138683D01*
X0062845Y0135901D01*
X0062845Y0131966D01*
X0065628Y0129183D01*
X0069563Y0129183D01*
X0071822Y0131442D02*
X0073368Y0131442D01*
X0072845Y0133041D02*
X0072345Y0133041D01*
X0072345Y0134639D02*
X0072845Y0134639D01*
X0073182Y0136238D02*
X0072008Y0136238D01*
X0070409Y0137836D02*
X0074781Y0137836D01*
X0075376Y0139435D02*
X0069814Y0139435D01*
X0069563Y0139183D02*
X0072345Y0141966D01*
X0072345Y0145901D01*
X0069563Y0148683D01*
X0065628Y0148683D01*
X0062845Y0145901D01*
X0062845Y0141966D01*
X0065628Y0139183D01*
X0069563Y0139183D01*
X0071413Y0141033D02*
X0073777Y0141033D01*
X0072845Y0142632D02*
X0072345Y0142632D01*
X0072345Y0144230D02*
X0072845Y0144230D01*
X0072845Y0145829D02*
X0072345Y0145829D01*
X0070818Y0147427D02*
X0074372Y0147427D01*
X0080818Y0147427D02*
X0084372Y0147427D01*
X0082845Y0145829D02*
X0082345Y0145829D01*
X0082345Y0144230D02*
X0082845Y0144230D01*
X0082845Y0142632D02*
X0082345Y0142632D01*
X0081413Y0141033D02*
X0083777Y0141033D01*
X0079563Y0159183D02*
X0075628Y0159183D01*
X0072845Y0161966D01*
X0072845Y0165901D01*
X0075628Y0168683D01*
X0079563Y0168683D01*
X0082345Y0165901D01*
X0082345Y0161966D01*
X0079563Y0159183D01*
X0080595Y0160215D02*
X0084595Y0160215D01*
X0082997Y0161814D02*
X0082194Y0161814D01*
X0082345Y0163412D02*
X0082845Y0163412D01*
X0082845Y0165011D02*
X0082345Y0165011D01*
X0081636Y0166610D02*
X0083554Y0166610D01*
X0085153Y0168208D02*
X0080038Y0168208D01*
X0079563Y0169183D02*
X0082345Y0171966D01*
X0082345Y0175901D01*
X0079563Y0178683D01*
X0075628Y0178683D01*
X0072845Y0175901D01*
X0072845Y0171966D01*
X0075628Y0169183D01*
X0079563Y0169183D01*
X0080186Y0169807D02*
X0085004Y0169807D01*
X0083406Y0171405D02*
X0081785Y0171405D01*
X0082345Y0173004D02*
X0082845Y0173004D01*
X0082845Y0174602D02*
X0082345Y0174602D01*
X0082045Y0176201D02*
X0083145Y0176201D01*
X0084744Y0177799D02*
X0080447Y0177799D01*
X0079563Y0179183D02*
X0082345Y0181966D01*
X0082345Y0185901D01*
X0079563Y0188683D01*
X0075628Y0188683D01*
X0072845Y0185901D01*
X0072845Y0181966D01*
X0075628Y0179183D01*
X0079563Y0179183D01*
X0079777Y0179398D02*
X0085413Y0179398D01*
X0083815Y0180996D02*
X0081376Y0180996D01*
X0082345Y0182595D02*
X0082845Y0182595D01*
X0082845Y0184193D02*
X0082345Y0184193D01*
X0082345Y0185792D02*
X0082845Y0185792D01*
X0084335Y0187390D02*
X0080856Y0187390D01*
X0079563Y0189183D02*
X0082345Y0191966D01*
X0082345Y0195901D01*
X0079563Y0198683D01*
X0075628Y0198683D01*
X0072845Y0195901D01*
X0072845Y0191966D01*
X0075628Y0189183D01*
X0079563Y0189183D01*
X0080967Y0190587D02*
X0084224Y0190587D01*
X0082845Y0192186D02*
X0082345Y0192186D01*
X0082345Y0193784D02*
X0082845Y0193784D01*
X0082845Y0195383D02*
X0082345Y0195383D01*
X0081264Y0196981D02*
X0083926Y0196981D01*
X0085524Y0198580D02*
X0079666Y0198580D01*
X0079563Y0199183D02*
X0082345Y0201966D01*
X0082345Y0205901D01*
X0079563Y0208683D01*
X0075628Y0208683D01*
X0072845Y0205901D01*
X0072845Y0201966D01*
X0075628Y0199183D01*
X0079563Y0199183D01*
X0080558Y0200178D02*
X0084632Y0200178D01*
X0083034Y0201777D02*
X0082156Y0201777D01*
X0082345Y0203375D02*
X0082845Y0203375D01*
X0082845Y0204974D02*
X0082345Y0204974D01*
X0081673Y0206572D02*
X0083517Y0206572D01*
X0085115Y0208171D02*
X0080075Y0208171D01*
X0079563Y0209183D02*
X0082345Y0211966D01*
X0082345Y0215901D01*
X0079563Y0218683D01*
X0075628Y0218683D01*
X0072845Y0215901D01*
X0072845Y0211966D01*
X0075628Y0209183D01*
X0079563Y0209183D01*
X0080149Y0209769D02*
X0085041Y0209769D01*
X0083443Y0211368D02*
X0081747Y0211368D01*
X0082345Y0212966D02*
X0082845Y0212966D01*
X0082845Y0214565D02*
X0082345Y0214565D01*
X0082082Y0216163D02*
X0083108Y0216163D01*
X0084706Y0217762D02*
X0080484Y0217762D01*
X0079563Y0219183D02*
X0082345Y0221966D01*
X0082345Y0225901D01*
X0079563Y0228683D01*
X0075628Y0228683D01*
X0072845Y0225901D01*
X0072845Y0221966D01*
X0075628Y0219183D01*
X0079563Y0219183D01*
X0079740Y0219360D02*
X0085450Y0219360D01*
X0083852Y0220959D02*
X0081338Y0220959D01*
X0082345Y0222557D02*
X0082845Y0222557D01*
X0082845Y0224156D02*
X0082345Y0224156D01*
X0082345Y0225754D02*
X0082845Y0225754D01*
X0084298Y0227353D02*
X0080893Y0227353D01*
X0074298Y0227353D02*
X0070893Y0227353D01*
X0069563Y0228683D02*
X0065628Y0228683D01*
X0062845Y0225901D01*
X0062845Y0221966D01*
X0065628Y0219183D01*
X0069563Y0219183D01*
X0072345Y0221966D01*
X0072345Y0225901D01*
X0069563Y0228683D01*
X0072345Y0225754D02*
X0072845Y0225754D01*
X0072845Y0224156D02*
X0072345Y0224156D01*
X0072345Y0222557D02*
X0072845Y0222557D01*
X0073852Y0220959D02*
X0071338Y0220959D01*
X0069740Y0219360D02*
X0075450Y0219360D01*
X0074706Y0217762D02*
X0070484Y0217762D01*
X0069563Y0218683D02*
X0065628Y0218683D01*
X0062845Y0215901D01*
X0062845Y0211966D01*
X0065628Y0209183D01*
X0069563Y0209183D01*
X0072345Y0211966D01*
X0072345Y0215901D01*
X0069563Y0218683D01*
X0072082Y0216163D02*
X0073108Y0216163D01*
X0072845Y0214565D02*
X0072345Y0214565D01*
X0072345Y0212966D02*
X0072845Y0212966D01*
X0073443Y0211368D02*
X0071747Y0211368D01*
X0070149Y0209769D02*
X0075041Y0209769D01*
X0075115Y0208171D02*
X0070075Y0208171D01*
X0069563Y0208683D02*
X0065628Y0208683D01*
X0062845Y0205901D01*
X0062845Y0201966D01*
X0065628Y0199183D01*
X0069563Y0199183D01*
X0072345Y0201966D01*
X0072345Y0205901D01*
X0069563Y0208683D01*
X0071673Y0206572D02*
X0073517Y0206572D01*
X0072845Y0204974D02*
X0072345Y0204974D01*
X0072345Y0203375D02*
X0072845Y0203375D01*
X0073034Y0201777D02*
X0072156Y0201777D01*
X0070558Y0200178D02*
X0074632Y0200178D01*
X0075524Y0198580D02*
X0069666Y0198580D01*
X0069563Y0198683D02*
X0065628Y0198683D01*
X0062845Y0195901D01*
X0062845Y0191966D01*
X0065628Y0189183D01*
X0069563Y0189183D01*
X0072345Y0191966D01*
X0072345Y0195901D01*
X0069563Y0198683D01*
X0071264Y0196981D02*
X0073926Y0196981D01*
X0072845Y0195383D02*
X0072345Y0195383D01*
X0072345Y0193784D02*
X0072845Y0193784D01*
X0072845Y0192186D02*
X0072345Y0192186D01*
X0070967Y0190587D02*
X0074224Y0190587D01*
X0074335Y0187390D02*
X0070856Y0187390D01*
X0069563Y0188683D02*
X0065628Y0188683D01*
X0062845Y0185901D01*
X0062845Y0181966D01*
X0065628Y0179183D01*
X0069563Y0179183D01*
X0072345Y0181966D01*
X0072345Y0185901D01*
X0069563Y0188683D01*
X0072345Y0185792D02*
X0072845Y0185792D01*
X0072845Y0184193D02*
X0072345Y0184193D01*
X0072345Y0182595D02*
X0072845Y0182595D01*
X0073815Y0180996D02*
X0071376Y0180996D01*
X0069777Y0179398D02*
X0075413Y0179398D01*
X0074744Y0177799D02*
X0070447Y0177799D01*
X0069563Y0178683D02*
X0065628Y0178683D01*
X0062845Y0175901D01*
X0062845Y0171966D01*
X0065628Y0169183D01*
X0069563Y0169183D01*
X0072345Y0171966D01*
X0072345Y0175901D01*
X0069563Y0178683D01*
X0072045Y0176201D02*
X0073145Y0176201D01*
X0072845Y0174602D02*
X0072345Y0174602D01*
X0072345Y0173004D02*
X0072845Y0173004D01*
X0073406Y0171405D02*
X0071785Y0171405D01*
X0070186Y0169807D02*
X0075004Y0169807D01*
X0075153Y0168208D02*
X0070038Y0168208D01*
X0069563Y0168683D02*
X0065628Y0168683D01*
X0062845Y0165901D01*
X0062845Y0161966D01*
X0065628Y0159183D01*
X0069563Y0159183D01*
X0072345Y0161966D01*
X0072345Y0165901D01*
X0069563Y0168683D01*
X0071636Y0166610D02*
X0073554Y0166610D01*
X0072845Y0165011D02*
X0072345Y0165011D01*
X0072345Y0163412D02*
X0072845Y0163412D01*
X0072997Y0161814D02*
X0072194Y0161814D01*
X0070595Y0160215D02*
X0074595Y0160215D01*
X0064595Y0160215D02*
X0060595Y0160215D01*
X0059563Y0159183D02*
X0062345Y0161966D01*
X0062345Y0165901D01*
X0059563Y0168683D01*
X0055628Y0168683D01*
X0052845Y0165901D01*
X0052845Y0161966D01*
X0055628Y0159183D01*
X0059563Y0159183D01*
X0062194Y0161814D02*
X0062997Y0161814D01*
X0062845Y0163412D02*
X0062345Y0163412D01*
X0062345Y0165011D02*
X0062845Y0165011D01*
X0063554Y0166610D02*
X0061636Y0166610D01*
X0060038Y0168208D02*
X0065153Y0168208D01*
X0065004Y0169807D02*
X0060186Y0169807D01*
X0059563Y0169183D02*
X0062345Y0171966D01*
X0062345Y0175901D01*
X0059563Y0178683D01*
X0055628Y0178683D01*
X0052845Y0175901D01*
X0052845Y0171966D01*
X0055628Y0169183D01*
X0059563Y0169183D01*
X0061785Y0171405D02*
X0063406Y0171405D01*
X0062845Y0173004D02*
X0062345Y0173004D01*
X0062345Y0174602D02*
X0062845Y0174602D01*
X0063145Y0176201D02*
X0062045Y0176201D01*
X0060447Y0177799D02*
X0064744Y0177799D01*
X0065413Y0179398D02*
X0059777Y0179398D01*
X0059563Y0179183D02*
X0062345Y0181966D01*
X0062345Y0185901D01*
X0059563Y0188683D01*
X0055628Y0188683D01*
X0052845Y0185901D01*
X0052845Y0181966D01*
X0055628Y0179183D01*
X0059563Y0179183D01*
X0061376Y0180996D02*
X0063815Y0180996D01*
X0062845Y0182595D02*
X0062345Y0182595D01*
X0062345Y0184193D02*
X0062845Y0184193D01*
X0062845Y0185792D02*
X0062345Y0185792D01*
X0060856Y0187390D02*
X0064335Y0187390D01*
X0064224Y0190587D02*
X0060967Y0190587D01*
X0062345Y0191966D02*
X0059563Y0189183D01*
X0055628Y0189183D01*
X0052845Y0191966D01*
X0052845Y0195901D01*
X0055628Y0198683D01*
X0059563Y0198683D01*
X0062345Y0195901D01*
X0062345Y0191966D01*
X0062345Y0192186D02*
X0062845Y0192186D01*
X0062845Y0193784D02*
X0062345Y0193784D01*
X0062345Y0195383D02*
X0062845Y0195383D01*
X0063926Y0196981D02*
X0061264Y0196981D01*
X0059666Y0198580D02*
X0065524Y0198580D01*
X0064632Y0200178D02*
X0060558Y0200178D01*
X0059563Y0199183D02*
X0062345Y0201966D01*
X0062345Y0205901D01*
X0059563Y0208683D01*
X0055628Y0208683D01*
X0052845Y0205901D01*
X0052845Y0201966D01*
X0055628Y0199183D01*
X0059563Y0199183D01*
X0062156Y0201777D02*
X0063034Y0201777D01*
X0062845Y0203375D02*
X0062345Y0203375D01*
X0062345Y0204974D02*
X0062845Y0204974D01*
X0063517Y0206572D02*
X0061673Y0206572D01*
X0060075Y0208171D02*
X0065115Y0208171D01*
X0065041Y0209769D02*
X0060149Y0209769D01*
X0059563Y0209183D02*
X0062345Y0211966D01*
X0062345Y0215901D01*
X0059563Y0218683D01*
X0055628Y0218683D01*
X0052845Y0215901D01*
X0052845Y0211966D01*
X0055628Y0209183D01*
X0059563Y0209183D01*
X0061747Y0211368D02*
X0063443Y0211368D01*
X0062845Y0212966D02*
X0062345Y0212966D01*
X0062345Y0214565D02*
X0062845Y0214565D01*
X0063108Y0216163D02*
X0062082Y0216163D01*
X0060484Y0217762D02*
X0064706Y0217762D01*
X0065450Y0219360D02*
X0059740Y0219360D01*
X0059563Y0219183D02*
X0062345Y0221966D01*
X0062345Y0225901D01*
X0059563Y0228683D01*
X0055628Y0228683D01*
X0052845Y0225901D01*
X0052845Y0221966D01*
X0055628Y0219183D01*
X0059563Y0219183D01*
X0061338Y0220959D02*
X0063852Y0220959D01*
X0062845Y0222557D02*
X0062345Y0222557D01*
X0062345Y0224156D02*
X0062845Y0224156D01*
X0062845Y0225754D02*
X0062345Y0225754D01*
X0060893Y0227353D02*
X0064298Y0227353D01*
X0054298Y0227353D02*
X0040695Y0227353D01*
X0040695Y0225754D02*
X0052845Y0225754D01*
X0052845Y0224156D02*
X0040695Y0224156D01*
X0040695Y0222557D02*
X0052845Y0222557D01*
X0053852Y0220959D02*
X0040695Y0220959D01*
X0040695Y0219360D02*
X0055450Y0219360D01*
X0054706Y0217762D02*
X0040695Y0217762D01*
X0040695Y0216163D02*
X0053108Y0216163D01*
X0052845Y0214565D02*
X0040695Y0214565D01*
X0040695Y0212966D02*
X0052845Y0212966D01*
X0053443Y0211368D02*
X0040695Y0211368D01*
X0040695Y0209769D02*
X0055041Y0209769D01*
X0055115Y0208171D02*
X0040695Y0208171D01*
X0040695Y0206572D02*
X0053517Y0206572D01*
X0052845Y0204974D02*
X0040695Y0204974D01*
X0040695Y0203375D02*
X0052845Y0203375D01*
X0053034Y0201777D02*
X0040695Y0201777D01*
X0040695Y0200178D02*
X0054632Y0200178D01*
X0055524Y0198580D02*
X0040695Y0198580D01*
X0040695Y0196981D02*
X0053926Y0196981D01*
X0052845Y0195383D02*
X0040695Y0195383D01*
X0040695Y0193784D02*
X0052845Y0193784D01*
X0052845Y0192186D02*
X0040695Y0192186D01*
X0040695Y0190587D02*
X0054224Y0190587D01*
X0054335Y0187390D02*
X0040695Y0187390D01*
X0040695Y0185792D02*
X0052845Y0185792D01*
X0052845Y0184193D02*
X0040695Y0184193D01*
X0040695Y0182595D02*
X0052845Y0182595D01*
X0053815Y0180996D02*
X0040695Y0180996D01*
X0040695Y0179398D02*
X0055413Y0179398D01*
X0054744Y0177799D02*
X0040695Y0177799D01*
X0040695Y0176201D02*
X0053145Y0176201D01*
X0052845Y0174602D02*
X0040695Y0174602D01*
X0040695Y0173004D02*
X0052845Y0173004D01*
X0053406Y0171405D02*
X0040695Y0171405D01*
X0040695Y0169807D02*
X0055004Y0169807D01*
X0055153Y0168208D02*
X0040695Y0168208D01*
X0040695Y0166610D02*
X0053554Y0166610D01*
X0052845Y0165011D02*
X0040695Y0165011D01*
X0040695Y0163412D02*
X0052845Y0163412D01*
X0052997Y0161814D02*
X0040695Y0161814D01*
X0040695Y0160215D02*
X0054595Y0160215D01*
X0049504Y0157018D02*
X0239512Y0157018D01*
X0239014Y0158617D02*
X0040695Y0158617D01*
X0040695Y0157018D02*
X0045686Y0157018D01*
X0044335Y0155420D02*
X0040695Y0155420D01*
X0040695Y0153821D02*
X0044014Y0153821D01*
X0044427Y0152223D02*
X0040695Y0152223D01*
X0040695Y0150624D02*
X0046225Y0150624D01*
X0048965Y0150624D02*
X0247881Y0150624D01*
X0247881Y0149026D02*
X0040695Y0149026D01*
X0060818Y0147427D02*
X0064372Y0147427D01*
X0062845Y0145829D02*
X0062345Y0145829D01*
X0062345Y0144230D02*
X0062845Y0144230D01*
X0062845Y0142632D02*
X0062345Y0142632D01*
X0061413Y0141033D02*
X0063777Y0141033D01*
X0065376Y0139435D02*
X0059814Y0139435D01*
X0060409Y0137836D02*
X0064781Y0137836D01*
X0063182Y0136238D02*
X0062008Y0136238D01*
X0062345Y0134639D02*
X0062845Y0134639D01*
X0062845Y0133041D02*
X0062345Y0133041D01*
X0061822Y0131442D02*
X0063368Y0131442D01*
X0064967Y0129844D02*
X0060223Y0129844D01*
X0060000Y0128245D02*
X0065190Y0128245D01*
X0063591Y0126647D02*
X0061599Y0126647D01*
X0062345Y0125048D02*
X0062845Y0125048D01*
X0062845Y0123450D02*
X0062345Y0123450D01*
X0062231Y0121851D02*
X0062959Y0121851D01*
X0064558Y0120253D02*
X0060632Y0120253D01*
X0059592Y0118654D02*
X0065599Y0118654D01*
X0064000Y0117056D02*
X0061190Y0117056D01*
X0062345Y0115457D02*
X0062845Y0115457D01*
X0062845Y0113859D02*
X0062345Y0113859D01*
X0062345Y0112260D02*
X0062845Y0112260D01*
X0064149Y0110662D02*
X0061041Y0110662D01*
X0060781Y0107465D02*
X0064409Y0107465D01*
X0062845Y0105866D02*
X0062345Y0105866D01*
X0062345Y0104268D02*
X0062845Y0104268D01*
X0062845Y0102669D02*
X0062345Y0102669D01*
X0061450Y0101071D02*
X0063740Y0101071D01*
X0065339Y0099472D02*
X0059852Y0099472D01*
X0059563Y0098683D02*
X0055628Y0098683D01*
X0052845Y0095901D01*
X0052845Y0091966D01*
X0055628Y0089183D01*
X0059563Y0089183D01*
X0062345Y0091966D01*
X0062345Y0095901D01*
X0059563Y0098683D01*
X0060372Y0097874D02*
X0064818Y0097874D01*
X0063220Y0096275D02*
X0061971Y0096275D01*
X0062345Y0094677D02*
X0062845Y0094677D01*
X0062845Y0093078D02*
X0062345Y0093078D01*
X0061859Y0091479D02*
X0063331Y0091479D01*
X0064930Y0089881D02*
X0060261Y0089881D01*
X0059563Y0088683D02*
X0055628Y0088683D01*
X0052845Y0085901D01*
X0052845Y0081966D01*
X0055628Y0079183D01*
X0059563Y0079183D01*
X0062345Y0081966D01*
X0062345Y0085901D01*
X0059563Y0088683D01*
X0059963Y0088282D02*
X0065227Y0088282D01*
X0063629Y0086684D02*
X0061562Y0086684D01*
X0062345Y0085085D02*
X0062845Y0085085D01*
X0062845Y0083487D02*
X0062345Y0083487D01*
X0062268Y0081888D02*
X0062922Y0081888D01*
X0064521Y0080290D02*
X0060669Y0080290D01*
X0054521Y0080290D02*
X0040695Y0080290D01*
X0040695Y0081888D02*
X0052922Y0081888D01*
X0052845Y0083487D02*
X0040695Y0083487D01*
X0040695Y0085085D02*
X0052845Y0085085D01*
X0053629Y0086684D02*
X0040695Y0086684D01*
X0040695Y0088282D02*
X0055227Y0088282D01*
X0054930Y0089881D02*
X0040695Y0089881D01*
X0040695Y0091479D02*
X0053331Y0091479D01*
X0052845Y0093078D02*
X0040695Y0093078D01*
X0040695Y0094677D02*
X0052845Y0094677D01*
X0053220Y0096275D02*
X0040695Y0096275D01*
X0040695Y0097874D02*
X0054818Y0097874D01*
X0055339Y0099472D02*
X0040695Y0099472D01*
X0040695Y0101071D02*
X0053740Y0101071D01*
X0052845Y0102669D02*
X0040695Y0102669D01*
X0040695Y0104268D02*
X0052845Y0104268D01*
X0052845Y0105866D02*
X0040695Y0105866D01*
X0040695Y0188989D02*
X0247881Y0188989D01*
X0247881Y0190587D02*
X0210967Y0190587D01*
X0210856Y0187390D02*
X0247881Y0187390D01*
X0247881Y0185792D02*
X0241838Y0185792D01*
X0243437Y0184193D02*
X0247881Y0184193D01*
X0247881Y0182595D02*
X0245035Y0182595D01*
X0245445Y0180996D02*
X0247881Y0180996D01*
X0247881Y0179398D02*
X0245445Y0179398D01*
X0245445Y0177799D02*
X0247881Y0177799D01*
X0247881Y0176201D02*
X0245445Y0176201D01*
X0244366Y0174602D02*
X0247881Y0174602D01*
X0247881Y0173004D02*
X0242767Y0173004D01*
X0241169Y0171405D02*
X0247881Y0171405D01*
X0247881Y0192186D02*
X0241949Y0192186D01*
X0243548Y0193784D02*
X0247881Y0193784D01*
X0247881Y0195383D02*
X0245146Y0195383D01*
X0245445Y0196981D02*
X0247881Y0196981D01*
X0247881Y0198580D02*
X0245445Y0198580D01*
X0245445Y0200178D02*
X0247881Y0200178D01*
X0247881Y0201777D02*
X0245445Y0201777D01*
X0244254Y0203375D02*
X0247881Y0203375D01*
X0247881Y0204974D02*
X0242656Y0204974D01*
X0241057Y0206572D02*
X0247881Y0206572D01*
X0247881Y0208171D02*
X0210075Y0208171D01*
X0210149Y0209769D02*
X0247881Y0209769D01*
X0247881Y0211368D02*
X0241131Y0211368D01*
X0242730Y0212966D02*
X0247881Y0212966D01*
X0247881Y0214565D02*
X0244328Y0214565D01*
X0245445Y0216163D02*
X0247881Y0216163D01*
X0247881Y0217762D02*
X0245445Y0217762D01*
X0245445Y0219360D02*
X0247881Y0219360D01*
X0247881Y0220959D02*
X0245445Y0220959D01*
X0245072Y0222557D02*
X0247881Y0222557D01*
X0247881Y0224156D02*
X0243474Y0224156D01*
X0241875Y0225754D02*
X0247881Y0225754D01*
X0204465Y0235345D02*
X0200725Y0235345D01*
X0202324Y0236944D02*
X0202867Y0236944D01*
X0202845Y0238543D02*
X0202345Y0238543D01*
X0202345Y0240141D02*
X0202845Y0240141D01*
X0203684Y0241740D02*
X0201506Y0241740D01*
X0192993Y0246535D02*
X0192197Y0246535D01*
X0192545Y0248134D02*
X0192645Y0248134D01*
X0192645Y0249732D02*
X0192545Y0249732D01*
X0192198Y0251331D02*
X0192992Y0251331D01*
X0182845Y0105866D02*
X0182345Y0105866D01*
X0182345Y0104268D02*
X0182845Y0104268D01*
X0182845Y0102669D02*
X0182345Y0102669D01*
X0181450Y0101071D02*
X0183740Y0101071D01*
X0185339Y0099472D02*
X0179852Y0099472D01*
X0180372Y0097874D02*
X0206514Y0097874D01*
X0206514Y0099472D02*
X0189852Y0099472D01*
X0191450Y0101071D02*
X0207159Y0101071D01*
X0208614Y0102669D02*
X0192345Y0102669D01*
X0191883Y0092514D02*
X0190567Y0091969D01*
X0189559Y0090962D01*
X0189014Y0089645D01*
X0189014Y0088221D01*
X0189559Y0086905D01*
X0190567Y0085897D01*
X0191883Y0085352D01*
X0193307Y0085352D01*
X0194624Y0085897D01*
X0195631Y0086905D01*
X0196176Y0088221D01*
X0196176Y0089645D01*
X0195631Y0090962D01*
X0194624Y0091969D01*
X0193307Y0092514D01*
X0191883Y0092514D01*
X0190077Y0091479D02*
X0181859Y0091479D01*
X0182345Y0093078D02*
X0208217Y0093078D01*
X0208347Y0094677D02*
X0182345Y0094677D01*
X0181971Y0096275D02*
X0207048Y0096275D01*
X0208658Y0091479D02*
X0195113Y0091479D01*
X0196079Y0089881D02*
X0211753Y0089881D01*
X0216133Y0088282D02*
X0196176Y0088282D01*
X0195410Y0086684D02*
X0216172Y0086684D01*
X0216221Y0081888D02*
X0182268Y0081888D01*
X0181562Y0086684D02*
X0189780Y0086684D01*
X0189014Y0088282D02*
X0179963Y0088282D01*
X0180261Y0089881D02*
X0189112Y0089881D01*
X0054591Y0244937D02*
X0040695Y0244937D01*
X0040695Y0246535D02*
X0052993Y0246535D01*
X0052645Y0248134D02*
X0040695Y0248134D01*
X0040695Y0249732D02*
X0052645Y0249732D01*
X0052992Y0251331D02*
X0040695Y0251331D01*
X0040695Y0252929D02*
X0054591Y0252929D01*
D11*
X0057595Y0248933D03*
X0057595Y0238933D03*
X0067595Y0238933D03*
X0067595Y0248933D03*
X0077595Y0248933D03*
X0077595Y0238933D03*
X0087595Y0238933D03*
X0087595Y0248933D03*
X0097595Y0248933D03*
X0097595Y0238933D03*
X0107595Y0238933D03*
X0117595Y0238933D03*
X0117595Y0248933D03*
X0107595Y0248933D03*
X0127595Y0248933D03*
X0127595Y0238933D03*
X0137595Y0238933D03*
X0137595Y0248933D03*
X0147595Y0248933D03*
X0147595Y0238933D03*
X0157595Y0238933D03*
X0157595Y0248933D03*
X0167595Y0248933D03*
X0167595Y0238933D03*
X0177595Y0238933D03*
X0177595Y0248933D03*
X0187595Y0248933D03*
X0187595Y0238933D03*
X0197595Y0238933D03*
X0197595Y0248933D03*
X0207595Y0248933D03*
X0207595Y0238933D03*
X0207595Y0223933D03*
X0207595Y0213933D03*
X0207595Y0203933D03*
X0197595Y0203933D03*
X0197595Y0213933D03*
X0197595Y0223933D03*
X0187595Y0223933D03*
X0187595Y0213933D03*
X0187595Y0203933D03*
X0177595Y0203933D03*
X0177595Y0213933D03*
X0177595Y0223933D03*
X0167595Y0223933D03*
X0167595Y0213933D03*
X0167595Y0203933D03*
X0157595Y0203933D03*
X0157595Y0213933D03*
X0157595Y0223933D03*
X0147595Y0223933D03*
X0147595Y0213933D03*
X0147595Y0203933D03*
X0137595Y0203933D03*
X0137595Y0213933D03*
X0137595Y0223933D03*
X0127595Y0223933D03*
X0127595Y0213933D03*
X0127595Y0203933D03*
X0117595Y0203933D03*
X0107595Y0203933D03*
X0107595Y0213933D03*
X0107595Y0223933D03*
X0117595Y0223933D03*
X0117595Y0213933D03*
X0097595Y0213933D03*
X0097595Y0203933D03*
X0087595Y0203933D03*
X0087595Y0213933D03*
X0087595Y0223933D03*
X0077595Y0223933D03*
X0077595Y0213933D03*
X0077595Y0203933D03*
X0067595Y0203933D03*
X0067595Y0213933D03*
X0067595Y0223933D03*
X0057595Y0223933D03*
X0057595Y0213933D03*
X0057595Y0203933D03*
X0057595Y0193933D03*
X0057595Y0183933D03*
X0057595Y0173933D03*
X0057595Y0163933D03*
X0067595Y0163933D03*
X0067595Y0173933D03*
X0067595Y0183933D03*
X0067595Y0193933D03*
X0077595Y0193933D03*
X0077595Y0183933D03*
X0077595Y0173933D03*
X0077595Y0163933D03*
X0087595Y0163933D03*
X0087595Y0173933D03*
X0087595Y0183933D03*
X0087595Y0193933D03*
X0097595Y0193933D03*
X0097595Y0183933D03*
X0097595Y0173933D03*
X0097595Y0163933D03*
X0107595Y0163933D03*
X0107595Y0173933D03*
X0107595Y0183933D03*
X0107595Y0193933D03*
X0117595Y0193933D03*
X0117595Y0183933D03*
X0117595Y0173933D03*
X0117595Y0163933D03*
X0127595Y0163933D03*
X0127595Y0173933D03*
X0127595Y0183933D03*
X0127595Y0193933D03*
X0137595Y0193933D03*
X0137595Y0183933D03*
X0137595Y0173933D03*
X0137595Y0163933D03*
X0147595Y0163933D03*
X0147595Y0173933D03*
X0147595Y0183933D03*
X0147595Y0193933D03*
X0157595Y0193933D03*
X0157595Y0183933D03*
X0157595Y0173933D03*
X0157595Y0163933D03*
X0167595Y0163933D03*
X0167595Y0173933D03*
X0167595Y0183933D03*
X0167595Y0193933D03*
X0177595Y0193933D03*
X0177595Y0183933D03*
X0177595Y0173933D03*
X0177595Y0163933D03*
X0187595Y0163933D03*
X0187595Y0173933D03*
X0187595Y0183933D03*
X0187595Y0193933D03*
X0197595Y0193933D03*
X0197595Y0183933D03*
X0197595Y0173933D03*
X0197595Y0163933D03*
X0207595Y0163933D03*
X0207595Y0173933D03*
X0207595Y0183933D03*
X0207595Y0193933D03*
X0217595Y0163933D03*
X0227595Y0163933D03*
X0197595Y0143933D03*
X0197595Y0133933D03*
X0187595Y0133933D03*
X0187595Y0143933D03*
X0177595Y0143933D03*
X0177595Y0133933D03*
X0167595Y0133933D03*
X0167595Y0143933D03*
X0157595Y0143933D03*
X0157595Y0133933D03*
X0147595Y0133933D03*
X0147595Y0143933D03*
X0137595Y0143933D03*
X0137595Y0133933D03*
X0127595Y0133933D03*
X0127595Y0143933D03*
X0117595Y0143933D03*
X0107595Y0143933D03*
X0107595Y0133933D03*
X0117595Y0133933D03*
X0117595Y0123933D03*
X0107595Y0123933D03*
X0107595Y0113933D03*
X0107595Y0103933D03*
X0117595Y0103933D03*
X0117595Y0113933D03*
X0127595Y0113933D03*
X0127595Y0103933D03*
X0127595Y0093933D03*
X0127595Y0083933D03*
X0117595Y0083933D03*
X0107595Y0083933D03*
X0107595Y0093933D03*
X0117595Y0093933D03*
X0097595Y0093933D03*
X0097595Y0083933D03*
X0087595Y0083933D03*
X0087595Y0093933D03*
X0077595Y0093933D03*
X0077595Y0083933D03*
X0067595Y0083933D03*
X0067595Y0093933D03*
X0057595Y0093933D03*
X0057595Y0083933D03*
X0057595Y0063933D03*
X0057595Y0053933D03*
X0067595Y0053933D03*
X0067595Y0063933D03*
X0077595Y0063933D03*
X0077595Y0053933D03*
X0087595Y0053933D03*
X0087595Y0063933D03*
X0097595Y0063933D03*
X0097595Y0053933D03*
X0107595Y0053933D03*
X0117595Y0053933D03*
X0117595Y0063933D03*
X0107595Y0063933D03*
X0127595Y0063933D03*
X0127595Y0053933D03*
X0137595Y0053933D03*
X0137595Y0063933D03*
X0147595Y0063933D03*
X0147595Y0053933D03*
X0157595Y0053933D03*
X0157595Y0063933D03*
X0167595Y0063933D03*
X0167595Y0053933D03*
X0177595Y0053933D03*
X0177595Y0063933D03*
X0187595Y0063933D03*
X0187595Y0053933D03*
X0197595Y0053933D03*
X0197595Y0063933D03*
X0207595Y0063933D03*
X0207595Y0053933D03*
X0217595Y0053933D03*
X0227595Y0053933D03*
X0227595Y0063933D03*
X0217595Y0063933D03*
X0237595Y0063933D03*
X0237595Y0053933D03*
X0187595Y0103933D03*
X0187595Y0113933D03*
X0187595Y0123933D03*
X0177595Y0123933D03*
X0177595Y0113933D03*
X0177595Y0103933D03*
X0167595Y0103933D03*
X0167595Y0113933D03*
X0167595Y0123933D03*
X0157595Y0123933D03*
X0157595Y0113933D03*
X0157595Y0103933D03*
X0147595Y0103933D03*
X0147595Y0113933D03*
X0147595Y0123933D03*
X0137595Y0123933D03*
X0137595Y0113933D03*
X0137595Y0103933D03*
X0137595Y0093933D03*
X0137595Y0083933D03*
X0147595Y0083933D03*
X0147595Y0093933D03*
X0157595Y0093933D03*
X0157595Y0083933D03*
X0167595Y0083933D03*
X0167595Y0093933D03*
X0177595Y0093933D03*
X0177595Y0083933D03*
X0197595Y0113933D03*
X0197595Y0123933D03*
X0127595Y0123933D03*
X0097595Y0123933D03*
X0097595Y0113933D03*
X0097595Y0103933D03*
X0087595Y0103933D03*
X0087595Y0113933D03*
X0087595Y0123933D03*
X0077595Y0123933D03*
X0077595Y0113933D03*
X0077595Y0103933D03*
X0067595Y0103933D03*
X0067595Y0113933D03*
X0067595Y0123933D03*
X0057595Y0123933D03*
X0057595Y0113933D03*
X0057595Y0103933D03*
X0057595Y0133933D03*
X0057595Y0143933D03*
X0067595Y0143933D03*
X0067595Y0133933D03*
X0077595Y0133933D03*
X0077595Y0143933D03*
X0087595Y0143933D03*
X0087595Y0133933D03*
X0097595Y0133933D03*
X0097595Y0143933D03*
X0097595Y0223933D03*
D12*
X0211414Y0098539D03*
X0221414Y0098539D03*
X0231414Y0098539D03*
D13*
X0237595Y0178933D03*
X0222595Y0178933D03*
X0222595Y0198933D03*
X0237595Y0198933D03*
X0237595Y0218933D03*
X0222595Y0218933D03*
X0222595Y0238933D03*
X0237595Y0238933D03*
D14*
X0233048Y0133303D03*
X0233048Y0130744D03*
X0233048Y0128185D03*
X0233048Y0125626D03*
X0233048Y0123067D03*
D15*
X0244170Y0117457D03*
X0244170Y0138913D03*
D16*
X0230174Y0137732D02*
X0230176Y0137823D01*
X0230182Y0137913D01*
X0230192Y0138004D01*
X0230206Y0138093D01*
X0230224Y0138182D01*
X0230245Y0138271D01*
X0230271Y0138358D01*
X0230300Y0138444D01*
X0230334Y0138528D01*
X0230370Y0138611D01*
X0230411Y0138693D01*
X0230455Y0138772D01*
X0230502Y0138850D01*
X0230553Y0138925D01*
X0230607Y0138998D01*
X0230664Y0139068D01*
X0230724Y0139136D01*
X0230787Y0139202D01*
X0230853Y0139264D01*
X0230922Y0139323D01*
X0230993Y0139380D01*
X0231067Y0139433D01*
X0231143Y0139483D01*
X0231221Y0139530D01*
X0231301Y0139573D01*
X0231382Y0139612D01*
X0231466Y0139648D01*
X0231551Y0139680D01*
X0231637Y0139709D01*
X0231724Y0139733D01*
X0231813Y0139754D01*
X0231902Y0139771D01*
X0231992Y0139784D01*
X0232082Y0139793D01*
X0232173Y0139798D01*
X0232264Y0139799D01*
X0232354Y0139796D01*
X0232445Y0139789D01*
X0232535Y0139778D01*
X0232625Y0139763D01*
X0232714Y0139744D01*
X0232802Y0139722D01*
X0232888Y0139695D01*
X0232974Y0139665D01*
X0233058Y0139631D01*
X0233141Y0139593D01*
X0233222Y0139552D01*
X0233301Y0139507D01*
X0233378Y0139458D01*
X0233452Y0139407D01*
X0233525Y0139352D01*
X0233595Y0139294D01*
X0233662Y0139233D01*
X0233726Y0139169D01*
X0233788Y0139103D01*
X0233847Y0139033D01*
X0233902Y0138962D01*
X0233955Y0138887D01*
X0234004Y0138811D01*
X0234050Y0138733D01*
X0234092Y0138652D01*
X0234131Y0138570D01*
X0234166Y0138486D01*
X0234197Y0138401D01*
X0234224Y0138314D01*
X0234248Y0138227D01*
X0234268Y0138138D01*
X0234284Y0138049D01*
X0234296Y0137959D01*
X0234304Y0137868D01*
X0234308Y0137777D01*
X0234308Y0137687D01*
X0234304Y0137596D01*
X0234296Y0137505D01*
X0234284Y0137415D01*
X0234268Y0137326D01*
X0234248Y0137237D01*
X0234224Y0137150D01*
X0234197Y0137063D01*
X0234166Y0136978D01*
X0234131Y0136894D01*
X0234092Y0136812D01*
X0234050Y0136731D01*
X0234004Y0136653D01*
X0233955Y0136577D01*
X0233902Y0136502D01*
X0233847Y0136431D01*
X0233788Y0136361D01*
X0233726Y0136295D01*
X0233662Y0136231D01*
X0233595Y0136170D01*
X0233525Y0136112D01*
X0233452Y0136057D01*
X0233378Y0136006D01*
X0233301Y0135957D01*
X0233222Y0135912D01*
X0233141Y0135871D01*
X0233058Y0135833D01*
X0232974Y0135799D01*
X0232888Y0135769D01*
X0232802Y0135742D01*
X0232714Y0135720D01*
X0232625Y0135701D01*
X0232535Y0135686D01*
X0232445Y0135675D01*
X0232354Y0135668D01*
X0232264Y0135665D01*
X0232173Y0135666D01*
X0232082Y0135671D01*
X0231992Y0135680D01*
X0231902Y0135693D01*
X0231813Y0135710D01*
X0231724Y0135731D01*
X0231637Y0135755D01*
X0231551Y0135784D01*
X0231466Y0135816D01*
X0231382Y0135852D01*
X0231301Y0135891D01*
X0231221Y0135934D01*
X0231143Y0135981D01*
X0231067Y0136031D01*
X0230993Y0136084D01*
X0230922Y0136141D01*
X0230853Y0136200D01*
X0230787Y0136262D01*
X0230724Y0136328D01*
X0230664Y0136396D01*
X0230607Y0136466D01*
X0230553Y0136539D01*
X0230502Y0136614D01*
X0230455Y0136692D01*
X0230411Y0136771D01*
X0230370Y0136853D01*
X0230334Y0136936D01*
X0230300Y0137020D01*
X0230271Y0137106D01*
X0230245Y0137193D01*
X0230224Y0137282D01*
X0230206Y0137371D01*
X0230192Y0137460D01*
X0230182Y0137551D01*
X0230176Y0137641D01*
X0230174Y0137732D01*
X0230174Y0118638D02*
X0230176Y0118729D01*
X0230182Y0118819D01*
X0230192Y0118910D01*
X0230206Y0118999D01*
X0230224Y0119088D01*
X0230245Y0119177D01*
X0230271Y0119264D01*
X0230300Y0119350D01*
X0230334Y0119434D01*
X0230370Y0119517D01*
X0230411Y0119599D01*
X0230455Y0119678D01*
X0230502Y0119756D01*
X0230553Y0119831D01*
X0230607Y0119904D01*
X0230664Y0119974D01*
X0230724Y0120042D01*
X0230787Y0120108D01*
X0230853Y0120170D01*
X0230922Y0120229D01*
X0230993Y0120286D01*
X0231067Y0120339D01*
X0231143Y0120389D01*
X0231221Y0120436D01*
X0231301Y0120479D01*
X0231382Y0120518D01*
X0231466Y0120554D01*
X0231551Y0120586D01*
X0231637Y0120615D01*
X0231724Y0120639D01*
X0231813Y0120660D01*
X0231902Y0120677D01*
X0231992Y0120690D01*
X0232082Y0120699D01*
X0232173Y0120704D01*
X0232264Y0120705D01*
X0232354Y0120702D01*
X0232445Y0120695D01*
X0232535Y0120684D01*
X0232625Y0120669D01*
X0232714Y0120650D01*
X0232802Y0120628D01*
X0232888Y0120601D01*
X0232974Y0120571D01*
X0233058Y0120537D01*
X0233141Y0120499D01*
X0233222Y0120458D01*
X0233301Y0120413D01*
X0233378Y0120364D01*
X0233452Y0120313D01*
X0233525Y0120258D01*
X0233595Y0120200D01*
X0233662Y0120139D01*
X0233726Y0120075D01*
X0233788Y0120009D01*
X0233847Y0119939D01*
X0233902Y0119868D01*
X0233955Y0119793D01*
X0234004Y0119717D01*
X0234050Y0119639D01*
X0234092Y0119558D01*
X0234131Y0119476D01*
X0234166Y0119392D01*
X0234197Y0119307D01*
X0234224Y0119220D01*
X0234248Y0119133D01*
X0234268Y0119044D01*
X0234284Y0118955D01*
X0234296Y0118865D01*
X0234304Y0118774D01*
X0234308Y0118683D01*
X0234308Y0118593D01*
X0234304Y0118502D01*
X0234296Y0118411D01*
X0234284Y0118321D01*
X0234268Y0118232D01*
X0234248Y0118143D01*
X0234224Y0118056D01*
X0234197Y0117969D01*
X0234166Y0117884D01*
X0234131Y0117800D01*
X0234092Y0117718D01*
X0234050Y0117637D01*
X0234004Y0117559D01*
X0233955Y0117483D01*
X0233902Y0117408D01*
X0233847Y0117337D01*
X0233788Y0117267D01*
X0233726Y0117201D01*
X0233662Y0117137D01*
X0233595Y0117076D01*
X0233525Y0117018D01*
X0233452Y0116963D01*
X0233378Y0116912D01*
X0233301Y0116863D01*
X0233222Y0116818D01*
X0233141Y0116777D01*
X0233058Y0116739D01*
X0232974Y0116705D01*
X0232888Y0116675D01*
X0232802Y0116648D01*
X0232714Y0116626D01*
X0232625Y0116607D01*
X0232535Y0116592D01*
X0232445Y0116581D01*
X0232354Y0116574D01*
X0232264Y0116571D01*
X0232173Y0116572D01*
X0232082Y0116577D01*
X0231992Y0116586D01*
X0231902Y0116599D01*
X0231813Y0116616D01*
X0231724Y0116637D01*
X0231637Y0116661D01*
X0231551Y0116690D01*
X0231466Y0116722D01*
X0231382Y0116758D01*
X0231301Y0116797D01*
X0231221Y0116840D01*
X0231143Y0116887D01*
X0231067Y0116937D01*
X0230993Y0116990D01*
X0230922Y0117047D01*
X0230853Y0117106D01*
X0230787Y0117168D01*
X0230724Y0117234D01*
X0230664Y0117302D01*
X0230607Y0117372D01*
X0230553Y0117445D01*
X0230502Y0117520D01*
X0230455Y0117598D01*
X0230411Y0117677D01*
X0230370Y0117759D01*
X0230334Y0117842D01*
X0230300Y0117926D01*
X0230271Y0118012D01*
X0230245Y0118099D01*
X0230224Y0118188D01*
X0230206Y0118277D01*
X0230192Y0118366D01*
X0230182Y0118457D01*
X0230176Y0118547D01*
X0230174Y0118638D01*
D17*
X0226335Y0089052D03*
X0218855Y0089052D03*
X0218855Y0078815D03*
X0222595Y0078815D03*
X0226335Y0078815D03*
D18*
X0230114Y0078815D01*
X0232477Y0081177D01*
X0232477Y0092988D01*
X0231414Y0098539D01*
X0231414Y0100114D01*
X0222595Y0108933D01*
X0222595Y0119209D01*
X0226020Y0122634D01*
X0226060Y0122634D01*
X0226296Y0122870D01*
X0231512Y0122870D01*
X0233048Y0123067D01*
X0211414Y0098539D02*
X0210823Y0092988D01*
X0218698Y0090114D01*
X0218855Y0089052D01*
X0218855Y0078815D02*
X0218855Y0075075D01*
X0215194Y0071413D01*
X0229997Y0071413D01*
X0230587Y0072004D01*
X0230587Y0074563D01*
X0226335Y0078815D01*
X0222595Y0178933D02*
X0223795Y0179533D01*
X0236395Y0179533D01*
X0237595Y0178933D01*
X0237595Y0198933D02*
X0236395Y0199133D01*
X0223795Y0199133D01*
X0222595Y0198933D01*
X0223795Y0218733D02*
X0222595Y0218933D01*
X0223795Y0218733D02*
X0236395Y0218733D01*
X0237595Y0218933D01*
X0237595Y0238933D02*
X0236395Y0239733D01*
X0223795Y0239733D01*
X0222595Y0238933D01*
D19*
X0222595Y0258933D03*
X0237595Y0258933D03*
X0242595Y0158933D03*
X0192595Y0088933D03*
X0187595Y0073933D03*
X0047595Y0073933D03*
X0047595Y0153933D03*
X0047595Y0258933D03*
M02*
