G75*
%MOIN*%
%OFA0B0*%
%FSLAX25Y25*%
%IPPOS*%
%LPD*%
%AMOC8*
5,1,8,0,0,1.08239X$1,22.5*
%
%ADD10OC8,0.06300*%
%ADD11C,0.06600*%
%ADD12OC8,0.12500*%
%ADD13R,0.07874X0.07874*%
%ADD14C,0.02000*%
%ADD15C,0.03962*%
D10*
X0057595Y0053933D03*
X0057595Y0063933D03*
X0067595Y0063933D03*
X0067595Y0053933D03*
X0077595Y0053933D03*
X0077595Y0063933D03*
X0087595Y0063933D03*
X0087595Y0053933D03*
X0097595Y0053933D03*
X0097595Y0063933D03*
X0107595Y0063933D03*
X0117595Y0063933D03*
X0117595Y0053933D03*
X0107595Y0053933D03*
X0127595Y0053933D03*
X0127595Y0063933D03*
X0137595Y0063933D03*
X0137595Y0053933D03*
X0147595Y0053933D03*
X0147595Y0063933D03*
X0157595Y0063933D03*
X0157595Y0053933D03*
X0167595Y0053933D03*
X0167595Y0063933D03*
X0177595Y0063933D03*
X0177595Y0053933D03*
X0187595Y0053933D03*
X0187595Y0063933D03*
X0197595Y0063933D03*
X0197595Y0053933D03*
X0207595Y0053933D03*
X0207595Y0063933D03*
X0217595Y0063933D03*
X0227595Y0063933D03*
X0227595Y0053933D03*
X0217595Y0053933D03*
X0237595Y0053933D03*
X0237595Y0063933D03*
X0197595Y0113933D03*
X0197595Y0123933D03*
X0187595Y0123933D03*
X0187595Y0113933D03*
X0187595Y0103933D03*
X0177595Y0103933D03*
X0177595Y0113933D03*
X0177595Y0123933D03*
X0167595Y0123933D03*
X0167595Y0113933D03*
X0167595Y0103933D03*
X0157595Y0103933D03*
X0157595Y0113933D03*
X0157595Y0123933D03*
X0147595Y0123933D03*
X0147595Y0113933D03*
X0147595Y0103933D03*
X0137595Y0103933D03*
X0137595Y0113933D03*
X0137595Y0123933D03*
X0127595Y0123933D03*
X0127595Y0113933D03*
X0127595Y0103933D03*
X0117595Y0103933D03*
X0107595Y0103933D03*
X0107595Y0113933D03*
X0107595Y0123933D03*
X0117595Y0123933D03*
X0117595Y0113933D03*
X0097595Y0113933D03*
X0097595Y0103933D03*
X0087595Y0103933D03*
X0087595Y0113933D03*
X0087595Y0123933D03*
X0077595Y0123933D03*
X0077595Y0113933D03*
X0077595Y0103933D03*
X0067595Y0103933D03*
X0067595Y0113933D03*
X0067595Y0123933D03*
X0057595Y0123933D03*
X0057595Y0113933D03*
X0057595Y0103933D03*
X0057595Y0093933D03*
X0057595Y0083933D03*
X0067595Y0083933D03*
X0067595Y0093933D03*
X0077595Y0093933D03*
X0077595Y0083933D03*
X0087595Y0083933D03*
X0087595Y0093933D03*
X0097595Y0093933D03*
X0097595Y0083933D03*
X0107595Y0083933D03*
X0107595Y0093933D03*
X0117595Y0093933D03*
X0117595Y0083933D03*
X0127595Y0083933D03*
X0127595Y0093933D03*
X0137595Y0093933D03*
X0137595Y0083933D03*
X0147595Y0083933D03*
X0147595Y0093933D03*
X0157595Y0093933D03*
X0157595Y0083933D03*
X0167595Y0083933D03*
X0167595Y0093933D03*
X0177595Y0093933D03*
X0177595Y0083933D03*
X0177595Y0133933D03*
X0177595Y0143933D03*
X0167595Y0143933D03*
X0167595Y0133933D03*
X0157595Y0133933D03*
X0157595Y0143933D03*
X0147595Y0143933D03*
X0147595Y0133933D03*
X0137595Y0133933D03*
X0137595Y0143933D03*
X0127595Y0143933D03*
X0127595Y0133933D03*
X0117595Y0133933D03*
X0107595Y0133933D03*
X0107595Y0143933D03*
X0117595Y0143933D03*
X0097595Y0143933D03*
X0097595Y0133933D03*
X0087595Y0133933D03*
X0087595Y0143933D03*
X0077595Y0143933D03*
X0077595Y0133933D03*
X0067595Y0133933D03*
X0067595Y0143933D03*
X0057595Y0143933D03*
X0057595Y0133933D03*
X0057595Y0163933D03*
X0057595Y0173933D03*
X0057595Y0183933D03*
X0057595Y0193933D03*
X0057595Y0203933D03*
X0057595Y0213933D03*
X0057595Y0223933D03*
X0067595Y0223933D03*
X0067595Y0213933D03*
X0067595Y0203933D03*
X0067595Y0193933D03*
X0067595Y0183933D03*
X0067595Y0173933D03*
X0067595Y0163933D03*
X0077595Y0163933D03*
X0077595Y0173933D03*
X0077595Y0183933D03*
X0077595Y0193933D03*
X0077595Y0203933D03*
X0077595Y0213933D03*
X0077595Y0223933D03*
X0087595Y0223933D03*
X0087595Y0213933D03*
X0087595Y0203933D03*
X0087595Y0193933D03*
X0087595Y0183933D03*
X0087595Y0173933D03*
X0087595Y0163933D03*
X0097595Y0163933D03*
X0097595Y0173933D03*
X0097595Y0183933D03*
X0097595Y0193933D03*
X0097595Y0203933D03*
X0097595Y0213933D03*
X0097595Y0223933D03*
X0107595Y0223933D03*
X0107595Y0213933D03*
X0107595Y0203933D03*
X0117595Y0203933D03*
X0117595Y0213933D03*
X0117595Y0223933D03*
X0127595Y0223933D03*
X0127595Y0213933D03*
X0127595Y0203933D03*
X0127595Y0193933D03*
X0127595Y0183933D03*
X0127595Y0173933D03*
X0127595Y0163933D03*
X0117595Y0163933D03*
X0107595Y0163933D03*
X0107595Y0173933D03*
X0107595Y0183933D03*
X0107595Y0193933D03*
X0117595Y0193933D03*
X0117595Y0183933D03*
X0117595Y0173933D03*
X0137595Y0173933D03*
X0137595Y0163933D03*
X0147595Y0163933D03*
X0147595Y0173933D03*
X0147595Y0183933D03*
X0147595Y0193933D03*
X0137595Y0193933D03*
X0137595Y0183933D03*
X0137595Y0203933D03*
X0137595Y0213933D03*
X0137595Y0223933D03*
X0147595Y0223933D03*
X0147595Y0213933D03*
X0147595Y0203933D03*
X0157595Y0203933D03*
X0157595Y0213933D03*
X0157595Y0223933D03*
X0167595Y0223933D03*
X0167595Y0213933D03*
X0167595Y0203933D03*
X0167595Y0193933D03*
X0167595Y0183933D03*
X0167595Y0173933D03*
X0167595Y0163933D03*
X0157595Y0163933D03*
X0157595Y0173933D03*
X0157595Y0183933D03*
X0157595Y0193933D03*
X0177595Y0193933D03*
X0177595Y0183933D03*
X0177595Y0173933D03*
X0177595Y0163933D03*
X0187595Y0163933D03*
X0187595Y0173933D03*
X0187595Y0183933D03*
X0187595Y0193933D03*
X0187595Y0203933D03*
X0187595Y0213933D03*
X0187595Y0223933D03*
X0177595Y0223933D03*
X0177595Y0213933D03*
X0177595Y0203933D03*
X0197595Y0203933D03*
X0197595Y0213933D03*
X0197595Y0223933D03*
X0207595Y0223933D03*
X0207595Y0213933D03*
X0207595Y0203933D03*
X0207595Y0193933D03*
X0207595Y0183933D03*
X0207595Y0173933D03*
X0207595Y0163933D03*
X0197595Y0163933D03*
X0197595Y0173933D03*
X0197595Y0183933D03*
X0197595Y0193933D03*
X0217595Y0163933D03*
X0227595Y0163933D03*
X0197595Y0143933D03*
X0197595Y0133933D03*
X0187595Y0133933D03*
X0187595Y0143933D03*
X0187595Y0238933D03*
X0177595Y0238933D03*
X0167595Y0238933D03*
X0157595Y0238933D03*
X0147595Y0238933D03*
X0137595Y0238933D03*
X0127595Y0238933D03*
X0117595Y0238933D03*
X0107595Y0238933D03*
X0097595Y0238933D03*
X0087595Y0238933D03*
X0077595Y0238933D03*
X0067595Y0238933D03*
X0057595Y0238933D03*
X0057595Y0248933D03*
X0067595Y0248933D03*
X0077595Y0248933D03*
X0087595Y0248933D03*
X0097595Y0248933D03*
X0107595Y0248933D03*
X0117595Y0248933D03*
X0127595Y0248933D03*
X0137595Y0248933D03*
X0147595Y0248933D03*
X0157595Y0248933D03*
X0167595Y0248933D03*
X0177595Y0248933D03*
X0187595Y0248933D03*
X0197595Y0248933D03*
X0197595Y0238933D03*
X0207595Y0238933D03*
X0207595Y0248933D03*
X0097595Y0123933D03*
D11*
X0211414Y0098539D03*
X0221414Y0098539D03*
X0231414Y0098539D03*
D12*
X0237595Y0178933D03*
X0222595Y0178933D03*
X0222595Y0198933D03*
X0237595Y0198933D03*
X0237595Y0218933D03*
X0222595Y0218933D03*
X0222595Y0238933D03*
X0237595Y0238933D03*
D13*
X0244170Y0138913D03*
X0244170Y0117457D03*
D14*
X0211414Y0098539D02*
X0212595Y0094133D01*
X0212595Y0227133D01*
X0208395Y0231333D01*
X0208395Y0238333D01*
X0207595Y0238933D01*
X0206995Y0239733D01*
X0198595Y0239733D01*
X0197595Y0238933D01*
X0197195Y0239733D01*
X0188795Y0239733D01*
X0187595Y0238933D01*
X0187395Y0239733D01*
X0177595Y0239733D01*
X0177595Y0238933D01*
X0177595Y0239733D02*
X0167795Y0239733D01*
X0167595Y0238933D01*
X0166395Y0239733D01*
X0157995Y0239733D01*
X0157595Y0238933D01*
X0156595Y0239733D01*
X0148195Y0239733D01*
X0147595Y0238933D01*
X0146795Y0239733D01*
X0138395Y0239733D01*
X0137595Y0238933D01*
X0136995Y0239733D01*
X0128595Y0239733D01*
X0127595Y0238933D01*
X0127195Y0239733D01*
X0118795Y0239733D01*
X0117595Y0238933D01*
X0117395Y0239733D01*
X0107595Y0239733D01*
X0107595Y0238933D01*
X0107595Y0239733D02*
X0097795Y0239733D01*
X0097595Y0238933D01*
X0096395Y0239733D01*
X0087995Y0239733D01*
X0087595Y0238933D01*
X0086595Y0239733D01*
X0078195Y0239733D01*
X0077595Y0238933D01*
X0076795Y0239733D01*
X0068395Y0239733D01*
X0067595Y0238933D01*
X0066995Y0239733D01*
X0058595Y0239733D01*
X0057595Y0238933D01*
X0057595Y0223933D02*
X0058595Y0222933D01*
X0058595Y0214533D01*
X0057595Y0213933D01*
X0058595Y0213133D01*
X0058595Y0204733D01*
X0057595Y0203933D01*
X0058595Y0203333D01*
X0058595Y0194933D01*
X0057595Y0193933D01*
X0058595Y0193533D01*
X0058595Y0185133D01*
X0057595Y0183933D01*
X0058595Y0183733D01*
X0058595Y0173933D01*
X0057595Y0173933D01*
X0058595Y0173933D02*
X0058595Y0164133D01*
X0057595Y0163933D01*
X0067595Y0163933D02*
X0068395Y0164133D01*
X0068395Y0173933D01*
X0067595Y0173933D01*
X0068395Y0173933D02*
X0068395Y0183733D01*
X0067595Y0183933D01*
X0068395Y0185133D01*
X0068395Y0193533D01*
X0067595Y0193933D01*
X0068395Y0194933D01*
X0068395Y0203333D01*
X0067595Y0203933D01*
X0068395Y0204733D01*
X0068395Y0213133D01*
X0067595Y0213933D01*
X0068395Y0214533D01*
X0068395Y0222933D01*
X0067595Y0223933D01*
X0077595Y0223933D02*
X0078195Y0222933D01*
X0078195Y0214533D01*
X0077595Y0213933D01*
X0078195Y0213133D01*
X0078195Y0204733D01*
X0077595Y0203933D01*
X0078195Y0203333D01*
X0078195Y0194933D01*
X0077595Y0193933D01*
X0078195Y0193533D01*
X0078195Y0185133D01*
X0077595Y0183933D01*
X0078195Y0183733D01*
X0078195Y0173933D01*
X0077595Y0173933D01*
X0078195Y0173933D02*
X0078195Y0164133D01*
X0077595Y0163933D01*
X0087595Y0163933D02*
X0087995Y0164133D01*
X0087995Y0173933D01*
X0087595Y0173933D01*
X0087995Y0173933D02*
X0087995Y0183733D01*
X0087595Y0183933D01*
X0087995Y0185133D01*
X0087995Y0193533D01*
X0087595Y0193933D01*
X0087995Y0194933D01*
X0087995Y0203333D01*
X0087595Y0203933D01*
X0087995Y0204733D01*
X0087995Y0213133D01*
X0087595Y0213933D01*
X0087995Y0214533D01*
X0087995Y0222933D01*
X0087595Y0223933D01*
X0097595Y0223933D02*
X0097795Y0222933D01*
X0097795Y0214533D01*
X0097595Y0213933D01*
X0097795Y0213133D01*
X0097795Y0204733D01*
X0097595Y0203933D01*
X0097795Y0203333D01*
X0097795Y0194933D01*
X0097595Y0193933D01*
X0097795Y0193533D01*
X0097795Y0185133D01*
X0097595Y0183933D01*
X0097795Y0183733D01*
X0097795Y0173933D01*
X0097595Y0173933D01*
X0097795Y0173933D02*
X0097795Y0164133D01*
X0097595Y0163933D01*
X0107595Y0163933D02*
X0107595Y0173933D01*
X0107595Y0183933D01*
X0107595Y0193933D01*
X0107595Y0203933D01*
X0107595Y0213933D01*
X0107595Y0223933D01*
X0117395Y0222933D02*
X0117395Y0214533D01*
X0117595Y0213933D01*
X0117395Y0213133D01*
X0117395Y0204733D01*
X0117595Y0203933D01*
X0117395Y0203333D01*
X0117395Y0194933D01*
X0117595Y0193933D01*
X0117395Y0193533D01*
X0117395Y0185133D01*
X0117595Y0183933D01*
X0117395Y0183733D01*
X0117395Y0173933D01*
X0117595Y0173933D01*
X0117395Y0173933D02*
X0117395Y0164133D01*
X0117595Y0163933D01*
X0127595Y0163933D02*
X0128595Y0164133D01*
X0128595Y0173933D01*
X0127595Y0173933D01*
X0128595Y0173933D02*
X0128595Y0183733D01*
X0127595Y0183933D01*
X0128595Y0185133D01*
X0128595Y0193533D01*
X0127595Y0193933D01*
X0128595Y0194933D01*
X0128595Y0203333D01*
X0127595Y0203933D01*
X0128595Y0204733D01*
X0128595Y0213133D01*
X0127595Y0213933D01*
X0128595Y0214533D01*
X0128595Y0222933D01*
X0127595Y0223933D01*
X0117595Y0223933D02*
X0117395Y0222933D01*
X0137595Y0223933D02*
X0138395Y0222933D01*
X0138395Y0214533D01*
X0137595Y0213933D01*
X0138395Y0213133D01*
X0138395Y0204733D01*
X0137595Y0203933D01*
X0138395Y0203333D01*
X0138395Y0194933D01*
X0137595Y0193933D01*
X0138395Y0193533D01*
X0138395Y0185133D01*
X0137595Y0183933D01*
X0138395Y0183733D01*
X0138395Y0173933D01*
X0137595Y0173933D01*
X0138395Y0173933D02*
X0138395Y0164133D01*
X0137595Y0163933D01*
X0147595Y0163933D02*
X0148195Y0164133D01*
X0148195Y0173933D01*
X0147595Y0173933D01*
X0148195Y0173933D02*
X0148195Y0183733D01*
X0147595Y0183933D01*
X0148195Y0185133D01*
X0148195Y0193533D01*
X0147595Y0193933D01*
X0148195Y0194933D01*
X0148195Y0203333D01*
X0147595Y0203933D01*
X0148195Y0204733D01*
X0148195Y0213133D01*
X0147595Y0213933D01*
X0148195Y0214533D01*
X0148195Y0222933D01*
X0147595Y0223933D01*
X0157595Y0223933D02*
X0157995Y0222933D01*
X0157995Y0214533D01*
X0157595Y0213933D01*
X0157995Y0213133D01*
X0157995Y0204733D01*
X0157595Y0203933D01*
X0157995Y0203333D01*
X0157995Y0194933D01*
X0157595Y0193933D01*
X0157995Y0193533D01*
X0157995Y0185133D01*
X0157595Y0183933D01*
X0157995Y0183733D01*
X0157995Y0173933D01*
X0157595Y0173933D01*
X0157995Y0173933D02*
X0157995Y0164133D01*
X0157595Y0163933D01*
X0167595Y0163933D02*
X0167795Y0164133D01*
X0167795Y0173933D01*
X0167595Y0173933D01*
X0167795Y0173933D02*
X0167795Y0183733D01*
X0167595Y0183933D01*
X0167795Y0185133D01*
X0167795Y0193533D01*
X0167595Y0193933D01*
X0167795Y0194933D01*
X0167795Y0203333D01*
X0167595Y0203933D01*
X0167795Y0204733D01*
X0167795Y0213133D01*
X0167595Y0213933D01*
X0167795Y0214533D01*
X0167795Y0222933D01*
X0167595Y0223933D01*
X0177595Y0223933D02*
X0177595Y0213933D01*
X0177595Y0203933D01*
X0177595Y0193933D01*
X0177595Y0183933D01*
X0177595Y0173933D01*
X0177595Y0163933D01*
X0187395Y0164133D02*
X0187595Y0163933D01*
X0187395Y0164133D02*
X0187395Y0173933D01*
X0187595Y0173933D01*
X0187395Y0173933D02*
X0187395Y0183733D01*
X0187595Y0183933D01*
X0187395Y0185133D01*
X0187395Y0193533D01*
X0187595Y0193933D01*
X0187395Y0194933D01*
X0187395Y0203333D01*
X0187595Y0203933D01*
X0187395Y0204733D01*
X0187395Y0213133D01*
X0187595Y0213933D01*
X0187395Y0214533D01*
X0187395Y0222933D01*
X0187595Y0223933D01*
X0197595Y0223933D02*
X0198595Y0222933D01*
X0198595Y0214533D01*
X0197595Y0213933D01*
X0198595Y0213133D01*
X0198595Y0204733D01*
X0197595Y0203933D01*
X0198595Y0203333D01*
X0198595Y0194933D01*
X0197595Y0193933D01*
X0198595Y0193533D01*
X0198595Y0185133D01*
X0197595Y0183933D01*
X0198595Y0183733D01*
X0198595Y0173933D01*
X0197595Y0173933D01*
X0198595Y0173933D02*
X0198595Y0164133D01*
X0197595Y0163933D01*
X0207595Y0163933D02*
X0208395Y0164133D01*
X0208395Y0173933D01*
X0207595Y0173933D01*
X0208395Y0173933D02*
X0208395Y0183733D01*
X0207595Y0183933D01*
X0208395Y0185133D01*
X0208395Y0193533D01*
X0207595Y0193933D01*
X0208395Y0194933D01*
X0208395Y0203333D01*
X0207595Y0203933D01*
X0208395Y0204733D01*
X0208395Y0213133D01*
X0207595Y0213933D01*
X0208395Y0214533D01*
X0208395Y0222933D01*
X0207595Y0223933D01*
X0218195Y0164133D02*
X0217595Y0163933D01*
X0218195Y0164133D02*
X0226595Y0164133D01*
X0227595Y0163933D01*
X0198595Y0143133D02*
X0198595Y0134733D01*
X0197595Y0133933D01*
X0198595Y0133333D01*
X0198595Y0124933D01*
X0197595Y0123933D01*
X0198595Y0123533D01*
X0198595Y0115133D01*
X0197595Y0113933D01*
X0187595Y0113933D02*
X0187395Y0115133D01*
X0187395Y0123533D01*
X0187595Y0123933D01*
X0187395Y0124933D01*
X0187395Y0133333D01*
X0187595Y0133933D01*
X0187395Y0134733D01*
X0187395Y0143133D01*
X0187595Y0143933D01*
X0177595Y0143933D02*
X0177595Y0133933D01*
X0177595Y0123933D01*
X0177595Y0113933D01*
X0177595Y0103933D01*
X0177595Y0093933D01*
X0177595Y0083933D01*
X0167795Y0084333D02*
X0167595Y0083933D01*
X0167795Y0084333D02*
X0167795Y0092733D01*
X0167595Y0093933D01*
X0167795Y0094133D01*
X0167795Y0103933D01*
X0167595Y0103933D01*
X0167795Y0103933D02*
X0167795Y0113733D01*
X0167595Y0113933D01*
X0167795Y0115133D01*
X0167795Y0123533D01*
X0167595Y0123933D01*
X0167795Y0124933D01*
X0167795Y0133333D01*
X0167595Y0133933D01*
X0167795Y0134733D01*
X0167795Y0143133D01*
X0167595Y0143933D01*
X0157995Y0143133D02*
X0157995Y0134733D01*
X0157595Y0133933D01*
X0157995Y0133333D01*
X0157995Y0124933D01*
X0157595Y0123933D01*
X0157995Y0123533D01*
X0157995Y0115133D01*
X0157595Y0113933D01*
X0157995Y0113733D01*
X0157995Y0103933D01*
X0157595Y0103933D01*
X0157995Y0103933D02*
X0157995Y0094133D01*
X0157595Y0093933D01*
X0157995Y0092733D01*
X0157995Y0084333D01*
X0157595Y0083933D01*
X0148195Y0084333D02*
X0147595Y0083933D01*
X0148195Y0084333D02*
X0148195Y0092733D01*
X0147595Y0093933D01*
X0148195Y0094133D01*
X0148195Y0103933D01*
X0147595Y0103933D01*
X0148195Y0103933D02*
X0148195Y0113733D01*
X0147595Y0113933D01*
X0148195Y0115133D01*
X0148195Y0123533D01*
X0147595Y0123933D01*
X0148195Y0124933D01*
X0148195Y0133333D01*
X0147595Y0133933D01*
X0148195Y0134733D01*
X0148195Y0143133D01*
X0147595Y0143933D01*
X0138395Y0143133D02*
X0138395Y0134733D01*
X0137595Y0133933D01*
X0138395Y0133333D01*
X0138395Y0124933D01*
X0137595Y0123933D01*
X0138395Y0123533D01*
X0138395Y0115133D01*
X0137595Y0113933D01*
X0138395Y0113733D01*
X0138395Y0103933D01*
X0137595Y0103933D01*
X0138395Y0103933D02*
X0138395Y0094133D01*
X0137595Y0093933D01*
X0138395Y0092733D01*
X0138395Y0084333D01*
X0137595Y0083933D01*
X0128595Y0084333D02*
X0128595Y0092733D01*
X0127595Y0093933D01*
X0128595Y0094133D01*
X0128595Y0103933D01*
X0127595Y0103933D01*
X0128595Y0103933D02*
X0128595Y0113733D01*
X0127595Y0113933D01*
X0128595Y0115133D01*
X0128595Y0123533D01*
X0127595Y0123933D01*
X0128595Y0124933D01*
X0128595Y0133333D01*
X0127595Y0133933D01*
X0128595Y0134733D01*
X0128595Y0143133D01*
X0127595Y0143933D01*
X0117595Y0143933D02*
X0117395Y0143133D01*
X0117395Y0134733D01*
X0117595Y0133933D01*
X0117395Y0133333D01*
X0117395Y0124933D01*
X0117595Y0123933D01*
X0117395Y0123533D01*
X0117395Y0115133D01*
X0117595Y0113933D01*
X0117395Y0113733D01*
X0117395Y0103933D01*
X0117595Y0103933D01*
X0117395Y0103933D02*
X0117395Y0094133D01*
X0117595Y0093933D01*
X0117395Y0092733D01*
X0117395Y0084333D01*
X0117595Y0083933D01*
X0107595Y0083933D02*
X0107595Y0093933D01*
X0107595Y0103933D01*
X0107595Y0113933D01*
X0107595Y0123933D01*
X0107595Y0133933D01*
X0107595Y0143933D01*
X0097795Y0143133D02*
X0097795Y0134733D01*
X0097595Y0133933D01*
X0097795Y0133333D01*
X0097795Y0124933D01*
X0097595Y0123933D01*
X0097795Y0123533D01*
X0097795Y0115133D01*
X0097595Y0113933D01*
X0097795Y0113733D01*
X0097795Y0103933D01*
X0097595Y0103933D01*
X0097795Y0103933D02*
X0097795Y0094133D01*
X0097595Y0093933D01*
X0097795Y0092733D01*
X0097795Y0084333D01*
X0097595Y0083933D01*
X0087995Y0084333D02*
X0087595Y0083933D01*
X0087995Y0084333D02*
X0087995Y0092733D01*
X0087595Y0093933D01*
X0087995Y0094133D01*
X0087995Y0103933D01*
X0087595Y0103933D01*
X0087995Y0103933D02*
X0087995Y0113733D01*
X0087595Y0113933D01*
X0087995Y0115133D01*
X0087995Y0123533D01*
X0087595Y0123933D01*
X0087995Y0124933D01*
X0087995Y0133333D01*
X0087595Y0133933D01*
X0087995Y0134733D01*
X0087995Y0143133D01*
X0087595Y0143933D01*
X0078195Y0143133D02*
X0078195Y0134733D01*
X0077595Y0133933D01*
X0078195Y0133333D01*
X0078195Y0124933D01*
X0077595Y0123933D01*
X0078195Y0123533D01*
X0078195Y0115133D01*
X0077595Y0113933D01*
X0078195Y0113733D01*
X0078195Y0103933D01*
X0077595Y0103933D01*
X0078195Y0103933D02*
X0078195Y0094133D01*
X0077595Y0093933D01*
X0078195Y0092733D01*
X0078195Y0084333D01*
X0077595Y0083933D01*
X0068395Y0084333D02*
X0067595Y0083933D01*
X0068395Y0084333D02*
X0068395Y0092733D01*
X0067595Y0093933D01*
X0068395Y0094133D01*
X0068395Y0103933D01*
X0067595Y0103933D01*
X0068395Y0103933D02*
X0068395Y0113733D01*
X0067595Y0113933D01*
X0068395Y0115133D01*
X0068395Y0123533D01*
X0067595Y0123933D01*
X0068395Y0124933D01*
X0068395Y0133333D01*
X0067595Y0133933D01*
X0068395Y0134733D01*
X0068395Y0143133D01*
X0067595Y0143933D01*
X0058595Y0143133D02*
X0058595Y0134733D01*
X0057595Y0133933D01*
X0058595Y0133333D01*
X0058595Y0124933D01*
X0057595Y0123933D01*
X0058595Y0123533D01*
X0058595Y0115133D01*
X0057595Y0113933D01*
X0058595Y0113733D01*
X0058595Y0103933D01*
X0057595Y0103933D01*
X0058595Y0103933D02*
X0058595Y0094133D01*
X0057595Y0093933D01*
X0058595Y0092733D01*
X0058595Y0084333D01*
X0057595Y0083933D01*
X0058595Y0064133D02*
X0057595Y0063933D01*
X0058595Y0064133D02*
X0066995Y0064133D01*
X0067595Y0063933D01*
X0068395Y0064133D01*
X0076795Y0064133D01*
X0077595Y0063933D01*
X0078195Y0064133D01*
X0086595Y0064133D01*
X0087595Y0063933D01*
X0087995Y0064133D01*
X0096395Y0064133D01*
X0097595Y0063933D01*
X0097795Y0064133D01*
X0107595Y0064133D01*
X0107595Y0063933D01*
X0107595Y0064133D02*
X0117395Y0064133D01*
X0117595Y0063933D01*
X0118795Y0064133D01*
X0127195Y0064133D01*
X0127595Y0063933D01*
X0128595Y0064133D01*
X0136995Y0064133D01*
X0137595Y0063933D01*
X0138395Y0064133D01*
X0146795Y0064133D01*
X0147595Y0063933D01*
X0148195Y0064133D01*
X0156595Y0064133D01*
X0157595Y0063933D01*
X0157995Y0064133D01*
X0166395Y0064133D01*
X0167595Y0063933D01*
X0167795Y0064133D01*
X0177595Y0064133D01*
X0177595Y0063933D01*
X0177595Y0064133D02*
X0187395Y0064133D01*
X0187595Y0063933D01*
X0188795Y0064133D01*
X0197195Y0064133D01*
X0197595Y0063933D01*
X0198595Y0064133D01*
X0206995Y0064133D01*
X0207595Y0063933D01*
X0208395Y0064133D01*
X0211195Y0064133D01*
X0211195Y0092733D01*
X0211414Y0098539D01*
X0187595Y0103933D02*
X0187395Y0103933D01*
X0187395Y0113733D01*
X0187595Y0113933D01*
X0198595Y0143133D02*
X0197595Y0143933D01*
X0157995Y0143133D02*
X0157595Y0143933D01*
X0138395Y0143133D02*
X0137595Y0143933D01*
X0097795Y0143133D02*
X0097595Y0143933D01*
X0078195Y0143133D02*
X0077595Y0143933D01*
X0058595Y0143133D02*
X0057595Y0143933D01*
X0127595Y0083933D02*
X0128595Y0084333D01*
X0211195Y0064133D02*
X0216795Y0064133D01*
X0217595Y0063933D01*
X0218195Y0064133D01*
X0226595Y0064133D01*
X0227595Y0063933D01*
X0227995Y0064133D01*
X0236395Y0064133D01*
X0237595Y0063933D01*
D15*
X0192595Y0088933D03*
X0187595Y0073933D03*
X0242595Y0158933D03*
X0237595Y0258933D03*
X0222595Y0258933D03*
X0047595Y0258933D03*
X0047595Y0153933D03*
X0047595Y0073933D03*
M02*
