%
M48
M72
T01C0.02362
T02C0.03200
T03C0.03937
T04C0.04134
T05C0.04724
T06C0.05200
%
T01
X47595Y73933
X47595Y153933
X47595Y258933
X192595Y88933
X187595Y73933
X242595Y158933
X237595Y258933
X222595Y258933
T02
X57595Y53933
X57595Y63933
X67595Y63933
X67595Y53933
X77595Y53933
X77595Y63933
X87595Y63933
X87595Y53933
X97595Y53933
X97595Y63933
X107595Y63933
X117595Y63933
X117595Y53933
X107595Y53933
X127595Y53933
X127595Y63933
X137595Y63933
X137595Y53933
X147595Y53933
X147595Y63933
X157595Y63933
X157595Y53933
X167595Y53933
X167595Y63933
X177595Y63933
X177595Y53933
X187595Y53933
X187595Y63933
X197595Y63933
X197595Y53933
X207595Y53933
X207595Y63933
X217595Y63933
X227595Y63933
X227595Y53933
X217595Y53933
X237595Y53933
X237595Y63933
X187595Y103933
X187595Y113933
X187595Y123933
X177595Y123933
X177595Y113933
X177595Y103933
X167595Y103933
X167595Y113933
X167595Y123933
X157595Y123933
X157595Y113933
X157595Y103933
X147595Y103933
X147595Y113933
X147595Y123933
X137595Y123933
X137595Y113933
X137595Y103933
X127595Y103933
X127595Y113933
X127595Y123933
X117595Y123933
X107595Y123933
X107595Y113933
X107595Y103933
X117595Y103933
X117595Y113933
X97595Y113933
X97595Y103933
X87595Y103933
X87595Y113933
X87595Y123933
X77595Y123933
X77595Y113933
X77595Y103933
X67595Y103933
X67595Y113933
X67595Y123933
X57595Y123933
X57595Y113933
X57595Y103933
X57595Y93933
X57595Y83933
X67595Y83933
X67595Y93933
X77595Y93933
X77595Y83933
X87595Y83933
X87595Y93933
X97595Y93933
X97595Y83933
X107595Y83933
X107595Y93933
X117595Y93933
X117595Y83933
X127595Y83933
X127595Y93933
X137595Y93933
X137595Y83933
X147595Y83933
X147595Y93933
X157595Y93933
X157595Y83933
X167595Y83933
X167595Y93933
X177595Y93933
X177595Y83933
X197595Y113933
X197595Y123933
X197595Y133933
X197595Y143933
X187595Y143933
X187595Y133933
X177595Y133933
X177595Y143933
X167595Y143933
X167595Y133933
X157595Y133933
X157595Y143933
X147595Y143933
X147595Y133933
X137595Y133933
X137595Y143933
X127595Y143933
X127595Y133933
X117595Y133933
X107595Y133933
X107595Y143933
X117595Y143933
X97595Y143933
X97595Y133933
X87595Y133933
X87595Y143933
X77595Y143933
X77595Y133933
X67595Y133933
X67595Y143933
X57595Y143933
X57595Y133933
X57595Y163933
X57595Y173933
X57595Y183933
X57595Y193933
X57595Y203933
X57595Y213933
X57595Y223933
X67595Y223933
X67595Y213933
X67595Y203933
X67595Y193933
X67595Y183933
X67595Y173933
X67595Y163933
X77595Y163933
X77595Y173933
X77595Y183933
X77595Y193933
X77595Y203933
X77595Y213933
X77595Y223933
X87595Y223933
X87595Y213933
X87595Y203933
X87595Y193933
X87595Y183933
X87595Y173933
X87595Y163933
X97595Y163933
X97595Y173933
X97595Y183933
X97595Y193933
X97595Y203933
X97595Y213933
X97595Y223933
X107595Y223933
X107595Y213933
X107595Y203933
X117595Y203933
X117595Y213933
X117595Y223933
X127595Y223933
X127595Y213933
X127595Y203933
X127595Y193933
X127595Y183933
X127595Y173933
X127595Y163933
X117595Y163933
X107595Y163933
X107595Y173933
X107595Y183933
X107595Y193933
X117595Y193933
X117595Y183933
X117595Y173933
X137595Y173933
X137595Y163933
X147595Y163933
X147595Y173933
X147595Y183933
X147595Y193933
X137595Y193933
X137595Y183933
X137595Y203933
X137595Y213933
X137595Y223933
X147595Y223933
X147595Y213933
X147595Y203933
X157595Y203933
X157595Y213933
X157595Y223933
X167595Y223933
X167595Y213933
X167595Y203933
X167595Y193933
X167595Y183933
X167595Y173933
X167595Y163933
X157595Y163933
X157595Y173933
X157595Y183933
X157595Y193933
X177595Y193933
X177595Y183933
X177595Y173933
X177595Y163933
X187595Y163933
X187595Y173933
X187595Y183933
X187595Y193933
X187595Y203933
X187595Y213933
X187595Y223933
X177595Y223933
X177595Y213933
X177595Y203933
X197595Y203933
X197595Y213933
X197595Y223933
X207595Y223933
X207595Y213933
X207595Y203933
X207595Y193933
X207595Y183933
X207595Y173933
X207595Y163933
X197595Y163933
X197595Y173933
X197595Y183933
X197595Y193933
X217595Y163933
X227595Y163933
X207595Y238933
X197595Y238933
X187595Y238933
X177595Y238933
X167595Y238933
X157595Y238933
X147595Y238933
X137595Y238933
X127595Y238933
X117595Y238933
X107595Y238933
X97595Y238933
X87595Y238933
X77595Y238933
X67595Y238933
X57595Y238933
X57595Y248933
X67595Y248933
X77595Y248933
X87595Y248933
X97595Y248933
X107595Y248933
X117595Y248933
X127595Y248933
X137595Y248933
X147595Y248933
X157595Y248933
X167595Y248933
X177595Y248933
X187595Y248933
X197595Y248933
X207595Y248933
X97595Y123933
T03
X211414Y98539
X221414Y98539
X231414Y98539
T04
X232241Y118638
X232241Y137732
T05
X244170Y117457
X244170Y138913
T06
X237595Y178933
X222595Y178933
X222595Y198933
X237595Y198933
X237595Y218933
X222595Y218933
X222595Y238933
X237595Y238933
M30
