%
M48
M72
T01C0.02362
T02C0.02756
T03C0.03200
T04C0.03543
T05C0.03937
T06C0.05200
T07C0.12800
%
T01
X125953Y119300
X120953Y154300
X100953Y161800
X313433Y182627
X313433Y210973
T02
X305953Y204477
X302409Y209792
X305953Y189123
X302409Y183808
T03
X40953Y36800
X40953Y46800
X50953Y46800
X50953Y36800
X60953Y36800
X60953Y46800
X70953Y46800
X80953Y46800
X80953Y36800
X70953Y36800
X90953Y36800
X90953Y46800
X100953Y46800
X100953Y36800
X110953Y36800
X110953Y46800
X120953Y46800
X120953Y36800
X130953Y36800
X140953Y36800
X140953Y46800
X130953Y46800
X130953Y61800
X140953Y61800
X140953Y71800
X130953Y71800
X130953Y81800
X140953Y81800
X140953Y91800
X130953Y91800
X120953Y91800
X120953Y81800
X120953Y71800
X120953Y61800
X110953Y61800
X110953Y71800
X110953Y81800
X110953Y91800
X100953Y91800
X100953Y81800
X100953Y71800
X100953Y61800
X90953Y61800
X90953Y71800
X90953Y81800
X90953Y91800
X80953Y91800
X80953Y81800
X70953Y81800
X70953Y91800
X60953Y91800
X60953Y81800
X60953Y71800
X60953Y61800
X70953Y61800
X80953Y61800
X80953Y71800
X70953Y71800
X50953Y71800
X50953Y61800
X40953Y61800
X40953Y71800
X40953Y81800
X40953Y91800
X50953Y91800
X50953Y81800
X50953Y191800
X60953Y191800
X70953Y191800
X80953Y191800
X90953Y191800
X100953Y191800
X110953Y191800
X120953Y191800
X130953Y191800
X140953Y191800
X140953Y201800
X140953Y211800
X140953Y221800
X130953Y221800
X130953Y211800
X130953Y201800
X120953Y201800
X120953Y211800
X120953Y221800
X110953Y221800
X110953Y211800
X110953Y201800
X100953Y201800
X100953Y211800
X100953Y221800
X90953Y221800
X90953Y211800
X90953Y201800
X80953Y201800
X80953Y211800
X80953Y221800
X70953Y221800
X70953Y211800
X70953Y201800
X60953Y201800
X60953Y211800
X60953Y221800
X50953Y221800
X50953Y211800
X50953Y201800
X40953Y201800
X40953Y211800
X40953Y221800
X40953Y191800
X70953Y236800
X80953Y236800
X80953Y246800
X70953Y246800
X70953Y261800
X80953Y261800
X80953Y271800
X80953Y281800
X70953Y281800
X70953Y271800
X60953Y271800
X60953Y261800
X60953Y281800
X60953Y291800
X70953Y291800
X80953Y291800
X80953Y301800
X70953Y301800
X90953Y301800
X90953Y291800
X100953Y291800
X100953Y301800
X110953Y301800
X110953Y291800
X120953Y291800
X120953Y301800
X130953Y301800
X140953Y301800
X140953Y291800
X130953Y291800
X130953Y281800
X140953Y281800
X140953Y271800
X140953Y261800
X130953Y261800
X130953Y271800
X120953Y271800
X120953Y261800
X110953Y261800
X110953Y271800
X110953Y281800
X120953Y281800
X100953Y281800
X100953Y271800
X100953Y261800
X90953Y261800
X90953Y271800
X90953Y281800
X90953Y246800
X90953Y236800
X100953Y236800
X100953Y246800
X110953Y246800
X110953Y236800
X120953Y236800
X120953Y246800
X130953Y246800
X140953Y246800
X140953Y236800
X130953Y236800
X150953Y236800
X150953Y246800
X160953Y246800
X160953Y236800
X170953Y236800
X170953Y246800
X180953Y246800
X180953Y236800
X190953Y236800
X200953Y236800
X200953Y246800
X190953Y246800
X190953Y261800
X200953Y261800
X200953Y271800
X200953Y281800
X190953Y281800
X190953Y271800
X180953Y271800
X180953Y261800
X170953Y261800
X170953Y271800
X170953Y281800
X180953Y281800
X180953Y291800
X180953Y301800
X190953Y301800
X200953Y301800
X200953Y291800
X190953Y291800
X210953Y291800
X210953Y301800
X220953Y301800
X220953Y291800
X230953Y291800
X230953Y301800
X240953Y301800
X240953Y291800
X250953Y291800
X260953Y291800
X260953Y301800
X250953Y301800
X250953Y281800
X260953Y281800
X260953Y271800
X260953Y261800
X250953Y261800
X250953Y271800
X240953Y271800
X240953Y261800
X230953Y261800
X230953Y271800
X230953Y281800
X240953Y281800
X220953Y281800
X220953Y271800
X220953Y261800
X210953Y261800
X210953Y271800
X210953Y281800
X210953Y246800
X210953Y236800
X220953Y236800
X220953Y246800
X230953Y246800
X230953Y236800
X240953Y236800
X240953Y246800
X250953Y246800
X260953Y246800
X260953Y236800
X250953Y236800
X250953Y221800
X260953Y221800
X260953Y211800
X260953Y201800
X250953Y201800
X250953Y211800
X240953Y211800
X240953Y201800
X240953Y191800
X250953Y191800
X260953Y191800
X270953Y191800
X270953Y201800
X270953Y211800
X270953Y221800
X290953Y211800
X270953Y176800
X270953Y166800
X270953Y156800
X270953Y146800
X260953Y146800
X260953Y156800
X260953Y166800
X250953Y166800
X250953Y156800
X250953Y146800
X240953Y146800
X240953Y156800
X240953Y166800
X240953Y176800
X250953Y176800
X260953Y176800
X230953Y176800
X230953Y166800
X230953Y156800
X230953Y146800
X220953Y146800
X220953Y156800
X220953Y166800
X220953Y176800
X210953Y176800
X210953Y166800
X210953Y156800
X210953Y146800
X200953Y146800
X200953Y156800
X200953Y166800
X190953Y166800
X190953Y156800
X190953Y146800
X180953Y146800
X180953Y156800
X180953Y166800
X180953Y176800
X190953Y176800
X200953Y176800
X200953Y191800
X190953Y191800
X190953Y201800
X200953Y201800
X200953Y211800
X200953Y221800
X190953Y221800
X190953Y211800
X180953Y211800
X180953Y201800
X180953Y191800
X170953Y191800
X170953Y201800
X170953Y211800
X170953Y221800
X180953Y221800
X160953Y221800
X160953Y211800
X160953Y201800
X160953Y191800
X160953Y176800
X170953Y176800
X170953Y166800
X170953Y156800
X170953Y146800
X160953Y146800
X160953Y156800
X160953Y166800
X160953Y131800
X160953Y116800
X170953Y116800
X180953Y116800
X190953Y116800
X200953Y116800
X210953Y116800
X220953Y116800
X230953Y116800
X240953Y116800
X250953Y116800
X260953Y116800
X270953Y116800
X270953Y106800
X270953Y96800
X260953Y96800
X260953Y106800
X250953Y106800
X250953Y96800
X240953Y96800
X240953Y106800
X230953Y106800
X230953Y96800
X220953Y96800
X220953Y106800
X210953Y106800
X210953Y96800
X200953Y96800
X200953Y106800
X190953Y106800
X190953Y96800
X180953Y96800
X180953Y106800
X170953Y106800
X170953Y96800
X160953Y96800
X160953Y106800
X160953Y81800
X170953Y81800
X180953Y81800
X190953Y81800
X200953Y81800
X210953Y81800
X220953Y81800
X230953Y81800
X240953Y81800
X250953Y81800
X260953Y81800
X270953Y81800
X270953Y71800
X270953Y61800
X260953Y61800
X260953Y71800
X250953Y71800
X250953Y61800
X240953Y61800
X240953Y71800
X230953Y71800
X230953Y61800
X220953Y61800
X220953Y71800
X210953Y71800
X210953Y61800
X200953Y61800
X200953Y71800
X190953Y71800
X190953Y61800
X180953Y61800
X180953Y71800
X170953Y71800
X170953Y61800
X160953Y61800
X160953Y71800
X160953Y46800
X160953Y36800
X170953Y36800
X170953Y46800
X180953Y46800
X180953Y36800
X190953Y36800
X200953Y36800
X200953Y46800
X190953Y46800
X210953Y46800
X210953Y36800
X220953Y36800
X220953Y46800
X230953Y46800
X230953Y36800
X240953Y36800
X240953Y46800
X250953Y46800
X260953Y46800
X260953Y36800
X250953Y36800
X270953Y36800
X270953Y46800
X280953Y46800
X280953Y36800
X290953Y36800
X290953Y46800
X300953Y46800
X300953Y36800
X300953Y61800
X300953Y71800
X310953Y71800
X310953Y61800
X310953Y81800
X310953Y91800
X310953Y101800
X310953Y111800
X310953Y121800
X300953Y121800
X300953Y111800
X300953Y101800
X300953Y91800
X300953Y81800
X290953Y81800
X290953Y91800
X290953Y101800
X290953Y111800
X290953Y121800
X290953Y71800
X290953Y61800
X200953Y131800
X190953Y131800
X210953Y191800
X220953Y191800
X230953Y191800
X230953Y201800
X230953Y211800
X230953Y221800
X240953Y221800
X220953Y221800
X220953Y211800
X220953Y201800
X210953Y201800
X210953Y211800
X210953Y221800
X160953Y261800
X160953Y271800
X160953Y281800
X160953Y291800
X160953Y301800
X170953Y301800
X170953Y291800
X150953Y291800
X150953Y301800
X150953Y281800
X150953Y271800
X150953Y261800
X150953Y331800
X150953Y341800
X160953Y341800
X160953Y331800
X170953Y331800
X170953Y341800
X180953Y341800
X180953Y331800
X190953Y331800
X200953Y331800
X200953Y341800
X190953Y341800
X190953Y351800
X200953Y351800
X200953Y361800
X200953Y371800
X190953Y371800
X190953Y361800
X180953Y361800
X180953Y351800
X170953Y351800
X170953Y361800
X170953Y371800
X180953Y371800
X180953Y386800
X180953Y396800
X190953Y396800
X200953Y396800
X200953Y386800
X190953Y386800
X210953Y386800
X210953Y396800
X220953Y396800
X220953Y386800
X230953Y386800
X230953Y396800
X240953Y396800
X240953Y386800
X250953Y386800
X260953Y386800
X260953Y396800
X250953Y396800
X270953Y396800
X270953Y386800
X280953Y386800
X280953Y396800
X290953Y396800
X290953Y386800
X300953Y386800
X300953Y396800
X275953Y351800
X275953Y341800
X275953Y331800
X260953Y331800
X260953Y341800
X250953Y341800
X250953Y331800
X240953Y331800
X240953Y341800
X240953Y351800
X240953Y361800
X240953Y371800
X250953Y371800
X260953Y371800
X260953Y361800
X260953Y351800
X250953Y351800
X250953Y361800
X230953Y361800
X230953Y351800
X230953Y341800
X230953Y331800
X220953Y331800
X220953Y341800
X220953Y351800
X220953Y361800
X220953Y371800
X230953Y371800
X210953Y371800
X210953Y361800
X210953Y351800
X210953Y341800
X210953Y331800
X170953Y386800
X170953Y396800
X160953Y396800
X160953Y386800
X150953Y386800
X150953Y396800
X140953Y396800
X140953Y386800
X130953Y386800
X130953Y396800
X120953Y396800
X120953Y386800
X110953Y386800
X110953Y396800
X100953Y396800
X100953Y386800
X90953Y386800
X90953Y396800
X80953Y396800
X80953Y386800
X70953Y386800
X70953Y396800
X60953Y396800
X60953Y386800
X50953Y386800
X50953Y396800
X40953Y396800
X40953Y386800
X100953Y371800
X100953Y361800
X100953Y351800
X100953Y341800
X110953Y336800
X110953Y346800
X110953Y356800
X110953Y366800
X120953Y361800
X120953Y351800
X130953Y351800
X140953Y351800
X140953Y361800
X140953Y371800
X130953Y371800
X130953Y361800
X120953Y371800
X120953Y341800
X120953Y331800
X130953Y331800
X140953Y331800
X140953Y341800
X130953Y341800
X150953Y351800
X150953Y361800
X150953Y371800
X160953Y371800
X160953Y361800
X160953Y351800
X275953Y301800
X275953Y291800
X275953Y281800
X150953Y46800
X150953Y36800
T04
X85953Y329300
X85953Y339300
X85953Y349300
X85953Y359300
X75953Y354300
X75953Y344300
X75953Y334300
X75953Y364300
T05
X277173Y237981
X289378Y256879
X301189Y237981
X296189Y161524
X296189Y151524
X296189Y141524
T06
X305953Y271800
X305953Y291800
X305953Y311800
X305953Y331800
X305953Y351800
X305953Y371800
X45953Y301800
X45953Y281800
X45953Y261800
X45953Y241800
T07
X50953Y324300
X50953Y369300
M30
