G75*
%MOIN*%
%OFA0B0*%
%FSLAX25Y25*%
%IPPOS*%
%LPD*%
%AMOC8*
5,1,8,0,0,1.08239X$1,22.5*
%
%ADD10OC8,0.07100*%
%ADD11C,0.08674*%
%ADD12C,0.07400*%
%ADD13OC8,0.13300*%
%ADD14C,0.05556*%
%ADD15R,0.10643X0.10643*%
%ADD16C,0.03556*%
%ADD17C,0.06343*%
%ADD18C,0.13600*%
%ADD19C,0.04762*%
D10*
X0040953Y0036800D03*
X0040953Y0046800D03*
X0050953Y0046800D03*
X0050953Y0036800D03*
X0060953Y0036800D03*
X0060953Y0046800D03*
X0070953Y0046800D03*
X0080953Y0046800D03*
X0080953Y0036800D03*
X0070953Y0036800D03*
X0090953Y0036800D03*
X0090953Y0046800D03*
X0100953Y0046800D03*
X0100953Y0036800D03*
X0110953Y0036800D03*
X0110953Y0046800D03*
X0120953Y0046800D03*
X0120953Y0036800D03*
X0130953Y0036800D03*
X0140953Y0036800D03*
X0140953Y0046800D03*
X0130953Y0046800D03*
X0130953Y0061800D03*
X0140953Y0061800D03*
X0140953Y0071800D03*
X0130953Y0071800D03*
X0130953Y0081800D03*
X0140953Y0081800D03*
X0140953Y0091800D03*
X0130953Y0091800D03*
X0120953Y0091800D03*
X0120953Y0081800D03*
X0120953Y0071800D03*
X0120953Y0061800D03*
X0110953Y0061800D03*
X0110953Y0071800D03*
X0110953Y0081800D03*
X0110953Y0091800D03*
X0100953Y0091800D03*
X0100953Y0081800D03*
X0100953Y0071800D03*
X0100953Y0061800D03*
X0090953Y0061800D03*
X0090953Y0071800D03*
X0090953Y0081800D03*
X0090953Y0091800D03*
X0080953Y0091800D03*
X0080953Y0081800D03*
X0070953Y0081800D03*
X0070953Y0091800D03*
X0060953Y0091800D03*
X0060953Y0081800D03*
X0060953Y0071800D03*
X0060953Y0061800D03*
X0070953Y0061800D03*
X0080953Y0061800D03*
X0080953Y0071800D03*
X0070953Y0071800D03*
X0050953Y0071800D03*
X0050953Y0061800D03*
X0040953Y0061800D03*
X0040953Y0071800D03*
X0040953Y0081800D03*
X0040953Y0091800D03*
X0050953Y0091800D03*
X0050953Y0081800D03*
X0050953Y0191800D03*
X0060953Y0191800D03*
X0070953Y0191800D03*
X0080953Y0191800D03*
X0090953Y0191800D03*
X0100953Y0191800D03*
X0110953Y0191800D03*
X0120953Y0191800D03*
X0130953Y0191800D03*
X0140953Y0191800D03*
X0140953Y0201800D03*
X0140953Y0211800D03*
X0140953Y0221800D03*
X0130953Y0221800D03*
X0130953Y0211800D03*
X0130953Y0201800D03*
X0120953Y0201800D03*
X0120953Y0211800D03*
X0120953Y0221800D03*
X0110953Y0221800D03*
X0110953Y0211800D03*
X0110953Y0201800D03*
X0100953Y0201800D03*
X0100953Y0211800D03*
X0100953Y0221800D03*
X0090953Y0221800D03*
X0090953Y0211800D03*
X0090953Y0201800D03*
X0080953Y0201800D03*
X0080953Y0211800D03*
X0080953Y0221800D03*
X0070953Y0221800D03*
X0070953Y0211800D03*
X0070953Y0201800D03*
X0060953Y0201800D03*
X0060953Y0211800D03*
X0060953Y0221800D03*
X0050953Y0221800D03*
X0050953Y0211800D03*
X0050953Y0201800D03*
X0040953Y0201800D03*
X0040953Y0211800D03*
X0040953Y0221800D03*
X0040953Y0191800D03*
X0070953Y0236800D03*
X0080953Y0236800D03*
X0080953Y0246800D03*
X0070953Y0246800D03*
X0070953Y0261800D03*
X0080953Y0261800D03*
X0080953Y0271800D03*
X0080953Y0281800D03*
X0070953Y0281800D03*
X0070953Y0271800D03*
X0060953Y0271800D03*
X0060953Y0261800D03*
X0060953Y0281800D03*
X0060953Y0291800D03*
X0070953Y0291800D03*
X0080953Y0291800D03*
X0080953Y0301800D03*
X0070953Y0301800D03*
X0090953Y0301800D03*
X0090953Y0291800D03*
X0100953Y0291800D03*
X0100953Y0301800D03*
X0110953Y0301800D03*
X0110953Y0291800D03*
X0120953Y0291800D03*
X0120953Y0301800D03*
X0130953Y0301800D03*
X0140953Y0301800D03*
X0140953Y0291800D03*
X0130953Y0291800D03*
X0130953Y0281800D03*
X0140953Y0281800D03*
X0140953Y0271800D03*
X0140953Y0261800D03*
X0130953Y0261800D03*
X0130953Y0271800D03*
X0120953Y0271800D03*
X0120953Y0261800D03*
X0110953Y0261800D03*
X0110953Y0271800D03*
X0110953Y0281800D03*
X0120953Y0281800D03*
X0100953Y0281800D03*
X0100953Y0271800D03*
X0100953Y0261800D03*
X0090953Y0261800D03*
X0090953Y0271800D03*
X0090953Y0281800D03*
X0090953Y0246800D03*
X0090953Y0236800D03*
X0100953Y0236800D03*
X0100953Y0246800D03*
X0110953Y0246800D03*
X0110953Y0236800D03*
X0120953Y0236800D03*
X0120953Y0246800D03*
X0130953Y0246800D03*
X0140953Y0246800D03*
X0140953Y0236800D03*
X0130953Y0236800D03*
X0150953Y0236800D03*
X0150953Y0246800D03*
X0160953Y0246800D03*
X0160953Y0236800D03*
X0170953Y0236800D03*
X0170953Y0246800D03*
X0180953Y0246800D03*
X0180953Y0236800D03*
X0190953Y0236800D03*
X0200953Y0236800D03*
X0200953Y0246800D03*
X0190953Y0246800D03*
X0190953Y0261800D03*
X0200953Y0261800D03*
X0200953Y0271800D03*
X0200953Y0281800D03*
X0190953Y0281800D03*
X0190953Y0271800D03*
X0180953Y0271800D03*
X0180953Y0261800D03*
X0170953Y0261800D03*
X0170953Y0271800D03*
X0170953Y0281800D03*
X0180953Y0281800D03*
X0180953Y0291800D03*
X0180953Y0301800D03*
X0190953Y0301800D03*
X0200953Y0301800D03*
X0200953Y0291800D03*
X0190953Y0291800D03*
X0210953Y0291800D03*
X0210953Y0301800D03*
X0220953Y0301800D03*
X0220953Y0291800D03*
X0230953Y0291800D03*
X0230953Y0301800D03*
X0240953Y0301800D03*
X0240953Y0291800D03*
X0250953Y0291800D03*
X0260953Y0291800D03*
X0260953Y0301800D03*
X0250953Y0301800D03*
X0250953Y0281800D03*
X0260953Y0281800D03*
X0260953Y0271800D03*
X0260953Y0261800D03*
X0250953Y0261800D03*
X0250953Y0271800D03*
X0240953Y0271800D03*
X0240953Y0261800D03*
X0230953Y0261800D03*
X0230953Y0271800D03*
X0230953Y0281800D03*
X0240953Y0281800D03*
X0220953Y0281800D03*
X0220953Y0271800D03*
X0220953Y0261800D03*
X0210953Y0261800D03*
X0210953Y0271800D03*
X0210953Y0281800D03*
X0210953Y0246800D03*
X0210953Y0236800D03*
X0220953Y0236800D03*
X0220953Y0246800D03*
X0230953Y0246800D03*
X0230953Y0236800D03*
X0240953Y0236800D03*
X0240953Y0246800D03*
X0250953Y0246800D03*
X0260953Y0246800D03*
X0260953Y0236800D03*
X0250953Y0236800D03*
X0250953Y0221800D03*
X0260953Y0221800D03*
X0260953Y0211800D03*
X0260953Y0201800D03*
X0250953Y0201800D03*
X0250953Y0211800D03*
X0240953Y0211800D03*
X0240953Y0201800D03*
X0240953Y0191800D03*
X0250953Y0191800D03*
X0260953Y0191800D03*
X0270953Y0191800D03*
X0270953Y0201800D03*
X0270953Y0211800D03*
X0270953Y0221800D03*
X0290953Y0211800D03*
X0270953Y0176800D03*
X0270953Y0166800D03*
X0270953Y0156800D03*
X0270953Y0146800D03*
X0260953Y0146800D03*
X0260953Y0156800D03*
X0260953Y0166800D03*
X0250953Y0166800D03*
X0250953Y0156800D03*
X0250953Y0146800D03*
X0240953Y0146800D03*
X0240953Y0156800D03*
X0240953Y0166800D03*
X0240953Y0176800D03*
X0250953Y0176800D03*
X0260953Y0176800D03*
X0230953Y0176800D03*
X0230953Y0166800D03*
X0230953Y0156800D03*
X0230953Y0146800D03*
X0220953Y0146800D03*
X0220953Y0156800D03*
X0220953Y0166800D03*
X0220953Y0176800D03*
X0210953Y0176800D03*
X0210953Y0166800D03*
X0210953Y0156800D03*
X0210953Y0146800D03*
X0200953Y0146800D03*
X0200953Y0156800D03*
X0200953Y0166800D03*
X0190953Y0166800D03*
X0190953Y0156800D03*
X0190953Y0146800D03*
X0180953Y0146800D03*
X0180953Y0156800D03*
X0180953Y0166800D03*
X0180953Y0176800D03*
X0190953Y0176800D03*
X0200953Y0176800D03*
X0200953Y0191800D03*
X0190953Y0191800D03*
X0190953Y0201800D03*
X0200953Y0201800D03*
X0200953Y0211800D03*
X0200953Y0221800D03*
X0190953Y0221800D03*
X0190953Y0211800D03*
X0180953Y0211800D03*
X0180953Y0201800D03*
X0180953Y0191800D03*
X0170953Y0191800D03*
X0170953Y0201800D03*
X0170953Y0211800D03*
X0170953Y0221800D03*
X0180953Y0221800D03*
X0160953Y0221800D03*
X0160953Y0211800D03*
X0160953Y0201800D03*
X0160953Y0191800D03*
X0160953Y0176800D03*
X0170953Y0176800D03*
X0170953Y0166800D03*
X0170953Y0156800D03*
X0170953Y0146800D03*
X0160953Y0146800D03*
X0160953Y0156800D03*
X0160953Y0166800D03*
X0160953Y0131800D03*
X0160953Y0116800D03*
X0170953Y0116800D03*
X0180953Y0116800D03*
X0190953Y0116800D03*
X0200953Y0116800D03*
X0210953Y0116800D03*
X0220953Y0116800D03*
X0230953Y0116800D03*
X0240953Y0116800D03*
X0250953Y0116800D03*
X0260953Y0116800D03*
X0270953Y0116800D03*
X0270953Y0106800D03*
X0270953Y0096800D03*
X0260953Y0096800D03*
X0260953Y0106800D03*
X0250953Y0106800D03*
X0250953Y0096800D03*
X0240953Y0096800D03*
X0240953Y0106800D03*
X0230953Y0106800D03*
X0230953Y0096800D03*
X0220953Y0096800D03*
X0220953Y0106800D03*
X0210953Y0106800D03*
X0210953Y0096800D03*
X0200953Y0096800D03*
X0200953Y0106800D03*
X0190953Y0106800D03*
X0190953Y0096800D03*
X0180953Y0096800D03*
X0180953Y0106800D03*
X0170953Y0106800D03*
X0170953Y0096800D03*
X0160953Y0096800D03*
X0160953Y0106800D03*
X0160953Y0081800D03*
X0170953Y0081800D03*
X0180953Y0081800D03*
X0190953Y0081800D03*
X0200953Y0081800D03*
X0210953Y0081800D03*
X0220953Y0081800D03*
X0230953Y0081800D03*
X0240953Y0081800D03*
X0250953Y0081800D03*
X0260953Y0081800D03*
X0270953Y0081800D03*
X0270953Y0071800D03*
X0270953Y0061800D03*
X0260953Y0061800D03*
X0260953Y0071800D03*
X0250953Y0071800D03*
X0250953Y0061800D03*
X0240953Y0061800D03*
X0240953Y0071800D03*
X0230953Y0071800D03*
X0230953Y0061800D03*
X0220953Y0061800D03*
X0220953Y0071800D03*
X0210953Y0071800D03*
X0210953Y0061800D03*
X0200953Y0061800D03*
X0200953Y0071800D03*
X0190953Y0071800D03*
X0190953Y0061800D03*
X0180953Y0061800D03*
X0180953Y0071800D03*
X0170953Y0071800D03*
X0170953Y0061800D03*
X0160953Y0061800D03*
X0160953Y0071800D03*
X0160953Y0046800D03*
X0160953Y0036800D03*
X0170953Y0036800D03*
X0170953Y0046800D03*
X0180953Y0046800D03*
X0180953Y0036800D03*
X0190953Y0036800D03*
X0200953Y0036800D03*
X0200953Y0046800D03*
X0190953Y0046800D03*
X0210953Y0046800D03*
X0210953Y0036800D03*
X0220953Y0036800D03*
X0220953Y0046800D03*
X0230953Y0046800D03*
X0230953Y0036800D03*
X0240953Y0036800D03*
X0240953Y0046800D03*
X0250953Y0046800D03*
X0260953Y0046800D03*
X0260953Y0036800D03*
X0250953Y0036800D03*
X0270953Y0036800D03*
X0270953Y0046800D03*
X0280953Y0046800D03*
X0280953Y0036800D03*
X0290953Y0036800D03*
X0290953Y0046800D03*
X0300953Y0046800D03*
X0300953Y0036800D03*
X0300953Y0061800D03*
X0300953Y0071800D03*
X0310953Y0071800D03*
X0310953Y0061800D03*
X0310953Y0081800D03*
X0310953Y0091800D03*
X0310953Y0101800D03*
X0310953Y0111800D03*
X0310953Y0121800D03*
X0300953Y0121800D03*
X0300953Y0111800D03*
X0300953Y0101800D03*
X0300953Y0091800D03*
X0300953Y0081800D03*
X0290953Y0081800D03*
X0290953Y0091800D03*
X0290953Y0101800D03*
X0290953Y0111800D03*
X0290953Y0121800D03*
X0290953Y0071800D03*
X0290953Y0061800D03*
X0200953Y0131800D03*
X0190953Y0131800D03*
X0210953Y0191800D03*
X0220953Y0191800D03*
X0230953Y0191800D03*
X0230953Y0201800D03*
X0230953Y0211800D03*
X0230953Y0221800D03*
X0240953Y0221800D03*
X0220953Y0221800D03*
X0220953Y0211800D03*
X0220953Y0201800D03*
X0210953Y0201800D03*
X0210953Y0211800D03*
X0210953Y0221800D03*
X0160953Y0261800D03*
X0160953Y0271800D03*
X0160953Y0281800D03*
X0160953Y0291800D03*
X0160953Y0301800D03*
X0170953Y0301800D03*
X0170953Y0291800D03*
X0150953Y0291800D03*
X0150953Y0301800D03*
X0150953Y0281800D03*
X0150953Y0271800D03*
X0150953Y0261800D03*
X0150953Y0331800D03*
X0150953Y0341800D03*
X0160953Y0341800D03*
X0160953Y0331800D03*
X0170953Y0331800D03*
X0170953Y0341800D03*
X0180953Y0341800D03*
X0180953Y0331800D03*
X0190953Y0331800D03*
X0200953Y0331800D03*
X0200953Y0341800D03*
X0190953Y0341800D03*
X0190953Y0351800D03*
X0200953Y0351800D03*
X0200953Y0361800D03*
X0200953Y0371800D03*
X0190953Y0371800D03*
X0190953Y0361800D03*
X0180953Y0361800D03*
X0180953Y0351800D03*
X0170953Y0351800D03*
X0170953Y0361800D03*
X0170953Y0371800D03*
X0180953Y0371800D03*
X0180953Y0386800D03*
X0180953Y0396800D03*
X0190953Y0396800D03*
X0200953Y0396800D03*
X0200953Y0386800D03*
X0190953Y0386800D03*
X0210953Y0386800D03*
X0210953Y0396800D03*
X0220953Y0396800D03*
X0220953Y0386800D03*
X0230953Y0386800D03*
X0230953Y0396800D03*
X0240953Y0396800D03*
X0240953Y0386800D03*
X0250953Y0386800D03*
X0260953Y0386800D03*
X0260953Y0396800D03*
X0250953Y0396800D03*
X0270953Y0396800D03*
X0270953Y0386800D03*
X0280953Y0386800D03*
X0280953Y0396800D03*
X0290953Y0396800D03*
X0290953Y0386800D03*
X0300953Y0386800D03*
X0300953Y0396800D03*
X0275953Y0351800D03*
X0275953Y0341800D03*
X0275953Y0331800D03*
X0260953Y0331800D03*
X0260953Y0341800D03*
X0250953Y0341800D03*
X0250953Y0331800D03*
X0240953Y0331800D03*
X0240953Y0341800D03*
X0240953Y0351800D03*
X0240953Y0361800D03*
X0240953Y0371800D03*
X0250953Y0371800D03*
X0260953Y0371800D03*
X0260953Y0361800D03*
X0260953Y0351800D03*
X0250953Y0351800D03*
X0250953Y0361800D03*
X0230953Y0361800D03*
X0230953Y0351800D03*
X0230953Y0341800D03*
X0230953Y0331800D03*
X0220953Y0331800D03*
X0220953Y0341800D03*
X0220953Y0351800D03*
X0220953Y0361800D03*
X0220953Y0371800D03*
X0230953Y0371800D03*
X0210953Y0371800D03*
X0210953Y0361800D03*
X0210953Y0351800D03*
X0210953Y0341800D03*
X0210953Y0331800D03*
X0170953Y0386800D03*
X0170953Y0396800D03*
X0160953Y0396800D03*
X0160953Y0386800D03*
X0150953Y0386800D03*
X0150953Y0396800D03*
X0140953Y0396800D03*
X0140953Y0386800D03*
X0130953Y0386800D03*
X0130953Y0396800D03*
X0120953Y0396800D03*
X0120953Y0386800D03*
X0110953Y0386800D03*
X0110953Y0396800D03*
X0100953Y0396800D03*
X0100953Y0386800D03*
X0090953Y0386800D03*
X0090953Y0396800D03*
X0080953Y0396800D03*
X0080953Y0386800D03*
X0070953Y0386800D03*
X0070953Y0396800D03*
X0060953Y0396800D03*
X0060953Y0386800D03*
X0050953Y0386800D03*
X0050953Y0396800D03*
X0040953Y0396800D03*
X0040953Y0386800D03*
X0100953Y0371800D03*
X0100953Y0361800D03*
X0100953Y0351800D03*
X0100953Y0341800D03*
X0110953Y0336800D03*
X0110953Y0346800D03*
X0110953Y0356800D03*
X0110953Y0366800D03*
X0120953Y0361800D03*
X0120953Y0351800D03*
X0130953Y0351800D03*
X0140953Y0351800D03*
X0140953Y0361800D03*
X0140953Y0371800D03*
X0130953Y0371800D03*
X0130953Y0361800D03*
X0120953Y0371800D03*
X0120953Y0341800D03*
X0120953Y0331800D03*
X0130953Y0331800D03*
X0140953Y0331800D03*
X0140953Y0341800D03*
X0130953Y0341800D03*
X0150953Y0351800D03*
X0150953Y0361800D03*
X0150953Y0371800D03*
X0160953Y0371800D03*
X0160953Y0361800D03*
X0160953Y0351800D03*
X0275953Y0301800D03*
X0275953Y0291800D03*
X0275953Y0281800D03*
X0150953Y0046800D03*
X0150953Y0036800D03*
D11*
X0277173Y0234044D02*
X0277173Y0241918D01*
X0285441Y0256879D02*
X0293315Y0256879D01*
X0301189Y0241918D02*
X0301189Y0234044D01*
D12*
X0296189Y0161524D03*
X0296189Y0151524D03*
X0296189Y0141524D03*
D13*
X0305953Y0271800D03*
X0305953Y0291800D03*
X0305953Y0311800D03*
X0305953Y0331800D03*
X0305953Y0351800D03*
X0305953Y0371800D03*
X0045953Y0301800D03*
X0045953Y0281800D03*
X0045953Y0261800D03*
X0045953Y0241800D03*
D14*
X0302409Y0214548D02*
X0302409Y0209792D01*
X0302409Y0183808D02*
X0302409Y0179052D01*
D15*
X0313433Y0182627D03*
X0313433Y0210973D03*
D16*
X0305953Y0204477D03*
X0305953Y0189123D03*
D17*
X0088453Y0329300D03*
X0088453Y0339300D03*
X0088453Y0349300D03*
X0088453Y0359300D03*
X0078453Y0354300D03*
X0078453Y0344300D03*
X0078453Y0334300D03*
X0078453Y0364300D03*
D18*
X0053453Y0369300D03*
X0053453Y0324300D03*
D19*
X0100953Y0161800D03*
X0120953Y0154300D03*
X0125953Y0119300D03*
M02*
