%
M48
M72
T01C0.03200
T02C0.03937
T03C0.04400
%
T01
X52595Y41728
X62595Y41728
X72595Y41728
X72595Y51728
X62595Y51728
X52595Y51728
X52595Y71728
X62595Y71728
X72595Y71728
X72595Y81728
X62595Y81728
X52595Y81728
X52595Y91728
X62595Y91728
X72595Y91728
X72595Y101728
X62595Y101728
X52595Y101728
X52595Y111728
X62595Y111728
X72595Y111728
X72595Y121728
X72595Y131728
X62595Y131728
X62595Y121728
X52595Y121728
X52595Y131728
X52595Y141728
X62595Y141728
X72595Y141728
X72595Y151728
X62595Y151728
X52595Y151728
X52595Y171728
X62595Y171728
X72595Y171728
X72595Y181728
X62595Y181728
X52595Y181728
X52595Y191728
X62595Y191728
X72595Y191728
X72595Y201728
X62595Y201728
X52595Y201728
X52595Y211728
X62595Y211728
X72595Y211728
X72595Y221728
X62595Y221728
X52595Y221728
X52595Y231728
X62595Y231728
X72595Y231728
X72595Y241728
X62595Y241728
X52595Y241728
X52595Y251728
X62595Y251728
X72595Y251728
X82595Y251728
X82595Y241728
X82595Y231728
X82595Y221728
X82595Y211728
X82595Y201728
X82595Y191728
X82595Y181728
X82595Y171728
X92595Y171728
X102595Y171728
X112595Y171728
X122595Y171728
X132595Y171728
X132595Y181728
X122595Y181728
X112595Y181728
X102595Y181728
X92595Y181728
X92595Y191728
X102595Y191728
X112595Y191728
X122595Y191728
X132595Y191728
X132595Y201728
X122595Y201728
X112595Y201728
X102595Y201728
X92595Y201728
X92595Y211728
X102595Y211728
X112595Y211728
X122595Y211728
X132595Y211728
X132595Y221728
X122595Y221728
X112595Y221728
X102595Y221728
X92595Y221728
X92595Y231728
X102595Y231728
X112595Y231728
X122595Y231728
X132595Y231728
X132595Y241728
X122595Y241728
X112595Y241728
X102595Y241728
X92595Y241728
X92595Y251728
X102595Y251728
X112595Y251728
X122595Y251728
X132595Y251728
X142595Y251728
X142595Y241728
X142595Y231728
X142595Y221728
X142595Y211728
X142595Y201728
X142595Y191728
X142595Y181728
X142595Y171728
X152595Y171728
X162595Y171728
X172595Y171728
X182595Y171728
X192595Y171728
X192595Y181728
X182595Y181728
X172595Y181728
X162595Y181728
X152595Y181728
X152595Y191728
X162595Y191728
X172595Y191728
X182595Y191728
X192595Y191728
X192595Y201728
X182595Y201728
X172595Y201728
X162595Y201728
X152595Y201728
X152595Y211728
X162595Y211728
X172595Y211728
X182595Y211728
X192595Y211728
X192595Y221728
X182595Y221728
X172595Y221728
X162595Y221728
X152595Y221728
X152595Y231728
X162595Y231728
X172595Y231728
X182595Y231728
X192595Y231728
X192595Y241728
X182595Y241728
X172595Y241728
X162595Y241728
X152595Y241728
X152595Y251728
X162595Y251728
X172595Y251728
X182595Y251728
X192595Y251728
X202595Y251728
X202595Y241728
X202595Y231728
X202595Y221728
X202595Y211728
X202595Y201728
X202595Y191728
X202595Y181728
X202595Y171728
X212595Y171728
X222595Y171728
X232595Y171728
X242595Y171728
X242595Y181728
X232595Y181728
X222595Y181728
X212595Y181728
X212595Y191728
X222595Y191728
X232595Y191728
X242595Y191728
X242595Y201728
X232595Y201728
X222595Y201728
X212595Y201728
X212595Y211728
X222595Y211728
X232595Y211728
X242595Y211728
X242595Y221728
X232595Y221728
X222595Y221728
X212595Y221728
X212595Y231728
X222595Y231728
X232595Y231728
X242595Y231728
X242595Y241728
X232595Y241728
X222595Y241728
X212595Y241728
X212595Y251728
X222595Y251728
X232595Y251728
X242595Y251728
X242595Y271728
X232595Y271728
X222595Y271728
X212595Y271728
X202595Y271728
X202595Y281728
X212595Y281728
X222595Y281728
X232595Y281728
X242595Y281728
X252595Y281728
X252595Y271728
X192595Y271728
X182595Y271728
X172595Y271728
X162595Y271728
X152595Y271728
X142595Y271728
X142595Y281728
X152595Y281728
X162595Y281728
X172595Y281728
X182595Y281728
X192595Y281728
X132595Y281728
X132595Y271728
X122595Y271728
X112595Y271728
X102595Y271728
X92595Y271728
X82595Y271728
X82595Y281728
X92595Y281728
X102595Y281728
X112595Y281728
X122595Y281728
X72595Y281728
X72595Y271728
X62595Y271728
X52595Y271728
X52595Y281728
X62595Y281728
X82595Y151728
X82595Y141728
X82595Y131728
X82595Y121728
X82595Y111728
X82595Y101728
X82595Y91728
X82595Y81728
X82595Y71728
X92595Y71728
X102595Y71728
X112595Y71728
X122595Y71728
X132595Y71728
X132595Y81728
X122595Y81728
X112595Y81728
X102595Y81728
X92595Y81728
X92595Y91728
X102595Y91728
X112595Y91728
X122595Y91728
X132595Y91728
X132595Y101728
X122595Y101728
X112595Y101728
X102595Y101728
X92595Y101728
X92595Y111728
X102595Y111728
X112595Y111728
X122595Y111728
X132595Y111728
X132595Y121728
X132595Y131728
X122595Y131728
X122595Y121728
X112595Y121728
X112595Y131728
X102595Y131728
X102595Y121728
X92595Y121728
X92595Y131728
X92595Y141728
X102595Y141728
X112595Y141728
X122595Y141728
X132595Y141728
X132595Y151728
X122595Y151728
X112595Y151728
X102595Y151728
X92595Y151728
X142595Y151728
X142595Y141728
X142595Y131728
X142595Y121728
X142595Y111728
X142595Y101728
X142595Y91728
X142595Y81728
X142595Y71728
X152595Y71728
X162595Y71728
X172595Y71728
X182595Y71728
X192595Y71728
X192595Y81728
X182595Y81728
X172595Y81728
X162595Y81728
X152595Y81728
X152595Y91728
X162595Y91728
X172595Y91728
X182595Y91728
X192595Y91728
X192595Y101728
X182595Y101728
X172595Y101728
X162595Y101728
X152595Y101728
X152595Y111728
X162595Y111728
X172595Y111728
X182595Y111728
X192595Y111728
X192595Y121728
X192595Y131728
X182595Y131728
X182595Y121728
X172595Y121728
X172595Y131728
X162595Y131728
X162595Y121728
X152595Y121728
X152595Y131728
X152595Y141728
X162595Y141728
X172595Y141728
X182595Y141728
X192595Y141728
X192595Y151728
X182595Y151728
X172595Y151728
X162595Y151728
X152595Y151728
X202595Y151728
X202595Y141728
X202595Y131728
X202595Y121728
X202595Y111728
X202595Y101728
X202595Y91728
X202595Y81728
X202595Y71728
X212595Y71728
X212595Y81728
X212595Y91728
X212595Y101728
X222595Y101728
X222595Y111728
X212595Y111728
X212595Y121728
X212595Y131728
X222595Y131728
X222595Y121728
X232595Y121728
X232595Y131728
X232595Y141728
X222595Y141728
X212595Y141728
X212595Y151728
X222595Y151728
X232595Y151728
X232595Y111728
X232595Y51728
X232595Y41728
X222595Y41728
X212595Y41728
X202595Y41728
X202595Y51728
X212595Y51728
X222595Y51728
X242595Y51728
X242595Y41728
X252595Y41728
X252595Y51728
X192595Y51728
X192595Y41728
X182595Y41728
X172595Y41728
X162595Y41728
X152595Y41728
X142595Y41728
X142595Y51728
X152595Y51728
X162595Y51728
X172595Y51728
X182595Y51728
X132595Y51728
X132595Y41728
X122595Y41728
X112595Y41728
X102595Y41728
X92595Y41728
X82595Y41728
X82595Y51728
X92595Y51728
X102595Y51728
X112595Y51728
X122595Y51728
T02
X231965Y75016
X244170Y93913
X255981Y75016
X255233Y112654
X255233Y122654
X255233Y132654
T03
X257595Y154228
X272595Y154228
X272595Y174228
X257595Y174228
X257595Y194228
X272595Y194228
X272595Y214228
X257595Y214228
X257595Y234228
X272595Y234228
X272595Y254228
X257595Y254228
M30
