G75*
%MOIN*%
%OFA0B0*%
%FSLAX25Y25*%
%IPPOS*%
%LPD*%
%AMOC8*
5,1,8,0,0,1.08239X$1,22.5*
%
%ADD10C,0.01600*%
%ADD11C,0.00600*%
%ADD12C,0.00300*%
%ADD13C,0.00800*%
%ADD14C,0.03198*%
%ADD15C,0.00400*%
D10*
X0047595Y0036728D02*
X0047595Y0046728D01*
X0257595Y0046728D01*
X0257595Y0036728D01*
X0047595Y0036728D01*
X0047595Y0046728D02*
X0047595Y0056728D01*
X0257595Y0056728D01*
X0257595Y0046728D01*
X0217595Y0066728D02*
X0207595Y0066728D01*
X0207595Y0156728D01*
X0197595Y0156728D01*
X0197595Y0066728D01*
X0207595Y0066728D01*
X0197595Y0066728D02*
X0187595Y0066728D01*
X0187595Y0156728D01*
X0177595Y0156728D01*
X0177595Y0066728D01*
X0187595Y0066728D01*
X0177595Y0066728D02*
X0167595Y0066728D01*
X0167595Y0156728D01*
X0157595Y0156728D01*
X0157595Y0066728D01*
X0167595Y0066728D01*
X0157595Y0066728D02*
X0147595Y0066728D01*
X0147595Y0156728D01*
X0137595Y0156728D01*
X0137595Y0066728D01*
X0147595Y0066728D01*
X0137595Y0066728D02*
X0127595Y0066728D01*
X0127595Y0156728D01*
X0117595Y0156728D01*
X0117595Y0066728D01*
X0127595Y0066728D01*
X0117595Y0066728D02*
X0107595Y0066728D01*
X0107595Y0156728D01*
X0097595Y0156728D01*
X0097595Y0066728D01*
X0107595Y0066728D01*
X0097595Y0066728D02*
X0087595Y0066728D01*
X0087595Y0156728D01*
X0077595Y0156728D01*
X0077595Y0066728D01*
X0087595Y0066728D01*
X0077595Y0066728D02*
X0067595Y0066728D01*
X0067595Y0156728D01*
X0057595Y0156728D01*
X0057595Y0066728D01*
X0067595Y0066728D01*
X0057595Y0066728D02*
X0047595Y0066728D01*
X0047595Y0156728D01*
X0057595Y0156728D01*
X0067595Y0156728D02*
X0077595Y0156728D01*
X0087595Y0156728D02*
X0097595Y0156728D01*
X0107595Y0156728D02*
X0117595Y0156728D01*
X0127595Y0156728D02*
X0137595Y0156728D01*
X0147595Y0156728D02*
X0157595Y0156728D01*
X0167595Y0156728D02*
X0177595Y0156728D01*
X0187595Y0156728D02*
X0197595Y0156728D01*
X0207595Y0156728D02*
X0217595Y0156728D01*
X0217595Y0096728D01*
X0227595Y0096728D01*
X0227595Y0106728D01*
X0227595Y0156728D01*
X0217595Y0156728D01*
X0227595Y0156728D02*
X0237595Y0156728D01*
X0237595Y0106728D01*
X0227595Y0106728D01*
X0217595Y0096728D02*
X0217595Y0066728D01*
X0247595Y0147063D02*
X0247595Y0164228D01*
X0281020Y0164228D01*
X0281020Y0147063D01*
X0247595Y0147063D01*
X0247595Y0164228D02*
X0247595Y0166728D01*
X0237595Y0166728D01*
X0237595Y0256728D01*
X0247595Y0256728D01*
X0247595Y0264228D01*
X0281020Y0264228D01*
X0281020Y0224228D01*
X0247595Y0224228D01*
X0247595Y0204228D01*
X0280627Y0204228D01*
X0280627Y0204150D01*
X0281020Y0184228D02*
X0247595Y0184228D01*
X0247595Y0166728D01*
X0237595Y0166728D02*
X0227595Y0166728D01*
X0217595Y0166728D01*
X0217595Y0256728D01*
X0207595Y0256728D01*
X0207595Y0166728D01*
X0197595Y0166728D01*
X0197595Y0256728D01*
X0187595Y0256728D01*
X0187595Y0166728D01*
X0177595Y0166728D01*
X0177595Y0256728D01*
X0167595Y0256728D01*
X0167595Y0166728D01*
X0157595Y0166728D01*
X0157595Y0256728D01*
X0147595Y0256728D01*
X0147595Y0166728D01*
X0137595Y0166728D01*
X0137595Y0256728D01*
X0127595Y0256728D01*
X0127595Y0166728D01*
X0117595Y0166728D01*
X0117595Y0256728D01*
X0107595Y0256728D01*
X0107595Y0166728D01*
X0097595Y0166728D01*
X0097595Y0256728D01*
X0087595Y0256728D01*
X0087595Y0166728D01*
X0077595Y0166728D01*
X0077595Y0256728D01*
X0067595Y0256728D01*
X0067595Y0166728D01*
X0057595Y0166728D01*
X0057595Y0256728D01*
X0047595Y0256728D01*
X0047595Y0166728D01*
X0057595Y0166728D01*
X0067595Y0166728D02*
X0077595Y0166728D01*
X0087595Y0166728D02*
X0097595Y0166728D01*
X0107595Y0166728D02*
X0117595Y0166728D01*
X0127595Y0166728D02*
X0137595Y0166728D01*
X0147595Y0166728D02*
X0157595Y0166728D01*
X0167595Y0166728D02*
X0177595Y0166728D01*
X0187595Y0166728D02*
X0197595Y0166728D01*
X0207595Y0166728D02*
X0217595Y0166728D01*
X0227595Y0166728D02*
X0227595Y0256728D01*
X0237595Y0256728D01*
X0247595Y0256728D02*
X0247595Y0244228D01*
X0280627Y0244228D01*
X0280627Y0244701D01*
X0281020Y0224228D02*
X0281020Y0184228D01*
X0281020Y0164228D01*
X0247595Y0184228D02*
X0247595Y0204228D01*
X0247595Y0224228D02*
X0247595Y0244228D01*
X0257595Y0266728D02*
X0047595Y0266728D01*
X0047595Y0276728D01*
X0047595Y0286728D01*
X0257595Y0286728D01*
X0257595Y0276728D01*
X0257595Y0266728D01*
X0257595Y0276728D02*
X0047595Y0276728D01*
X0057595Y0256728D02*
X0067595Y0256728D01*
X0077595Y0256728D02*
X0087595Y0256728D01*
X0097595Y0256728D02*
X0107595Y0256728D01*
X0117595Y0256728D02*
X0127595Y0256728D01*
X0137595Y0256728D02*
X0147595Y0256728D01*
X0157595Y0256728D02*
X0167595Y0256728D01*
X0177595Y0256728D02*
X0187595Y0256728D01*
X0197595Y0256728D02*
X0207595Y0256728D01*
X0217595Y0256728D02*
X0227595Y0256728D01*
D11*
X0225595Y0254728D02*
X0224595Y0254728D01*
X0225595Y0254728D02*
X0225595Y0253728D01*
X0229595Y0253728D02*
X0229595Y0254728D01*
X0230595Y0254728D01*
X0234595Y0254728D02*
X0235595Y0254728D01*
X0235595Y0253728D01*
X0239595Y0253728D02*
X0239595Y0254728D01*
X0240595Y0254728D01*
X0244595Y0254728D02*
X0245595Y0254728D01*
X0245595Y0253728D01*
X0245595Y0249728D02*
X0245595Y0248728D01*
X0244595Y0248728D01*
X0244595Y0244728D02*
X0245595Y0244728D01*
X0245595Y0243728D01*
X0240595Y0244728D02*
X0239595Y0244728D01*
X0239595Y0243728D01*
X0235595Y0243728D02*
X0235595Y0244728D01*
X0234595Y0244728D01*
X0234595Y0248728D02*
X0235595Y0248728D01*
X0235595Y0249728D01*
X0239595Y0249728D02*
X0239595Y0248728D01*
X0240595Y0248728D01*
X0239595Y0239728D02*
X0239595Y0238728D01*
X0240595Y0238728D01*
X0240595Y0234728D02*
X0239595Y0234728D01*
X0239595Y0233728D01*
X0235595Y0233728D02*
X0235595Y0234728D01*
X0234595Y0234728D01*
X0234595Y0238728D02*
X0235595Y0238728D01*
X0235595Y0239728D01*
X0230595Y0238728D02*
X0229595Y0238728D01*
X0229595Y0239728D01*
X0225595Y0239728D02*
X0225595Y0238728D01*
X0224595Y0238728D01*
X0224595Y0234728D02*
X0225595Y0234728D01*
X0225595Y0233728D01*
X0229595Y0233728D02*
X0229595Y0234728D01*
X0230595Y0234728D01*
X0229595Y0229728D02*
X0229595Y0228728D01*
X0230595Y0228728D01*
X0230595Y0224728D02*
X0229595Y0224728D01*
X0229595Y0223728D01*
X0229595Y0219728D02*
X0229595Y0218728D01*
X0230595Y0218728D01*
X0230595Y0214728D02*
X0229595Y0214728D01*
X0229595Y0213728D01*
X0229595Y0209728D02*
X0229595Y0208728D01*
X0230595Y0208728D01*
X0230595Y0204728D02*
X0229595Y0204728D01*
X0229595Y0203728D01*
X0229595Y0199728D02*
X0229595Y0198728D01*
X0230595Y0198728D01*
X0230595Y0194728D02*
X0229595Y0194728D01*
X0229595Y0193728D01*
X0229595Y0189728D02*
X0229595Y0188728D01*
X0230595Y0188728D01*
X0230595Y0184728D02*
X0229595Y0184728D01*
X0229595Y0183728D01*
X0229595Y0179728D02*
X0229595Y0178728D01*
X0230595Y0178728D01*
X0230595Y0174728D02*
X0229595Y0174728D01*
X0229595Y0173728D01*
X0229595Y0169728D02*
X0229595Y0168728D01*
X0230595Y0168728D01*
X0225595Y0168728D02*
X0225595Y0169728D01*
X0225595Y0168728D02*
X0224595Y0168728D01*
X0220595Y0168728D02*
X0219595Y0168728D01*
X0219595Y0169728D01*
X0215595Y0169728D02*
X0215595Y0168728D01*
X0214595Y0168728D01*
X0210595Y0168728D02*
X0209595Y0168728D01*
X0209595Y0169728D01*
X0209595Y0173728D02*
X0209595Y0174728D01*
X0210595Y0174728D01*
X0214595Y0174728D02*
X0215595Y0174728D01*
X0215595Y0173728D01*
X0219595Y0173728D02*
X0219595Y0174728D01*
X0220595Y0174728D01*
X0224595Y0174728D02*
X0225595Y0174728D01*
X0225595Y0173728D01*
X0225595Y0178728D02*
X0224595Y0178728D01*
X0225595Y0178728D02*
X0225595Y0179728D01*
X0225595Y0183728D02*
X0225595Y0184728D01*
X0224595Y0184728D01*
X0220595Y0184728D02*
X0219595Y0184728D01*
X0219595Y0183728D01*
X0219595Y0179728D02*
X0219595Y0178728D01*
X0220595Y0178728D01*
X0215595Y0178728D02*
X0215595Y0179728D01*
X0215595Y0178728D02*
X0214595Y0178728D01*
X0210595Y0178728D02*
X0209595Y0178728D01*
X0209595Y0179728D01*
X0209595Y0183728D02*
X0209595Y0184728D01*
X0210595Y0184728D01*
X0214595Y0184728D02*
X0215595Y0184728D01*
X0215595Y0183728D01*
X0215595Y0188728D02*
X0214595Y0188728D01*
X0215595Y0188728D02*
X0215595Y0189728D01*
X0219595Y0189728D02*
X0219595Y0188728D01*
X0220595Y0188728D01*
X0224595Y0188728D02*
X0225595Y0188728D01*
X0225595Y0189728D01*
X0225595Y0193728D02*
X0225595Y0194728D01*
X0224595Y0194728D01*
X0220595Y0194728D02*
X0219595Y0194728D01*
X0219595Y0193728D01*
X0215595Y0193728D02*
X0215595Y0194728D01*
X0214595Y0194728D01*
X0210595Y0194728D02*
X0209595Y0194728D01*
X0209595Y0193728D01*
X0209595Y0189728D02*
X0209595Y0188728D01*
X0210595Y0188728D01*
X0205595Y0188728D02*
X0204595Y0188728D01*
X0205595Y0188728D02*
X0205595Y0189728D01*
X0205595Y0193728D02*
X0205595Y0194728D01*
X0204595Y0194728D01*
X0200595Y0194728D02*
X0199595Y0194728D01*
X0199595Y0193728D01*
X0199595Y0189728D02*
X0199595Y0188728D01*
X0200595Y0188728D01*
X0200595Y0184728D02*
X0199595Y0184728D01*
X0199595Y0183728D01*
X0199595Y0179728D02*
X0199595Y0178728D01*
X0200595Y0178728D01*
X0200595Y0174728D02*
X0199595Y0174728D01*
X0199595Y0173728D01*
X0199595Y0169728D02*
X0199595Y0168728D01*
X0200595Y0168728D01*
X0204595Y0168728D02*
X0205595Y0168728D01*
X0205595Y0169728D01*
X0205595Y0173728D02*
X0205595Y0174728D01*
X0204595Y0174728D01*
X0204595Y0178728D02*
X0205595Y0178728D01*
X0205595Y0179728D01*
X0205595Y0183728D02*
X0205595Y0184728D01*
X0204595Y0184728D01*
X0195595Y0184728D02*
X0194595Y0184728D01*
X0195595Y0184728D02*
X0195595Y0183728D01*
X0195595Y0179728D02*
X0195595Y0178728D01*
X0194595Y0178728D01*
X0194595Y0174728D02*
X0195595Y0174728D01*
X0195595Y0173728D01*
X0195595Y0169728D02*
X0195595Y0168728D01*
X0194595Y0168728D01*
X0190595Y0168728D02*
X0189595Y0168728D01*
X0189595Y0169728D01*
X0185595Y0169728D02*
X0185595Y0168728D01*
X0184595Y0168728D01*
X0180595Y0168728D02*
X0179595Y0168728D01*
X0179595Y0169728D01*
X0175595Y0169728D02*
X0175595Y0168728D01*
X0174595Y0168728D01*
X0170595Y0168728D02*
X0169595Y0168728D01*
X0169595Y0169728D01*
X0165595Y0169728D02*
X0165595Y0168728D01*
X0164595Y0168728D01*
X0160595Y0168728D02*
X0159595Y0168728D01*
X0159595Y0169728D01*
X0155595Y0169728D02*
X0155595Y0168728D01*
X0154595Y0168728D01*
X0150595Y0168728D02*
X0149595Y0168728D01*
X0149595Y0169728D01*
X0149595Y0173728D02*
X0149595Y0174728D01*
X0150595Y0174728D01*
X0154595Y0174728D02*
X0155595Y0174728D01*
X0155595Y0173728D01*
X0159595Y0173728D02*
X0159595Y0174728D01*
X0160595Y0174728D01*
X0160595Y0178728D02*
X0159595Y0178728D01*
X0159595Y0179728D01*
X0155595Y0179728D02*
X0155595Y0178728D01*
X0154595Y0178728D01*
X0150595Y0178728D02*
X0149595Y0178728D01*
X0149595Y0179728D01*
X0149595Y0183728D02*
X0149595Y0184728D01*
X0150595Y0184728D01*
X0154595Y0184728D02*
X0155595Y0184728D01*
X0155595Y0183728D01*
X0159595Y0183728D02*
X0159595Y0184728D01*
X0160595Y0184728D01*
X0160595Y0188728D02*
X0159595Y0188728D01*
X0159595Y0189728D01*
X0155595Y0189728D02*
X0155595Y0188728D01*
X0154595Y0188728D01*
X0150595Y0188728D02*
X0149595Y0188728D01*
X0149595Y0189728D01*
X0149595Y0193728D02*
X0149595Y0194728D01*
X0150595Y0194728D01*
X0154595Y0194728D02*
X0155595Y0194728D01*
X0155595Y0193728D01*
X0159595Y0193728D02*
X0159595Y0194728D01*
X0160595Y0194728D01*
X0160595Y0198728D02*
X0159595Y0198728D01*
X0159595Y0199728D01*
X0155595Y0199728D02*
X0155595Y0198728D01*
X0154595Y0198728D01*
X0150595Y0198728D02*
X0149595Y0198728D01*
X0149595Y0199728D01*
X0149595Y0203728D02*
X0149595Y0204728D01*
X0150595Y0204728D01*
X0154595Y0204728D02*
X0155595Y0204728D01*
X0155595Y0203728D01*
X0159595Y0203728D02*
X0159595Y0204728D01*
X0160595Y0204728D01*
X0160595Y0208728D02*
X0159595Y0208728D01*
X0159595Y0209728D01*
X0155595Y0209728D02*
X0155595Y0208728D01*
X0154595Y0208728D01*
X0150595Y0208728D02*
X0149595Y0208728D01*
X0149595Y0209728D01*
X0149595Y0213728D02*
X0149595Y0214728D01*
X0150595Y0214728D01*
X0154595Y0214728D02*
X0155595Y0214728D01*
X0155595Y0213728D01*
X0159595Y0213728D02*
X0159595Y0214728D01*
X0160595Y0214728D01*
X0160595Y0218728D02*
X0159595Y0218728D01*
X0159595Y0219728D01*
X0155595Y0219728D02*
X0155595Y0218728D01*
X0154595Y0218728D01*
X0150595Y0218728D02*
X0149595Y0218728D01*
X0149595Y0219728D01*
X0149595Y0223728D02*
X0149595Y0224728D01*
X0150595Y0224728D01*
X0154595Y0224728D02*
X0155595Y0224728D01*
X0155595Y0223728D01*
X0159595Y0223728D02*
X0159595Y0224728D01*
X0160595Y0224728D01*
X0160595Y0228728D02*
X0159595Y0228728D01*
X0159595Y0229728D01*
X0155595Y0229728D02*
X0155595Y0228728D01*
X0154595Y0228728D01*
X0150595Y0228728D02*
X0149595Y0228728D01*
X0149595Y0229728D01*
X0145595Y0229728D02*
X0145595Y0228728D01*
X0144595Y0228728D01*
X0144595Y0224728D02*
X0145595Y0224728D01*
X0145595Y0223728D01*
X0145595Y0219728D02*
X0145595Y0218728D01*
X0144595Y0218728D01*
X0144595Y0214728D02*
X0145595Y0214728D01*
X0145595Y0213728D01*
X0145595Y0209728D02*
X0145595Y0208728D01*
X0144595Y0208728D01*
X0144595Y0204728D02*
X0145595Y0204728D01*
X0145595Y0203728D01*
X0145595Y0199728D02*
X0145595Y0198728D01*
X0144595Y0198728D01*
X0144595Y0194728D02*
X0145595Y0194728D01*
X0145595Y0193728D01*
X0145595Y0189728D02*
X0145595Y0188728D01*
X0144595Y0188728D01*
X0144595Y0184728D02*
X0145595Y0184728D01*
X0145595Y0183728D01*
X0145595Y0179728D02*
X0145595Y0178728D01*
X0144595Y0178728D01*
X0144595Y0174728D02*
X0145595Y0174728D01*
X0145595Y0173728D01*
X0145595Y0169728D02*
X0145595Y0168728D01*
X0144595Y0168728D01*
X0140595Y0168728D02*
X0139595Y0168728D01*
X0139595Y0169728D01*
X0139595Y0173728D02*
X0139595Y0174728D01*
X0140595Y0174728D01*
X0140595Y0178728D02*
X0139595Y0178728D01*
X0139595Y0179728D01*
X0139595Y0183728D02*
X0139595Y0184728D01*
X0140595Y0184728D01*
X0140595Y0188728D02*
X0139595Y0188728D01*
X0139595Y0189728D01*
X0139595Y0193728D02*
X0139595Y0194728D01*
X0140595Y0194728D01*
X0140595Y0198728D02*
X0139595Y0198728D01*
X0139595Y0199728D01*
X0139595Y0203728D02*
X0139595Y0204728D01*
X0140595Y0204728D01*
X0140595Y0208728D02*
X0139595Y0208728D01*
X0139595Y0209728D01*
X0139595Y0213728D02*
X0139595Y0214728D01*
X0140595Y0214728D01*
X0140595Y0218728D02*
X0139595Y0218728D01*
X0139595Y0219728D01*
X0139595Y0223728D02*
X0139595Y0224728D01*
X0140595Y0224728D01*
X0140595Y0228728D02*
X0139595Y0228728D01*
X0139595Y0229728D01*
X0135595Y0229728D02*
X0135595Y0228728D01*
X0134595Y0228728D01*
X0134595Y0224728D02*
X0135595Y0224728D01*
X0135595Y0223728D01*
X0135595Y0219728D02*
X0135595Y0218728D01*
X0134595Y0218728D01*
X0134595Y0214728D02*
X0135595Y0214728D01*
X0135595Y0213728D01*
X0135595Y0209728D02*
X0135595Y0208728D01*
X0134595Y0208728D01*
X0134595Y0204728D02*
X0135595Y0204728D01*
X0135595Y0203728D01*
X0135595Y0199728D02*
X0135595Y0198728D01*
X0134595Y0198728D01*
X0134595Y0194728D02*
X0135595Y0194728D01*
X0135595Y0193728D01*
X0135595Y0189728D02*
X0135595Y0188728D01*
X0134595Y0188728D01*
X0134595Y0184728D02*
X0135595Y0184728D01*
X0135595Y0183728D01*
X0135595Y0179728D02*
X0135595Y0178728D01*
X0134595Y0178728D01*
X0134595Y0174728D02*
X0135595Y0174728D01*
X0135595Y0173728D01*
X0135595Y0169728D02*
X0135595Y0168728D01*
X0134595Y0168728D01*
X0130595Y0168728D02*
X0129595Y0168728D01*
X0129595Y0169728D01*
X0125595Y0169728D02*
X0125595Y0168728D01*
X0124595Y0168728D01*
X0120595Y0168728D02*
X0119595Y0168728D01*
X0119595Y0169728D01*
X0115595Y0169728D02*
X0115595Y0168728D01*
X0114595Y0168728D01*
X0110595Y0168728D02*
X0109595Y0168728D01*
X0109595Y0169728D01*
X0105595Y0169728D02*
X0105595Y0168728D01*
X0104595Y0168728D01*
X0100595Y0168728D02*
X0099595Y0168728D01*
X0099595Y0169728D01*
X0095595Y0169728D02*
X0095595Y0168728D01*
X0094595Y0168728D01*
X0090595Y0168728D02*
X0089595Y0168728D01*
X0089595Y0169728D01*
X0085595Y0169728D02*
X0085595Y0168728D01*
X0084595Y0168728D01*
X0080595Y0168728D02*
X0079595Y0168728D01*
X0079595Y0169728D01*
X0079595Y0173728D02*
X0079595Y0174728D01*
X0080595Y0174728D01*
X0084595Y0174728D02*
X0085595Y0174728D01*
X0085595Y0173728D01*
X0089595Y0173728D02*
X0089595Y0174728D01*
X0090595Y0174728D01*
X0094595Y0174728D02*
X0095595Y0174728D01*
X0095595Y0173728D01*
X0099595Y0173728D02*
X0099595Y0174728D01*
X0100595Y0174728D01*
X0100595Y0178728D02*
X0099595Y0178728D01*
X0099595Y0179728D01*
X0095595Y0179728D02*
X0095595Y0178728D01*
X0094595Y0178728D01*
X0090595Y0178728D02*
X0089595Y0178728D01*
X0089595Y0179728D01*
X0085595Y0179728D02*
X0085595Y0178728D01*
X0084595Y0178728D01*
X0080595Y0178728D02*
X0079595Y0178728D01*
X0079595Y0179728D01*
X0079595Y0183728D02*
X0079595Y0184728D01*
X0080595Y0184728D01*
X0084595Y0184728D02*
X0085595Y0184728D01*
X0085595Y0183728D01*
X0089595Y0183728D02*
X0089595Y0184728D01*
X0090595Y0184728D01*
X0094595Y0184728D02*
X0095595Y0184728D01*
X0095595Y0183728D01*
X0099595Y0183728D02*
X0099595Y0184728D01*
X0100595Y0184728D01*
X0100595Y0188728D02*
X0099595Y0188728D01*
X0099595Y0189728D01*
X0095595Y0189728D02*
X0095595Y0188728D01*
X0094595Y0188728D01*
X0090595Y0188728D02*
X0089595Y0188728D01*
X0089595Y0189728D01*
X0085595Y0189728D02*
X0085595Y0188728D01*
X0084595Y0188728D01*
X0080595Y0188728D02*
X0079595Y0188728D01*
X0079595Y0189728D01*
X0079595Y0193728D02*
X0079595Y0194728D01*
X0080595Y0194728D01*
X0084595Y0194728D02*
X0085595Y0194728D01*
X0085595Y0193728D01*
X0089595Y0193728D02*
X0089595Y0194728D01*
X0090595Y0194728D01*
X0094595Y0194728D02*
X0095595Y0194728D01*
X0095595Y0193728D01*
X0099595Y0193728D02*
X0099595Y0194728D01*
X0100595Y0194728D01*
X0100595Y0198728D02*
X0099595Y0198728D01*
X0099595Y0199728D01*
X0095595Y0199728D02*
X0095595Y0198728D01*
X0094595Y0198728D01*
X0090595Y0198728D02*
X0089595Y0198728D01*
X0089595Y0199728D01*
X0085595Y0199728D02*
X0085595Y0198728D01*
X0084595Y0198728D01*
X0080595Y0198728D02*
X0079595Y0198728D01*
X0079595Y0199728D01*
X0079595Y0203728D02*
X0079595Y0204728D01*
X0080595Y0204728D01*
X0084595Y0204728D02*
X0085595Y0204728D01*
X0085595Y0203728D01*
X0089595Y0203728D02*
X0089595Y0204728D01*
X0090595Y0204728D01*
X0094595Y0204728D02*
X0095595Y0204728D01*
X0095595Y0203728D01*
X0099595Y0203728D02*
X0099595Y0204728D01*
X0100595Y0204728D01*
X0100595Y0208728D02*
X0099595Y0208728D01*
X0099595Y0209728D01*
X0095595Y0209728D02*
X0095595Y0208728D01*
X0094595Y0208728D01*
X0090595Y0208728D02*
X0089595Y0208728D01*
X0089595Y0209728D01*
X0085595Y0209728D02*
X0085595Y0208728D01*
X0084595Y0208728D01*
X0080595Y0208728D02*
X0079595Y0208728D01*
X0079595Y0209728D01*
X0079595Y0213728D02*
X0079595Y0214728D01*
X0080595Y0214728D01*
X0084595Y0214728D02*
X0085595Y0214728D01*
X0085595Y0213728D01*
X0089595Y0213728D02*
X0089595Y0214728D01*
X0090595Y0214728D01*
X0094595Y0214728D02*
X0095595Y0214728D01*
X0095595Y0213728D01*
X0099595Y0213728D02*
X0099595Y0214728D01*
X0100595Y0214728D01*
X0100595Y0218728D02*
X0099595Y0218728D01*
X0099595Y0219728D01*
X0095595Y0219728D02*
X0095595Y0218728D01*
X0094595Y0218728D01*
X0090595Y0218728D02*
X0089595Y0218728D01*
X0089595Y0219728D01*
X0085595Y0219728D02*
X0085595Y0218728D01*
X0084595Y0218728D01*
X0080595Y0218728D02*
X0079595Y0218728D01*
X0079595Y0219728D01*
X0079595Y0223728D02*
X0079595Y0224728D01*
X0080595Y0224728D01*
X0084595Y0224728D02*
X0085595Y0224728D01*
X0085595Y0223728D01*
X0089595Y0223728D02*
X0089595Y0224728D01*
X0090595Y0224728D01*
X0094595Y0224728D02*
X0095595Y0224728D01*
X0095595Y0223728D01*
X0099595Y0223728D02*
X0099595Y0224728D01*
X0100595Y0224728D01*
X0100595Y0228728D02*
X0099595Y0228728D01*
X0099595Y0229728D01*
X0095595Y0229728D02*
X0095595Y0228728D01*
X0094595Y0228728D01*
X0090595Y0228728D02*
X0089595Y0228728D01*
X0089595Y0229728D01*
X0085595Y0229728D02*
X0085595Y0228728D01*
X0084595Y0228728D01*
X0080595Y0228728D02*
X0079595Y0228728D01*
X0079595Y0229728D01*
X0075595Y0229728D02*
X0075595Y0228728D01*
X0074595Y0228728D01*
X0074595Y0224728D02*
X0075595Y0224728D01*
X0075595Y0223728D01*
X0075595Y0219728D02*
X0075595Y0218728D01*
X0074595Y0218728D01*
X0074595Y0214728D02*
X0075595Y0214728D01*
X0075595Y0213728D01*
X0075595Y0209728D02*
X0075595Y0208728D01*
X0074595Y0208728D01*
X0074595Y0204728D02*
X0075595Y0204728D01*
X0075595Y0203728D01*
X0075595Y0199728D02*
X0075595Y0198728D01*
X0074595Y0198728D01*
X0074595Y0194728D02*
X0075595Y0194728D01*
X0075595Y0193728D01*
X0075595Y0189728D02*
X0075595Y0188728D01*
X0074595Y0188728D01*
X0074595Y0184728D02*
X0075595Y0184728D01*
X0075595Y0183728D01*
X0075595Y0179728D02*
X0075595Y0178728D01*
X0074595Y0178728D01*
X0074595Y0174728D02*
X0075595Y0174728D01*
X0075595Y0173728D01*
X0075595Y0169728D02*
X0075595Y0168728D01*
X0074595Y0168728D01*
X0070595Y0168728D02*
X0069595Y0168728D01*
X0069595Y0169728D01*
X0065595Y0169728D02*
X0065595Y0168728D01*
X0064595Y0168728D01*
X0060595Y0168728D02*
X0059595Y0168728D01*
X0059595Y0169728D01*
X0055595Y0169728D02*
X0055595Y0168728D01*
X0054595Y0168728D01*
X0050595Y0168728D02*
X0049595Y0168728D01*
X0049595Y0169728D01*
X0049595Y0173728D02*
X0049595Y0174728D01*
X0050595Y0174728D01*
X0050595Y0178728D02*
X0049595Y0178728D01*
X0049595Y0179728D01*
X0049595Y0183728D02*
X0049595Y0184728D01*
X0050595Y0184728D01*
X0050595Y0188728D02*
X0049595Y0188728D01*
X0049595Y0189728D01*
X0049595Y0193728D02*
X0049595Y0194728D01*
X0050595Y0194728D01*
X0050595Y0198728D02*
X0049595Y0198728D01*
X0049595Y0199728D01*
X0049595Y0203728D02*
X0049595Y0204728D01*
X0050595Y0204728D01*
X0050595Y0208728D02*
X0049595Y0208728D01*
X0049595Y0209728D01*
X0049595Y0213728D02*
X0049595Y0214728D01*
X0050595Y0214728D01*
X0050595Y0218728D02*
X0049595Y0218728D01*
X0049595Y0219728D01*
X0049595Y0223728D02*
X0049595Y0224728D01*
X0050595Y0224728D01*
X0050595Y0228728D02*
X0049595Y0228728D01*
X0049595Y0229728D01*
X0049595Y0233728D02*
X0049595Y0234728D01*
X0050595Y0234728D01*
X0050595Y0238728D02*
X0049595Y0238728D01*
X0049595Y0239728D01*
X0049595Y0243728D02*
X0049595Y0244728D01*
X0050595Y0244728D01*
X0050595Y0248728D02*
X0049595Y0248728D01*
X0049595Y0249728D01*
X0049595Y0253728D02*
X0049595Y0254728D01*
X0050595Y0254728D01*
X0054595Y0254728D02*
X0055595Y0254728D01*
X0055595Y0253728D01*
X0059595Y0253728D02*
X0059595Y0254728D01*
X0060595Y0254728D01*
X0064595Y0254728D02*
X0065595Y0254728D01*
X0065595Y0253728D01*
X0069595Y0253728D02*
X0069595Y0254728D01*
X0070595Y0254728D01*
X0074595Y0254728D02*
X0075595Y0254728D01*
X0075595Y0253728D01*
X0075595Y0249728D02*
X0075595Y0248728D01*
X0074595Y0248728D01*
X0074595Y0244728D02*
X0075595Y0244728D01*
X0075595Y0243728D01*
X0070595Y0244728D02*
X0069595Y0244728D01*
X0069595Y0243728D01*
X0065595Y0243728D02*
X0065595Y0244728D01*
X0064595Y0244728D01*
X0060595Y0244728D02*
X0059595Y0244728D01*
X0059595Y0243728D01*
X0055595Y0243728D02*
X0055595Y0244728D01*
X0054595Y0244728D01*
X0054595Y0248728D02*
X0055595Y0248728D01*
X0055595Y0249728D01*
X0059595Y0249728D02*
X0059595Y0248728D01*
X0060595Y0248728D01*
X0064595Y0248728D02*
X0065595Y0248728D01*
X0065595Y0249728D01*
X0069595Y0249728D02*
X0069595Y0248728D01*
X0070595Y0248728D01*
X0079595Y0248728D02*
X0079595Y0249728D01*
X0079595Y0248728D02*
X0080595Y0248728D01*
X0080595Y0244728D02*
X0079595Y0244728D01*
X0079595Y0243728D01*
X0084595Y0244728D02*
X0085595Y0244728D01*
X0085595Y0243728D01*
X0089595Y0243728D02*
X0089595Y0244728D01*
X0090595Y0244728D01*
X0094595Y0244728D02*
X0095595Y0244728D01*
X0095595Y0243728D01*
X0099595Y0243728D02*
X0099595Y0244728D01*
X0100595Y0244728D01*
X0100595Y0248728D02*
X0099595Y0248728D01*
X0099595Y0249728D01*
X0095595Y0249728D02*
X0095595Y0248728D01*
X0094595Y0248728D01*
X0090595Y0248728D02*
X0089595Y0248728D01*
X0089595Y0249728D01*
X0085595Y0249728D02*
X0085595Y0248728D01*
X0084595Y0248728D01*
X0085595Y0253728D02*
X0085595Y0254728D01*
X0084595Y0254728D01*
X0080595Y0254728D02*
X0079595Y0254728D01*
X0079595Y0253728D01*
X0089595Y0253728D02*
X0089595Y0254728D01*
X0090595Y0254728D01*
X0094595Y0254728D02*
X0095595Y0254728D01*
X0095595Y0253728D01*
X0099595Y0253728D02*
X0099595Y0254728D01*
X0100595Y0254728D01*
X0104595Y0254728D02*
X0105595Y0254728D01*
X0105595Y0253728D01*
X0109595Y0253728D02*
X0109595Y0254728D01*
X0110595Y0254728D01*
X0114595Y0254728D02*
X0115595Y0254728D01*
X0115595Y0253728D01*
X0119595Y0253728D02*
X0119595Y0254728D01*
X0120595Y0254728D01*
X0124595Y0254728D02*
X0125595Y0254728D01*
X0125595Y0253728D01*
X0129595Y0253728D02*
X0129595Y0254728D01*
X0130595Y0254728D01*
X0134595Y0254728D02*
X0135595Y0254728D01*
X0135595Y0253728D01*
X0135595Y0249728D02*
X0135595Y0248728D01*
X0134595Y0248728D01*
X0134595Y0244728D02*
X0135595Y0244728D01*
X0135595Y0243728D01*
X0130595Y0244728D02*
X0129595Y0244728D01*
X0129595Y0243728D01*
X0125595Y0243728D02*
X0125595Y0244728D01*
X0124595Y0244728D01*
X0120595Y0244728D02*
X0119595Y0244728D01*
X0119595Y0243728D01*
X0115595Y0243728D02*
X0115595Y0244728D01*
X0114595Y0244728D01*
X0114595Y0248728D02*
X0115595Y0248728D01*
X0115595Y0249728D01*
X0119595Y0249728D02*
X0119595Y0248728D01*
X0120595Y0248728D01*
X0124595Y0248728D02*
X0125595Y0248728D01*
X0125595Y0249728D01*
X0129595Y0249728D02*
X0129595Y0248728D01*
X0130595Y0248728D01*
X0139595Y0248728D02*
X0139595Y0249728D01*
X0139595Y0248728D02*
X0140595Y0248728D01*
X0140595Y0244728D02*
X0139595Y0244728D01*
X0139595Y0243728D01*
X0144595Y0244728D02*
X0145595Y0244728D01*
X0145595Y0243728D01*
X0145595Y0248728D02*
X0144595Y0248728D01*
X0145595Y0248728D02*
X0145595Y0249728D01*
X0149595Y0249728D02*
X0149595Y0248728D01*
X0150595Y0248728D01*
X0150595Y0244728D02*
X0149595Y0244728D01*
X0149595Y0243728D01*
X0154595Y0244728D02*
X0155595Y0244728D01*
X0155595Y0243728D01*
X0159595Y0243728D02*
X0159595Y0244728D01*
X0160595Y0244728D01*
X0160595Y0248728D02*
X0159595Y0248728D01*
X0159595Y0249728D01*
X0155595Y0249728D02*
X0155595Y0248728D01*
X0154595Y0248728D01*
X0155595Y0253728D02*
X0155595Y0254728D01*
X0154595Y0254728D01*
X0150595Y0254728D02*
X0149595Y0254728D01*
X0149595Y0253728D01*
X0145595Y0253728D02*
X0145595Y0254728D01*
X0144595Y0254728D01*
X0140595Y0254728D02*
X0139595Y0254728D01*
X0139595Y0253728D01*
X0139595Y0268728D02*
X0139595Y0269728D01*
X0139595Y0268728D02*
X0140595Y0268728D01*
X0144595Y0268728D02*
X0145595Y0268728D01*
X0145595Y0269728D01*
X0149595Y0269728D02*
X0149595Y0268728D01*
X0150595Y0268728D01*
X0154595Y0268728D02*
X0155595Y0268728D01*
X0155595Y0269728D01*
X0159595Y0269728D02*
X0159595Y0268728D01*
X0160595Y0268728D01*
X0164595Y0268728D02*
X0165595Y0268728D01*
X0165595Y0269728D01*
X0169595Y0269728D02*
X0169595Y0268728D01*
X0170595Y0268728D01*
X0174595Y0268728D02*
X0175595Y0268728D01*
X0175595Y0269728D01*
X0179595Y0269728D02*
X0179595Y0268728D01*
X0180595Y0268728D01*
X0184595Y0268728D02*
X0185595Y0268728D01*
X0185595Y0269728D01*
X0189595Y0269728D02*
X0189595Y0268728D01*
X0190595Y0268728D01*
X0194595Y0268728D02*
X0195595Y0268728D01*
X0195595Y0269728D01*
X0199595Y0269728D02*
X0199595Y0268728D01*
X0200595Y0268728D01*
X0204595Y0268728D02*
X0205595Y0268728D01*
X0205595Y0269728D01*
X0209595Y0269728D02*
X0209595Y0268728D01*
X0210595Y0268728D01*
X0214595Y0268728D02*
X0215595Y0268728D01*
X0215595Y0269728D01*
X0219595Y0269728D02*
X0219595Y0268728D01*
X0220595Y0268728D01*
X0224595Y0268728D02*
X0225595Y0268728D01*
X0225595Y0269728D01*
X0229595Y0269728D02*
X0229595Y0268728D01*
X0230595Y0268728D01*
X0234595Y0268728D02*
X0235595Y0268728D01*
X0235595Y0269728D01*
X0239595Y0269728D02*
X0239595Y0268728D01*
X0240595Y0268728D01*
X0244595Y0268728D02*
X0245595Y0268728D01*
X0245595Y0269728D01*
X0249595Y0269728D02*
X0249595Y0268728D01*
X0250595Y0268728D01*
X0254595Y0268728D02*
X0255595Y0268728D01*
X0255595Y0269728D01*
X0255595Y0273728D02*
X0255595Y0274728D01*
X0254595Y0274728D01*
X0250595Y0274728D02*
X0249595Y0274728D01*
X0249595Y0273728D01*
X0245595Y0273728D02*
X0245595Y0274728D01*
X0244595Y0274728D01*
X0240595Y0274728D02*
X0239595Y0274728D01*
X0239595Y0273728D01*
X0235595Y0273728D02*
X0235595Y0274728D01*
X0234595Y0274728D01*
X0234595Y0278728D02*
X0235595Y0278728D01*
X0235595Y0279728D01*
X0239595Y0279728D02*
X0239595Y0278728D01*
X0240595Y0278728D01*
X0244595Y0278728D02*
X0245595Y0278728D01*
X0245595Y0279728D01*
X0249595Y0279728D02*
X0249595Y0278728D01*
X0250595Y0278728D01*
X0254595Y0278728D02*
X0255595Y0278728D01*
X0255595Y0279728D01*
X0255595Y0283728D02*
X0255595Y0284728D01*
X0254595Y0284728D01*
X0250595Y0284728D02*
X0249595Y0284728D01*
X0249595Y0283728D01*
X0245595Y0283728D02*
X0245595Y0284728D01*
X0244595Y0284728D01*
X0240595Y0284728D02*
X0239595Y0284728D01*
X0239595Y0283728D01*
X0235595Y0283728D02*
X0235595Y0284728D01*
X0234595Y0284728D01*
X0230595Y0284728D02*
X0229595Y0284728D01*
X0229595Y0283728D01*
X0229595Y0279728D02*
X0229595Y0278728D01*
X0230595Y0278728D01*
X0230595Y0274728D02*
X0229595Y0274728D01*
X0229595Y0273728D01*
X0225595Y0273728D02*
X0225595Y0274728D01*
X0224595Y0274728D01*
X0220595Y0274728D02*
X0219595Y0274728D01*
X0219595Y0273728D01*
X0215595Y0273728D02*
X0215595Y0274728D01*
X0214595Y0274728D01*
X0210595Y0274728D02*
X0209595Y0274728D01*
X0209595Y0273728D01*
X0209595Y0278728D02*
X0209595Y0279728D01*
X0209595Y0278728D02*
X0210595Y0278728D01*
X0214595Y0278728D02*
X0215595Y0278728D01*
X0215595Y0279728D01*
X0219595Y0279728D02*
X0219595Y0278728D01*
X0220595Y0278728D01*
X0224595Y0278728D02*
X0225595Y0278728D01*
X0225595Y0279728D01*
X0225595Y0283728D02*
X0225595Y0284728D01*
X0224595Y0284728D01*
X0220595Y0284728D02*
X0219595Y0284728D01*
X0219595Y0283728D01*
X0215595Y0283728D02*
X0215595Y0284728D01*
X0214595Y0284728D01*
X0210595Y0284728D02*
X0209595Y0284728D01*
X0209595Y0283728D01*
X0205595Y0283728D02*
X0205595Y0284728D01*
X0204595Y0284728D01*
X0200595Y0284728D02*
X0199595Y0284728D01*
X0199595Y0283728D01*
X0199595Y0279728D02*
X0199595Y0278728D01*
X0200595Y0278728D01*
X0200595Y0274728D02*
X0199595Y0274728D01*
X0199595Y0273728D01*
X0204595Y0274728D02*
X0205595Y0274728D01*
X0205595Y0273728D01*
X0205595Y0278728D02*
X0204595Y0278728D01*
X0205595Y0278728D02*
X0205595Y0279728D01*
X0195595Y0279728D02*
X0195595Y0278728D01*
X0194595Y0278728D01*
X0194595Y0274728D02*
X0195595Y0274728D01*
X0195595Y0273728D01*
X0190595Y0274728D02*
X0189595Y0274728D01*
X0189595Y0273728D01*
X0185595Y0273728D02*
X0185595Y0274728D01*
X0184595Y0274728D01*
X0180595Y0274728D02*
X0179595Y0274728D01*
X0179595Y0273728D01*
X0175595Y0273728D02*
X0175595Y0274728D01*
X0174595Y0274728D01*
X0174595Y0278728D02*
X0175595Y0278728D01*
X0175595Y0279728D01*
X0179595Y0279728D02*
X0179595Y0278728D01*
X0180595Y0278728D01*
X0184595Y0278728D02*
X0185595Y0278728D01*
X0185595Y0279728D01*
X0189595Y0279728D02*
X0189595Y0278728D01*
X0190595Y0278728D01*
X0189595Y0283728D02*
X0189595Y0284728D01*
X0190595Y0284728D01*
X0194595Y0284728D02*
X0195595Y0284728D01*
X0195595Y0283728D01*
X0185595Y0283728D02*
X0185595Y0284728D01*
X0184595Y0284728D01*
X0180595Y0284728D02*
X0179595Y0284728D01*
X0179595Y0283728D01*
X0175595Y0283728D02*
X0175595Y0284728D01*
X0174595Y0284728D01*
X0170595Y0284728D02*
X0169595Y0284728D01*
X0169595Y0283728D01*
X0169595Y0279728D02*
X0169595Y0278728D01*
X0170595Y0278728D01*
X0170595Y0274728D02*
X0169595Y0274728D01*
X0169595Y0273728D01*
X0165595Y0273728D02*
X0165595Y0274728D01*
X0164595Y0274728D01*
X0164595Y0278728D02*
X0165595Y0278728D01*
X0165595Y0279728D01*
X0165595Y0283728D02*
X0165595Y0284728D01*
X0164595Y0284728D01*
X0160595Y0284728D02*
X0159595Y0284728D01*
X0159595Y0283728D01*
X0159595Y0279728D02*
X0159595Y0278728D01*
X0160595Y0278728D01*
X0160595Y0274728D02*
X0159595Y0274728D01*
X0159595Y0273728D01*
X0155595Y0273728D02*
X0155595Y0274728D01*
X0154595Y0274728D01*
X0150595Y0274728D02*
X0149595Y0274728D01*
X0149595Y0273728D01*
X0149595Y0278728D02*
X0149595Y0279728D01*
X0149595Y0278728D02*
X0150595Y0278728D01*
X0154595Y0278728D02*
X0155595Y0278728D01*
X0155595Y0279728D01*
X0155595Y0283728D02*
X0155595Y0284728D01*
X0154595Y0284728D01*
X0150595Y0284728D02*
X0149595Y0284728D01*
X0149595Y0283728D01*
X0145595Y0283728D02*
X0145595Y0284728D01*
X0144595Y0284728D01*
X0140595Y0284728D02*
X0139595Y0284728D01*
X0139595Y0283728D01*
X0139595Y0279728D02*
X0139595Y0278728D01*
X0140595Y0278728D01*
X0140595Y0274728D02*
X0139595Y0274728D01*
X0139595Y0273728D01*
X0144595Y0274728D02*
X0145595Y0274728D01*
X0145595Y0273728D01*
X0145595Y0278728D02*
X0144595Y0278728D01*
X0145595Y0278728D02*
X0145595Y0279728D01*
X0135595Y0279728D02*
X0135595Y0278728D01*
X0134595Y0278728D01*
X0134595Y0274728D02*
X0135595Y0274728D01*
X0135595Y0273728D01*
X0130595Y0274728D02*
X0129595Y0274728D01*
X0129595Y0273728D01*
X0125595Y0273728D02*
X0125595Y0274728D01*
X0124595Y0274728D01*
X0120595Y0274728D02*
X0119595Y0274728D01*
X0119595Y0273728D01*
X0115595Y0273728D02*
X0115595Y0274728D01*
X0114595Y0274728D01*
X0114595Y0278728D02*
X0115595Y0278728D01*
X0115595Y0279728D01*
X0119595Y0279728D02*
X0119595Y0278728D01*
X0120595Y0278728D01*
X0124595Y0278728D02*
X0125595Y0278728D01*
X0125595Y0279728D01*
X0129595Y0279728D02*
X0129595Y0278728D01*
X0130595Y0278728D01*
X0129595Y0283728D02*
X0129595Y0284728D01*
X0130595Y0284728D01*
X0134595Y0284728D02*
X0135595Y0284728D01*
X0135595Y0283728D01*
X0125595Y0283728D02*
X0125595Y0284728D01*
X0124595Y0284728D01*
X0120595Y0284728D02*
X0119595Y0284728D01*
X0119595Y0283728D01*
X0115595Y0283728D02*
X0115595Y0284728D01*
X0114595Y0284728D01*
X0110595Y0284728D02*
X0109595Y0284728D01*
X0109595Y0283728D01*
X0109595Y0279728D02*
X0109595Y0278728D01*
X0110595Y0278728D01*
X0110595Y0274728D02*
X0109595Y0274728D01*
X0109595Y0273728D01*
X0105595Y0273728D02*
X0105595Y0274728D01*
X0104595Y0274728D01*
X0104595Y0278728D02*
X0105595Y0278728D01*
X0105595Y0279728D01*
X0105595Y0283728D02*
X0105595Y0284728D01*
X0104595Y0284728D01*
X0100595Y0284728D02*
X0099595Y0284728D01*
X0099595Y0283728D01*
X0099595Y0279728D02*
X0099595Y0278728D01*
X0100595Y0278728D01*
X0100595Y0274728D02*
X0099595Y0274728D01*
X0099595Y0273728D01*
X0095595Y0273728D02*
X0095595Y0274728D01*
X0094595Y0274728D01*
X0090595Y0274728D02*
X0089595Y0274728D01*
X0089595Y0273728D01*
X0085595Y0273728D02*
X0085595Y0274728D01*
X0084595Y0274728D01*
X0080595Y0274728D02*
X0079595Y0274728D01*
X0079595Y0273728D01*
X0079595Y0278728D02*
X0079595Y0279728D01*
X0079595Y0278728D02*
X0080595Y0278728D01*
X0084595Y0278728D02*
X0085595Y0278728D01*
X0085595Y0279728D01*
X0089595Y0279728D02*
X0089595Y0278728D01*
X0090595Y0278728D01*
X0094595Y0278728D02*
X0095595Y0278728D01*
X0095595Y0279728D01*
X0095595Y0283728D02*
X0095595Y0284728D01*
X0094595Y0284728D01*
X0090595Y0284728D02*
X0089595Y0284728D01*
X0089595Y0283728D01*
X0085595Y0283728D02*
X0085595Y0284728D01*
X0084595Y0284728D01*
X0080595Y0284728D02*
X0079595Y0284728D01*
X0079595Y0283728D01*
X0075595Y0283728D02*
X0075595Y0284728D01*
X0074595Y0284728D01*
X0070595Y0284728D02*
X0069595Y0284728D01*
X0069595Y0283728D01*
X0069595Y0279728D02*
X0069595Y0278728D01*
X0070595Y0278728D01*
X0070595Y0274728D02*
X0069595Y0274728D01*
X0069595Y0273728D01*
X0065595Y0273728D02*
X0065595Y0274728D01*
X0064595Y0274728D01*
X0060595Y0274728D02*
X0059595Y0274728D01*
X0059595Y0273728D01*
X0055595Y0273728D02*
X0055595Y0274728D01*
X0054595Y0274728D01*
X0054595Y0278728D02*
X0055595Y0278728D01*
X0055595Y0279728D01*
X0059595Y0279728D02*
X0059595Y0278728D01*
X0060595Y0278728D01*
X0064595Y0278728D02*
X0065595Y0278728D01*
X0065595Y0279728D01*
X0065595Y0283728D02*
X0065595Y0284728D01*
X0064595Y0284728D01*
X0060595Y0284728D02*
X0059595Y0284728D01*
X0059595Y0283728D01*
X0055595Y0283728D02*
X0055595Y0284728D01*
X0054595Y0284728D01*
X0050595Y0284728D02*
X0049595Y0284728D01*
X0049595Y0283728D01*
X0049595Y0279728D02*
X0049595Y0278728D01*
X0050595Y0278728D01*
X0050595Y0274728D02*
X0049595Y0274728D01*
X0049595Y0273728D01*
X0049595Y0269728D02*
X0049595Y0268728D01*
X0050595Y0268728D01*
X0054595Y0268728D02*
X0055595Y0268728D01*
X0055595Y0269728D01*
X0059595Y0269728D02*
X0059595Y0268728D01*
X0060595Y0268728D01*
X0064595Y0268728D02*
X0065595Y0268728D01*
X0065595Y0269728D01*
X0069595Y0269728D02*
X0069595Y0268728D01*
X0070595Y0268728D01*
X0074595Y0268728D02*
X0075595Y0268728D01*
X0075595Y0269728D01*
X0079595Y0269728D02*
X0079595Y0268728D01*
X0080595Y0268728D01*
X0084595Y0268728D02*
X0085595Y0268728D01*
X0085595Y0269728D01*
X0089595Y0269728D02*
X0089595Y0268728D01*
X0090595Y0268728D01*
X0094595Y0268728D02*
X0095595Y0268728D01*
X0095595Y0269728D01*
X0099595Y0269728D02*
X0099595Y0268728D01*
X0100595Y0268728D01*
X0104595Y0268728D02*
X0105595Y0268728D01*
X0105595Y0269728D01*
X0109595Y0269728D02*
X0109595Y0268728D01*
X0110595Y0268728D01*
X0114595Y0268728D02*
X0115595Y0268728D01*
X0115595Y0269728D01*
X0119595Y0269728D02*
X0119595Y0268728D01*
X0120595Y0268728D01*
X0124595Y0268728D02*
X0125595Y0268728D01*
X0125595Y0269728D01*
X0129595Y0269728D02*
X0129595Y0268728D01*
X0130595Y0268728D01*
X0134595Y0268728D02*
X0135595Y0268728D01*
X0135595Y0269728D01*
X0159595Y0254728D02*
X0159595Y0253728D01*
X0159595Y0254728D02*
X0160595Y0254728D01*
X0164595Y0254728D02*
X0165595Y0254728D01*
X0165595Y0253728D01*
X0169595Y0253728D02*
X0169595Y0254728D01*
X0170595Y0254728D01*
X0174595Y0254728D02*
X0175595Y0254728D01*
X0175595Y0253728D01*
X0179595Y0253728D02*
X0179595Y0254728D01*
X0180595Y0254728D01*
X0184595Y0254728D02*
X0185595Y0254728D01*
X0185595Y0253728D01*
X0189595Y0253728D02*
X0189595Y0254728D01*
X0190595Y0254728D01*
X0194595Y0254728D02*
X0195595Y0254728D01*
X0195595Y0253728D01*
X0195595Y0249728D02*
X0195595Y0248728D01*
X0194595Y0248728D01*
X0194595Y0244728D02*
X0195595Y0244728D01*
X0195595Y0243728D01*
X0190595Y0244728D02*
X0189595Y0244728D01*
X0189595Y0243728D01*
X0185595Y0243728D02*
X0185595Y0244728D01*
X0184595Y0244728D01*
X0180595Y0244728D02*
X0179595Y0244728D01*
X0179595Y0243728D01*
X0175595Y0243728D02*
X0175595Y0244728D01*
X0174595Y0244728D01*
X0174595Y0248728D02*
X0175595Y0248728D01*
X0175595Y0249728D01*
X0179595Y0249728D02*
X0179595Y0248728D01*
X0180595Y0248728D01*
X0184595Y0248728D02*
X0185595Y0248728D01*
X0185595Y0249728D01*
X0189595Y0249728D02*
X0189595Y0248728D01*
X0190595Y0248728D01*
X0199595Y0248728D02*
X0199595Y0249728D01*
X0199595Y0248728D02*
X0200595Y0248728D01*
X0200595Y0244728D02*
X0199595Y0244728D01*
X0199595Y0243728D01*
X0204595Y0244728D02*
X0205595Y0244728D01*
X0205595Y0243728D01*
X0205595Y0248728D02*
X0204595Y0248728D01*
X0205595Y0248728D02*
X0205595Y0249728D01*
X0209595Y0249728D02*
X0209595Y0248728D01*
X0210595Y0248728D01*
X0210595Y0244728D02*
X0209595Y0244728D01*
X0209595Y0243728D01*
X0214595Y0244728D02*
X0215595Y0244728D01*
X0215595Y0243728D01*
X0219595Y0243728D02*
X0219595Y0244728D01*
X0220595Y0244728D01*
X0224595Y0244728D02*
X0225595Y0244728D01*
X0225595Y0243728D01*
X0229595Y0243728D02*
X0229595Y0244728D01*
X0230595Y0244728D01*
X0230595Y0248728D02*
X0229595Y0248728D01*
X0229595Y0249728D01*
X0225595Y0249728D02*
X0225595Y0248728D01*
X0224595Y0248728D01*
X0220595Y0248728D02*
X0219595Y0248728D01*
X0219595Y0249728D01*
X0215595Y0249728D02*
X0215595Y0248728D01*
X0214595Y0248728D01*
X0215595Y0253728D02*
X0215595Y0254728D01*
X0214595Y0254728D01*
X0210595Y0254728D02*
X0209595Y0254728D01*
X0209595Y0253728D01*
X0205595Y0253728D02*
X0205595Y0254728D01*
X0204595Y0254728D01*
X0200595Y0254728D02*
X0199595Y0254728D01*
X0199595Y0253728D01*
X0199595Y0239728D02*
X0199595Y0238728D01*
X0200595Y0238728D01*
X0200595Y0234728D02*
X0199595Y0234728D01*
X0199595Y0233728D01*
X0204595Y0234728D02*
X0205595Y0234728D01*
X0205595Y0233728D01*
X0205595Y0238728D02*
X0204595Y0238728D01*
X0205595Y0238728D02*
X0205595Y0239728D01*
X0209595Y0239728D02*
X0209595Y0238728D01*
X0210595Y0238728D01*
X0210595Y0234728D02*
X0209595Y0234728D01*
X0209595Y0233728D01*
X0214595Y0234728D02*
X0215595Y0234728D01*
X0215595Y0233728D01*
X0219595Y0233728D02*
X0219595Y0234728D01*
X0220595Y0234728D01*
X0220595Y0238728D02*
X0219595Y0238728D01*
X0219595Y0239728D01*
X0215595Y0239728D02*
X0215595Y0238728D01*
X0214595Y0238728D01*
X0215595Y0229728D02*
X0215595Y0228728D01*
X0214595Y0228728D01*
X0214595Y0224728D02*
X0215595Y0224728D01*
X0215595Y0223728D01*
X0215595Y0219728D02*
X0215595Y0218728D01*
X0214595Y0218728D01*
X0214595Y0214728D02*
X0215595Y0214728D01*
X0215595Y0213728D01*
X0215595Y0209728D02*
X0215595Y0208728D01*
X0214595Y0208728D01*
X0214595Y0204728D02*
X0215595Y0204728D01*
X0215595Y0203728D01*
X0215595Y0199728D02*
X0215595Y0198728D01*
X0214595Y0198728D01*
X0210595Y0198728D02*
X0209595Y0198728D01*
X0209595Y0199728D01*
X0209595Y0203728D02*
X0209595Y0204728D01*
X0210595Y0204728D01*
X0210595Y0208728D02*
X0209595Y0208728D01*
X0209595Y0209728D01*
X0209595Y0213728D02*
X0209595Y0214728D01*
X0210595Y0214728D01*
X0210595Y0218728D02*
X0209595Y0218728D01*
X0209595Y0219728D01*
X0209595Y0223728D02*
X0209595Y0224728D01*
X0210595Y0224728D01*
X0210595Y0228728D02*
X0209595Y0228728D01*
X0209595Y0229728D01*
X0205595Y0229728D02*
X0205595Y0228728D01*
X0204595Y0228728D01*
X0204595Y0224728D02*
X0205595Y0224728D01*
X0205595Y0223728D01*
X0205595Y0219728D02*
X0205595Y0218728D01*
X0204595Y0218728D01*
X0204595Y0214728D02*
X0205595Y0214728D01*
X0205595Y0213728D01*
X0205595Y0209728D02*
X0205595Y0208728D01*
X0204595Y0208728D01*
X0204595Y0204728D02*
X0205595Y0204728D01*
X0205595Y0203728D01*
X0205595Y0199728D02*
X0205595Y0198728D01*
X0204595Y0198728D01*
X0200595Y0198728D02*
X0199595Y0198728D01*
X0199595Y0199728D01*
X0199595Y0203728D02*
X0199595Y0204728D01*
X0200595Y0204728D01*
X0200595Y0208728D02*
X0199595Y0208728D01*
X0199595Y0209728D01*
X0199595Y0213728D02*
X0199595Y0214728D01*
X0200595Y0214728D01*
X0200595Y0218728D02*
X0199595Y0218728D01*
X0199595Y0219728D01*
X0199595Y0223728D02*
X0199595Y0224728D01*
X0200595Y0224728D01*
X0200595Y0228728D02*
X0199595Y0228728D01*
X0199595Y0229728D01*
X0195595Y0229728D02*
X0195595Y0228728D01*
X0194595Y0228728D01*
X0194595Y0224728D02*
X0195595Y0224728D01*
X0195595Y0223728D01*
X0195595Y0219728D02*
X0195595Y0218728D01*
X0194595Y0218728D01*
X0194595Y0214728D02*
X0195595Y0214728D01*
X0195595Y0213728D01*
X0195595Y0209728D02*
X0195595Y0208728D01*
X0194595Y0208728D01*
X0194595Y0204728D02*
X0195595Y0204728D01*
X0195595Y0203728D01*
X0195595Y0199728D02*
X0195595Y0198728D01*
X0194595Y0198728D01*
X0194595Y0194728D02*
X0195595Y0194728D01*
X0195595Y0193728D01*
X0195595Y0189728D02*
X0195595Y0188728D01*
X0194595Y0188728D01*
X0190595Y0188728D02*
X0189595Y0188728D01*
X0189595Y0189728D01*
X0185595Y0189728D02*
X0185595Y0188728D01*
X0184595Y0188728D01*
X0184595Y0184728D02*
X0185595Y0184728D01*
X0185595Y0183728D01*
X0185595Y0179728D02*
X0185595Y0178728D01*
X0184595Y0178728D01*
X0184595Y0174728D02*
X0185595Y0174728D01*
X0185595Y0173728D01*
X0189595Y0173728D02*
X0189595Y0174728D01*
X0190595Y0174728D01*
X0190595Y0178728D02*
X0189595Y0178728D01*
X0189595Y0179728D01*
X0189595Y0183728D02*
X0189595Y0184728D01*
X0190595Y0184728D01*
X0189595Y0193728D02*
X0189595Y0194728D01*
X0190595Y0194728D01*
X0190595Y0198728D02*
X0189595Y0198728D01*
X0189595Y0199728D01*
X0185595Y0199728D02*
X0185595Y0198728D01*
X0184595Y0198728D01*
X0184595Y0194728D02*
X0185595Y0194728D01*
X0185595Y0193728D01*
X0180595Y0194728D02*
X0179595Y0194728D01*
X0179595Y0193728D01*
X0179595Y0189728D02*
X0179595Y0188728D01*
X0180595Y0188728D01*
X0180595Y0184728D02*
X0179595Y0184728D01*
X0179595Y0183728D01*
X0179595Y0179728D02*
X0179595Y0178728D01*
X0180595Y0178728D01*
X0180595Y0174728D02*
X0179595Y0174728D01*
X0179595Y0173728D01*
X0175595Y0173728D02*
X0175595Y0174728D01*
X0174595Y0174728D01*
X0174595Y0178728D02*
X0175595Y0178728D01*
X0175595Y0179728D01*
X0175595Y0183728D02*
X0175595Y0184728D01*
X0174595Y0184728D01*
X0174595Y0188728D02*
X0175595Y0188728D01*
X0175595Y0189728D01*
X0175595Y0193728D02*
X0175595Y0194728D01*
X0174595Y0194728D01*
X0174595Y0198728D02*
X0175595Y0198728D01*
X0175595Y0199728D01*
X0179595Y0199728D02*
X0179595Y0198728D01*
X0180595Y0198728D01*
X0179595Y0203728D02*
X0179595Y0204728D01*
X0180595Y0204728D01*
X0184595Y0204728D02*
X0185595Y0204728D01*
X0185595Y0203728D01*
X0189595Y0203728D02*
X0189595Y0204728D01*
X0190595Y0204728D01*
X0190595Y0208728D02*
X0189595Y0208728D01*
X0189595Y0209728D01*
X0185595Y0209728D02*
X0185595Y0208728D01*
X0184595Y0208728D01*
X0180595Y0208728D02*
X0179595Y0208728D01*
X0179595Y0209728D01*
X0175595Y0209728D02*
X0175595Y0208728D01*
X0174595Y0208728D01*
X0174595Y0204728D02*
X0175595Y0204728D01*
X0175595Y0203728D01*
X0170595Y0204728D02*
X0169595Y0204728D01*
X0169595Y0203728D01*
X0169595Y0199728D02*
X0169595Y0198728D01*
X0170595Y0198728D01*
X0170595Y0194728D02*
X0169595Y0194728D01*
X0169595Y0193728D01*
X0169595Y0189728D02*
X0169595Y0188728D01*
X0170595Y0188728D01*
X0170595Y0184728D02*
X0169595Y0184728D01*
X0169595Y0183728D01*
X0169595Y0179728D02*
X0169595Y0178728D01*
X0170595Y0178728D01*
X0170595Y0174728D02*
X0169595Y0174728D01*
X0169595Y0173728D01*
X0165595Y0173728D02*
X0165595Y0174728D01*
X0164595Y0174728D01*
X0164595Y0178728D02*
X0165595Y0178728D01*
X0165595Y0179728D01*
X0165595Y0183728D02*
X0165595Y0184728D01*
X0164595Y0184728D01*
X0164595Y0188728D02*
X0165595Y0188728D01*
X0165595Y0189728D01*
X0165595Y0193728D02*
X0165595Y0194728D01*
X0164595Y0194728D01*
X0164595Y0198728D02*
X0165595Y0198728D01*
X0165595Y0199728D01*
X0165595Y0203728D02*
X0165595Y0204728D01*
X0164595Y0204728D01*
X0164595Y0208728D02*
X0165595Y0208728D01*
X0165595Y0209728D01*
X0169595Y0209728D02*
X0169595Y0208728D01*
X0170595Y0208728D01*
X0169595Y0213728D02*
X0169595Y0214728D01*
X0170595Y0214728D01*
X0170595Y0218728D02*
X0169595Y0218728D01*
X0169595Y0219728D01*
X0165595Y0219728D02*
X0165595Y0218728D01*
X0164595Y0218728D01*
X0164595Y0214728D02*
X0165595Y0214728D01*
X0165595Y0213728D01*
X0174595Y0214728D02*
X0175595Y0214728D01*
X0175595Y0213728D01*
X0179595Y0213728D02*
X0179595Y0214728D01*
X0180595Y0214728D01*
X0184595Y0214728D02*
X0185595Y0214728D01*
X0185595Y0213728D01*
X0189595Y0213728D02*
X0189595Y0214728D01*
X0190595Y0214728D01*
X0190595Y0218728D02*
X0189595Y0218728D01*
X0189595Y0219728D01*
X0185595Y0219728D02*
X0185595Y0218728D01*
X0184595Y0218728D01*
X0180595Y0218728D02*
X0179595Y0218728D01*
X0179595Y0219728D01*
X0175595Y0219728D02*
X0175595Y0218728D01*
X0174595Y0218728D01*
X0175595Y0223728D02*
X0175595Y0224728D01*
X0174595Y0224728D01*
X0174595Y0228728D02*
X0175595Y0228728D01*
X0175595Y0229728D01*
X0179595Y0229728D02*
X0179595Y0228728D01*
X0180595Y0228728D01*
X0180595Y0224728D02*
X0179595Y0224728D01*
X0179595Y0223728D01*
X0184595Y0224728D02*
X0185595Y0224728D01*
X0185595Y0223728D01*
X0189595Y0223728D02*
X0189595Y0224728D01*
X0190595Y0224728D01*
X0190595Y0228728D02*
X0189595Y0228728D01*
X0189595Y0229728D01*
X0185595Y0229728D02*
X0185595Y0228728D01*
X0184595Y0228728D01*
X0185595Y0233728D02*
X0185595Y0234728D01*
X0184595Y0234728D01*
X0180595Y0234728D02*
X0179595Y0234728D01*
X0179595Y0233728D01*
X0175595Y0233728D02*
X0175595Y0234728D01*
X0174595Y0234728D01*
X0174595Y0238728D02*
X0175595Y0238728D01*
X0175595Y0239728D01*
X0179595Y0239728D02*
X0179595Y0238728D01*
X0180595Y0238728D01*
X0184595Y0238728D02*
X0185595Y0238728D01*
X0185595Y0239728D01*
X0189595Y0239728D02*
X0189595Y0238728D01*
X0190595Y0238728D01*
X0190595Y0234728D02*
X0189595Y0234728D01*
X0189595Y0233728D01*
X0194595Y0234728D02*
X0195595Y0234728D01*
X0195595Y0233728D01*
X0195595Y0238728D02*
X0194595Y0238728D01*
X0195595Y0238728D02*
X0195595Y0239728D01*
X0170595Y0238728D02*
X0169595Y0238728D01*
X0169595Y0239728D01*
X0165595Y0239728D02*
X0165595Y0238728D01*
X0164595Y0238728D01*
X0164595Y0234728D02*
X0165595Y0234728D01*
X0165595Y0233728D01*
X0169595Y0233728D02*
X0169595Y0234728D01*
X0170595Y0234728D01*
X0169595Y0229728D02*
X0169595Y0228728D01*
X0170595Y0228728D01*
X0170595Y0224728D02*
X0169595Y0224728D01*
X0169595Y0223728D01*
X0165595Y0223728D02*
X0165595Y0224728D01*
X0164595Y0224728D01*
X0164595Y0228728D02*
X0165595Y0228728D01*
X0165595Y0229728D01*
X0160595Y0234728D02*
X0159595Y0234728D01*
X0159595Y0233728D01*
X0155595Y0233728D02*
X0155595Y0234728D01*
X0154595Y0234728D01*
X0150595Y0234728D02*
X0149595Y0234728D01*
X0149595Y0233728D01*
X0149595Y0238728D02*
X0149595Y0239728D01*
X0149595Y0238728D02*
X0150595Y0238728D01*
X0154595Y0238728D02*
X0155595Y0238728D01*
X0155595Y0239728D01*
X0159595Y0239728D02*
X0159595Y0238728D01*
X0160595Y0238728D01*
X0165595Y0243728D02*
X0165595Y0244728D01*
X0164595Y0244728D01*
X0164595Y0248728D02*
X0165595Y0248728D01*
X0165595Y0249728D01*
X0169595Y0249728D02*
X0169595Y0248728D01*
X0170595Y0248728D01*
X0170595Y0244728D02*
X0169595Y0244728D01*
X0169595Y0243728D01*
X0145595Y0239728D02*
X0145595Y0238728D01*
X0144595Y0238728D01*
X0144595Y0234728D02*
X0145595Y0234728D01*
X0145595Y0233728D01*
X0140595Y0234728D02*
X0139595Y0234728D01*
X0139595Y0233728D01*
X0139595Y0238728D02*
X0139595Y0239728D01*
X0139595Y0238728D02*
X0140595Y0238728D01*
X0135595Y0238728D02*
X0134595Y0238728D01*
X0135595Y0238728D02*
X0135595Y0239728D01*
X0135595Y0234728D02*
X0134595Y0234728D01*
X0135595Y0234728D02*
X0135595Y0233728D01*
X0130595Y0234728D02*
X0129595Y0234728D01*
X0129595Y0233728D01*
X0125595Y0233728D02*
X0125595Y0234728D01*
X0124595Y0234728D01*
X0120595Y0234728D02*
X0119595Y0234728D01*
X0119595Y0233728D01*
X0115595Y0233728D02*
X0115595Y0234728D01*
X0114595Y0234728D01*
X0114595Y0238728D02*
X0115595Y0238728D01*
X0115595Y0239728D01*
X0119595Y0239728D02*
X0119595Y0238728D01*
X0120595Y0238728D01*
X0124595Y0238728D02*
X0125595Y0238728D01*
X0125595Y0239728D01*
X0129595Y0239728D02*
X0129595Y0238728D01*
X0130595Y0238728D01*
X0129595Y0229728D02*
X0129595Y0228728D01*
X0130595Y0228728D01*
X0130595Y0224728D02*
X0129595Y0224728D01*
X0129595Y0223728D01*
X0129595Y0219728D02*
X0129595Y0218728D01*
X0130595Y0218728D01*
X0130595Y0214728D02*
X0129595Y0214728D01*
X0129595Y0213728D01*
X0129595Y0209728D02*
X0129595Y0208728D01*
X0130595Y0208728D01*
X0130595Y0204728D02*
X0129595Y0204728D01*
X0129595Y0203728D01*
X0129595Y0199728D02*
X0129595Y0198728D01*
X0130595Y0198728D01*
X0130595Y0194728D02*
X0129595Y0194728D01*
X0129595Y0193728D01*
X0129595Y0189728D02*
X0129595Y0188728D01*
X0130595Y0188728D01*
X0130595Y0184728D02*
X0129595Y0184728D01*
X0129595Y0183728D01*
X0129595Y0179728D02*
X0129595Y0178728D01*
X0130595Y0178728D01*
X0130595Y0174728D02*
X0129595Y0174728D01*
X0129595Y0173728D01*
X0125595Y0173728D02*
X0125595Y0174728D01*
X0124595Y0174728D01*
X0120595Y0174728D02*
X0119595Y0174728D01*
X0119595Y0173728D01*
X0115595Y0173728D02*
X0115595Y0174728D01*
X0114595Y0174728D01*
X0114595Y0178728D02*
X0115595Y0178728D01*
X0115595Y0179728D01*
X0119595Y0179728D02*
X0119595Y0178728D01*
X0120595Y0178728D01*
X0124595Y0178728D02*
X0125595Y0178728D01*
X0125595Y0179728D01*
X0125595Y0183728D02*
X0125595Y0184728D01*
X0124595Y0184728D01*
X0120595Y0184728D02*
X0119595Y0184728D01*
X0119595Y0183728D01*
X0115595Y0183728D02*
X0115595Y0184728D01*
X0114595Y0184728D01*
X0114595Y0188728D02*
X0115595Y0188728D01*
X0115595Y0189728D01*
X0119595Y0189728D02*
X0119595Y0188728D01*
X0120595Y0188728D01*
X0124595Y0188728D02*
X0125595Y0188728D01*
X0125595Y0189728D01*
X0125595Y0193728D02*
X0125595Y0194728D01*
X0124595Y0194728D01*
X0120595Y0194728D02*
X0119595Y0194728D01*
X0119595Y0193728D01*
X0115595Y0193728D02*
X0115595Y0194728D01*
X0114595Y0194728D01*
X0114595Y0198728D02*
X0115595Y0198728D01*
X0115595Y0199728D01*
X0119595Y0199728D02*
X0119595Y0198728D01*
X0120595Y0198728D01*
X0124595Y0198728D02*
X0125595Y0198728D01*
X0125595Y0199728D01*
X0125595Y0203728D02*
X0125595Y0204728D01*
X0124595Y0204728D01*
X0120595Y0204728D02*
X0119595Y0204728D01*
X0119595Y0203728D01*
X0115595Y0203728D02*
X0115595Y0204728D01*
X0114595Y0204728D01*
X0114595Y0208728D02*
X0115595Y0208728D01*
X0115595Y0209728D01*
X0119595Y0209728D02*
X0119595Y0208728D01*
X0120595Y0208728D01*
X0124595Y0208728D02*
X0125595Y0208728D01*
X0125595Y0209728D01*
X0125595Y0213728D02*
X0125595Y0214728D01*
X0124595Y0214728D01*
X0120595Y0214728D02*
X0119595Y0214728D01*
X0119595Y0213728D01*
X0115595Y0213728D02*
X0115595Y0214728D01*
X0114595Y0214728D01*
X0114595Y0218728D02*
X0115595Y0218728D01*
X0115595Y0219728D01*
X0119595Y0219728D02*
X0119595Y0218728D01*
X0120595Y0218728D01*
X0124595Y0218728D02*
X0125595Y0218728D01*
X0125595Y0219728D01*
X0125595Y0223728D02*
X0125595Y0224728D01*
X0124595Y0224728D01*
X0120595Y0224728D02*
X0119595Y0224728D01*
X0119595Y0223728D01*
X0115595Y0223728D02*
X0115595Y0224728D01*
X0114595Y0224728D01*
X0114595Y0228728D02*
X0115595Y0228728D01*
X0115595Y0229728D01*
X0119595Y0229728D02*
X0119595Y0228728D01*
X0120595Y0228728D01*
X0124595Y0228728D02*
X0125595Y0228728D01*
X0125595Y0229728D01*
X0110595Y0228728D02*
X0109595Y0228728D01*
X0109595Y0229728D01*
X0105595Y0229728D02*
X0105595Y0228728D01*
X0104595Y0228728D01*
X0104595Y0224728D02*
X0105595Y0224728D01*
X0105595Y0223728D01*
X0105595Y0219728D02*
X0105595Y0218728D01*
X0104595Y0218728D01*
X0104595Y0214728D02*
X0105595Y0214728D01*
X0105595Y0213728D01*
X0105595Y0209728D02*
X0105595Y0208728D01*
X0104595Y0208728D01*
X0104595Y0204728D02*
X0105595Y0204728D01*
X0105595Y0203728D01*
X0105595Y0199728D02*
X0105595Y0198728D01*
X0104595Y0198728D01*
X0104595Y0194728D02*
X0105595Y0194728D01*
X0105595Y0193728D01*
X0105595Y0189728D02*
X0105595Y0188728D01*
X0104595Y0188728D01*
X0104595Y0184728D02*
X0105595Y0184728D01*
X0105595Y0183728D01*
X0105595Y0179728D02*
X0105595Y0178728D01*
X0104595Y0178728D01*
X0104595Y0174728D02*
X0105595Y0174728D01*
X0105595Y0173728D01*
X0109595Y0173728D02*
X0109595Y0174728D01*
X0110595Y0174728D01*
X0110595Y0178728D02*
X0109595Y0178728D01*
X0109595Y0179728D01*
X0109595Y0183728D02*
X0109595Y0184728D01*
X0110595Y0184728D01*
X0110595Y0188728D02*
X0109595Y0188728D01*
X0109595Y0189728D01*
X0109595Y0193728D02*
X0109595Y0194728D01*
X0110595Y0194728D01*
X0110595Y0198728D02*
X0109595Y0198728D01*
X0109595Y0199728D01*
X0109595Y0203728D02*
X0109595Y0204728D01*
X0110595Y0204728D01*
X0110595Y0208728D02*
X0109595Y0208728D01*
X0109595Y0209728D01*
X0109595Y0213728D02*
X0109595Y0214728D01*
X0110595Y0214728D01*
X0110595Y0218728D02*
X0109595Y0218728D01*
X0109595Y0219728D01*
X0109595Y0223728D02*
X0109595Y0224728D01*
X0110595Y0224728D01*
X0109595Y0233728D02*
X0109595Y0234728D01*
X0110595Y0234728D01*
X0110595Y0238728D02*
X0109595Y0238728D01*
X0109595Y0239728D01*
X0105595Y0239728D02*
X0105595Y0238728D01*
X0104595Y0238728D01*
X0104595Y0234728D02*
X0105595Y0234728D01*
X0105595Y0233728D01*
X0100595Y0234728D02*
X0099595Y0234728D01*
X0099595Y0233728D01*
X0095595Y0233728D02*
X0095595Y0234728D01*
X0094595Y0234728D01*
X0090595Y0234728D02*
X0089595Y0234728D01*
X0089595Y0233728D01*
X0085595Y0233728D02*
X0085595Y0234728D01*
X0084595Y0234728D01*
X0080595Y0234728D02*
X0079595Y0234728D01*
X0079595Y0233728D01*
X0079595Y0238728D02*
X0079595Y0239728D01*
X0079595Y0238728D02*
X0080595Y0238728D01*
X0084595Y0238728D02*
X0085595Y0238728D01*
X0085595Y0239728D01*
X0089595Y0239728D02*
X0089595Y0238728D01*
X0090595Y0238728D01*
X0094595Y0238728D02*
X0095595Y0238728D01*
X0095595Y0239728D01*
X0099595Y0239728D02*
X0099595Y0238728D01*
X0100595Y0238728D01*
X0105595Y0243728D02*
X0105595Y0244728D01*
X0104595Y0244728D01*
X0104595Y0248728D02*
X0105595Y0248728D01*
X0105595Y0249728D01*
X0109595Y0249728D02*
X0109595Y0248728D01*
X0110595Y0248728D01*
X0110595Y0244728D02*
X0109595Y0244728D01*
X0109595Y0243728D01*
X0075595Y0239728D02*
X0075595Y0238728D01*
X0074595Y0238728D01*
X0074595Y0234728D02*
X0075595Y0234728D01*
X0075595Y0233728D01*
X0070595Y0234728D02*
X0069595Y0234728D01*
X0069595Y0233728D01*
X0065595Y0233728D02*
X0065595Y0234728D01*
X0064595Y0234728D01*
X0060595Y0234728D02*
X0059595Y0234728D01*
X0059595Y0233728D01*
X0055595Y0233728D02*
X0055595Y0234728D01*
X0054595Y0234728D01*
X0054595Y0238728D02*
X0055595Y0238728D01*
X0055595Y0239728D01*
X0059595Y0239728D02*
X0059595Y0238728D01*
X0060595Y0238728D01*
X0064595Y0238728D02*
X0065595Y0238728D01*
X0065595Y0239728D01*
X0069595Y0239728D02*
X0069595Y0238728D01*
X0070595Y0238728D01*
X0069595Y0229728D02*
X0069595Y0228728D01*
X0070595Y0228728D01*
X0070595Y0224728D02*
X0069595Y0224728D01*
X0069595Y0223728D01*
X0069595Y0219728D02*
X0069595Y0218728D01*
X0070595Y0218728D01*
X0070595Y0214728D02*
X0069595Y0214728D01*
X0069595Y0213728D01*
X0069595Y0209728D02*
X0069595Y0208728D01*
X0070595Y0208728D01*
X0070595Y0204728D02*
X0069595Y0204728D01*
X0069595Y0203728D01*
X0069595Y0199728D02*
X0069595Y0198728D01*
X0070595Y0198728D01*
X0070595Y0194728D02*
X0069595Y0194728D01*
X0069595Y0193728D01*
X0069595Y0189728D02*
X0069595Y0188728D01*
X0070595Y0188728D01*
X0070595Y0184728D02*
X0069595Y0184728D01*
X0069595Y0183728D01*
X0069595Y0179728D02*
X0069595Y0178728D01*
X0070595Y0178728D01*
X0070595Y0174728D02*
X0069595Y0174728D01*
X0069595Y0173728D01*
X0065595Y0173728D02*
X0065595Y0174728D01*
X0064595Y0174728D01*
X0060595Y0174728D02*
X0059595Y0174728D01*
X0059595Y0173728D01*
X0055595Y0173728D02*
X0055595Y0174728D01*
X0054595Y0174728D01*
X0054595Y0178728D02*
X0055595Y0178728D01*
X0055595Y0179728D01*
X0059595Y0179728D02*
X0059595Y0178728D01*
X0060595Y0178728D01*
X0064595Y0178728D02*
X0065595Y0178728D01*
X0065595Y0179728D01*
X0065595Y0183728D02*
X0065595Y0184728D01*
X0064595Y0184728D01*
X0060595Y0184728D02*
X0059595Y0184728D01*
X0059595Y0183728D01*
X0055595Y0183728D02*
X0055595Y0184728D01*
X0054595Y0184728D01*
X0054595Y0188728D02*
X0055595Y0188728D01*
X0055595Y0189728D01*
X0059595Y0189728D02*
X0059595Y0188728D01*
X0060595Y0188728D01*
X0064595Y0188728D02*
X0065595Y0188728D01*
X0065595Y0189728D01*
X0065595Y0193728D02*
X0065595Y0194728D01*
X0064595Y0194728D01*
X0060595Y0194728D02*
X0059595Y0194728D01*
X0059595Y0193728D01*
X0055595Y0193728D02*
X0055595Y0194728D01*
X0054595Y0194728D01*
X0054595Y0198728D02*
X0055595Y0198728D01*
X0055595Y0199728D01*
X0059595Y0199728D02*
X0059595Y0198728D01*
X0060595Y0198728D01*
X0064595Y0198728D02*
X0065595Y0198728D01*
X0065595Y0199728D01*
X0065595Y0203728D02*
X0065595Y0204728D01*
X0064595Y0204728D01*
X0060595Y0204728D02*
X0059595Y0204728D01*
X0059595Y0203728D01*
X0055595Y0203728D02*
X0055595Y0204728D01*
X0054595Y0204728D01*
X0054595Y0208728D02*
X0055595Y0208728D01*
X0055595Y0209728D01*
X0059595Y0209728D02*
X0059595Y0208728D01*
X0060595Y0208728D01*
X0064595Y0208728D02*
X0065595Y0208728D01*
X0065595Y0209728D01*
X0065595Y0213728D02*
X0065595Y0214728D01*
X0064595Y0214728D01*
X0060595Y0214728D02*
X0059595Y0214728D01*
X0059595Y0213728D01*
X0055595Y0213728D02*
X0055595Y0214728D01*
X0054595Y0214728D01*
X0054595Y0218728D02*
X0055595Y0218728D01*
X0055595Y0219728D01*
X0059595Y0219728D02*
X0059595Y0218728D01*
X0060595Y0218728D01*
X0064595Y0218728D02*
X0065595Y0218728D01*
X0065595Y0219728D01*
X0065595Y0223728D02*
X0065595Y0224728D01*
X0064595Y0224728D01*
X0060595Y0224728D02*
X0059595Y0224728D01*
X0059595Y0223728D01*
X0055595Y0223728D02*
X0055595Y0224728D01*
X0054595Y0224728D01*
X0054595Y0228728D02*
X0055595Y0228728D01*
X0055595Y0229728D01*
X0059595Y0229728D02*
X0059595Y0228728D01*
X0060595Y0228728D01*
X0064595Y0228728D02*
X0065595Y0228728D01*
X0065595Y0229728D01*
X0042374Y0201429D02*
X0042374Y0197158D01*
X0042374Y0199293D02*
X0035968Y0199293D01*
X0038104Y0197158D01*
X0038104Y0194983D02*
X0042374Y0192848D01*
X0038104Y0190713D01*
X0039171Y0188538D02*
X0040239Y0188538D01*
X0040239Y0184267D01*
X0041306Y0184267D02*
X0039171Y0184267D01*
X0038104Y0185335D01*
X0038104Y0187470D01*
X0039171Y0188538D01*
X0042374Y0187470D02*
X0042374Y0185335D01*
X0041306Y0184267D01*
X0038104Y0182099D02*
X0038104Y0181031D01*
X0040239Y0178896D01*
X0042374Y0178896D02*
X0038104Y0178896D01*
X0037036Y0170275D02*
X0041306Y0166005D01*
X0042374Y0166005D01*
X0039171Y0163830D02*
X0039171Y0159560D01*
X0038104Y0157384D02*
X0037036Y0157384D01*
X0035968Y0156317D01*
X0035968Y0154182D01*
X0037036Y0153114D01*
X0038104Y0153114D01*
X0039171Y0154182D01*
X0039171Y0156317D01*
X0040239Y0157384D01*
X0041306Y0157384D01*
X0042374Y0156317D01*
X0042374Y0154182D01*
X0041306Y0153114D01*
X0040239Y0153114D01*
X0039171Y0154182D01*
X0039171Y0156317D02*
X0038104Y0157384D01*
X0039171Y0150939D02*
X0039171Y0146669D01*
X0038104Y0144493D02*
X0037036Y0144493D01*
X0035968Y0143426D01*
X0035968Y0141291D01*
X0037036Y0140223D01*
X0038104Y0144493D02*
X0042374Y0140223D01*
X0042374Y0144493D01*
X0049595Y0144728D02*
X0049595Y0143728D01*
X0049595Y0144728D02*
X0050595Y0144728D01*
X0049595Y0139728D02*
X0049595Y0138728D01*
X0050595Y0138728D01*
X0050595Y0134728D02*
X0049595Y0134728D01*
X0049595Y0133728D01*
X0049595Y0129728D02*
X0049595Y0128728D01*
X0050595Y0128728D01*
X0050595Y0124728D02*
X0049595Y0124728D01*
X0049595Y0123728D01*
X0049595Y0119728D02*
X0049595Y0118728D01*
X0050595Y0118728D01*
X0050595Y0114728D02*
X0049595Y0114728D01*
X0049595Y0113728D01*
X0049595Y0109728D02*
X0049595Y0108728D01*
X0050595Y0108728D01*
X0050595Y0104728D02*
X0049595Y0104728D01*
X0049595Y0103728D01*
X0049595Y0099728D02*
X0049595Y0098728D01*
X0050595Y0098728D01*
X0050595Y0094728D02*
X0049595Y0094728D01*
X0049595Y0093728D01*
X0049595Y0089728D02*
X0049595Y0088728D01*
X0050595Y0088728D01*
X0050595Y0084728D02*
X0049595Y0084728D01*
X0049595Y0083728D01*
X0049595Y0079728D02*
X0049595Y0078728D01*
X0050595Y0078728D01*
X0050595Y0074728D02*
X0049595Y0074728D01*
X0049595Y0073728D01*
X0049595Y0069728D02*
X0049595Y0068728D01*
X0050595Y0068728D01*
X0054595Y0068728D02*
X0055595Y0068728D01*
X0055595Y0069728D01*
X0059595Y0069728D02*
X0059595Y0068728D01*
X0060595Y0068728D01*
X0064595Y0068728D02*
X0065595Y0068728D01*
X0065595Y0069728D01*
X0069595Y0069728D02*
X0069595Y0068728D01*
X0070595Y0068728D01*
X0074595Y0068728D02*
X0075595Y0068728D01*
X0075595Y0069728D01*
X0075595Y0073728D02*
X0075595Y0074728D01*
X0074595Y0074728D01*
X0070595Y0074728D02*
X0069595Y0074728D01*
X0069595Y0073728D01*
X0065595Y0073728D02*
X0065595Y0074728D01*
X0064595Y0074728D01*
X0060595Y0074728D02*
X0059595Y0074728D01*
X0059595Y0073728D01*
X0055595Y0073728D02*
X0055595Y0074728D01*
X0054595Y0074728D01*
X0054595Y0078728D02*
X0055595Y0078728D01*
X0055595Y0079728D01*
X0059595Y0079728D02*
X0059595Y0078728D01*
X0060595Y0078728D01*
X0064595Y0078728D02*
X0065595Y0078728D01*
X0065595Y0079728D01*
X0069595Y0079728D02*
X0069595Y0078728D01*
X0070595Y0078728D01*
X0074595Y0078728D02*
X0075595Y0078728D01*
X0075595Y0079728D01*
X0075595Y0083728D02*
X0075595Y0084728D01*
X0074595Y0084728D01*
X0070595Y0084728D02*
X0069595Y0084728D01*
X0069595Y0083728D01*
X0065595Y0083728D02*
X0065595Y0084728D01*
X0064595Y0084728D01*
X0060595Y0084728D02*
X0059595Y0084728D01*
X0059595Y0083728D01*
X0055595Y0083728D02*
X0055595Y0084728D01*
X0054595Y0084728D01*
X0054595Y0088728D02*
X0055595Y0088728D01*
X0055595Y0089728D01*
X0059595Y0089728D02*
X0059595Y0088728D01*
X0060595Y0088728D01*
X0064595Y0088728D02*
X0065595Y0088728D01*
X0065595Y0089728D01*
X0069595Y0089728D02*
X0069595Y0088728D01*
X0070595Y0088728D01*
X0074595Y0088728D02*
X0075595Y0088728D01*
X0075595Y0089728D01*
X0075595Y0093728D02*
X0075595Y0094728D01*
X0074595Y0094728D01*
X0070595Y0094728D02*
X0069595Y0094728D01*
X0069595Y0093728D01*
X0065595Y0093728D02*
X0065595Y0094728D01*
X0064595Y0094728D01*
X0060595Y0094728D02*
X0059595Y0094728D01*
X0059595Y0093728D01*
X0055595Y0093728D02*
X0055595Y0094728D01*
X0054595Y0094728D01*
X0054595Y0098728D02*
X0055595Y0098728D01*
X0055595Y0099728D01*
X0059595Y0099728D02*
X0059595Y0098728D01*
X0060595Y0098728D01*
X0064595Y0098728D02*
X0065595Y0098728D01*
X0065595Y0099728D01*
X0069595Y0099728D02*
X0069595Y0098728D01*
X0070595Y0098728D01*
X0074595Y0098728D02*
X0075595Y0098728D01*
X0075595Y0099728D01*
X0075595Y0103728D02*
X0075595Y0104728D01*
X0074595Y0104728D01*
X0070595Y0104728D02*
X0069595Y0104728D01*
X0069595Y0103728D01*
X0065595Y0103728D02*
X0065595Y0104728D01*
X0064595Y0104728D01*
X0060595Y0104728D02*
X0059595Y0104728D01*
X0059595Y0103728D01*
X0055595Y0103728D02*
X0055595Y0104728D01*
X0054595Y0104728D01*
X0054595Y0108728D02*
X0055595Y0108728D01*
X0055595Y0109728D01*
X0059595Y0109728D02*
X0059595Y0108728D01*
X0060595Y0108728D01*
X0064595Y0108728D02*
X0065595Y0108728D01*
X0065595Y0109728D01*
X0069595Y0109728D02*
X0069595Y0108728D01*
X0070595Y0108728D01*
X0074595Y0108728D02*
X0075595Y0108728D01*
X0075595Y0109728D01*
X0075595Y0113728D02*
X0075595Y0114728D01*
X0074595Y0114728D01*
X0070595Y0114728D02*
X0069595Y0114728D01*
X0069595Y0113728D01*
X0065595Y0113728D02*
X0065595Y0114728D01*
X0064595Y0114728D01*
X0060595Y0114728D02*
X0059595Y0114728D01*
X0059595Y0113728D01*
X0055595Y0113728D02*
X0055595Y0114728D01*
X0054595Y0114728D01*
X0054595Y0118728D02*
X0055595Y0118728D01*
X0055595Y0119728D01*
X0059595Y0119728D02*
X0059595Y0118728D01*
X0060595Y0118728D01*
X0064595Y0118728D02*
X0065595Y0118728D01*
X0065595Y0119728D01*
X0069595Y0119728D02*
X0069595Y0118728D01*
X0070595Y0118728D01*
X0074595Y0118728D02*
X0075595Y0118728D01*
X0075595Y0119728D01*
X0075595Y0123728D02*
X0075595Y0124728D01*
X0074595Y0124728D01*
X0070595Y0124728D02*
X0069595Y0124728D01*
X0069595Y0123728D01*
X0065595Y0123728D02*
X0065595Y0124728D01*
X0064595Y0124728D01*
X0060595Y0124728D02*
X0059595Y0124728D01*
X0059595Y0123728D01*
X0055595Y0123728D02*
X0055595Y0124728D01*
X0054595Y0124728D01*
X0054595Y0128728D02*
X0055595Y0128728D01*
X0055595Y0129728D01*
X0059595Y0129728D02*
X0059595Y0128728D01*
X0060595Y0128728D01*
X0064595Y0128728D02*
X0065595Y0128728D01*
X0065595Y0129728D01*
X0069595Y0129728D02*
X0069595Y0128728D01*
X0070595Y0128728D01*
X0074595Y0128728D02*
X0075595Y0128728D01*
X0075595Y0129728D01*
X0075595Y0133728D02*
X0075595Y0134728D01*
X0074595Y0134728D01*
X0070595Y0134728D02*
X0069595Y0134728D01*
X0069595Y0133728D01*
X0065595Y0133728D02*
X0065595Y0134728D01*
X0064595Y0134728D01*
X0060595Y0134728D02*
X0059595Y0134728D01*
X0059595Y0133728D01*
X0055595Y0133728D02*
X0055595Y0134728D01*
X0054595Y0134728D01*
X0054595Y0138728D02*
X0055595Y0138728D01*
X0055595Y0139728D01*
X0059595Y0139728D02*
X0059595Y0138728D01*
X0060595Y0138728D01*
X0064595Y0138728D02*
X0065595Y0138728D01*
X0065595Y0139728D01*
X0069595Y0139728D02*
X0069595Y0138728D01*
X0070595Y0138728D01*
X0074595Y0138728D02*
X0075595Y0138728D01*
X0075595Y0139728D01*
X0075595Y0143728D02*
X0075595Y0144728D01*
X0074595Y0144728D01*
X0070595Y0144728D02*
X0069595Y0144728D01*
X0069595Y0143728D01*
X0065595Y0143728D02*
X0065595Y0144728D01*
X0064595Y0144728D01*
X0060595Y0144728D02*
X0059595Y0144728D01*
X0059595Y0143728D01*
X0055595Y0143728D02*
X0055595Y0144728D01*
X0054595Y0144728D01*
X0054595Y0148728D02*
X0055595Y0148728D01*
X0055595Y0149728D01*
X0059595Y0149728D02*
X0059595Y0148728D01*
X0060595Y0148728D01*
X0064595Y0148728D02*
X0065595Y0148728D01*
X0065595Y0149728D01*
X0069595Y0149728D02*
X0069595Y0148728D01*
X0070595Y0148728D01*
X0074595Y0148728D02*
X0075595Y0148728D01*
X0075595Y0149728D01*
X0075595Y0153728D02*
X0075595Y0154728D01*
X0074595Y0154728D01*
X0070595Y0154728D02*
X0069595Y0154728D01*
X0069595Y0153728D01*
X0065595Y0153728D02*
X0065595Y0154728D01*
X0064595Y0154728D01*
X0060595Y0154728D02*
X0059595Y0154728D01*
X0059595Y0153728D01*
X0055595Y0153728D02*
X0055595Y0154728D01*
X0054595Y0154728D01*
X0050595Y0154728D02*
X0049595Y0154728D01*
X0049595Y0153728D01*
X0049595Y0149728D02*
X0049595Y0148728D01*
X0050595Y0148728D01*
X0035968Y0166005D02*
X0035968Y0170275D01*
X0037036Y0170275D01*
X0035968Y0131602D02*
X0042374Y0127332D01*
X0042374Y0125157D02*
X0035968Y0125157D01*
X0038104Y0123022D01*
X0035968Y0120887D01*
X0042374Y0120887D01*
X0035968Y0127332D02*
X0042374Y0131602D01*
X0079595Y0129728D02*
X0079595Y0128728D01*
X0080595Y0128728D01*
X0084595Y0128728D02*
X0085595Y0128728D01*
X0085595Y0129728D01*
X0089595Y0129728D02*
X0089595Y0128728D01*
X0090595Y0128728D01*
X0094595Y0128728D02*
X0095595Y0128728D01*
X0095595Y0129728D01*
X0099595Y0129728D02*
X0099595Y0128728D01*
X0100595Y0128728D01*
X0099595Y0133728D02*
X0099595Y0134728D01*
X0100595Y0134728D01*
X0095595Y0134728D02*
X0094595Y0134728D01*
X0095595Y0134728D02*
X0095595Y0133728D01*
X0095595Y0138728D02*
X0094595Y0138728D01*
X0095595Y0138728D02*
X0095595Y0139728D01*
X0099595Y0139728D02*
X0099595Y0138728D01*
X0100595Y0138728D01*
X0099595Y0143728D02*
X0099595Y0144728D01*
X0100595Y0144728D01*
X0095595Y0144728D02*
X0094595Y0144728D01*
X0095595Y0144728D02*
X0095595Y0143728D01*
X0095595Y0148728D02*
X0094595Y0148728D01*
X0095595Y0148728D02*
X0095595Y0149728D01*
X0099595Y0149728D02*
X0099595Y0148728D01*
X0100595Y0148728D01*
X0099595Y0153728D02*
X0099595Y0154728D01*
X0100595Y0154728D01*
X0095595Y0154728D02*
X0094595Y0154728D01*
X0095595Y0154728D02*
X0095595Y0153728D01*
X0090595Y0154728D02*
X0089595Y0154728D01*
X0089595Y0153728D01*
X0089595Y0149728D02*
X0089595Y0148728D01*
X0090595Y0148728D01*
X0085595Y0148728D02*
X0084595Y0148728D01*
X0085595Y0148728D02*
X0085595Y0149728D01*
X0085595Y0153728D02*
X0085595Y0154728D01*
X0084595Y0154728D01*
X0080595Y0154728D02*
X0079595Y0154728D01*
X0079595Y0153728D01*
X0079595Y0149728D02*
X0079595Y0148728D01*
X0080595Y0148728D01*
X0080595Y0144728D02*
X0079595Y0144728D01*
X0079595Y0143728D01*
X0079595Y0139728D02*
X0079595Y0138728D01*
X0080595Y0138728D01*
X0084595Y0138728D02*
X0085595Y0138728D01*
X0085595Y0139728D01*
X0089595Y0139728D02*
X0089595Y0138728D01*
X0090595Y0138728D01*
X0089595Y0143728D02*
X0089595Y0144728D01*
X0090595Y0144728D01*
X0085595Y0144728D02*
X0084595Y0144728D01*
X0085595Y0144728D02*
X0085595Y0143728D01*
X0085595Y0134728D02*
X0084595Y0134728D01*
X0085595Y0134728D02*
X0085595Y0133728D01*
X0089595Y0133728D02*
X0089595Y0134728D01*
X0090595Y0134728D01*
X0090595Y0124728D02*
X0089595Y0124728D01*
X0089595Y0123728D01*
X0089595Y0119728D02*
X0089595Y0118728D01*
X0090595Y0118728D01*
X0094595Y0118728D02*
X0095595Y0118728D01*
X0095595Y0119728D01*
X0099595Y0119728D02*
X0099595Y0118728D01*
X0100595Y0118728D01*
X0099595Y0123728D02*
X0099595Y0124728D01*
X0100595Y0124728D01*
X0095595Y0124728D02*
X0094595Y0124728D01*
X0095595Y0124728D02*
X0095595Y0123728D01*
X0095595Y0114728D02*
X0094595Y0114728D01*
X0095595Y0114728D02*
X0095595Y0113728D01*
X0095595Y0109728D02*
X0095595Y0108728D01*
X0094595Y0108728D01*
X0090595Y0108728D02*
X0089595Y0108728D01*
X0089595Y0109728D01*
X0085595Y0109728D02*
X0085595Y0108728D01*
X0084595Y0108728D01*
X0080595Y0108728D02*
X0079595Y0108728D01*
X0079595Y0109728D01*
X0079595Y0113728D02*
X0079595Y0114728D01*
X0080595Y0114728D01*
X0084595Y0114728D02*
X0085595Y0114728D01*
X0085595Y0113728D01*
X0089595Y0113728D02*
X0089595Y0114728D01*
X0090595Y0114728D01*
X0085595Y0118728D02*
X0084595Y0118728D01*
X0085595Y0118728D02*
X0085595Y0119728D01*
X0085595Y0123728D02*
X0085595Y0124728D01*
X0084595Y0124728D01*
X0080595Y0124728D02*
X0079595Y0124728D01*
X0079595Y0123728D01*
X0079595Y0119728D02*
X0079595Y0118728D01*
X0080595Y0118728D01*
X0079595Y0133728D02*
X0079595Y0134728D01*
X0080595Y0134728D01*
X0099595Y0114728D02*
X0099595Y0113728D01*
X0099595Y0114728D02*
X0100595Y0114728D01*
X0099595Y0109728D02*
X0099595Y0108728D01*
X0100595Y0108728D01*
X0100595Y0104728D02*
X0099595Y0104728D01*
X0099595Y0103728D01*
X0099595Y0099728D02*
X0099595Y0098728D01*
X0100595Y0098728D01*
X0100595Y0094728D02*
X0099595Y0094728D01*
X0099595Y0093728D01*
X0099595Y0089728D02*
X0099595Y0088728D01*
X0100595Y0088728D01*
X0100595Y0084728D02*
X0099595Y0084728D01*
X0099595Y0083728D01*
X0099595Y0079728D02*
X0099595Y0078728D01*
X0100595Y0078728D01*
X0100595Y0074728D02*
X0099595Y0074728D01*
X0099595Y0073728D01*
X0099595Y0069728D02*
X0099595Y0068728D01*
X0100595Y0068728D01*
X0095595Y0068728D02*
X0094595Y0068728D01*
X0095595Y0068728D02*
X0095595Y0069728D01*
X0095595Y0073728D02*
X0095595Y0074728D01*
X0094595Y0074728D01*
X0090595Y0074728D02*
X0089595Y0074728D01*
X0089595Y0073728D01*
X0089595Y0069728D02*
X0089595Y0068728D01*
X0090595Y0068728D01*
X0085595Y0068728D02*
X0084595Y0068728D01*
X0085595Y0068728D02*
X0085595Y0069728D01*
X0085595Y0073728D02*
X0085595Y0074728D01*
X0084595Y0074728D01*
X0080595Y0074728D02*
X0079595Y0074728D01*
X0079595Y0073728D01*
X0079595Y0069728D02*
X0079595Y0068728D01*
X0080595Y0068728D01*
X0080595Y0078728D02*
X0079595Y0078728D01*
X0079595Y0079728D01*
X0079595Y0083728D02*
X0079595Y0084728D01*
X0080595Y0084728D01*
X0084595Y0084728D02*
X0085595Y0084728D01*
X0085595Y0083728D01*
X0085595Y0079728D02*
X0085595Y0078728D01*
X0084595Y0078728D01*
X0089595Y0078728D02*
X0089595Y0079728D01*
X0089595Y0078728D02*
X0090595Y0078728D01*
X0094595Y0078728D02*
X0095595Y0078728D01*
X0095595Y0079728D01*
X0095595Y0083728D02*
X0095595Y0084728D01*
X0094595Y0084728D01*
X0090595Y0084728D02*
X0089595Y0084728D01*
X0089595Y0083728D01*
X0089595Y0088728D02*
X0089595Y0089728D01*
X0089595Y0088728D02*
X0090595Y0088728D01*
X0094595Y0088728D02*
X0095595Y0088728D01*
X0095595Y0089728D01*
X0095595Y0093728D02*
X0095595Y0094728D01*
X0094595Y0094728D01*
X0090595Y0094728D02*
X0089595Y0094728D01*
X0089595Y0093728D01*
X0085595Y0093728D02*
X0085595Y0094728D01*
X0084595Y0094728D01*
X0080595Y0094728D02*
X0079595Y0094728D01*
X0079595Y0093728D01*
X0079595Y0089728D02*
X0079595Y0088728D01*
X0080595Y0088728D01*
X0084595Y0088728D02*
X0085595Y0088728D01*
X0085595Y0089728D01*
X0085595Y0098728D02*
X0084595Y0098728D01*
X0085595Y0098728D02*
X0085595Y0099728D01*
X0089595Y0099728D02*
X0089595Y0098728D01*
X0090595Y0098728D01*
X0094595Y0098728D02*
X0095595Y0098728D01*
X0095595Y0099728D01*
X0095595Y0103728D02*
X0095595Y0104728D01*
X0094595Y0104728D01*
X0090595Y0104728D02*
X0089595Y0104728D01*
X0089595Y0103728D01*
X0085595Y0103728D02*
X0085595Y0104728D01*
X0084595Y0104728D01*
X0080595Y0104728D02*
X0079595Y0104728D01*
X0079595Y0103728D01*
X0079595Y0099728D02*
X0079595Y0098728D01*
X0080595Y0098728D01*
X0104595Y0098728D02*
X0105595Y0098728D01*
X0105595Y0099728D01*
X0109595Y0099728D02*
X0109595Y0098728D01*
X0110595Y0098728D01*
X0110595Y0094728D02*
X0109595Y0094728D01*
X0109595Y0093728D01*
X0109595Y0089728D02*
X0109595Y0088728D01*
X0110595Y0088728D01*
X0110595Y0084728D02*
X0109595Y0084728D01*
X0109595Y0083728D01*
X0109595Y0079728D02*
X0109595Y0078728D01*
X0110595Y0078728D01*
X0110595Y0074728D02*
X0109595Y0074728D01*
X0109595Y0073728D01*
X0109595Y0069728D02*
X0109595Y0068728D01*
X0110595Y0068728D01*
X0105595Y0068728D02*
X0104595Y0068728D01*
X0105595Y0068728D02*
X0105595Y0069728D01*
X0105595Y0073728D02*
X0105595Y0074728D01*
X0104595Y0074728D01*
X0104595Y0078728D02*
X0105595Y0078728D01*
X0105595Y0079728D01*
X0105595Y0083728D02*
X0105595Y0084728D01*
X0104595Y0084728D01*
X0104595Y0088728D02*
X0105595Y0088728D01*
X0105595Y0089728D01*
X0105595Y0093728D02*
X0105595Y0094728D01*
X0104595Y0094728D01*
X0105595Y0103728D02*
X0105595Y0104728D01*
X0104595Y0104728D01*
X0109595Y0104728D02*
X0109595Y0103728D01*
X0109595Y0104728D02*
X0110595Y0104728D01*
X0114595Y0104728D02*
X0115595Y0104728D01*
X0115595Y0103728D01*
X0115595Y0099728D02*
X0115595Y0098728D01*
X0114595Y0098728D01*
X0114595Y0094728D02*
X0115595Y0094728D01*
X0115595Y0093728D01*
X0115595Y0089728D02*
X0115595Y0088728D01*
X0114595Y0088728D01*
X0114595Y0084728D02*
X0115595Y0084728D01*
X0115595Y0083728D01*
X0115595Y0079728D02*
X0115595Y0078728D01*
X0114595Y0078728D01*
X0114595Y0074728D02*
X0115595Y0074728D01*
X0115595Y0073728D01*
X0115595Y0069728D02*
X0115595Y0068728D01*
X0114595Y0068728D01*
X0119595Y0068728D02*
X0119595Y0069728D01*
X0119595Y0068728D02*
X0120595Y0068728D01*
X0124595Y0068728D02*
X0125595Y0068728D01*
X0125595Y0069728D01*
X0129595Y0069728D02*
X0129595Y0068728D01*
X0130595Y0068728D01*
X0134595Y0068728D02*
X0135595Y0068728D01*
X0135595Y0069728D01*
X0135595Y0073728D02*
X0135595Y0074728D01*
X0134595Y0074728D01*
X0130595Y0074728D02*
X0129595Y0074728D01*
X0129595Y0073728D01*
X0125595Y0073728D02*
X0125595Y0074728D01*
X0124595Y0074728D01*
X0120595Y0074728D02*
X0119595Y0074728D01*
X0119595Y0073728D01*
X0119595Y0078728D02*
X0119595Y0079728D01*
X0119595Y0078728D02*
X0120595Y0078728D01*
X0124595Y0078728D02*
X0125595Y0078728D01*
X0125595Y0079728D01*
X0129595Y0079728D02*
X0129595Y0078728D01*
X0130595Y0078728D01*
X0134595Y0078728D02*
X0135595Y0078728D01*
X0135595Y0079728D01*
X0135595Y0083728D02*
X0135595Y0084728D01*
X0134595Y0084728D01*
X0130595Y0084728D02*
X0129595Y0084728D01*
X0129595Y0083728D01*
X0125595Y0083728D02*
X0125595Y0084728D01*
X0124595Y0084728D01*
X0120595Y0084728D02*
X0119595Y0084728D01*
X0119595Y0083728D01*
X0119595Y0088728D02*
X0119595Y0089728D01*
X0119595Y0088728D02*
X0120595Y0088728D01*
X0124595Y0088728D02*
X0125595Y0088728D01*
X0125595Y0089728D01*
X0129595Y0089728D02*
X0129595Y0088728D01*
X0130595Y0088728D01*
X0134595Y0088728D02*
X0135595Y0088728D01*
X0135595Y0089728D01*
X0135595Y0093728D02*
X0135595Y0094728D01*
X0134595Y0094728D01*
X0130595Y0094728D02*
X0129595Y0094728D01*
X0129595Y0093728D01*
X0125595Y0093728D02*
X0125595Y0094728D01*
X0124595Y0094728D01*
X0120595Y0094728D02*
X0119595Y0094728D01*
X0119595Y0093728D01*
X0119595Y0098728D02*
X0119595Y0099728D01*
X0119595Y0098728D02*
X0120595Y0098728D01*
X0124595Y0098728D02*
X0125595Y0098728D01*
X0125595Y0099728D01*
X0129595Y0099728D02*
X0129595Y0098728D01*
X0130595Y0098728D01*
X0134595Y0098728D02*
X0135595Y0098728D01*
X0135595Y0099728D01*
X0135595Y0103728D02*
X0135595Y0104728D01*
X0134595Y0104728D01*
X0130595Y0104728D02*
X0129595Y0104728D01*
X0129595Y0103728D01*
X0125595Y0103728D02*
X0125595Y0104728D01*
X0124595Y0104728D01*
X0120595Y0104728D02*
X0119595Y0104728D01*
X0119595Y0103728D01*
X0119595Y0108728D02*
X0119595Y0109728D01*
X0119595Y0108728D02*
X0120595Y0108728D01*
X0124595Y0108728D02*
X0125595Y0108728D01*
X0125595Y0109728D01*
X0129595Y0109728D02*
X0129595Y0108728D01*
X0130595Y0108728D01*
X0134595Y0108728D02*
X0135595Y0108728D01*
X0135595Y0109728D01*
X0135595Y0113728D02*
X0135595Y0114728D01*
X0134595Y0114728D01*
X0130595Y0114728D02*
X0129595Y0114728D01*
X0129595Y0113728D01*
X0125595Y0113728D02*
X0125595Y0114728D01*
X0124595Y0114728D01*
X0120595Y0114728D02*
X0119595Y0114728D01*
X0119595Y0113728D01*
X0115595Y0113728D02*
X0115595Y0114728D01*
X0114595Y0114728D01*
X0115595Y0109728D02*
X0115595Y0108728D01*
X0114595Y0108728D01*
X0110595Y0108728D02*
X0109595Y0108728D01*
X0109595Y0109728D01*
X0105595Y0109728D02*
X0105595Y0108728D01*
X0104595Y0108728D01*
X0105595Y0113728D02*
X0105595Y0114728D01*
X0104595Y0114728D01*
X0109595Y0114728D02*
X0109595Y0113728D01*
X0109595Y0114728D02*
X0110595Y0114728D01*
X0110595Y0118728D02*
X0109595Y0118728D01*
X0109595Y0119728D01*
X0105595Y0119728D02*
X0105595Y0118728D01*
X0104595Y0118728D01*
X0105595Y0123728D02*
X0105595Y0124728D01*
X0104595Y0124728D01*
X0109595Y0124728D02*
X0109595Y0123728D01*
X0109595Y0124728D02*
X0110595Y0124728D01*
X0114595Y0124728D02*
X0115595Y0124728D01*
X0115595Y0123728D01*
X0115595Y0119728D02*
X0115595Y0118728D01*
X0114595Y0118728D01*
X0119595Y0118728D02*
X0119595Y0119728D01*
X0119595Y0118728D02*
X0120595Y0118728D01*
X0124595Y0118728D02*
X0125595Y0118728D01*
X0125595Y0119728D01*
X0129595Y0119728D02*
X0129595Y0118728D01*
X0130595Y0118728D01*
X0134595Y0118728D02*
X0135595Y0118728D01*
X0135595Y0119728D01*
X0135595Y0123728D02*
X0135595Y0124728D01*
X0134595Y0124728D01*
X0130595Y0124728D02*
X0129595Y0124728D01*
X0129595Y0123728D01*
X0125595Y0123728D02*
X0125595Y0124728D01*
X0124595Y0124728D01*
X0120595Y0124728D02*
X0119595Y0124728D01*
X0119595Y0123728D01*
X0119595Y0128728D02*
X0119595Y0129728D01*
X0119595Y0128728D02*
X0120595Y0128728D01*
X0124595Y0128728D02*
X0125595Y0128728D01*
X0125595Y0129728D01*
X0129595Y0129728D02*
X0129595Y0128728D01*
X0130595Y0128728D01*
X0134595Y0128728D02*
X0135595Y0128728D01*
X0135595Y0129728D01*
X0135595Y0133728D02*
X0135595Y0134728D01*
X0134595Y0134728D01*
X0130595Y0134728D02*
X0129595Y0134728D01*
X0129595Y0133728D01*
X0125595Y0133728D02*
X0125595Y0134728D01*
X0124595Y0134728D01*
X0120595Y0134728D02*
X0119595Y0134728D01*
X0119595Y0133728D01*
X0115595Y0133728D02*
X0115595Y0134728D01*
X0114595Y0134728D01*
X0115595Y0129728D02*
X0115595Y0128728D01*
X0114595Y0128728D01*
X0110595Y0128728D02*
X0109595Y0128728D01*
X0109595Y0129728D01*
X0105595Y0129728D02*
X0105595Y0128728D01*
X0104595Y0128728D01*
X0105595Y0133728D02*
X0105595Y0134728D01*
X0104595Y0134728D01*
X0109595Y0134728D02*
X0109595Y0133728D01*
X0109595Y0134728D02*
X0110595Y0134728D01*
X0110595Y0138728D02*
X0109595Y0138728D01*
X0109595Y0139728D01*
X0105595Y0139728D02*
X0105595Y0138728D01*
X0104595Y0138728D01*
X0105595Y0143728D02*
X0105595Y0144728D01*
X0104595Y0144728D01*
X0109595Y0144728D02*
X0109595Y0143728D01*
X0109595Y0144728D02*
X0110595Y0144728D01*
X0114595Y0144728D02*
X0115595Y0144728D01*
X0115595Y0143728D01*
X0115595Y0139728D02*
X0115595Y0138728D01*
X0114595Y0138728D01*
X0119595Y0138728D02*
X0119595Y0139728D01*
X0119595Y0138728D02*
X0120595Y0138728D01*
X0124595Y0138728D02*
X0125595Y0138728D01*
X0125595Y0139728D01*
X0129595Y0139728D02*
X0129595Y0138728D01*
X0130595Y0138728D01*
X0134595Y0138728D02*
X0135595Y0138728D01*
X0135595Y0139728D01*
X0135595Y0143728D02*
X0135595Y0144728D01*
X0134595Y0144728D01*
X0130595Y0144728D02*
X0129595Y0144728D01*
X0129595Y0143728D01*
X0125595Y0143728D02*
X0125595Y0144728D01*
X0124595Y0144728D01*
X0120595Y0144728D02*
X0119595Y0144728D01*
X0119595Y0143728D01*
X0119595Y0148728D02*
X0119595Y0149728D01*
X0119595Y0148728D02*
X0120595Y0148728D01*
X0124595Y0148728D02*
X0125595Y0148728D01*
X0125595Y0149728D01*
X0129595Y0149728D02*
X0129595Y0148728D01*
X0130595Y0148728D01*
X0134595Y0148728D02*
X0135595Y0148728D01*
X0135595Y0149728D01*
X0135595Y0153728D02*
X0135595Y0154728D01*
X0134595Y0154728D01*
X0130595Y0154728D02*
X0129595Y0154728D01*
X0129595Y0153728D01*
X0125595Y0153728D02*
X0125595Y0154728D01*
X0124595Y0154728D01*
X0120595Y0154728D02*
X0119595Y0154728D01*
X0119595Y0153728D01*
X0115595Y0153728D02*
X0115595Y0154728D01*
X0114595Y0154728D01*
X0115595Y0149728D02*
X0115595Y0148728D01*
X0114595Y0148728D01*
X0110595Y0148728D02*
X0109595Y0148728D01*
X0109595Y0149728D01*
X0105595Y0149728D02*
X0105595Y0148728D01*
X0104595Y0148728D01*
X0105595Y0153728D02*
X0105595Y0154728D01*
X0104595Y0154728D01*
X0109595Y0154728D02*
X0109595Y0153728D01*
X0109595Y0154728D02*
X0110595Y0154728D01*
X0139595Y0154728D02*
X0139595Y0153728D01*
X0139595Y0154728D02*
X0140595Y0154728D01*
X0144595Y0154728D02*
X0145595Y0154728D01*
X0145595Y0153728D01*
X0145595Y0149728D02*
X0145595Y0148728D01*
X0144595Y0148728D01*
X0140595Y0148728D02*
X0139595Y0148728D01*
X0139595Y0149728D01*
X0139595Y0144728D02*
X0139595Y0143728D01*
X0139595Y0144728D02*
X0140595Y0144728D01*
X0144595Y0144728D02*
X0145595Y0144728D01*
X0145595Y0143728D01*
X0145595Y0139728D02*
X0145595Y0138728D01*
X0144595Y0138728D01*
X0140595Y0138728D02*
X0139595Y0138728D01*
X0139595Y0139728D01*
X0139595Y0134728D02*
X0139595Y0133728D01*
X0139595Y0134728D02*
X0140595Y0134728D01*
X0144595Y0134728D02*
X0145595Y0134728D01*
X0145595Y0133728D01*
X0145595Y0129728D02*
X0145595Y0128728D01*
X0144595Y0128728D01*
X0140595Y0128728D02*
X0139595Y0128728D01*
X0139595Y0129728D01*
X0139595Y0124728D02*
X0139595Y0123728D01*
X0139595Y0124728D02*
X0140595Y0124728D01*
X0144595Y0124728D02*
X0145595Y0124728D01*
X0145595Y0123728D01*
X0145595Y0119728D02*
X0145595Y0118728D01*
X0144595Y0118728D01*
X0140595Y0118728D02*
X0139595Y0118728D01*
X0139595Y0119728D01*
X0139595Y0114728D02*
X0139595Y0113728D01*
X0139595Y0114728D02*
X0140595Y0114728D01*
X0144595Y0114728D02*
X0145595Y0114728D01*
X0145595Y0113728D01*
X0145595Y0109728D02*
X0145595Y0108728D01*
X0144595Y0108728D01*
X0140595Y0108728D02*
X0139595Y0108728D01*
X0139595Y0109728D01*
X0139595Y0104728D02*
X0139595Y0103728D01*
X0139595Y0104728D02*
X0140595Y0104728D01*
X0144595Y0104728D02*
X0145595Y0104728D01*
X0145595Y0103728D01*
X0145595Y0099728D02*
X0145595Y0098728D01*
X0144595Y0098728D01*
X0144595Y0094728D02*
X0145595Y0094728D01*
X0145595Y0093728D01*
X0145595Y0089728D02*
X0145595Y0088728D01*
X0144595Y0088728D01*
X0144595Y0084728D02*
X0145595Y0084728D01*
X0145595Y0083728D01*
X0145595Y0079728D02*
X0145595Y0078728D01*
X0144595Y0078728D01*
X0144595Y0074728D02*
X0145595Y0074728D01*
X0145595Y0073728D01*
X0145595Y0069728D02*
X0145595Y0068728D01*
X0144595Y0068728D01*
X0140595Y0068728D02*
X0139595Y0068728D01*
X0139595Y0069728D01*
X0139595Y0073728D02*
X0139595Y0074728D01*
X0140595Y0074728D01*
X0140595Y0078728D02*
X0139595Y0078728D01*
X0139595Y0079728D01*
X0139595Y0083728D02*
X0139595Y0084728D01*
X0140595Y0084728D01*
X0140595Y0088728D02*
X0139595Y0088728D01*
X0139595Y0089728D01*
X0139595Y0093728D02*
X0139595Y0094728D01*
X0140595Y0094728D01*
X0140595Y0098728D02*
X0139595Y0098728D01*
X0139595Y0099728D01*
X0149595Y0099728D02*
X0149595Y0098728D01*
X0150595Y0098728D01*
X0150595Y0094728D02*
X0149595Y0094728D01*
X0149595Y0093728D01*
X0149595Y0089728D02*
X0149595Y0088728D01*
X0150595Y0088728D01*
X0150595Y0084728D02*
X0149595Y0084728D01*
X0149595Y0083728D01*
X0149595Y0079728D02*
X0149595Y0078728D01*
X0150595Y0078728D01*
X0150595Y0074728D02*
X0149595Y0074728D01*
X0149595Y0073728D01*
X0149595Y0069728D02*
X0149595Y0068728D01*
X0150595Y0068728D01*
X0154595Y0068728D02*
X0155595Y0068728D01*
X0155595Y0069728D01*
X0159595Y0069728D02*
X0159595Y0068728D01*
X0160595Y0068728D01*
X0159595Y0073728D02*
X0159595Y0074728D01*
X0160595Y0074728D01*
X0160595Y0078728D02*
X0159595Y0078728D01*
X0159595Y0079728D01*
X0155595Y0079728D02*
X0155595Y0078728D01*
X0154595Y0078728D01*
X0154595Y0074728D02*
X0155595Y0074728D01*
X0155595Y0073728D01*
X0164595Y0074728D02*
X0165595Y0074728D01*
X0165595Y0073728D01*
X0165595Y0069728D02*
X0165595Y0068728D01*
X0164595Y0068728D01*
X0169595Y0068728D02*
X0169595Y0069728D01*
X0169595Y0068728D02*
X0170595Y0068728D01*
X0169595Y0073728D02*
X0169595Y0074728D01*
X0170595Y0074728D01*
X0170595Y0078728D02*
X0169595Y0078728D01*
X0169595Y0079728D01*
X0165595Y0079728D02*
X0165595Y0078728D01*
X0164595Y0078728D01*
X0165595Y0083728D02*
X0165595Y0084728D01*
X0164595Y0084728D01*
X0164595Y0088728D02*
X0165595Y0088728D01*
X0165595Y0089728D01*
X0169595Y0089728D02*
X0169595Y0088728D01*
X0170595Y0088728D01*
X0170595Y0084728D02*
X0169595Y0084728D01*
X0169595Y0083728D01*
X0174595Y0084728D02*
X0175595Y0084728D01*
X0175595Y0083728D01*
X0175595Y0079728D02*
X0175595Y0078728D01*
X0174595Y0078728D01*
X0174595Y0074728D02*
X0175595Y0074728D01*
X0175595Y0073728D01*
X0175595Y0069728D02*
X0175595Y0068728D01*
X0174595Y0068728D01*
X0179595Y0068728D02*
X0179595Y0069728D01*
X0179595Y0068728D02*
X0180595Y0068728D01*
X0184595Y0068728D02*
X0185595Y0068728D01*
X0185595Y0069728D01*
X0189595Y0069728D02*
X0189595Y0068728D01*
X0190595Y0068728D01*
X0194595Y0068728D02*
X0195595Y0068728D01*
X0195595Y0069728D01*
X0195595Y0073728D02*
X0195595Y0074728D01*
X0194595Y0074728D01*
X0190595Y0074728D02*
X0189595Y0074728D01*
X0189595Y0073728D01*
X0185595Y0073728D02*
X0185595Y0074728D01*
X0184595Y0074728D01*
X0180595Y0074728D02*
X0179595Y0074728D01*
X0179595Y0073728D01*
X0179595Y0078728D02*
X0179595Y0079728D01*
X0179595Y0078728D02*
X0180595Y0078728D01*
X0184595Y0078728D02*
X0185595Y0078728D01*
X0185595Y0079728D01*
X0189595Y0079728D02*
X0189595Y0078728D01*
X0190595Y0078728D01*
X0194595Y0078728D02*
X0195595Y0078728D01*
X0195595Y0079728D01*
X0195595Y0083728D02*
X0195595Y0084728D01*
X0194595Y0084728D01*
X0190595Y0084728D02*
X0189595Y0084728D01*
X0189595Y0083728D01*
X0185595Y0083728D02*
X0185595Y0084728D01*
X0184595Y0084728D01*
X0180595Y0084728D02*
X0179595Y0084728D01*
X0179595Y0083728D01*
X0179595Y0088728D02*
X0179595Y0089728D01*
X0179595Y0088728D02*
X0180595Y0088728D01*
X0184595Y0088728D02*
X0185595Y0088728D01*
X0185595Y0089728D01*
X0189595Y0089728D02*
X0189595Y0088728D01*
X0190595Y0088728D01*
X0194595Y0088728D02*
X0195595Y0088728D01*
X0195595Y0089728D01*
X0195595Y0093728D02*
X0195595Y0094728D01*
X0194595Y0094728D01*
X0190595Y0094728D02*
X0189595Y0094728D01*
X0189595Y0093728D01*
X0185595Y0093728D02*
X0185595Y0094728D01*
X0184595Y0094728D01*
X0180595Y0094728D02*
X0179595Y0094728D01*
X0179595Y0093728D01*
X0175595Y0093728D02*
X0175595Y0094728D01*
X0174595Y0094728D01*
X0174595Y0098728D02*
X0175595Y0098728D01*
X0175595Y0099728D01*
X0179595Y0099728D02*
X0179595Y0098728D01*
X0180595Y0098728D01*
X0184595Y0098728D02*
X0185595Y0098728D01*
X0185595Y0099728D01*
X0189595Y0099728D02*
X0189595Y0098728D01*
X0190595Y0098728D01*
X0194595Y0098728D02*
X0195595Y0098728D01*
X0195595Y0099728D01*
X0195595Y0103728D02*
X0195595Y0104728D01*
X0194595Y0104728D01*
X0190595Y0104728D02*
X0189595Y0104728D01*
X0189595Y0103728D01*
X0185595Y0103728D02*
X0185595Y0104728D01*
X0184595Y0104728D01*
X0180595Y0104728D02*
X0179595Y0104728D01*
X0179595Y0103728D01*
X0175595Y0103728D02*
X0175595Y0104728D01*
X0174595Y0104728D01*
X0170595Y0104728D02*
X0169595Y0104728D01*
X0169595Y0103728D01*
X0169595Y0099728D02*
X0169595Y0098728D01*
X0170595Y0098728D01*
X0170595Y0094728D02*
X0169595Y0094728D01*
X0169595Y0093728D01*
X0165595Y0093728D02*
X0165595Y0094728D01*
X0164595Y0094728D01*
X0164595Y0098728D02*
X0165595Y0098728D01*
X0165595Y0099728D01*
X0165595Y0103728D02*
X0165595Y0104728D01*
X0164595Y0104728D01*
X0160595Y0104728D02*
X0159595Y0104728D01*
X0159595Y0103728D01*
X0159595Y0099728D02*
X0159595Y0098728D01*
X0160595Y0098728D01*
X0160595Y0094728D02*
X0159595Y0094728D01*
X0159595Y0093728D01*
X0159595Y0089728D02*
X0159595Y0088728D01*
X0160595Y0088728D01*
X0160595Y0084728D02*
X0159595Y0084728D01*
X0159595Y0083728D01*
X0155595Y0083728D02*
X0155595Y0084728D01*
X0154595Y0084728D01*
X0154595Y0088728D02*
X0155595Y0088728D01*
X0155595Y0089728D01*
X0155595Y0093728D02*
X0155595Y0094728D01*
X0154595Y0094728D01*
X0154595Y0098728D02*
X0155595Y0098728D01*
X0155595Y0099728D01*
X0155595Y0103728D02*
X0155595Y0104728D01*
X0154595Y0104728D01*
X0150595Y0104728D02*
X0149595Y0104728D01*
X0149595Y0103728D01*
X0149595Y0108728D02*
X0149595Y0109728D01*
X0149595Y0108728D02*
X0150595Y0108728D01*
X0154595Y0108728D02*
X0155595Y0108728D01*
X0155595Y0109728D01*
X0159595Y0109728D02*
X0159595Y0108728D01*
X0160595Y0108728D01*
X0159595Y0113728D02*
X0159595Y0114728D01*
X0160595Y0114728D01*
X0155595Y0114728D02*
X0154595Y0114728D01*
X0155595Y0114728D02*
X0155595Y0113728D01*
X0155595Y0118728D02*
X0154595Y0118728D01*
X0155595Y0118728D02*
X0155595Y0119728D01*
X0159595Y0119728D02*
X0159595Y0118728D01*
X0160595Y0118728D01*
X0159595Y0123728D02*
X0159595Y0124728D01*
X0160595Y0124728D01*
X0155595Y0124728D02*
X0154595Y0124728D01*
X0155595Y0124728D02*
X0155595Y0123728D01*
X0155595Y0128728D02*
X0154595Y0128728D01*
X0155595Y0128728D02*
X0155595Y0129728D01*
X0159595Y0129728D02*
X0159595Y0128728D01*
X0160595Y0128728D01*
X0159595Y0133728D02*
X0159595Y0134728D01*
X0160595Y0134728D01*
X0155595Y0134728D02*
X0154595Y0134728D01*
X0155595Y0134728D02*
X0155595Y0133728D01*
X0155595Y0138728D02*
X0154595Y0138728D01*
X0155595Y0138728D02*
X0155595Y0139728D01*
X0159595Y0139728D02*
X0159595Y0138728D01*
X0160595Y0138728D01*
X0159595Y0143728D02*
X0159595Y0144728D01*
X0160595Y0144728D01*
X0155595Y0144728D02*
X0154595Y0144728D01*
X0155595Y0144728D02*
X0155595Y0143728D01*
X0155595Y0148728D02*
X0154595Y0148728D01*
X0155595Y0148728D02*
X0155595Y0149728D01*
X0159595Y0149728D02*
X0159595Y0148728D01*
X0160595Y0148728D01*
X0159595Y0153728D02*
X0159595Y0154728D01*
X0160595Y0154728D01*
X0155595Y0154728D02*
X0154595Y0154728D01*
X0155595Y0154728D02*
X0155595Y0153728D01*
X0150595Y0154728D02*
X0149595Y0154728D01*
X0149595Y0153728D01*
X0149595Y0149728D02*
X0149595Y0148728D01*
X0150595Y0148728D01*
X0150595Y0144728D02*
X0149595Y0144728D01*
X0149595Y0143728D01*
X0149595Y0139728D02*
X0149595Y0138728D01*
X0150595Y0138728D01*
X0150595Y0134728D02*
X0149595Y0134728D01*
X0149595Y0133728D01*
X0149595Y0129728D02*
X0149595Y0128728D01*
X0150595Y0128728D01*
X0150595Y0124728D02*
X0149595Y0124728D01*
X0149595Y0123728D01*
X0149595Y0119728D02*
X0149595Y0118728D01*
X0150595Y0118728D01*
X0150595Y0114728D02*
X0149595Y0114728D01*
X0149595Y0113728D01*
X0164595Y0114728D02*
X0165595Y0114728D01*
X0165595Y0113728D01*
X0165595Y0109728D02*
X0165595Y0108728D01*
X0164595Y0108728D01*
X0169595Y0108728D02*
X0169595Y0109728D01*
X0169595Y0108728D02*
X0170595Y0108728D01*
X0169595Y0113728D02*
X0169595Y0114728D01*
X0170595Y0114728D01*
X0174595Y0114728D02*
X0175595Y0114728D01*
X0175595Y0113728D01*
X0175595Y0109728D02*
X0175595Y0108728D01*
X0174595Y0108728D01*
X0179595Y0108728D02*
X0179595Y0109728D01*
X0179595Y0108728D02*
X0180595Y0108728D01*
X0184595Y0108728D02*
X0185595Y0108728D01*
X0185595Y0109728D01*
X0189595Y0109728D02*
X0189595Y0108728D01*
X0190595Y0108728D01*
X0194595Y0108728D02*
X0195595Y0108728D01*
X0195595Y0109728D01*
X0195595Y0113728D02*
X0195595Y0114728D01*
X0194595Y0114728D01*
X0190595Y0114728D02*
X0189595Y0114728D01*
X0189595Y0113728D01*
X0185595Y0113728D02*
X0185595Y0114728D01*
X0184595Y0114728D01*
X0180595Y0114728D02*
X0179595Y0114728D01*
X0179595Y0113728D01*
X0179595Y0118728D02*
X0179595Y0119728D01*
X0179595Y0118728D02*
X0180595Y0118728D01*
X0184595Y0118728D02*
X0185595Y0118728D01*
X0185595Y0119728D01*
X0189595Y0119728D02*
X0189595Y0118728D01*
X0190595Y0118728D01*
X0194595Y0118728D02*
X0195595Y0118728D01*
X0195595Y0119728D01*
X0195595Y0123728D02*
X0195595Y0124728D01*
X0194595Y0124728D01*
X0190595Y0124728D02*
X0189595Y0124728D01*
X0189595Y0123728D01*
X0185595Y0123728D02*
X0185595Y0124728D01*
X0184595Y0124728D01*
X0180595Y0124728D02*
X0179595Y0124728D01*
X0179595Y0123728D01*
X0175595Y0123728D02*
X0175595Y0124728D01*
X0174595Y0124728D01*
X0175595Y0119728D02*
X0175595Y0118728D01*
X0174595Y0118728D01*
X0170595Y0118728D02*
X0169595Y0118728D01*
X0169595Y0119728D01*
X0165595Y0119728D02*
X0165595Y0118728D01*
X0164595Y0118728D01*
X0165595Y0123728D02*
X0165595Y0124728D01*
X0164595Y0124728D01*
X0169595Y0124728D02*
X0169595Y0123728D01*
X0169595Y0124728D02*
X0170595Y0124728D01*
X0170595Y0128728D02*
X0169595Y0128728D01*
X0169595Y0129728D01*
X0165595Y0129728D02*
X0165595Y0128728D01*
X0164595Y0128728D01*
X0165595Y0133728D02*
X0165595Y0134728D01*
X0164595Y0134728D01*
X0169595Y0134728D02*
X0169595Y0133728D01*
X0169595Y0134728D02*
X0170595Y0134728D01*
X0174595Y0134728D02*
X0175595Y0134728D01*
X0175595Y0133728D01*
X0175595Y0129728D02*
X0175595Y0128728D01*
X0174595Y0128728D01*
X0179595Y0128728D02*
X0179595Y0129728D01*
X0179595Y0128728D02*
X0180595Y0128728D01*
X0184595Y0128728D02*
X0185595Y0128728D01*
X0185595Y0129728D01*
X0189595Y0129728D02*
X0189595Y0128728D01*
X0190595Y0128728D01*
X0194595Y0128728D02*
X0195595Y0128728D01*
X0195595Y0129728D01*
X0195595Y0133728D02*
X0195595Y0134728D01*
X0194595Y0134728D01*
X0190595Y0134728D02*
X0189595Y0134728D01*
X0189595Y0133728D01*
X0185595Y0133728D02*
X0185595Y0134728D01*
X0184595Y0134728D01*
X0180595Y0134728D02*
X0179595Y0134728D01*
X0179595Y0133728D01*
X0179595Y0138728D02*
X0179595Y0139728D01*
X0179595Y0138728D02*
X0180595Y0138728D01*
X0184595Y0138728D02*
X0185595Y0138728D01*
X0185595Y0139728D01*
X0189595Y0139728D02*
X0189595Y0138728D01*
X0190595Y0138728D01*
X0194595Y0138728D02*
X0195595Y0138728D01*
X0195595Y0139728D01*
X0195595Y0143728D02*
X0195595Y0144728D01*
X0194595Y0144728D01*
X0190595Y0144728D02*
X0189595Y0144728D01*
X0189595Y0143728D01*
X0185595Y0143728D02*
X0185595Y0144728D01*
X0184595Y0144728D01*
X0180595Y0144728D02*
X0179595Y0144728D01*
X0179595Y0143728D01*
X0175595Y0143728D02*
X0175595Y0144728D01*
X0174595Y0144728D01*
X0175595Y0139728D02*
X0175595Y0138728D01*
X0174595Y0138728D01*
X0170595Y0138728D02*
X0169595Y0138728D01*
X0169595Y0139728D01*
X0165595Y0139728D02*
X0165595Y0138728D01*
X0164595Y0138728D01*
X0165595Y0143728D02*
X0165595Y0144728D01*
X0164595Y0144728D01*
X0169595Y0144728D02*
X0169595Y0143728D01*
X0169595Y0144728D02*
X0170595Y0144728D01*
X0170595Y0148728D02*
X0169595Y0148728D01*
X0169595Y0149728D01*
X0165595Y0149728D02*
X0165595Y0148728D01*
X0164595Y0148728D01*
X0165595Y0153728D02*
X0165595Y0154728D01*
X0164595Y0154728D01*
X0169595Y0154728D02*
X0169595Y0153728D01*
X0169595Y0154728D02*
X0170595Y0154728D01*
X0174595Y0154728D02*
X0175595Y0154728D01*
X0175595Y0153728D01*
X0175595Y0149728D02*
X0175595Y0148728D01*
X0174595Y0148728D01*
X0179595Y0148728D02*
X0179595Y0149728D01*
X0179595Y0148728D02*
X0180595Y0148728D01*
X0184595Y0148728D02*
X0185595Y0148728D01*
X0185595Y0149728D01*
X0189595Y0149728D02*
X0189595Y0148728D01*
X0190595Y0148728D01*
X0194595Y0148728D02*
X0195595Y0148728D01*
X0195595Y0149728D01*
X0195595Y0153728D02*
X0195595Y0154728D01*
X0194595Y0154728D01*
X0190595Y0154728D02*
X0189595Y0154728D01*
X0189595Y0153728D01*
X0185595Y0153728D02*
X0185595Y0154728D01*
X0184595Y0154728D01*
X0180595Y0154728D02*
X0179595Y0154728D01*
X0179595Y0153728D01*
X0199595Y0153728D02*
X0199595Y0154728D01*
X0200595Y0154728D01*
X0204595Y0154728D02*
X0205595Y0154728D01*
X0205595Y0153728D01*
X0205595Y0149728D02*
X0205595Y0148728D01*
X0204595Y0148728D01*
X0200595Y0148728D02*
X0199595Y0148728D01*
X0199595Y0149728D01*
X0199595Y0144728D02*
X0199595Y0143728D01*
X0199595Y0144728D02*
X0200595Y0144728D01*
X0204595Y0144728D02*
X0205595Y0144728D01*
X0205595Y0143728D01*
X0205595Y0139728D02*
X0205595Y0138728D01*
X0204595Y0138728D01*
X0200595Y0138728D02*
X0199595Y0138728D01*
X0199595Y0139728D01*
X0199595Y0134728D02*
X0199595Y0133728D01*
X0199595Y0134728D02*
X0200595Y0134728D01*
X0204595Y0134728D02*
X0205595Y0134728D01*
X0205595Y0133728D01*
X0205595Y0129728D02*
X0205595Y0128728D01*
X0204595Y0128728D01*
X0200595Y0128728D02*
X0199595Y0128728D01*
X0199595Y0129728D01*
X0199595Y0124728D02*
X0199595Y0123728D01*
X0199595Y0124728D02*
X0200595Y0124728D01*
X0204595Y0124728D02*
X0205595Y0124728D01*
X0205595Y0123728D01*
X0205595Y0119728D02*
X0205595Y0118728D01*
X0204595Y0118728D01*
X0200595Y0118728D02*
X0199595Y0118728D01*
X0199595Y0119728D01*
X0199595Y0114728D02*
X0199595Y0113728D01*
X0199595Y0114728D02*
X0200595Y0114728D01*
X0204595Y0114728D02*
X0205595Y0114728D01*
X0205595Y0113728D01*
X0205595Y0109728D02*
X0205595Y0108728D01*
X0204595Y0108728D01*
X0200595Y0108728D02*
X0199595Y0108728D01*
X0199595Y0109728D01*
X0199595Y0104728D02*
X0199595Y0103728D01*
X0199595Y0104728D02*
X0200595Y0104728D01*
X0204595Y0104728D02*
X0205595Y0104728D01*
X0205595Y0103728D01*
X0205595Y0099728D02*
X0205595Y0098728D01*
X0204595Y0098728D01*
X0204595Y0094728D02*
X0205595Y0094728D01*
X0205595Y0093728D01*
X0205595Y0089728D02*
X0205595Y0088728D01*
X0204595Y0088728D01*
X0204595Y0084728D02*
X0205595Y0084728D01*
X0205595Y0083728D01*
X0205595Y0079728D02*
X0205595Y0078728D01*
X0204595Y0078728D01*
X0204595Y0074728D02*
X0205595Y0074728D01*
X0205595Y0073728D01*
X0205595Y0069728D02*
X0205595Y0068728D01*
X0204595Y0068728D01*
X0200595Y0068728D02*
X0199595Y0068728D01*
X0199595Y0069728D01*
X0199595Y0073728D02*
X0199595Y0074728D01*
X0200595Y0074728D01*
X0200595Y0078728D02*
X0199595Y0078728D01*
X0199595Y0079728D01*
X0199595Y0083728D02*
X0199595Y0084728D01*
X0200595Y0084728D01*
X0200595Y0088728D02*
X0199595Y0088728D01*
X0199595Y0089728D01*
X0199595Y0093728D02*
X0199595Y0094728D01*
X0200595Y0094728D01*
X0200595Y0098728D02*
X0199595Y0098728D01*
X0199595Y0099728D01*
X0209595Y0099728D02*
X0209595Y0098728D01*
X0210595Y0098728D01*
X0210595Y0094728D02*
X0209595Y0094728D01*
X0209595Y0093728D01*
X0209595Y0089728D02*
X0209595Y0088728D01*
X0210595Y0088728D01*
X0210595Y0084728D02*
X0209595Y0084728D01*
X0209595Y0083728D01*
X0209595Y0079728D02*
X0209595Y0078728D01*
X0210595Y0078728D01*
X0210595Y0074728D02*
X0209595Y0074728D01*
X0209595Y0073728D01*
X0209595Y0069728D02*
X0209595Y0068728D01*
X0210595Y0068728D01*
X0214595Y0068728D02*
X0215595Y0068728D01*
X0215595Y0069728D01*
X0215595Y0073728D02*
X0215595Y0074728D01*
X0214595Y0074728D01*
X0214595Y0078728D02*
X0215595Y0078728D01*
X0215595Y0079728D01*
X0215595Y0083728D02*
X0215595Y0084728D01*
X0214595Y0084728D01*
X0214595Y0088728D02*
X0215595Y0088728D01*
X0215595Y0089728D01*
X0215595Y0093728D02*
X0215595Y0094728D01*
X0214595Y0094728D01*
X0214595Y0098728D02*
X0215595Y0098728D01*
X0215595Y0099728D01*
X0219595Y0099728D02*
X0219595Y0098728D01*
X0220595Y0098728D01*
X0224595Y0098728D02*
X0225595Y0098728D01*
X0225595Y0099728D01*
X0225595Y0103728D02*
X0225595Y0104728D01*
X0224595Y0104728D01*
X0220595Y0104728D02*
X0219595Y0104728D01*
X0219595Y0103728D01*
X0215595Y0103728D02*
X0215595Y0104728D01*
X0214595Y0104728D01*
X0210595Y0104728D02*
X0209595Y0104728D01*
X0209595Y0103728D01*
X0209595Y0108728D02*
X0209595Y0109728D01*
X0209595Y0108728D02*
X0210595Y0108728D01*
X0214595Y0108728D02*
X0215595Y0108728D01*
X0215595Y0109728D01*
X0219595Y0109728D02*
X0219595Y0108728D01*
X0220595Y0108728D01*
X0224595Y0108728D02*
X0225595Y0108728D01*
X0225595Y0109728D01*
X0229595Y0109728D02*
X0229595Y0108728D01*
X0230595Y0108728D01*
X0229595Y0113728D02*
X0229595Y0114728D01*
X0230595Y0114728D01*
X0225595Y0114728D02*
X0224595Y0114728D01*
X0225595Y0114728D02*
X0225595Y0113728D01*
X0225595Y0118728D02*
X0224595Y0118728D01*
X0225595Y0118728D02*
X0225595Y0119728D01*
X0229595Y0119728D02*
X0229595Y0118728D01*
X0230595Y0118728D01*
X0229595Y0123728D02*
X0229595Y0124728D01*
X0230595Y0124728D01*
X0225595Y0124728D02*
X0224595Y0124728D01*
X0225595Y0124728D02*
X0225595Y0123728D01*
X0225595Y0128728D02*
X0224595Y0128728D01*
X0225595Y0128728D02*
X0225595Y0129728D01*
X0229595Y0129728D02*
X0229595Y0128728D01*
X0230595Y0128728D01*
X0229595Y0133728D02*
X0229595Y0134728D01*
X0230595Y0134728D01*
X0225595Y0134728D02*
X0224595Y0134728D01*
X0225595Y0134728D02*
X0225595Y0133728D01*
X0225595Y0138728D02*
X0224595Y0138728D01*
X0225595Y0138728D02*
X0225595Y0139728D01*
X0229595Y0139728D02*
X0229595Y0138728D01*
X0230595Y0138728D01*
X0229595Y0143728D02*
X0229595Y0144728D01*
X0230595Y0144728D01*
X0225595Y0144728D02*
X0224595Y0144728D01*
X0225595Y0144728D02*
X0225595Y0143728D01*
X0225595Y0148728D02*
X0224595Y0148728D01*
X0225595Y0148728D02*
X0225595Y0149728D01*
X0229595Y0149728D02*
X0229595Y0148728D01*
X0230595Y0148728D01*
X0229595Y0153728D02*
X0229595Y0154728D01*
X0230595Y0154728D01*
X0225595Y0154728D02*
X0224595Y0154728D01*
X0225595Y0154728D02*
X0225595Y0153728D01*
X0220595Y0154728D02*
X0219595Y0154728D01*
X0219595Y0153728D01*
X0219595Y0149728D02*
X0219595Y0148728D01*
X0220595Y0148728D01*
X0215595Y0148728D02*
X0214595Y0148728D01*
X0215595Y0148728D02*
X0215595Y0149728D01*
X0215595Y0153728D02*
X0215595Y0154728D01*
X0214595Y0154728D01*
X0210595Y0154728D02*
X0209595Y0154728D01*
X0209595Y0153728D01*
X0209595Y0149728D02*
X0209595Y0148728D01*
X0210595Y0148728D01*
X0210595Y0144728D02*
X0209595Y0144728D01*
X0209595Y0143728D01*
X0209595Y0139728D02*
X0209595Y0138728D01*
X0210595Y0138728D01*
X0214595Y0138728D02*
X0215595Y0138728D01*
X0215595Y0139728D01*
X0219595Y0139728D02*
X0219595Y0138728D01*
X0220595Y0138728D01*
X0219595Y0143728D02*
X0219595Y0144728D01*
X0220595Y0144728D01*
X0215595Y0144728D02*
X0214595Y0144728D01*
X0215595Y0144728D02*
X0215595Y0143728D01*
X0215595Y0134728D02*
X0214595Y0134728D01*
X0215595Y0134728D02*
X0215595Y0133728D01*
X0215595Y0129728D02*
X0215595Y0128728D01*
X0214595Y0128728D01*
X0210595Y0128728D02*
X0209595Y0128728D01*
X0209595Y0129728D01*
X0209595Y0133728D02*
X0209595Y0134728D01*
X0210595Y0134728D01*
X0219595Y0134728D02*
X0219595Y0133728D01*
X0219595Y0134728D02*
X0220595Y0134728D01*
X0219595Y0129728D02*
X0219595Y0128728D01*
X0220595Y0128728D01*
X0220595Y0124728D02*
X0219595Y0124728D01*
X0219595Y0123728D01*
X0219595Y0119728D02*
X0219595Y0118728D01*
X0220595Y0118728D01*
X0215595Y0118728D02*
X0214595Y0118728D01*
X0215595Y0118728D02*
X0215595Y0119728D01*
X0215595Y0123728D02*
X0215595Y0124728D01*
X0214595Y0124728D01*
X0210595Y0124728D02*
X0209595Y0124728D01*
X0209595Y0123728D01*
X0209595Y0119728D02*
X0209595Y0118728D01*
X0210595Y0118728D01*
X0210595Y0114728D02*
X0209595Y0114728D01*
X0209595Y0113728D01*
X0214595Y0114728D02*
X0215595Y0114728D01*
X0215595Y0113728D01*
X0219595Y0113728D02*
X0219595Y0114728D01*
X0220595Y0114728D01*
X0234595Y0114728D02*
X0235595Y0114728D01*
X0235595Y0113728D01*
X0235595Y0109728D02*
X0235595Y0108728D01*
X0234595Y0108728D01*
X0234595Y0118728D02*
X0235595Y0118728D01*
X0235595Y0119728D01*
X0235595Y0123728D02*
X0235595Y0124728D01*
X0234595Y0124728D01*
X0234595Y0128728D02*
X0235595Y0128728D01*
X0235595Y0129728D01*
X0235595Y0133728D02*
X0235595Y0134728D01*
X0234595Y0134728D01*
X0234595Y0138728D02*
X0235595Y0138728D01*
X0235595Y0139728D01*
X0235595Y0143728D02*
X0235595Y0144728D01*
X0234595Y0144728D01*
X0234595Y0148728D02*
X0235595Y0148728D01*
X0235595Y0149728D01*
X0235595Y0153728D02*
X0235595Y0154728D01*
X0234595Y0154728D01*
X0234595Y0168728D02*
X0235595Y0168728D01*
X0235595Y0169728D01*
X0239595Y0169728D02*
X0239595Y0168728D01*
X0240595Y0168728D01*
X0244595Y0168728D02*
X0245595Y0168728D01*
X0245595Y0169728D01*
X0245595Y0173728D02*
X0245595Y0174728D01*
X0244595Y0174728D01*
X0240595Y0174728D02*
X0239595Y0174728D01*
X0239595Y0173728D01*
X0235595Y0173728D02*
X0235595Y0174728D01*
X0234595Y0174728D01*
X0234595Y0178728D02*
X0235595Y0178728D01*
X0235595Y0179728D01*
X0239595Y0179728D02*
X0239595Y0178728D01*
X0240595Y0178728D01*
X0244595Y0178728D02*
X0245595Y0178728D01*
X0245595Y0179728D01*
X0245595Y0183728D02*
X0245595Y0184728D01*
X0244595Y0184728D01*
X0240595Y0184728D02*
X0239595Y0184728D01*
X0239595Y0183728D01*
X0235595Y0183728D02*
X0235595Y0184728D01*
X0234595Y0184728D01*
X0234595Y0188728D02*
X0235595Y0188728D01*
X0235595Y0189728D01*
X0239595Y0189728D02*
X0239595Y0188728D01*
X0240595Y0188728D01*
X0244595Y0188728D02*
X0245595Y0188728D01*
X0245595Y0189728D01*
X0245595Y0193728D02*
X0245595Y0194728D01*
X0244595Y0194728D01*
X0240595Y0194728D02*
X0239595Y0194728D01*
X0239595Y0193728D01*
X0235595Y0193728D02*
X0235595Y0194728D01*
X0234595Y0194728D01*
X0234595Y0198728D02*
X0235595Y0198728D01*
X0235595Y0199728D01*
X0239595Y0199728D02*
X0239595Y0198728D01*
X0240595Y0198728D01*
X0244595Y0198728D02*
X0245595Y0198728D01*
X0245595Y0199728D01*
X0245595Y0203728D02*
X0245595Y0204728D01*
X0244595Y0204728D01*
X0240595Y0204728D02*
X0239595Y0204728D01*
X0239595Y0203728D01*
X0235595Y0203728D02*
X0235595Y0204728D01*
X0234595Y0204728D01*
X0234595Y0208728D02*
X0235595Y0208728D01*
X0235595Y0209728D01*
X0239595Y0209728D02*
X0239595Y0208728D01*
X0240595Y0208728D01*
X0244595Y0208728D02*
X0245595Y0208728D01*
X0245595Y0209728D01*
X0245595Y0213728D02*
X0245595Y0214728D01*
X0244595Y0214728D01*
X0240595Y0214728D02*
X0239595Y0214728D01*
X0239595Y0213728D01*
X0235595Y0213728D02*
X0235595Y0214728D01*
X0234595Y0214728D01*
X0234595Y0218728D02*
X0235595Y0218728D01*
X0235595Y0219728D01*
X0239595Y0219728D02*
X0239595Y0218728D01*
X0240595Y0218728D01*
X0244595Y0218728D02*
X0245595Y0218728D01*
X0245595Y0219728D01*
X0245595Y0223728D02*
X0245595Y0224728D01*
X0244595Y0224728D01*
X0240595Y0224728D02*
X0239595Y0224728D01*
X0239595Y0223728D01*
X0235595Y0223728D02*
X0235595Y0224728D01*
X0234595Y0224728D01*
X0234595Y0228728D02*
X0235595Y0228728D01*
X0235595Y0229728D01*
X0239595Y0229728D02*
X0239595Y0228728D01*
X0240595Y0228728D01*
X0244595Y0228728D02*
X0245595Y0228728D01*
X0245595Y0229728D01*
X0245595Y0233728D02*
X0245595Y0234728D01*
X0244595Y0234728D01*
X0244595Y0238728D02*
X0245595Y0238728D01*
X0245595Y0239728D01*
X0252595Y0239228D02*
X0254595Y0239228D01*
X0252595Y0239228D02*
X0252595Y0237228D01*
X0252595Y0231228D02*
X0252595Y0229228D01*
X0254595Y0229228D01*
X0260595Y0229228D02*
X0262595Y0229228D01*
X0262595Y0231228D01*
X0267595Y0231228D02*
X0267595Y0229228D01*
X0269595Y0229228D01*
X0275595Y0229228D02*
X0277595Y0229228D01*
X0277595Y0231228D01*
X0277595Y0237228D02*
X0277595Y0239228D01*
X0275595Y0239228D01*
X0269595Y0239228D02*
X0267595Y0239228D01*
X0267595Y0237228D01*
X0262595Y0237228D02*
X0262595Y0239228D01*
X0260595Y0239228D01*
X0260595Y0249228D02*
X0262595Y0249228D01*
X0262595Y0251228D01*
X0267595Y0251228D02*
X0267595Y0249228D01*
X0269595Y0249228D01*
X0275595Y0249228D02*
X0277595Y0249228D01*
X0277595Y0251228D01*
X0277595Y0257228D02*
X0277595Y0259228D01*
X0275595Y0259228D01*
X0269595Y0259228D02*
X0267595Y0259228D01*
X0267595Y0257228D01*
X0262595Y0257228D02*
X0262595Y0259228D01*
X0260595Y0259228D01*
X0254595Y0259228D02*
X0252595Y0259228D01*
X0252595Y0257228D01*
X0252595Y0251228D02*
X0252595Y0249228D01*
X0254595Y0249228D01*
X0254595Y0219228D02*
X0252595Y0219228D01*
X0252595Y0217228D01*
X0252595Y0211228D02*
X0252595Y0209228D01*
X0254595Y0209228D01*
X0260595Y0209228D02*
X0262595Y0209228D01*
X0262595Y0211228D01*
X0267595Y0211228D02*
X0267595Y0209228D01*
X0269595Y0209228D01*
X0275595Y0209228D02*
X0277595Y0209228D01*
X0277595Y0211228D01*
X0277595Y0217228D02*
X0277595Y0219228D01*
X0275595Y0219228D01*
X0269595Y0219228D02*
X0267595Y0219228D01*
X0267595Y0217228D01*
X0262595Y0217228D02*
X0262595Y0219228D01*
X0260595Y0219228D01*
X0260595Y0199228D02*
X0262595Y0199228D01*
X0262595Y0197228D01*
X0267595Y0197228D02*
X0267595Y0199228D01*
X0269595Y0199228D01*
X0275595Y0199228D02*
X0277595Y0199228D01*
X0277595Y0197228D01*
X0277595Y0191228D02*
X0277595Y0189228D01*
X0275595Y0189228D01*
X0269595Y0189228D02*
X0267595Y0189228D01*
X0267595Y0191228D01*
X0262595Y0191228D02*
X0262595Y0189228D01*
X0260595Y0189228D01*
X0254595Y0189228D02*
X0252595Y0189228D01*
X0252595Y0191228D01*
X0252595Y0197228D02*
X0252595Y0199228D01*
X0254595Y0199228D01*
X0254595Y0179228D02*
X0252595Y0179228D01*
X0252595Y0177228D01*
X0252595Y0171228D02*
X0252595Y0169228D01*
X0254595Y0169228D01*
X0260595Y0169228D02*
X0262595Y0169228D01*
X0262595Y0171228D01*
X0267595Y0171228D02*
X0267595Y0169228D01*
X0269595Y0169228D01*
X0275595Y0169228D02*
X0277595Y0169228D01*
X0277595Y0171228D01*
X0277595Y0177228D02*
X0277595Y0179228D01*
X0275595Y0179228D01*
X0269595Y0179228D02*
X0267595Y0179228D01*
X0267595Y0177228D01*
X0262595Y0177228D02*
X0262595Y0179228D01*
X0260595Y0179228D01*
X0260595Y0159228D02*
X0262595Y0159228D01*
X0262595Y0157228D01*
X0267595Y0157228D02*
X0267595Y0159228D01*
X0269595Y0159228D01*
X0275595Y0159228D02*
X0277595Y0159228D01*
X0277595Y0157228D01*
X0277595Y0151228D02*
X0277595Y0149228D01*
X0275595Y0149228D01*
X0269595Y0149228D02*
X0267595Y0149228D01*
X0267595Y0151228D01*
X0262595Y0151228D02*
X0262595Y0149228D01*
X0260595Y0149228D01*
X0254595Y0149228D02*
X0252595Y0149228D01*
X0252595Y0151228D01*
X0252595Y0157228D02*
X0252595Y0159228D01*
X0254595Y0159228D01*
X0225595Y0198728D02*
X0224595Y0198728D01*
X0225595Y0198728D02*
X0225595Y0199728D01*
X0225595Y0203728D02*
X0225595Y0204728D01*
X0224595Y0204728D01*
X0220595Y0204728D02*
X0219595Y0204728D01*
X0219595Y0203728D01*
X0219595Y0199728D02*
X0219595Y0198728D01*
X0220595Y0198728D01*
X0220595Y0208728D02*
X0219595Y0208728D01*
X0219595Y0209728D01*
X0219595Y0213728D02*
X0219595Y0214728D01*
X0220595Y0214728D01*
X0224595Y0214728D02*
X0225595Y0214728D01*
X0225595Y0213728D01*
X0225595Y0209728D02*
X0225595Y0208728D01*
X0224595Y0208728D01*
X0224595Y0218728D02*
X0225595Y0218728D01*
X0225595Y0219728D01*
X0225595Y0223728D02*
X0225595Y0224728D01*
X0224595Y0224728D01*
X0220595Y0224728D02*
X0219595Y0224728D01*
X0219595Y0223728D01*
X0219595Y0219728D02*
X0219595Y0218728D01*
X0220595Y0218728D01*
X0220595Y0228728D02*
X0219595Y0228728D01*
X0219595Y0229728D01*
X0224595Y0228728D02*
X0225595Y0228728D01*
X0225595Y0229728D01*
X0219595Y0253728D02*
X0219595Y0254728D01*
X0220595Y0254728D01*
X0219341Y0292028D02*
X0219341Y0296299D01*
X0222543Y0296299D01*
X0223611Y0295231D01*
X0223611Y0292028D01*
X0225786Y0292028D02*
X0228989Y0292028D01*
X0230056Y0293096D01*
X0228989Y0294163D01*
X0226854Y0294163D01*
X0225786Y0295231D01*
X0226854Y0296299D01*
X0230056Y0296299D01*
X0232232Y0295231D02*
X0232232Y0293096D01*
X0233299Y0292028D01*
X0235434Y0292028D01*
X0236502Y0294163D02*
X0232232Y0294163D01*
X0232232Y0295231D02*
X0233299Y0296299D01*
X0235434Y0296299D01*
X0236502Y0295231D01*
X0236502Y0294163D01*
X0238677Y0292028D02*
X0238677Y0296299D01*
X0241880Y0296299D01*
X0242947Y0295231D01*
X0242947Y0292028D01*
X0245123Y0292028D02*
X0248325Y0292028D01*
X0249393Y0293096D01*
X0248325Y0294163D01*
X0246190Y0294163D01*
X0245123Y0295231D01*
X0246190Y0296299D01*
X0249393Y0296299D01*
X0251568Y0295231D02*
X0251568Y0293096D01*
X0252636Y0292028D01*
X0254771Y0292028D01*
X0255838Y0294163D02*
X0251568Y0294163D01*
X0251568Y0295231D02*
X0252636Y0296299D01*
X0254771Y0296299D01*
X0255838Y0295231D01*
X0255838Y0294163D01*
X0258014Y0293096D02*
X0259081Y0293096D01*
X0259081Y0292028D01*
X0258014Y0292028D01*
X0258014Y0293096D01*
X0261236Y0292028D02*
X0261236Y0296299D01*
X0264439Y0296299D01*
X0265507Y0295231D01*
X0265507Y0292028D01*
X0267682Y0293096D02*
X0267682Y0295231D01*
X0268749Y0296299D01*
X0270885Y0296299D01*
X0271952Y0295231D01*
X0271952Y0293096D01*
X0270885Y0292028D01*
X0268749Y0292028D01*
X0267682Y0293096D01*
X0217165Y0292028D02*
X0212895Y0296299D01*
X0217165Y0296299D02*
X0212895Y0292028D01*
X0075595Y0279728D02*
X0075595Y0278728D01*
X0074595Y0278728D01*
X0074595Y0274728D02*
X0075595Y0274728D01*
X0075595Y0273728D01*
X0175595Y0089728D02*
X0175595Y0088728D01*
X0174595Y0088728D01*
X0174595Y0054728D02*
X0175595Y0054728D01*
X0175595Y0053728D01*
X0175595Y0049728D02*
X0175595Y0048728D01*
X0174595Y0048728D01*
X0174595Y0044728D02*
X0175595Y0044728D01*
X0175595Y0043728D01*
X0175595Y0039728D02*
X0175595Y0038728D01*
X0174595Y0038728D01*
X0179595Y0038728D02*
X0179595Y0039728D01*
X0179595Y0038728D02*
X0180595Y0038728D01*
X0184595Y0038728D02*
X0185595Y0038728D01*
X0185595Y0039728D01*
X0189595Y0039728D02*
X0189595Y0038728D01*
X0190595Y0038728D01*
X0194595Y0038728D02*
X0195595Y0038728D01*
X0195595Y0039728D01*
X0195595Y0043728D02*
X0195595Y0044728D01*
X0194595Y0044728D01*
X0190595Y0044728D02*
X0189595Y0044728D01*
X0189595Y0043728D01*
X0185595Y0043728D02*
X0185595Y0044728D01*
X0184595Y0044728D01*
X0180595Y0044728D02*
X0179595Y0044728D01*
X0179595Y0043728D01*
X0179595Y0048728D02*
X0179595Y0049728D01*
X0179595Y0048728D02*
X0180595Y0048728D01*
X0184595Y0048728D02*
X0185595Y0048728D01*
X0185595Y0049728D01*
X0189595Y0049728D02*
X0189595Y0048728D01*
X0190595Y0048728D01*
X0194595Y0048728D02*
X0195595Y0048728D01*
X0195595Y0049728D01*
X0195595Y0053728D02*
X0195595Y0054728D01*
X0194595Y0054728D01*
X0190595Y0054728D02*
X0189595Y0054728D01*
X0189595Y0053728D01*
X0185595Y0053728D02*
X0185595Y0054728D01*
X0184595Y0054728D01*
X0180595Y0054728D02*
X0179595Y0054728D01*
X0179595Y0053728D01*
X0170595Y0054728D02*
X0169595Y0054728D01*
X0169595Y0053728D01*
X0169595Y0049728D02*
X0169595Y0048728D01*
X0170595Y0048728D01*
X0170595Y0044728D02*
X0169595Y0044728D01*
X0169595Y0043728D01*
X0169595Y0039728D02*
X0169595Y0038728D01*
X0170595Y0038728D01*
X0165595Y0038728D02*
X0164595Y0038728D01*
X0165595Y0038728D02*
X0165595Y0039728D01*
X0165595Y0043728D02*
X0165595Y0044728D01*
X0164595Y0044728D01*
X0164595Y0048728D02*
X0165595Y0048728D01*
X0165595Y0049728D01*
X0165595Y0053728D02*
X0165595Y0054728D01*
X0164595Y0054728D01*
X0160595Y0054728D02*
X0159595Y0054728D01*
X0159595Y0053728D01*
X0159595Y0049728D02*
X0159595Y0048728D01*
X0160595Y0048728D01*
X0160595Y0044728D02*
X0159595Y0044728D01*
X0159595Y0043728D01*
X0159595Y0039728D02*
X0159595Y0038728D01*
X0160595Y0038728D01*
X0155595Y0038728D02*
X0154595Y0038728D01*
X0155595Y0038728D02*
X0155595Y0039728D01*
X0155595Y0043728D02*
X0155595Y0044728D01*
X0154595Y0044728D01*
X0150595Y0044728D02*
X0149595Y0044728D01*
X0149595Y0043728D01*
X0149595Y0039728D02*
X0149595Y0038728D01*
X0150595Y0038728D01*
X0145595Y0038728D02*
X0144595Y0038728D01*
X0145595Y0038728D02*
X0145595Y0039728D01*
X0145595Y0043728D02*
X0145595Y0044728D01*
X0144595Y0044728D01*
X0140595Y0044728D02*
X0139595Y0044728D01*
X0139595Y0043728D01*
X0139595Y0039728D02*
X0139595Y0038728D01*
X0140595Y0038728D01*
X0135595Y0038728D02*
X0134595Y0038728D01*
X0135595Y0038728D02*
X0135595Y0039728D01*
X0135595Y0043728D02*
X0135595Y0044728D01*
X0134595Y0044728D01*
X0130595Y0044728D02*
X0129595Y0044728D01*
X0129595Y0043728D01*
X0129595Y0039728D02*
X0129595Y0038728D01*
X0130595Y0038728D01*
X0125595Y0038728D02*
X0124595Y0038728D01*
X0125595Y0038728D02*
X0125595Y0039728D01*
X0125595Y0043728D02*
X0125595Y0044728D01*
X0124595Y0044728D01*
X0120595Y0044728D02*
X0119595Y0044728D01*
X0119595Y0043728D01*
X0119595Y0039728D02*
X0119595Y0038728D01*
X0120595Y0038728D01*
X0115595Y0038728D02*
X0114595Y0038728D01*
X0115595Y0038728D02*
X0115595Y0039728D01*
X0115595Y0043728D02*
X0115595Y0044728D01*
X0114595Y0044728D01*
X0114595Y0048728D02*
X0115595Y0048728D01*
X0115595Y0049728D01*
X0119595Y0049728D02*
X0119595Y0048728D01*
X0120595Y0048728D01*
X0124595Y0048728D02*
X0125595Y0048728D01*
X0125595Y0049728D01*
X0129595Y0049728D02*
X0129595Y0048728D01*
X0130595Y0048728D01*
X0134595Y0048728D02*
X0135595Y0048728D01*
X0135595Y0049728D01*
X0135595Y0053728D02*
X0135595Y0054728D01*
X0134595Y0054728D01*
X0130595Y0054728D02*
X0129595Y0054728D01*
X0129595Y0053728D01*
X0125595Y0053728D02*
X0125595Y0054728D01*
X0124595Y0054728D01*
X0120595Y0054728D02*
X0119595Y0054728D01*
X0119595Y0053728D01*
X0115595Y0053728D02*
X0115595Y0054728D01*
X0114595Y0054728D01*
X0110595Y0054728D02*
X0109595Y0054728D01*
X0109595Y0053728D01*
X0109595Y0049728D02*
X0109595Y0048728D01*
X0110595Y0048728D01*
X0110595Y0044728D02*
X0109595Y0044728D01*
X0109595Y0043728D01*
X0109595Y0039728D02*
X0109595Y0038728D01*
X0110595Y0038728D01*
X0105595Y0038728D02*
X0104595Y0038728D01*
X0105595Y0038728D02*
X0105595Y0039728D01*
X0105595Y0043728D02*
X0105595Y0044728D01*
X0104595Y0044728D01*
X0104595Y0048728D02*
X0105595Y0048728D01*
X0105595Y0049728D01*
X0105595Y0053728D02*
X0105595Y0054728D01*
X0104595Y0054728D01*
X0100595Y0054728D02*
X0099595Y0054728D01*
X0099595Y0053728D01*
X0099595Y0049728D02*
X0099595Y0048728D01*
X0100595Y0048728D01*
X0100595Y0044728D02*
X0099595Y0044728D01*
X0099595Y0043728D01*
X0099595Y0039728D02*
X0099595Y0038728D01*
X0100595Y0038728D01*
X0095595Y0038728D02*
X0094595Y0038728D01*
X0095595Y0038728D02*
X0095595Y0039728D01*
X0095595Y0043728D02*
X0095595Y0044728D01*
X0094595Y0044728D01*
X0090595Y0044728D02*
X0089595Y0044728D01*
X0089595Y0043728D01*
X0089595Y0039728D02*
X0089595Y0038728D01*
X0090595Y0038728D01*
X0085595Y0038728D02*
X0084595Y0038728D01*
X0085595Y0038728D02*
X0085595Y0039728D01*
X0085595Y0043728D02*
X0085595Y0044728D01*
X0084595Y0044728D01*
X0080595Y0044728D02*
X0079595Y0044728D01*
X0079595Y0043728D01*
X0079595Y0039728D02*
X0079595Y0038728D01*
X0080595Y0038728D01*
X0075595Y0038728D02*
X0074595Y0038728D01*
X0075595Y0038728D02*
X0075595Y0039728D01*
X0075595Y0043728D02*
X0075595Y0044728D01*
X0074595Y0044728D01*
X0070595Y0044728D02*
X0069595Y0044728D01*
X0069595Y0043728D01*
X0069595Y0039728D02*
X0069595Y0038728D01*
X0070595Y0038728D01*
X0065595Y0038728D02*
X0064595Y0038728D01*
X0065595Y0038728D02*
X0065595Y0039728D01*
X0065595Y0043728D02*
X0065595Y0044728D01*
X0064595Y0044728D01*
X0060595Y0044728D02*
X0059595Y0044728D01*
X0059595Y0043728D01*
X0059595Y0039728D02*
X0059595Y0038728D01*
X0060595Y0038728D01*
X0055595Y0038728D02*
X0054595Y0038728D01*
X0055595Y0038728D02*
X0055595Y0039728D01*
X0055595Y0043728D02*
X0055595Y0044728D01*
X0054595Y0044728D01*
X0054595Y0048728D02*
X0055595Y0048728D01*
X0055595Y0049728D01*
X0059595Y0049728D02*
X0059595Y0048728D01*
X0060595Y0048728D01*
X0064595Y0048728D02*
X0065595Y0048728D01*
X0065595Y0049728D01*
X0069595Y0049728D02*
X0069595Y0048728D01*
X0070595Y0048728D01*
X0074595Y0048728D02*
X0075595Y0048728D01*
X0075595Y0049728D01*
X0075595Y0053728D02*
X0075595Y0054728D01*
X0074595Y0054728D01*
X0070595Y0054728D02*
X0069595Y0054728D01*
X0069595Y0053728D01*
X0065595Y0053728D02*
X0065595Y0054728D01*
X0064595Y0054728D01*
X0060595Y0054728D02*
X0059595Y0054728D01*
X0059595Y0053728D01*
X0055595Y0053728D02*
X0055595Y0054728D01*
X0054595Y0054728D01*
X0050595Y0054728D02*
X0049595Y0054728D01*
X0049595Y0053728D01*
X0049595Y0049728D02*
X0049595Y0048728D01*
X0050595Y0048728D01*
X0050595Y0044728D02*
X0049595Y0044728D01*
X0049595Y0043728D01*
X0049595Y0039728D02*
X0049595Y0038728D01*
X0050595Y0038728D01*
X0079595Y0048728D02*
X0079595Y0049728D01*
X0079595Y0048728D02*
X0080595Y0048728D01*
X0084595Y0048728D02*
X0085595Y0048728D01*
X0085595Y0049728D01*
X0089595Y0049728D02*
X0089595Y0048728D01*
X0090595Y0048728D01*
X0094595Y0048728D02*
X0095595Y0048728D01*
X0095595Y0049728D01*
X0095595Y0053728D02*
X0095595Y0054728D01*
X0094595Y0054728D01*
X0090595Y0054728D02*
X0089595Y0054728D01*
X0089595Y0053728D01*
X0085595Y0053728D02*
X0085595Y0054728D01*
X0084595Y0054728D01*
X0080595Y0054728D02*
X0079595Y0054728D01*
X0079595Y0053728D01*
X0139595Y0053728D02*
X0139595Y0054728D01*
X0140595Y0054728D01*
X0144595Y0054728D02*
X0145595Y0054728D01*
X0145595Y0053728D01*
X0145595Y0049728D02*
X0145595Y0048728D01*
X0144595Y0048728D01*
X0140595Y0048728D02*
X0139595Y0048728D01*
X0139595Y0049728D01*
X0149595Y0049728D02*
X0149595Y0048728D01*
X0150595Y0048728D01*
X0154595Y0048728D02*
X0155595Y0048728D01*
X0155595Y0049728D01*
X0155595Y0053728D02*
X0155595Y0054728D01*
X0154595Y0054728D01*
X0150595Y0054728D02*
X0149595Y0054728D01*
X0149595Y0053728D01*
X0199595Y0053728D02*
X0199595Y0054728D01*
X0200595Y0054728D01*
X0204595Y0054728D02*
X0205595Y0054728D01*
X0205595Y0053728D01*
X0205595Y0049728D02*
X0205595Y0048728D01*
X0204595Y0048728D01*
X0204595Y0044728D02*
X0205595Y0044728D01*
X0205595Y0043728D01*
X0205595Y0039728D02*
X0205595Y0038728D01*
X0204595Y0038728D01*
X0200595Y0038728D02*
X0199595Y0038728D01*
X0199595Y0039728D01*
X0199595Y0043728D02*
X0199595Y0044728D01*
X0200595Y0044728D01*
X0200595Y0048728D02*
X0199595Y0048728D01*
X0199595Y0049728D01*
X0209595Y0049728D02*
X0209595Y0048728D01*
X0210595Y0048728D01*
X0210595Y0044728D02*
X0209595Y0044728D01*
X0209595Y0043728D01*
X0209595Y0039728D02*
X0209595Y0038728D01*
X0210595Y0038728D01*
X0214595Y0038728D02*
X0215595Y0038728D01*
X0215595Y0039728D01*
X0219595Y0039728D02*
X0219595Y0038728D01*
X0220595Y0038728D01*
X0224595Y0038728D02*
X0225595Y0038728D01*
X0225595Y0039728D01*
X0229595Y0039728D02*
X0229595Y0038728D01*
X0230595Y0038728D01*
X0229595Y0043728D02*
X0229595Y0044728D01*
X0230595Y0044728D01*
X0230595Y0048728D02*
X0229595Y0048728D01*
X0229595Y0049728D01*
X0225595Y0049728D02*
X0225595Y0048728D01*
X0224595Y0048728D01*
X0224595Y0044728D02*
X0225595Y0044728D01*
X0225595Y0043728D01*
X0220595Y0044728D02*
X0219595Y0044728D01*
X0219595Y0043728D01*
X0215595Y0043728D02*
X0215595Y0044728D01*
X0214595Y0044728D01*
X0214595Y0048728D02*
X0215595Y0048728D01*
X0215595Y0049728D01*
X0219595Y0049728D02*
X0219595Y0048728D01*
X0220595Y0048728D01*
X0219595Y0053728D02*
X0219595Y0054728D01*
X0220595Y0054728D01*
X0224595Y0054728D02*
X0225595Y0054728D01*
X0225595Y0053728D01*
X0229595Y0053728D02*
X0229595Y0054728D01*
X0230595Y0054728D01*
X0234595Y0054728D02*
X0235595Y0054728D01*
X0235595Y0053728D01*
X0235595Y0049728D02*
X0235595Y0048728D01*
X0234595Y0048728D01*
X0234595Y0044728D02*
X0235595Y0044728D01*
X0235595Y0043728D01*
X0235595Y0039728D02*
X0235595Y0038728D01*
X0234595Y0038728D01*
X0239595Y0038728D02*
X0239595Y0039728D01*
X0239595Y0038728D02*
X0240595Y0038728D01*
X0244595Y0038728D02*
X0245595Y0038728D01*
X0245595Y0039728D01*
X0249595Y0039728D02*
X0249595Y0038728D01*
X0250595Y0038728D01*
X0254595Y0038728D02*
X0255595Y0038728D01*
X0255595Y0039728D01*
X0255595Y0043728D02*
X0255595Y0044728D01*
X0254595Y0044728D01*
X0250595Y0044728D02*
X0249595Y0044728D01*
X0249595Y0043728D01*
X0245595Y0043728D02*
X0245595Y0044728D01*
X0244595Y0044728D01*
X0240595Y0044728D02*
X0239595Y0044728D01*
X0239595Y0043728D01*
X0239595Y0048728D02*
X0239595Y0049728D01*
X0239595Y0048728D02*
X0240595Y0048728D01*
X0244595Y0048728D02*
X0245595Y0048728D01*
X0245595Y0049728D01*
X0249595Y0049728D02*
X0249595Y0048728D01*
X0250595Y0048728D01*
X0254595Y0048728D02*
X0255595Y0048728D01*
X0255595Y0049728D01*
X0255595Y0053728D02*
X0255595Y0054728D01*
X0254595Y0054728D01*
X0250595Y0054728D02*
X0249595Y0054728D01*
X0249595Y0053728D01*
X0245595Y0053728D02*
X0245595Y0054728D01*
X0244595Y0054728D01*
X0240595Y0054728D02*
X0239595Y0054728D01*
X0239595Y0053728D01*
X0215595Y0053728D02*
X0215595Y0054728D01*
X0214595Y0054728D01*
X0210595Y0054728D02*
X0209595Y0054728D01*
X0209595Y0053728D01*
D12*
X0262273Y0052944D02*
X0262273Y0050475D01*
X0263507Y0049241D01*
X0264741Y0050475D01*
X0264741Y0052944D01*
X0265956Y0052944D02*
X0265956Y0049241D01*
X0267807Y0049241D01*
X0268425Y0049858D01*
X0268425Y0052327D01*
X0267807Y0052944D01*
X0265956Y0052944D01*
X0269639Y0052944D02*
X0269639Y0049241D01*
X0271491Y0049241D01*
X0272108Y0049858D01*
X0272108Y0052327D01*
X0271491Y0052944D01*
X0269639Y0052944D01*
X0269212Y0042786D02*
X0269212Y0039083D01*
X0266743Y0042786D01*
X0266743Y0039083D01*
X0265529Y0039700D02*
X0265529Y0040935D01*
X0264294Y0040935D01*
X0263060Y0042169D02*
X0263060Y0039700D01*
X0263677Y0039083D01*
X0264912Y0039083D01*
X0265529Y0039700D01*
X0265529Y0042169D02*
X0264912Y0042786D01*
X0263677Y0042786D01*
X0263060Y0042169D01*
X0270426Y0042786D02*
X0270426Y0039083D01*
X0272278Y0039083D01*
X0272895Y0039700D01*
X0272895Y0042169D01*
X0272278Y0042786D01*
X0270426Y0042786D01*
X0269639Y0269241D02*
X0271491Y0269241D01*
X0272108Y0269858D01*
X0272108Y0272327D01*
X0271491Y0272944D01*
X0269639Y0272944D01*
X0269639Y0269241D01*
X0268425Y0269858D02*
X0268425Y0272327D01*
X0267807Y0272944D01*
X0265956Y0272944D01*
X0265956Y0269241D01*
X0267807Y0269241D01*
X0268425Y0269858D01*
X0264741Y0270475D02*
X0264741Y0272944D01*
X0262273Y0272944D02*
X0262273Y0270475D01*
X0263507Y0269241D01*
X0264741Y0270475D01*
X0264597Y0281878D02*
X0265214Y0282496D01*
X0265214Y0283730D01*
X0263980Y0283730D01*
X0265214Y0284964D02*
X0264597Y0285582D01*
X0263362Y0285582D01*
X0262745Y0284964D01*
X0262745Y0282496D01*
X0263362Y0281878D01*
X0264597Y0281878D01*
X0266428Y0281878D02*
X0266428Y0285582D01*
X0268897Y0281878D01*
X0268897Y0285582D01*
X0270111Y0285582D02*
X0270111Y0281878D01*
X0271963Y0281878D01*
X0272580Y0282496D01*
X0272580Y0284964D01*
X0271963Y0285582D01*
X0270111Y0285582D01*
D13*
X0280587Y0145082D02*
X0247753Y0145082D01*
X0247753Y0100225D01*
X0280587Y0100225D01*
X0280587Y0145082D01*
X0285115Y0091945D02*
X0253816Y0091945D01*
X0235115Y0091945D02*
X0228816Y0091945D01*
X0228816Y0085646D01*
X0228816Y0064386D02*
X0228816Y0058087D01*
X0285115Y0058087D01*
X0285115Y0091945D01*
D14*
X0250233Y0142654D03*
D15*
X0267988Y0125296D02*
X0267988Y0123761D01*
X0268755Y0122994D01*
X0271825Y0122994D01*
X0272592Y0123761D01*
X0272592Y0125296D01*
X0271825Y0126063D01*
X0268755Y0126063D02*
X0267988Y0125296D01*
X0268755Y0121459D02*
X0267988Y0120692D01*
X0267988Y0118390D01*
X0272592Y0118390D01*
X0272592Y0120692D01*
X0271825Y0121459D01*
X0268755Y0121459D01*
M02*
