G75*
%MOIN*%
%OFA0B0*%
%FSLAX25Y25*%
%IPPOS*%
%LPD*%
%AMOC8*
5,1,8,0,0,1.08239X$1,22.5*
%
%ADD10OC8,0.07100*%
%ADD11C,0.08674*%
%ADD12C,0.07400*%
%ADD13OC8,0.10800*%
D10*
X0052595Y0041728D03*
X0062595Y0041728D03*
X0072595Y0041728D03*
X0072595Y0051728D03*
X0062595Y0051728D03*
X0052595Y0051728D03*
X0052595Y0071728D03*
X0062595Y0071728D03*
X0072595Y0071728D03*
X0072595Y0081728D03*
X0062595Y0081728D03*
X0052595Y0081728D03*
X0052595Y0091728D03*
X0062595Y0091728D03*
X0072595Y0091728D03*
X0072595Y0101728D03*
X0062595Y0101728D03*
X0052595Y0101728D03*
X0052595Y0111728D03*
X0062595Y0111728D03*
X0072595Y0111728D03*
X0072595Y0121728D03*
X0072595Y0131728D03*
X0062595Y0131728D03*
X0062595Y0121728D03*
X0052595Y0121728D03*
X0052595Y0131728D03*
X0052595Y0141728D03*
X0062595Y0141728D03*
X0072595Y0141728D03*
X0072595Y0151728D03*
X0062595Y0151728D03*
X0052595Y0151728D03*
X0052595Y0171728D03*
X0062595Y0171728D03*
X0072595Y0171728D03*
X0072595Y0181728D03*
X0062595Y0181728D03*
X0052595Y0181728D03*
X0052595Y0191728D03*
X0062595Y0191728D03*
X0072595Y0191728D03*
X0072595Y0201728D03*
X0062595Y0201728D03*
X0052595Y0201728D03*
X0052595Y0211728D03*
X0062595Y0211728D03*
X0072595Y0211728D03*
X0072595Y0221728D03*
X0062595Y0221728D03*
X0052595Y0221728D03*
X0052595Y0231728D03*
X0062595Y0231728D03*
X0072595Y0231728D03*
X0072595Y0241728D03*
X0062595Y0241728D03*
X0052595Y0241728D03*
X0052595Y0251728D03*
X0062595Y0251728D03*
X0072595Y0251728D03*
X0082595Y0251728D03*
X0082595Y0241728D03*
X0082595Y0231728D03*
X0082595Y0221728D03*
X0082595Y0211728D03*
X0082595Y0201728D03*
X0082595Y0191728D03*
X0082595Y0181728D03*
X0082595Y0171728D03*
X0092595Y0171728D03*
X0102595Y0171728D03*
X0112595Y0171728D03*
X0122595Y0171728D03*
X0132595Y0171728D03*
X0132595Y0181728D03*
X0122595Y0181728D03*
X0112595Y0181728D03*
X0102595Y0181728D03*
X0092595Y0181728D03*
X0092595Y0191728D03*
X0102595Y0191728D03*
X0112595Y0191728D03*
X0122595Y0191728D03*
X0132595Y0191728D03*
X0132595Y0201728D03*
X0122595Y0201728D03*
X0112595Y0201728D03*
X0102595Y0201728D03*
X0092595Y0201728D03*
X0092595Y0211728D03*
X0102595Y0211728D03*
X0112595Y0211728D03*
X0122595Y0211728D03*
X0132595Y0211728D03*
X0132595Y0221728D03*
X0122595Y0221728D03*
X0112595Y0221728D03*
X0102595Y0221728D03*
X0092595Y0221728D03*
X0092595Y0231728D03*
X0102595Y0231728D03*
X0112595Y0231728D03*
X0122595Y0231728D03*
X0132595Y0231728D03*
X0132595Y0241728D03*
X0122595Y0241728D03*
X0112595Y0241728D03*
X0102595Y0241728D03*
X0092595Y0241728D03*
X0092595Y0251728D03*
X0102595Y0251728D03*
X0112595Y0251728D03*
X0122595Y0251728D03*
X0132595Y0251728D03*
X0142595Y0251728D03*
X0142595Y0241728D03*
X0142595Y0231728D03*
X0142595Y0221728D03*
X0142595Y0211728D03*
X0142595Y0201728D03*
X0142595Y0191728D03*
X0142595Y0181728D03*
X0142595Y0171728D03*
X0152595Y0171728D03*
X0162595Y0171728D03*
X0172595Y0171728D03*
X0182595Y0171728D03*
X0192595Y0171728D03*
X0192595Y0181728D03*
X0182595Y0181728D03*
X0172595Y0181728D03*
X0162595Y0181728D03*
X0152595Y0181728D03*
X0152595Y0191728D03*
X0162595Y0191728D03*
X0172595Y0191728D03*
X0182595Y0191728D03*
X0192595Y0191728D03*
X0192595Y0201728D03*
X0182595Y0201728D03*
X0172595Y0201728D03*
X0162595Y0201728D03*
X0152595Y0201728D03*
X0152595Y0211728D03*
X0162595Y0211728D03*
X0172595Y0211728D03*
X0182595Y0211728D03*
X0192595Y0211728D03*
X0192595Y0221728D03*
X0182595Y0221728D03*
X0172595Y0221728D03*
X0162595Y0221728D03*
X0152595Y0221728D03*
X0152595Y0231728D03*
X0162595Y0231728D03*
X0172595Y0231728D03*
X0182595Y0231728D03*
X0192595Y0231728D03*
X0192595Y0241728D03*
X0182595Y0241728D03*
X0172595Y0241728D03*
X0162595Y0241728D03*
X0152595Y0241728D03*
X0152595Y0251728D03*
X0162595Y0251728D03*
X0172595Y0251728D03*
X0182595Y0251728D03*
X0192595Y0251728D03*
X0202595Y0251728D03*
X0202595Y0241728D03*
X0202595Y0231728D03*
X0202595Y0221728D03*
X0202595Y0211728D03*
X0202595Y0201728D03*
X0202595Y0191728D03*
X0202595Y0181728D03*
X0202595Y0171728D03*
X0212595Y0171728D03*
X0222595Y0171728D03*
X0232595Y0171728D03*
X0242595Y0171728D03*
X0242595Y0181728D03*
X0232595Y0181728D03*
X0222595Y0181728D03*
X0212595Y0181728D03*
X0212595Y0191728D03*
X0222595Y0191728D03*
X0232595Y0191728D03*
X0242595Y0191728D03*
X0242595Y0201728D03*
X0232595Y0201728D03*
X0222595Y0201728D03*
X0212595Y0201728D03*
X0212595Y0211728D03*
X0222595Y0211728D03*
X0232595Y0211728D03*
X0242595Y0211728D03*
X0242595Y0221728D03*
X0232595Y0221728D03*
X0222595Y0221728D03*
X0212595Y0221728D03*
X0212595Y0231728D03*
X0222595Y0231728D03*
X0232595Y0231728D03*
X0242595Y0231728D03*
X0242595Y0241728D03*
X0232595Y0241728D03*
X0222595Y0241728D03*
X0212595Y0241728D03*
X0212595Y0251728D03*
X0222595Y0251728D03*
X0232595Y0251728D03*
X0242595Y0251728D03*
X0242595Y0271728D03*
X0232595Y0271728D03*
X0222595Y0271728D03*
X0212595Y0271728D03*
X0202595Y0271728D03*
X0202595Y0281728D03*
X0212595Y0281728D03*
X0222595Y0281728D03*
X0232595Y0281728D03*
X0242595Y0281728D03*
X0252595Y0281728D03*
X0252595Y0271728D03*
X0192595Y0271728D03*
X0182595Y0271728D03*
X0172595Y0271728D03*
X0162595Y0271728D03*
X0152595Y0271728D03*
X0142595Y0271728D03*
X0142595Y0281728D03*
X0152595Y0281728D03*
X0162595Y0281728D03*
X0172595Y0281728D03*
X0182595Y0281728D03*
X0192595Y0281728D03*
X0132595Y0281728D03*
X0132595Y0271728D03*
X0122595Y0271728D03*
X0112595Y0271728D03*
X0102595Y0271728D03*
X0092595Y0271728D03*
X0082595Y0271728D03*
X0082595Y0281728D03*
X0092595Y0281728D03*
X0102595Y0281728D03*
X0112595Y0281728D03*
X0122595Y0281728D03*
X0072595Y0281728D03*
X0072595Y0271728D03*
X0062595Y0271728D03*
X0052595Y0271728D03*
X0052595Y0281728D03*
X0062595Y0281728D03*
X0082595Y0151728D03*
X0082595Y0141728D03*
X0082595Y0131728D03*
X0082595Y0121728D03*
X0082595Y0111728D03*
X0082595Y0101728D03*
X0082595Y0091728D03*
X0082595Y0081728D03*
X0082595Y0071728D03*
X0092595Y0071728D03*
X0102595Y0071728D03*
X0112595Y0071728D03*
X0122595Y0071728D03*
X0132595Y0071728D03*
X0132595Y0081728D03*
X0122595Y0081728D03*
X0112595Y0081728D03*
X0102595Y0081728D03*
X0092595Y0081728D03*
X0092595Y0091728D03*
X0102595Y0091728D03*
X0112595Y0091728D03*
X0122595Y0091728D03*
X0132595Y0091728D03*
X0132595Y0101728D03*
X0122595Y0101728D03*
X0112595Y0101728D03*
X0102595Y0101728D03*
X0092595Y0101728D03*
X0092595Y0111728D03*
X0102595Y0111728D03*
X0112595Y0111728D03*
X0122595Y0111728D03*
X0132595Y0111728D03*
X0132595Y0121728D03*
X0132595Y0131728D03*
X0122595Y0131728D03*
X0122595Y0121728D03*
X0112595Y0121728D03*
X0112595Y0131728D03*
X0102595Y0131728D03*
X0102595Y0121728D03*
X0092595Y0121728D03*
X0092595Y0131728D03*
X0092595Y0141728D03*
X0102595Y0141728D03*
X0112595Y0141728D03*
X0122595Y0141728D03*
X0132595Y0141728D03*
X0132595Y0151728D03*
X0122595Y0151728D03*
X0112595Y0151728D03*
X0102595Y0151728D03*
X0092595Y0151728D03*
X0142595Y0151728D03*
X0142595Y0141728D03*
X0142595Y0131728D03*
X0142595Y0121728D03*
X0142595Y0111728D03*
X0142595Y0101728D03*
X0142595Y0091728D03*
X0142595Y0081728D03*
X0142595Y0071728D03*
X0152595Y0071728D03*
X0162595Y0071728D03*
X0172595Y0071728D03*
X0182595Y0071728D03*
X0192595Y0071728D03*
X0192595Y0081728D03*
X0182595Y0081728D03*
X0172595Y0081728D03*
X0162595Y0081728D03*
X0152595Y0081728D03*
X0152595Y0091728D03*
X0162595Y0091728D03*
X0172595Y0091728D03*
X0182595Y0091728D03*
X0192595Y0091728D03*
X0192595Y0101728D03*
X0182595Y0101728D03*
X0172595Y0101728D03*
X0162595Y0101728D03*
X0152595Y0101728D03*
X0152595Y0111728D03*
X0162595Y0111728D03*
X0172595Y0111728D03*
X0182595Y0111728D03*
X0192595Y0111728D03*
X0192595Y0121728D03*
X0192595Y0131728D03*
X0182595Y0131728D03*
X0182595Y0121728D03*
X0172595Y0121728D03*
X0172595Y0131728D03*
X0162595Y0131728D03*
X0162595Y0121728D03*
X0152595Y0121728D03*
X0152595Y0131728D03*
X0152595Y0141728D03*
X0162595Y0141728D03*
X0172595Y0141728D03*
X0182595Y0141728D03*
X0192595Y0141728D03*
X0192595Y0151728D03*
X0182595Y0151728D03*
X0172595Y0151728D03*
X0162595Y0151728D03*
X0152595Y0151728D03*
X0202595Y0151728D03*
X0202595Y0141728D03*
X0202595Y0131728D03*
X0202595Y0121728D03*
X0202595Y0111728D03*
X0202595Y0101728D03*
X0202595Y0091728D03*
X0202595Y0081728D03*
X0202595Y0071728D03*
X0212595Y0071728D03*
X0212595Y0081728D03*
X0212595Y0091728D03*
X0212595Y0101728D03*
X0222595Y0101728D03*
X0222595Y0111728D03*
X0212595Y0111728D03*
X0212595Y0121728D03*
X0212595Y0131728D03*
X0222595Y0131728D03*
X0222595Y0121728D03*
X0232595Y0121728D03*
X0232595Y0131728D03*
X0232595Y0141728D03*
X0222595Y0141728D03*
X0212595Y0141728D03*
X0212595Y0151728D03*
X0222595Y0151728D03*
X0232595Y0151728D03*
X0232595Y0111728D03*
X0232595Y0051728D03*
X0232595Y0041728D03*
X0222595Y0041728D03*
X0212595Y0041728D03*
X0202595Y0041728D03*
X0202595Y0051728D03*
X0212595Y0051728D03*
X0222595Y0051728D03*
X0242595Y0051728D03*
X0242595Y0041728D03*
X0252595Y0041728D03*
X0252595Y0051728D03*
X0192595Y0051728D03*
X0192595Y0041728D03*
X0182595Y0041728D03*
X0172595Y0041728D03*
X0162595Y0041728D03*
X0152595Y0041728D03*
X0142595Y0041728D03*
X0142595Y0051728D03*
X0152595Y0051728D03*
X0162595Y0051728D03*
X0172595Y0051728D03*
X0182595Y0051728D03*
X0132595Y0051728D03*
X0132595Y0041728D03*
X0122595Y0041728D03*
X0112595Y0041728D03*
X0102595Y0041728D03*
X0092595Y0041728D03*
X0082595Y0041728D03*
X0082595Y0051728D03*
X0092595Y0051728D03*
X0102595Y0051728D03*
X0112595Y0051728D03*
X0122595Y0051728D03*
D11*
X0231965Y0071079D02*
X0231965Y0078953D01*
X0240233Y0093913D02*
X0248107Y0093913D01*
X0255981Y0078953D02*
X0255981Y0071079D01*
D12*
X0255233Y0112654D03*
X0255233Y0122654D03*
X0255233Y0132654D03*
D13*
X0257595Y0154228D03*
X0272595Y0154228D03*
X0272595Y0174228D03*
X0257595Y0174228D03*
X0257595Y0194228D03*
X0272595Y0194228D03*
X0272595Y0214228D03*
X0257595Y0214228D03*
X0257595Y0234228D03*
X0272595Y0234228D03*
X0272595Y0254228D03*
X0257595Y0254228D03*
M02*
