G75*
%MOIN*%
%OFA0B0*%
%FSLAX25Y25*%
%IPPOS*%
%LPD*%
%AMOC8*
5,1,8,0,0,1.08239X$1,22.5*
%
%ADD10C,0.01200*%
D10*
X0012306Y0074533D02*
X0016910Y0074533D01*
X0019212Y0076835D01*
X0010004Y0086043D01*
X0010004Y0076835D01*
X0012306Y0074533D01*
X0019212Y0076835D02*
X0019212Y0086043D01*
X0016910Y0088345D01*
X0012306Y0088345D01*
X0010004Y0086043D01*
X0023816Y0083741D02*
X0028420Y0074533D01*
X0033024Y0083741D01*
X0037628Y0081439D02*
X0037628Y0079137D01*
X0046836Y0079137D01*
X0046836Y0076835D02*
X0046836Y0081439D01*
X0044534Y0083741D01*
X0039930Y0083741D01*
X0037628Y0081439D01*
X0039930Y0074533D02*
X0044534Y0074533D01*
X0046836Y0076835D01*
X0051439Y0083741D02*
X0053741Y0083741D01*
X0058345Y0079137D01*
X0058345Y0074533D02*
X0058345Y0083741D01*
X0062949Y0081439D02*
X0072157Y0081439D01*
X0076761Y0083741D02*
X0076761Y0086043D01*
X0079063Y0088345D01*
X0083667Y0088345D01*
X0085969Y0086043D01*
X0076761Y0083741D02*
X0085969Y0074533D01*
X0076761Y0074533D01*
X0090573Y0074533D02*
X0099781Y0074533D01*
X0095177Y0074533D02*
X0095177Y0088345D01*
X0099781Y0083741D01*
X0104385Y0081439D02*
X0104385Y0076835D01*
X0106687Y0074533D01*
X0113593Y0074533D01*
X0113593Y0069929D02*
X0113593Y0083741D01*
X0106687Y0083741D01*
X0104385Y0081439D01*
X0118196Y0083741D02*
X0125102Y0083741D01*
X0127404Y0081439D01*
X0125102Y0079137D01*
X0120498Y0079137D01*
X0118196Y0076835D01*
X0120498Y0074533D01*
X0127404Y0074533D01*
X0132008Y0079137D02*
X0141216Y0079137D01*
X0141216Y0076835D02*
X0141216Y0081439D01*
X0138914Y0083741D01*
X0134310Y0083741D01*
X0132008Y0081439D01*
X0132008Y0079137D01*
X0134310Y0074533D02*
X0138914Y0074533D01*
X0141216Y0076835D01*
X0145820Y0081439D02*
X0155028Y0081439D01*
X0159632Y0079137D02*
X0159632Y0076835D01*
X0161934Y0074533D01*
X0166538Y0074533D01*
X0168840Y0076835D01*
X0168840Y0081439D01*
X0161934Y0081439D01*
X0159632Y0079137D01*
X0164236Y0086043D02*
X0159632Y0088345D01*
X0164236Y0086043D02*
X0168840Y0081439D01*
X0173444Y0081439D02*
X0182652Y0081439D01*
X0187255Y0086043D02*
X0196463Y0076835D01*
X0196463Y0074533D01*
X0201067Y0081439D02*
X0210275Y0081439D01*
X0214879Y0083741D02*
X0214879Y0086043D01*
X0217181Y0088345D01*
X0221785Y0088345D01*
X0224087Y0086043D01*
X0228691Y0083741D02*
X0237899Y0074533D01*
X0242503Y0074533D02*
X0242503Y0081439D01*
X0244805Y0083741D01*
X0247107Y0081439D01*
X0247107Y0074533D01*
X0251711Y0074533D02*
X0251711Y0083741D01*
X0249409Y0083741D01*
X0247107Y0081439D01*
X0237899Y0083741D02*
X0228691Y0074533D01*
X0224087Y0074533D02*
X0214879Y0083741D01*
X0214879Y0074533D02*
X0224087Y0074533D01*
X0196463Y0088345D02*
X0187255Y0088345D01*
X0187255Y0086043D01*
X0187255Y0209533D02*
X0187255Y0216439D01*
X0189557Y0218741D01*
X0196463Y0218741D01*
X0196463Y0209533D01*
X0201067Y0214137D02*
X0210275Y0214137D01*
X0210275Y0216439D02*
X0207973Y0218741D01*
X0203369Y0218741D01*
X0201067Y0216439D01*
X0201067Y0214137D01*
X0203369Y0209533D02*
X0207973Y0209533D01*
X0210275Y0211835D01*
X0210275Y0216439D01*
X0214879Y0218741D02*
X0221785Y0218741D01*
X0224087Y0216439D01*
X0221785Y0214137D01*
X0217181Y0214137D01*
X0214879Y0211835D01*
X0217181Y0209533D01*
X0224087Y0209533D01*
X0228691Y0209533D02*
X0228691Y0216439D01*
X0230993Y0218741D01*
X0237899Y0218741D01*
X0237899Y0209533D01*
X0242503Y0209533D02*
X0251711Y0218741D01*
X0251711Y0209533D02*
X0242503Y0218741D01*
X0182652Y0216439D02*
X0180350Y0218741D01*
X0173444Y0218741D01*
X0175746Y0214137D02*
X0180350Y0214137D01*
X0182652Y0216439D01*
X0182652Y0209533D02*
X0175746Y0209533D01*
X0173444Y0211835D01*
X0175746Y0214137D01*
X0168840Y0214137D02*
X0159632Y0214137D01*
X0159632Y0216439D01*
X0161934Y0218741D01*
X0166538Y0218741D01*
X0168840Y0216439D01*
X0168840Y0211835D01*
X0166538Y0209533D01*
X0161934Y0209533D01*
X0155028Y0209533D02*
X0152726Y0209533D01*
X0152726Y0211835D01*
X0155028Y0211835D01*
X0155028Y0209533D01*
X0148122Y0209533D02*
X0148122Y0218741D01*
X0141216Y0218741D01*
X0138914Y0216439D01*
X0138914Y0209533D01*
X0134310Y0211835D02*
X0132008Y0209533D01*
X0127404Y0209533D01*
X0125102Y0211835D01*
X0125102Y0216439D01*
X0127404Y0218741D01*
X0132008Y0218741D01*
X0134310Y0216439D01*
X0134310Y0211835D01*
M02*
