G75*
%MOIN*%
%OFA0B0*%
%FSLAX25Y25*%
%IPPOS*%
%LPD*%
%AMOC8*
5,1,8,0,0,1.08239X$1,22.5*
%
%ADD10OC8,0.06300*%
%ADD11C,0.06600*%
%ADD12OC8,0.12500*%
%ADD13C,0.07000*%
%ADD14C,0.04756*%
%ADD15R,0.09843X0.09843*%
%ADD16C,0.02000*%
%ADD17C,0.01600*%
%ADD18C,0.03962*%
%ADD19C,0.03600*%
D10*
X0072311Y0038933D03*
X0082311Y0038933D03*
X0092311Y0038933D03*
X0102311Y0038933D03*
X0112311Y0038933D03*
X0122311Y0038933D03*
X0132311Y0038933D03*
X0142311Y0038933D03*
X0152311Y0038933D03*
X0162311Y0038933D03*
X0172311Y0038933D03*
X0182311Y0038933D03*
X0192311Y0038933D03*
X0202311Y0038933D03*
X0212311Y0038933D03*
X0222311Y0038933D03*
X0232311Y0038933D03*
X0242311Y0038933D03*
X0252311Y0038933D03*
X0252311Y0048933D03*
X0242311Y0048933D03*
X0232311Y0048933D03*
X0222311Y0048933D03*
X0212311Y0048933D03*
X0202311Y0048933D03*
X0192311Y0048933D03*
X0182311Y0048933D03*
X0172311Y0048933D03*
X0162311Y0048933D03*
X0152311Y0048933D03*
X0142311Y0048933D03*
X0132311Y0048933D03*
X0122311Y0048933D03*
X0112311Y0048933D03*
X0102311Y0048933D03*
X0092311Y0048933D03*
X0082311Y0048933D03*
X0072311Y0048933D03*
X0072311Y0061433D03*
X0082311Y0061433D03*
X0092311Y0061433D03*
X0102311Y0061433D03*
X0112311Y0061433D03*
X0122311Y0061433D03*
X0132311Y0061433D03*
X0142311Y0061433D03*
X0152311Y0061433D03*
X0162311Y0061433D03*
X0172311Y0061433D03*
X0182311Y0061433D03*
X0192311Y0061433D03*
X0202311Y0061433D03*
X0202311Y0071433D03*
X0202311Y0081433D03*
X0202311Y0091433D03*
X0202311Y0101433D03*
X0212311Y0101433D03*
X0222311Y0101433D03*
X0222311Y0111433D03*
X0212311Y0111433D03*
X0212311Y0121433D03*
X0222311Y0121433D03*
X0222311Y0131433D03*
X0212311Y0131433D03*
X0202311Y0131433D03*
X0202311Y0121433D03*
X0202311Y0111433D03*
X0192311Y0111433D03*
X0182311Y0111433D03*
X0182311Y0101433D03*
X0192311Y0101433D03*
X0192311Y0091433D03*
X0182311Y0091433D03*
X0182311Y0081433D03*
X0192311Y0081433D03*
X0192311Y0071433D03*
X0182311Y0071433D03*
X0172311Y0071433D03*
X0162311Y0071433D03*
X0162311Y0081433D03*
X0172311Y0081433D03*
X0172311Y0091433D03*
X0172311Y0101433D03*
X0162311Y0091433D03*
X0152311Y0091433D03*
X0152311Y0081433D03*
X0152311Y0071433D03*
X0142311Y0071433D03*
X0132311Y0071433D03*
X0132311Y0081433D03*
X0142311Y0081433D03*
X0142311Y0091433D03*
X0132311Y0091433D03*
X0122311Y0091433D03*
X0112311Y0091433D03*
X0112311Y0081433D03*
X0122311Y0081433D03*
X0122311Y0071433D03*
X0112311Y0071433D03*
X0102311Y0071433D03*
X0092311Y0071433D03*
X0092311Y0081433D03*
X0102311Y0081433D03*
X0102311Y0091433D03*
X0092311Y0091433D03*
X0082311Y0091433D03*
X0082311Y0081433D03*
X0082311Y0071433D03*
X0072311Y0071433D03*
X0072311Y0081433D03*
X0072311Y0091433D03*
X0072311Y0181433D03*
X0082311Y0181433D03*
X0092311Y0181433D03*
X0102311Y0181433D03*
X0112311Y0181433D03*
X0122311Y0181433D03*
X0132311Y0181433D03*
X0142311Y0181433D03*
X0152311Y0181433D03*
X0162311Y0181433D03*
X0172311Y0181433D03*
X0182311Y0181433D03*
X0192311Y0181433D03*
X0202311Y0181433D03*
X0212311Y0181433D03*
X0222311Y0181433D03*
X0222311Y0171433D03*
X0212311Y0171433D03*
X0212311Y0161433D03*
X0222311Y0161433D03*
X0222311Y0151433D03*
X0212311Y0151433D03*
X0202311Y0151433D03*
X0202311Y0161433D03*
X0202311Y0171433D03*
X0192311Y0171433D03*
X0182311Y0171433D03*
X0182311Y0161433D03*
X0192311Y0161433D03*
X0192311Y0151433D03*
X0182311Y0151433D03*
X0172311Y0151433D03*
X0172311Y0161433D03*
X0172311Y0171433D03*
X0172311Y0191433D03*
X0162311Y0191433D03*
X0162311Y0201433D03*
X0172311Y0201433D03*
X0182311Y0201433D03*
X0192311Y0201433D03*
X0202311Y0201433D03*
X0212311Y0201433D03*
X0222311Y0201433D03*
X0222311Y0191433D03*
X0212311Y0191433D03*
X0202311Y0191433D03*
X0192311Y0191433D03*
X0182311Y0191433D03*
X0182311Y0211433D03*
X0192311Y0211433D03*
X0202311Y0211433D03*
X0212311Y0211433D03*
X0222311Y0211433D03*
X0222311Y0223933D03*
X0212311Y0223933D03*
X0212311Y0233933D03*
X0222311Y0233933D03*
X0202311Y0233933D03*
X0202311Y0223933D03*
X0192311Y0223933D03*
X0182311Y0223933D03*
X0182311Y0233933D03*
X0192311Y0233933D03*
X0172311Y0233933D03*
X0162311Y0233933D03*
X0162311Y0223933D03*
X0172311Y0223933D03*
X0172311Y0211433D03*
X0162311Y0211433D03*
X0152311Y0211433D03*
X0152311Y0201433D03*
X0152311Y0191433D03*
X0142311Y0191433D03*
X0132311Y0191433D03*
X0132311Y0201433D03*
X0142311Y0201433D03*
X0142311Y0211433D03*
X0132311Y0211433D03*
X0122311Y0211433D03*
X0112311Y0211433D03*
X0112311Y0201433D03*
X0122311Y0201433D03*
X0122311Y0191433D03*
X0112311Y0191433D03*
X0102311Y0191433D03*
X0092311Y0191433D03*
X0092311Y0201433D03*
X0102311Y0201433D03*
X0102311Y0211433D03*
X0092311Y0211433D03*
X0082311Y0211433D03*
X0082311Y0201433D03*
X0082311Y0191433D03*
X0072311Y0191433D03*
X0072311Y0201433D03*
X0072311Y0211433D03*
X0072311Y0223933D03*
X0082311Y0223933D03*
X0092311Y0223933D03*
X0102311Y0223933D03*
X0112311Y0223933D03*
X0122311Y0223933D03*
X0132311Y0223933D03*
X0142311Y0223933D03*
X0152311Y0223933D03*
X0152311Y0233933D03*
X0142311Y0233933D03*
X0132311Y0233933D03*
X0122311Y0233933D03*
X0112311Y0233933D03*
X0102311Y0233933D03*
X0092311Y0233933D03*
X0082311Y0233933D03*
X0072311Y0233933D03*
X0172311Y0131433D03*
X0182311Y0131433D03*
X0192311Y0131433D03*
X0192311Y0121433D03*
X0182311Y0121433D03*
X0172311Y0121433D03*
X0172311Y0111433D03*
X0232311Y0141433D03*
D11*
X0229519Y0082758D03*
X0239519Y0082758D03*
X0249519Y0082758D03*
D12*
X0252311Y0163933D03*
X0237311Y0163933D03*
X0237311Y0183933D03*
X0252311Y0183933D03*
X0252311Y0203933D03*
X0237311Y0203933D03*
X0237311Y0223933D03*
X0252311Y0223933D03*
D13*
X0157311Y0143933D03*
X0157311Y0133933D03*
X0157311Y0123933D03*
D14*
X0246267Y0131925D02*
X0246267Y0136681D01*
X0246267Y0105941D02*
X0246267Y0101185D01*
D15*
X0257291Y0104760D03*
X0257291Y0133106D03*
D16*
X0252311Y0163933D02*
X0237311Y0163933D01*
X0223111Y0161733D02*
X0222311Y0161433D01*
X0222311Y0161733D01*
X0223111Y0161733D01*
X0222311Y0161733D02*
X0222311Y0171433D01*
X0223111Y0171533D01*
X0222311Y0171533D01*
X0222311Y0181433D01*
X0223111Y0182733D01*
X0222311Y0182733D01*
X0222311Y0191433D01*
X0223111Y0192533D01*
X0222311Y0192533D01*
X0222311Y0201433D01*
X0223111Y0202333D01*
X0222311Y0202333D01*
X0222311Y0211433D01*
X0212311Y0211433D02*
X0212311Y0202333D01*
X0211911Y0202333D01*
X0212311Y0201433D01*
X0212311Y0192533D01*
X0211911Y0192533D01*
X0212311Y0191433D01*
X0212311Y0182733D01*
X0211911Y0182733D01*
X0212311Y0181433D01*
X0212311Y0171533D01*
X0211911Y0171533D01*
X0212311Y0171433D01*
X0212311Y0161733D01*
X0211911Y0161733D01*
X0212311Y0161433D01*
X0212311Y0151433D01*
X0222311Y0151433D02*
X0222311Y0161433D01*
X0212311Y0161433D02*
X0212311Y0161733D01*
X0212311Y0171433D02*
X0212311Y0171533D01*
X0222311Y0171433D02*
X0222311Y0171533D01*
X0222311Y0181433D02*
X0222311Y0182733D01*
X0222311Y0191433D02*
X0222311Y0192533D01*
X0212311Y0192533D02*
X0212311Y0191433D01*
X0212311Y0182733D02*
X0212311Y0181433D01*
X0202311Y0181433D02*
X0202311Y0171533D01*
X0202111Y0171533D01*
X0202311Y0171433D01*
X0202311Y0161733D01*
X0202111Y0161733D01*
X0202311Y0161433D01*
X0202311Y0151433D01*
X0202311Y0161433D02*
X0202311Y0161733D01*
X0202311Y0171433D02*
X0202311Y0171533D01*
X0202311Y0181433D02*
X0202111Y0182733D01*
X0202311Y0182733D01*
X0202311Y0181433D01*
X0202311Y0182733D02*
X0202311Y0191433D01*
X0202111Y0192533D01*
X0202311Y0192533D01*
X0202311Y0191433D01*
X0202311Y0192533D02*
X0202311Y0201433D01*
X0202111Y0202333D01*
X0202311Y0202333D01*
X0202311Y0201433D01*
X0202311Y0202333D02*
X0202311Y0211433D01*
X0192311Y0211433D02*
X0192311Y0202333D01*
X0192311Y0201433D01*
X0192311Y0192533D01*
X0192311Y0191433D01*
X0192311Y0182733D01*
X0192311Y0181433D01*
X0192311Y0171533D01*
X0192311Y0171433D01*
X0192311Y0161733D01*
X0192311Y0161433D01*
X0192311Y0151433D01*
X0182311Y0151433D02*
X0182311Y0161433D01*
X0182511Y0161733D01*
X0182311Y0161733D01*
X0182311Y0161433D01*
X0182311Y0161733D02*
X0182311Y0171433D01*
X0182511Y0171533D01*
X0182311Y0171533D01*
X0182311Y0171433D01*
X0182311Y0171533D02*
X0182311Y0181433D01*
X0182511Y0182733D01*
X0182311Y0182733D01*
X0182311Y0181433D01*
X0182311Y0182733D02*
X0182311Y0191433D01*
X0182511Y0192533D01*
X0182311Y0192533D01*
X0182311Y0191433D01*
X0182311Y0192533D02*
X0182311Y0201433D01*
X0182511Y0202333D01*
X0182311Y0202333D01*
X0182311Y0201433D01*
X0182311Y0202333D02*
X0182311Y0211433D01*
X0172311Y0211433D02*
X0172311Y0202333D01*
X0172711Y0202333D01*
X0172311Y0201433D01*
X0172311Y0202333D01*
X0172311Y0201433D02*
X0172311Y0192533D01*
X0172711Y0192533D01*
X0172311Y0191433D01*
X0172311Y0192533D01*
X0172311Y0191433D02*
X0172311Y0182733D01*
X0172711Y0182733D01*
X0172311Y0181433D01*
X0172311Y0182733D01*
X0172311Y0181433D02*
X0172311Y0171533D01*
X0172711Y0171533D01*
X0172311Y0171433D01*
X0172311Y0171533D01*
X0172311Y0171433D02*
X0172311Y0161733D01*
X0172711Y0161733D01*
X0172311Y0161433D01*
X0172311Y0161733D01*
X0172311Y0161433D02*
X0172311Y0151433D01*
X0157311Y0143933D02*
X0077311Y0143933D01*
X0072311Y0148933D01*
X0072311Y0181433D01*
X0072311Y0191433D01*
X0071911Y0192533D01*
X0072311Y0192533D01*
X0072311Y0200933D01*
X0071911Y0200933D01*
X0072311Y0201433D01*
X0072311Y0211433D01*
X0082311Y0211433D02*
X0082311Y0201433D01*
X0083111Y0200933D01*
X0082311Y0200933D01*
X0082311Y0201433D01*
X0082311Y0200933D02*
X0082311Y0192533D01*
X0083111Y0192533D01*
X0082311Y0191433D01*
X0082311Y0192533D01*
X0082311Y0191433D02*
X0082311Y0181433D01*
X0082311Y0153933D01*
X0092311Y0133933D02*
X0157311Y0133933D01*
X0172311Y0131433D02*
X0172311Y0122533D01*
X0172711Y0122533D01*
X0172311Y0121433D01*
X0172311Y0122533D01*
X0172311Y0121433D02*
X0172311Y0111433D01*
X0172711Y0111333D01*
X0172311Y0111333D01*
X0172311Y0111433D01*
X0172311Y0111333D02*
X0172311Y0101433D01*
X0172711Y0100133D01*
X0172311Y0100133D01*
X0172311Y0101433D01*
X0172311Y0100133D02*
X0172311Y0091733D01*
X0172711Y0091733D01*
X0172311Y0091433D01*
X0172311Y0091733D01*
X0172311Y0091433D02*
X0172311Y0081933D01*
X0172711Y0081933D01*
X0172311Y0081433D01*
X0172311Y0081933D01*
X0172311Y0081433D02*
X0172311Y0072133D01*
X0172711Y0072133D01*
X0172311Y0071433D01*
X0172311Y0072133D01*
X0172311Y0071433D02*
X0172311Y0061433D01*
X0162311Y0061433D02*
X0162311Y0071433D01*
X0162911Y0072133D01*
X0162311Y0072133D01*
X0162311Y0071433D01*
X0162311Y0072133D02*
X0162311Y0080533D01*
X0162911Y0080533D01*
X0162311Y0081433D01*
X0162311Y0080533D01*
X0162311Y0081433D02*
X0162311Y0091433D01*
X0152311Y0091433D02*
X0152311Y0081433D01*
X0153111Y0080533D01*
X0152311Y0080533D01*
X0152311Y0081433D01*
X0152311Y0080533D02*
X0152311Y0072133D01*
X0153111Y0072133D01*
X0152311Y0071433D01*
X0152311Y0072133D01*
X0152311Y0071433D02*
X0152311Y0061433D01*
X0142311Y0061433D02*
X0142311Y0071433D01*
X0141911Y0072133D01*
X0142311Y0072133D01*
X0142311Y0071433D01*
X0142311Y0072133D02*
X0142311Y0080533D01*
X0141911Y0080533D01*
X0142311Y0081433D01*
X0142311Y0080533D01*
X0142311Y0081433D02*
X0142311Y0091433D01*
X0132311Y0091433D02*
X0132311Y0081433D01*
X0132111Y0080533D01*
X0132311Y0080533D01*
X0132311Y0081433D01*
X0132311Y0080533D02*
X0132311Y0072133D01*
X0132111Y0072133D01*
X0132311Y0071433D01*
X0132311Y0072133D01*
X0132311Y0071433D02*
X0132311Y0061433D01*
X0122311Y0061433D02*
X0122311Y0071433D01*
X0122311Y0072133D01*
X0122311Y0080533D01*
X0122311Y0081433D01*
X0122311Y0091433D01*
X0112311Y0091433D02*
X0112311Y0081433D01*
X0112511Y0080533D01*
X0112311Y0080533D01*
X0112311Y0081433D01*
X0112311Y0080533D02*
X0112311Y0072133D01*
X0112511Y0072133D01*
X0112311Y0071433D01*
X0112311Y0072133D01*
X0112311Y0071433D02*
X0112311Y0061433D01*
X0102311Y0061433D02*
X0102311Y0071433D01*
X0102711Y0072133D01*
X0102311Y0072133D01*
X0102311Y0071433D01*
X0102311Y0072133D02*
X0102311Y0080533D01*
X0102711Y0080533D01*
X0102311Y0081433D01*
X0102311Y0080533D01*
X0102311Y0081433D02*
X0102311Y0091433D01*
X0092311Y0091433D02*
X0092311Y0081433D01*
X0092911Y0080533D01*
X0092311Y0080533D01*
X0092311Y0081433D01*
X0092311Y0080533D02*
X0092311Y0072133D01*
X0092911Y0072133D01*
X0092311Y0071433D01*
X0092311Y0072133D01*
X0092311Y0071433D02*
X0092311Y0061433D01*
X0082311Y0061433D02*
X0082311Y0071433D01*
X0083111Y0072133D01*
X0082311Y0072133D01*
X0082311Y0071433D01*
X0082311Y0072133D02*
X0082311Y0080533D01*
X0083111Y0080533D01*
X0082311Y0081433D01*
X0082311Y0080533D01*
X0082311Y0081433D02*
X0082311Y0091433D01*
X0072311Y0091433D02*
X0072311Y0081433D01*
X0071911Y0080533D01*
X0072311Y0080533D01*
X0072311Y0081433D01*
X0072311Y0080533D02*
X0072311Y0072133D01*
X0071911Y0072133D01*
X0072311Y0071433D01*
X0072311Y0072133D01*
X0072311Y0071433D02*
X0072311Y0061433D01*
X0072311Y0048933D02*
X0252311Y0048933D01*
X0202311Y0061433D02*
X0202311Y0071433D01*
X0202111Y0072133D01*
X0202311Y0072133D01*
X0202311Y0071433D01*
X0202311Y0072133D02*
X0202311Y0081433D01*
X0202111Y0081933D01*
X0202311Y0081933D01*
X0202311Y0081433D01*
X0202311Y0081933D02*
X0202311Y0091433D01*
X0202111Y0091733D01*
X0202311Y0091733D01*
X0202311Y0091433D01*
X0202311Y0091733D02*
X0202311Y0100133D01*
X0202111Y0100133D01*
X0202311Y0101433D01*
X0202311Y0100133D01*
X0202311Y0101433D02*
X0202311Y0111333D01*
X0202111Y0111333D01*
X0202311Y0111433D01*
X0202311Y0111333D01*
X0202311Y0111433D02*
X0202311Y0121433D01*
X0202111Y0122533D01*
X0202311Y0122533D01*
X0202311Y0121433D01*
X0202311Y0122533D02*
X0202311Y0131433D01*
X0212311Y0131433D02*
X0212311Y0121433D01*
X0211911Y0121133D01*
X0212311Y0121133D01*
X0212311Y0121433D01*
X0212311Y0121133D02*
X0212311Y0111433D01*
X0211911Y0111333D01*
X0212311Y0111333D01*
X0212311Y0111433D01*
X0212311Y0111333D02*
X0212311Y0101433D01*
X0222311Y0101433D02*
X0222311Y0111333D01*
X0223111Y0111333D01*
X0222311Y0111433D01*
X0222311Y0111333D01*
X0222311Y0111433D02*
X0222311Y0121133D01*
X0223111Y0121133D01*
X0222311Y0121433D01*
X0222311Y0121133D01*
X0222311Y0121433D02*
X0222311Y0131433D01*
X0192311Y0131433D02*
X0192311Y0122533D01*
X0192311Y0121433D01*
X0192311Y0111433D01*
X0192311Y0111333D01*
X0192311Y0101433D01*
X0192311Y0100133D01*
X0192311Y0091733D01*
X0192311Y0091433D01*
X0192311Y0081933D01*
X0192311Y0081433D01*
X0192311Y0072133D01*
X0192311Y0071433D01*
X0192311Y0061433D01*
X0182311Y0061433D02*
X0182311Y0071433D01*
X0182511Y0072133D01*
X0182311Y0072133D01*
X0182311Y0071433D01*
X0182311Y0072133D02*
X0182311Y0081433D01*
X0182511Y0081933D01*
X0182311Y0081933D01*
X0182311Y0081433D01*
X0182311Y0081933D02*
X0182311Y0091433D01*
X0182511Y0091733D01*
X0182311Y0091733D01*
X0182311Y0091433D01*
X0182311Y0091733D02*
X0182311Y0100133D01*
X0182511Y0100133D01*
X0182311Y0101433D01*
X0182311Y0100133D01*
X0182311Y0101433D02*
X0182311Y0111333D01*
X0182511Y0111333D01*
X0182311Y0111433D01*
X0182311Y0111333D01*
X0182311Y0111433D02*
X0182311Y0121433D01*
X0182511Y0122533D01*
X0182311Y0122533D01*
X0182311Y0121433D01*
X0182311Y0122533D02*
X0182311Y0131433D01*
X0152311Y0098933D02*
X0152311Y0091433D01*
X0152311Y0098933D02*
X0147311Y0103933D01*
X0132311Y0103933D01*
X0127311Y0108933D01*
X0127311Y0118933D01*
X0132311Y0181433D02*
X0132311Y0191433D01*
X0132111Y0192533D01*
X0132311Y0192533D01*
X0132311Y0200933D01*
X0132111Y0200933D01*
X0132311Y0201433D01*
X0132311Y0211433D01*
X0142311Y0211433D02*
X0142311Y0201433D01*
X0141911Y0200933D01*
X0142311Y0200933D01*
X0142311Y0192533D01*
X0141911Y0192533D01*
X0142311Y0191433D01*
X0142311Y0181433D01*
X0152311Y0181433D02*
X0152311Y0191433D01*
X0153111Y0192533D01*
X0152311Y0192533D01*
X0152311Y0200933D01*
X0153111Y0200933D01*
X0152311Y0201433D01*
X0152311Y0211433D01*
X0162311Y0211433D02*
X0162311Y0201433D01*
X0162911Y0200933D01*
X0162311Y0200933D01*
X0162311Y0192533D01*
X0162911Y0192533D01*
X0162311Y0191433D01*
X0162311Y0181433D01*
X0162311Y0191433D02*
X0162311Y0192533D01*
X0162311Y0200933D02*
X0162311Y0201433D01*
X0152311Y0201433D02*
X0152311Y0200933D01*
X0152311Y0192533D02*
X0152311Y0191433D01*
X0142311Y0191433D02*
X0142311Y0192533D01*
X0132311Y0192533D02*
X0132311Y0191433D01*
X0132311Y0200933D02*
X0132311Y0201433D01*
X0142311Y0201433D02*
X0142311Y0200933D01*
X0122311Y0200933D02*
X0122311Y0192533D01*
X0122311Y0191433D01*
X0122311Y0181433D01*
X0112311Y0181433D02*
X0112311Y0191433D01*
X0112511Y0192533D01*
X0112311Y0192533D01*
X0112311Y0200933D01*
X0112511Y0200933D01*
X0112311Y0201433D01*
X0112311Y0211433D01*
X0122311Y0211433D02*
X0122311Y0201433D01*
X0122311Y0200933D01*
X0112311Y0200933D02*
X0112311Y0201433D01*
X0112311Y0192533D02*
X0112311Y0191433D01*
X0102711Y0192533D02*
X0102311Y0192533D01*
X0102311Y0200933D01*
X0102711Y0200933D01*
X0102311Y0201433D01*
X0102311Y0211433D01*
X0092311Y0211433D02*
X0092311Y0201433D01*
X0092911Y0200933D01*
X0092311Y0200933D01*
X0092311Y0192533D01*
X0092911Y0192533D01*
X0092311Y0191433D01*
X0092311Y0181433D01*
X0102311Y0181433D02*
X0102311Y0191433D01*
X0102711Y0192533D01*
X0102311Y0192533D02*
X0102311Y0191433D01*
X0092311Y0191433D02*
X0092311Y0192533D01*
X0092311Y0200933D02*
X0092311Y0201433D01*
X0102311Y0201433D02*
X0102311Y0200933D01*
X0072311Y0200933D02*
X0072311Y0201433D01*
X0072311Y0192533D02*
X0072311Y0191433D01*
X0072311Y0223933D02*
X0222311Y0223933D01*
X0237311Y0223933D02*
X0252311Y0223933D01*
X0252311Y0203933D02*
X0237311Y0203933D01*
X0222311Y0202333D02*
X0222311Y0201433D01*
X0212311Y0201433D02*
X0212311Y0202333D01*
X0237311Y0183933D02*
X0252311Y0183933D01*
D17*
X0055411Y0103842D02*
X0055411Y0022033D01*
X0262596Y0022033D01*
X0262596Y0098078D01*
X0262449Y0098039D01*
X0257291Y0098039D01*
X0257291Y0101279D01*
X0257291Y0101279D01*
X0257291Y0098039D01*
X0252133Y0098039D01*
X0251675Y0098161D01*
X0251264Y0098398D01*
X0250929Y0098733D01*
X0250692Y0099144D01*
X0250570Y0099602D01*
X0250570Y0104760D01*
X0252816Y0104760D01*
X0252816Y0104760D01*
X0252816Y0104760D01*
X0250570Y0104760D01*
X0250570Y0107589D01*
X0250542Y0107578D01*
X0250122Y0107578D01*
X0250139Y0107545D01*
X0250342Y0106919D01*
X0250445Y0106270D01*
X0250445Y0105941D01*
X0246267Y0105941D01*
X0246267Y0105941D01*
X0242089Y0105941D01*
X0242089Y0106270D01*
X0242192Y0106919D01*
X0242395Y0107545D01*
X0242694Y0108131D01*
X0243080Y0108663D01*
X0243545Y0109128D01*
X0244077Y0109514D01*
X0244663Y0109813D01*
X0245289Y0110016D01*
X0245938Y0110119D01*
X0246267Y0110119D01*
X0246267Y0105941D01*
X0242089Y0105941D01*
X0242089Y0100856D01*
X0242192Y0100207D01*
X0242395Y0099581D01*
X0242694Y0098995D01*
X0243080Y0098463D01*
X0243545Y0097998D01*
X0244077Y0097612D01*
X0244663Y0097313D01*
X0245289Y0097110D01*
X0245938Y0097007D01*
X0246267Y0097007D01*
X0246267Y0105941D01*
X0246267Y0105941D01*
X0246267Y0105941D01*
X0246267Y0110119D01*
X0246301Y0110119D01*
X0246133Y0110524D01*
X0246133Y0111987D01*
X0246692Y0113339D01*
X0247727Y0114374D01*
X0249079Y0114934D01*
X0250542Y0114934D01*
X0251894Y0114374D01*
X0252929Y0113339D01*
X0253488Y0111987D01*
X0253488Y0111481D01*
X0257291Y0111481D01*
X0257291Y0108241D01*
X0257291Y0108241D01*
X0257291Y0111481D01*
X0262449Y0111481D01*
X0262596Y0111442D01*
X0262596Y0126425D01*
X0262449Y0126385D01*
X0257291Y0126385D01*
X0257291Y0129625D01*
X0257291Y0129625D01*
X0257291Y0126385D01*
X0253488Y0126385D01*
X0253488Y0125879D01*
X0252929Y0124527D01*
X0251894Y0123492D01*
X0250542Y0122932D01*
X0249079Y0122932D01*
X0247727Y0123492D01*
X0246692Y0124527D01*
X0246133Y0125879D01*
X0246133Y0127342D01*
X0246301Y0127747D01*
X0246267Y0127747D01*
X0246267Y0131925D01*
X0242089Y0131925D01*
X0242089Y0131596D01*
X0242192Y0130947D01*
X0242395Y0130321D01*
X0242694Y0129735D01*
X0243080Y0129203D01*
X0243545Y0128738D01*
X0244077Y0128352D01*
X0244663Y0128053D01*
X0245289Y0127850D01*
X0245938Y0127747D01*
X0246267Y0127747D01*
X0246267Y0131925D01*
X0246267Y0131925D01*
X0246267Y0131925D01*
X0242089Y0131925D01*
X0242089Y0137010D01*
X0242192Y0137659D01*
X0242395Y0138285D01*
X0242694Y0138871D01*
X0243080Y0139403D01*
X0243545Y0139868D01*
X0244077Y0140254D01*
X0244663Y0140553D01*
X0245289Y0140756D01*
X0245938Y0140859D01*
X0246267Y0140859D01*
X0246267Y0131925D01*
X0246267Y0131925D01*
X0246267Y0131925D01*
X0250445Y0131925D01*
X0250445Y0131596D01*
X0250342Y0130947D01*
X0250139Y0130321D01*
X0250122Y0130288D01*
X0250542Y0130288D01*
X0250570Y0130277D01*
X0250570Y0133106D01*
X0252816Y0133106D01*
X0252816Y0133106D01*
X0252816Y0133106D01*
X0250570Y0133106D01*
X0250570Y0138265D01*
X0250692Y0138722D01*
X0250929Y0139133D01*
X0251264Y0139468D01*
X0251675Y0139705D01*
X0252133Y0139828D01*
X0257291Y0139828D01*
X0257291Y0136587D01*
X0257291Y0136587D01*
X0257291Y0139828D01*
X0262449Y0139828D01*
X0262596Y0139788D01*
X0262596Y0250479D01*
X0055411Y0250479D01*
X0055411Y0170442D01*
X0069711Y0170442D01*
X0069711Y0177316D01*
X0067561Y0179466D01*
X0067561Y0183401D01*
X0069711Y0185551D01*
X0069711Y0187316D01*
X0067561Y0189466D01*
X0067561Y0193401D01*
X0069711Y0195551D01*
X0069711Y0197316D01*
X0067561Y0199466D01*
X0067561Y0203401D01*
X0069711Y0205551D01*
X0069711Y0207316D01*
X0067561Y0209466D01*
X0067561Y0213401D01*
X0070343Y0216183D01*
X0074278Y0216183D01*
X0077061Y0213401D01*
X0077061Y0209466D01*
X0074911Y0207316D01*
X0074911Y0205551D01*
X0077061Y0203401D01*
X0077061Y0199466D01*
X0074911Y0197316D01*
X0074911Y0195551D01*
X0077061Y0193401D01*
X0077061Y0189466D01*
X0074911Y0187316D01*
X0074911Y0185551D01*
X0077061Y0183401D01*
X0077061Y0179466D01*
X0074911Y0177316D01*
X0074911Y0170442D01*
X0076599Y0170442D01*
X0077067Y0169973D01*
X0077067Y0147853D01*
X0078387Y0146533D01*
X0152867Y0146533D01*
X0152987Y0146822D01*
X0154422Y0148257D01*
X0156296Y0149033D01*
X0158325Y0149033D01*
X0160199Y0148257D01*
X0161634Y0146822D01*
X0162411Y0144948D01*
X0162411Y0142919D01*
X0161634Y0141044D01*
X0160199Y0139609D01*
X0158566Y0138933D01*
X0160199Y0138257D01*
X0161634Y0136822D01*
X0162411Y0134948D01*
X0162411Y0132919D01*
X0161634Y0131044D01*
X0160199Y0129609D01*
X0158789Y0129025D01*
X0159345Y0128845D01*
X0160088Y0128466D01*
X0160763Y0127976D01*
X0161353Y0127386D01*
X0161843Y0126711D01*
X0162222Y0125968D01*
X0162480Y0125174D01*
X0162611Y0124350D01*
X0162611Y0124133D01*
X0157511Y0124133D01*
X0157511Y0123733D01*
X0162610Y0123733D01*
X0162611Y0123516D01*
X0162480Y0122692D01*
X0162222Y0121899D01*
X0161843Y0121155D01*
X0161353Y0120480D01*
X0160763Y0119890D01*
X0160088Y0119400D01*
X0159345Y0119021D01*
X0158552Y0118764D01*
X0157728Y0118633D01*
X0157511Y0118633D01*
X0157511Y0123733D01*
X0157110Y0123733D01*
X0152011Y0123733D01*
X0152011Y0123516D01*
X0152141Y0122692D01*
X0152399Y0121899D01*
X0152778Y0121155D01*
X0153268Y0120480D01*
X0153858Y0119890D01*
X0154533Y0119400D01*
X0155276Y0119021D01*
X0156069Y0118764D01*
X0156893Y0118633D01*
X0157110Y0118633D01*
X0157110Y0123733D01*
X0157110Y0124133D01*
X0152011Y0124133D01*
X0152011Y0124350D01*
X0152141Y0125174D01*
X0152399Y0125968D01*
X0152778Y0126711D01*
X0153268Y0127386D01*
X0153858Y0127976D01*
X0154533Y0128466D01*
X0155276Y0128845D01*
X0155832Y0129025D01*
X0154422Y0129609D01*
X0152987Y0131044D01*
X0152867Y0131333D01*
X0094519Y0131333D01*
X0094236Y0131051D01*
X0092987Y0130533D01*
X0091634Y0130533D01*
X0090385Y0131051D01*
X0089428Y0132007D01*
X0088911Y0133257D01*
X0088911Y0134609D01*
X0089428Y0135859D01*
X0090385Y0136815D01*
X0091634Y0137333D01*
X0092987Y0137333D01*
X0094236Y0136815D01*
X0094519Y0136533D01*
X0152867Y0136533D01*
X0152987Y0136822D01*
X0154422Y0138257D01*
X0156055Y0138933D01*
X0154422Y0139609D01*
X0152987Y0141044D01*
X0152867Y0141333D01*
X0077067Y0141333D01*
X0077067Y0104310D01*
X0076599Y0103842D01*
X0055411Y0103842D01*
X0055411Y0103654D02*
X0128912Y0103654D01*
X0130106Y0102460D02*
X0130838Y0101729D01*
X0131793Y0101333D01*
X0146234Y0101333D01*
X0149711Y0097856D01*
X0149711Y0095551D01*
X0147561Y0093401D01*
X0147561Y0089466D01*
X0149711Y0087316D01*
X0149711Y0085551D01*
X0147561Y0083401D01*
X0147561Y0079466D01*
X0149711Y0077316D01*
X0149711Y0075551D01*
X0147561Y0073401D01*
X0147561Y0069466D01*
X0149711Y0067316D01*
X0149711Y0065551D01*
X0147561Y0063401D01*
X0147561Y0059466D01*
X0150343Y0056683D01*
X0154278Y0056683D01*
X0157061Y0059466D01*
X0157061Y0063401D01*
X0154911Y0065551D01*
X0154911Y0067316D01*
X0157061Y0069466D01*
X0157061Y0073401D01*
X0154911Y0075551D01*
X0154911Y0077316D01*
X0157061Y0079466D01*
X0157061Y0083401D01*
X0154911Y0085551D01*
X0154911Y0087316D01*
X0157061Y0089466D01*
X0157061Y0093401D01*
X0154911Y0095551D01*
X0154911Y0099450D01*
X0154515Y0100406D01*
X0153783Y0101137D01*
X0148783Y0106137D01*
X0147828Y0106533D01*
X0133387Y0106533D01*
X0129911Y0110010D01*
X0129911Y0116725D01*
X0130193Y0117007D01*
X0130711Y0118257D01*
X0130711Y0119609D01*
X0130193Y0120859D01*
X0129236Y0121815D01*
X0127987Y0122333D01*
X0126634Y0122333D01*
X0125385Y0121815D01*
X0124428Y0120859D01*
X0123911Y0119609D01*
X0123911Y0118257D01*
X0124428Y0117007D01*
X0124711Y0116725D01*
X0124711Y0108416D01*
X0125106Y0107460D01*
X0130106Y0102460D01*
X0130511Y0102056D02*
X0055411Y0102056D01*
X0055411Y0100457D02*
X0147109Y0100457D01*
X0148708Y0098859D02*
X0055411Y0098859D01*
X0055411Y0097260D02*
X0149711Y0097260D01*
X0149711Y0095662D02*
X0144799Y0095662D01*
X0144278Y0096183D02*
X0140343Y0096183D01*
X0137561Y0093401D01*
X0137561Y0089466D01*
X0139711Y0087316D01*
X0139711Y0085551D01*
X0137561Y0083401D01*
X0137561Y0079466D01*
X0139711Y0077316D01*
X0139711Y0075551D01*
X0137561Y0073401D01*
X0137561Y0069466D01*
X0139711Y0067316D01*
X0139711Y0065551D01*
X0137561Y0063401D01*
X0137561Y0059466D01*
X0140343Y0056683D01*
X0144278Y0056683D01*
X0147061Y0059466D01*
X0147061Y0063401D01*
X0144911Y0065551D01*
X0144911Y0067316D01*
X0147061Y0069466D01*
X0147061Y0073401D01*
X0144911Y0075551D01*
X0144911Y0077316D01*
X0147061Y0079466D01*
X0147061Y0083401D01*
X0144911Y0085551D01*
X0144911Y0087316D01*
X0147061Y0089466D01*
X0147061Y0093401D01*
X0144278Y0096183D01*
X0146398Y0094063D02*
X0148223Y0094063D01*
X0147561Y0092465D02*
X0147061Y0092465D01*
X0147061Y0090866D02*
X0147561Y0090866D01*
X0147759Y0089268D02*
X0146863Y0089268D01*
X0145264Y0087669D02*
X0149357Y0087669D01*
X0149711Y0086071D02*
X0144911Y0086071D01*
X0145989Y0084472D02*
X0148632Y0084472D01*
X0147561Y0082874D02*
X0147061Y0082874D01*
X0147061Y0081275D02*
X0147561Y0081275D01*
X0147561Y0079677D02*
X0147061Y0079677D01*
X0145673Y0078078D02*
X0148948Y0078078D01*
X0149711Y0076479D02*
X0144911Y0076479D01*
X0145580Y0074881D02*
X0149041Y0074881D01*
X0147561Y0073282D02*
X0147061Y0073282D01*
X0147061Y0071684D02*
X0147561Y0071684D01*
X0147561Y0070085D02*
X0147061Y0070085D01*
X0146082Y0068487D02*
X0148539Y0068487D01*
X0149711Y0066888D02*
X0144911Y0066888D01*
X0145171Y0065290D02*
X0149450Y0065290D01*
X0147851Y0063691D02*
X0146770Y0063691D01*
X0147061Y0062093D02*
X0147561Y0062093D01*
X0147561Y0060494D02*
X0147061Y0060494D01*
X0146491Y0058896D02*
X0148130Y0058896D01*
X0149729Y0057297D02*
X0144892Y0057297D01*
X0144278Y0053683D02*
X0140343Y0053683D01*
X0138193Y0051533D01*
X0136428Y0051533D01*
X0134278Y0053683D01*
X0130343Y0053683D01*
X0128193Y0051533D01*
X0126428Y0051533D01*
X0124278Y0053683D01*
X0120343Y0053683D01*
X0118193Y0051533D01*
X0116428Y0051533D01*
X0114278Y0053683D01*
X0110343Y0053683D01*
X0108193Y0051533D01*
X0106428Y0051533D01*
X0104278Y0053683D01*
X0100343Y0053683D01*
X0098193Y0051533D01*
X0096428Y0051533D01*
X0094278Y0053683D01*
X0090343Y0053683D01*
X0088193Y0051533D01*
X0086428Y0051533D01*
X0084278Y0053683D01*
X0080343Y0053683D01*
X0078193Y0051533D01*
X0076428Y0051533D01*
X0074278Y0053683D01*
X0070343Y0053683D01*
X0067561Y0050901D01*
X0067561Y0046966D01*
X0070343Y0044183D01*
X0074278Y0044183D01*
X0076428Y0046333D01*
X0078193Y0046333D01*
X0080343Y0044183D01*
X0084278Y0044183D01*
X0086428Y0046333D01*
X0088193Y0046333D01*
X0090343Y0044183D01*
X0094278Y0044183D01*
X0096428Y0046333D01*
X0098193Y0046333D01*
X0100343Y0044183D01*
X0104278Y0044183D01*
X0106428Y0046333D01*
X0108193Y0046333D01*
X0110343Y0044183D01*
X0114278Y0044183D01*
X0116428Y0046333D01*
X0118193Y0046333D01*
X0120343Y0044183D01*
X0124278Y0044183D01*
X0126428Y0046333D01*
X0128193Y0046333D01*
X0130343Y0044183D01*
X0134278Y0044183D01*
X0136428Y0046333D01*
X0138193Y0046333D01*
X0140343Y0044183D01*
X0144278Y0044183D01*
X0146428Y0046333D01*
X0148193Y0046333D01*
X0150343Y0044183D01*
X0154278Y0044183D01*
X0156428Y0046333D01*
X0158193Y0046333D01*
X0160343Y0044183D01*
X0164278Y0044183D01*
X0166428Y0046333D01*
X0168193Y0046333D01*
X0170343Y0044183D01*
X0174278Y0044183D01*
X0176428Y0046333D01*
X0178193Y0046333D01*
X0180343Y0044183D01*
X0184278Y0044183D01*
X0186428Y0046333D01*
X0188193Y0046333D01*
X0190343Y0044183D01*
X0194278Y0044183D01*
X0196428Y0046333D01*
X0198193Y0046333D01*
X0200343Y0044183D01*
X0204278Y0044183D01*
X0206428Y0046333D01*
X0208193Y0046333D01*
X0210343Y0044183D01*
X0214278Y0044183D01*
X0216428Y0046333D01*
X0218193Y0046333D01*
X0220343Y0044183D01*
X0224278Y0044183D01*
X0226428Y0046333D01*
X0228193Y0046333D01*
X0230343Y0044183D01*
X0234278Y0044183D01*
X0236428Y0046333D01*
X0238193Y0046333D01*
X0240343Y0044183D01*
X0244278Y0044183D01*
X0246428Y0046333D01*
X0248193Y0046333D01*
X0250343Y0044183D01*
X0254278Y0044183D01*
X0257061Y0046966D01*
X0257061Y0050901D01*
X0254278Y0053683D01*
X0250343Y0053683D01*
X0248193Y0051533D01*
X0246428Y0051533D01*
X0244278Y0053683D01*
X0240343Y0053683D01*
X0238193Y0051533D01*
X0236428Y0051533D01*
X0234278Y0053683D01*
X0230343Y0053683D01*
X0228193Y0051533D01*
X0226428Y0051533D01*
X0224278Y0053683D01*
X0220343Y0053683D01*
X0218193Y0051533D01*
X0216428Y0051533D01*
X0214278Y0053683D01*
X0210343Y0053683D01*
X0208193Y0051533D01*
X0206428Y0051533D01*
X0204278Y0053683D01*
X0200343Y0053683D01*
X0198193Y0051533D01*
X0196428Y0051533D01*
X0194278Y0053683D01*
X0190343Y0053683D01*
X0188193Y0051533D01*
X0186428Y0051533D01*
X0184278Y0053683D01*
X0180343Y0053683D01*
X0178193Y0051533D01*
X0176428Y0051533D01*
X0174278Y0053683D01*
X0170343Y0053683D01*
X0168193Y0051533D01*
X0166428Y0051533D01*
X0164278Y0053683D01*
X0160343Y0053683D01*
X0158193Y0051533D01*
X0156428Y0051533D01*
X0154278Y0053683D01*
X0150343Y0053683D01*
X0148193Y0051533D01*
X0146428Y0051533D01*
X0144278Y0053683D01*
X0145459Y0052502D02*
X0149162Y0052502D01*
X0155459Y0052502D02*
X0159162Y0052502D01*
X0160343Y0056683D02*
X0164278Y0056683D01*
X0167061Y0059466D01*
X0167061Y0063401D01*
X0164911Y0065551D01*
X0164911Y0067316D01*
X0167061Y0069466D01*
X0167061Y0073401D01*
X0164911Y0075551D01*
X0164911Y0077316D01*
X0167061Y0079466D01*
X0167061Y0083401D01*
X0164911Y0085551D01*
X0164911Y0087316D01*
X0167061Y0089466D01*
X0167061Y0093401D01*
X0164278Y0096183D01*
X0160343Y0096183D01*
X0157561Y0093401D01*
X0157561Y0089466D01*
X0159711Y0087316D01*
X0159711Y0085551D01*
X0157561Y0083401D01*
X0157561Y0079466D01*
X0159711Y0077316D01*
X0159711Y0075551D01*
X0157561Y0073401D01*
X0157561Y0069466D01*
X0159711Y0067316D01*
X0159711Y0065551D01*
X0157561Y0063401D01*
X0157561Y0059466D01*
X0160343Y0056683D01*
X0159729Y0057297D02*
X0154892Y0057297D01*
X0156491Y0058896D02*
X0158130Y0058896D01*
X0157561Y0060494D02*
X0157061Y0060494D01*
X0157061Y0062093D02*
X0157561Y0062093D01*
X0157851Y0063691D02*
X0156770Y0063691D01*
X0155171Y0065290D02*
X0159450Y0065290D01*
X0159711Y0066888D02*
X0154911Y0066888D01*
X0156082Y0068487D02*
X0158539Y0068487D01*
X0157561Y0070085D02*
X0157061Y0070085D01*
X0157061Y0071684D02*
X0157561Y0071684D01*
X0157561Y0073282D02*
X0157061Y0073282D01*
X0155580Y0074881D02*
X0159041Y0074881D01*
X0159711Y0076479D02*
X0154911Y0076479D01*
X0155673Y0078078D02*
X0158948Y0078078D01*
X0157561Y0079677D02*
X0157061Y0079677D01*
X0157061Y0081275D02*
X0157561Y0081275D01*
X0157561Y0082874D02*
X0157061Y0082874D01*
X0155989Y0084472D02*
X0158632Y0084472D01*
X0159711Y0086071D02*
X0154911Y0086071D01*
X0155264Y0087669D02*
X0159357Y0087669D01*
X0157759Y0089268D02*
X0156863Y0089268D01*
X0157061Y0090866D02*
X0157561Y0090866D01*
X0157561Y0092465D02*
X0157061Y0092465D01*
X0156398Y0094063D02*
X0158223Y0094063D01*
X0159822Y0095662D02*
X0154911Y0095662D01*
X0154911Y0097260D02*
X0169711Y0097260D01*
X0169711Y0097316D02*
X0169711Y0095551D01*
X0167561Y0093401D01*
X0167561Y0089466D01*
X0169711Y0087316D01*
X0169711Y0085551D01*
X0167561Y0083401D01*
X0167561Y0079466D01*
X0169711Y0077316D01*
X0169711Y0075551D01*
X0167561Y0073401D01*
X0167561Y0069466D01*
X0169711Y0067316D01*
X0169711Y0065551D01*
X0167561Y0063401D01*
X0167561Y0059466D01*
X0170343Y0056683D01*
X0174278Y0056683D01*
X0177061Y0059466D01*
X0177061Y0063401D01*
X0174911Y0065551D01*
X0174911Y0067316D01*
X0177061Y0069466D01*
X0177061Y0073401D01*
X0174911Y0075551D01*
X0174911Y0077316D01*
X0177061Y0079466D01*
X0177061Y0083401D01*
X0174911Y0085551D01*
X0174911Y0087316D01*
X0177061Y0089466D01*
X0177061Y0093401D01*
X0174911Y0095551D01*
X0174911Y0097316D01*
X0177061Y0099466D01*
X0177061Y0103401D01*
X0174911Y0105551D01*
X0174911Y0107316D01*
X0177061Y0109466D01*
X0177061Y0113401D01*
X0174911Y0115551D01*
X0174911Y0117316D01*
X0177061Y0119466D01*
X0177061Y0123401D01*
X0174911Y0125551D01*
X0174911Y0127316D01*
X0177061Y0129466D01*
X0177061Y0133401D01*
X0174278Y0136183D01*
X0170343Y0136183D01*
X0167561Y0133401D01*
X0167561Y0129466D01*
X0169711Y0127316D01*
X0169711Y0125551D01*
X0167561Y0123401D01*
X0167561Y0119466D01*
X0169711Y0117316D01*
X0169711Y0115551D01*
X0167561Y0113401D01*
X0167561Y0109466D01*
X0169711Y0107316D01*
X0169711Y0105551D01*
X0167561Y0103401D01*
X0167561Y0099466D01*
X0169711Y0097316D01*
X0169711Y0095662D02*
X0164799Y0095662D01*
X0166398Y0094063D02*
X0168223Y0094063D01*
X0167561Y0092465D02*
X0167061Y0092465D01*
X0167061Y0090866D02*
X0167561Y0090866D01*
X0167759Y0089268D02*
X0166863Y0089268D01*
X0165264Y0087669D02*
X0169357Y0087669D01*
X0169711Y0086071D02*
X0164911Y0086071D01*
X0165989Y0084472D02*
X0168632Y0084472D01*
X0167561Y0082874D02*
X0167061Y0082874D01*
X0167061Y0081275D02*
X0167561Y0081275D01*
X0167561Y0079677D02*
X0167061Y0079677D01*
X0165673Y0078078D02*
X0168948Y0078078D01*
X0169711Y0076479D02*
X0164911Y0076479D01*
X0165580Y0074881D02*
X0169041Y0074881D01*
X0167561Y0073282D02*
X0167061Y0073282D01*
X0167061Y0071684D02*
X0167561Y0071684D01*
X0167561Y0070085D02*
X0167061Y0070085D01*
X0166082Y0068487D02*
X0168539Y0068487D01*
X0169711Y0066888D02*
X0164911Y0066888D01*
X0165171Y0065290D02*
X0169450Y0065290D01*
X0167851Y0063691D02*
X0166770Y0063691D01*
X0167061Y0062093D02*
X0167561Y0062093D01*
X0167561Y0060494D02*
X0167061Y0060494D01*
X0166491Y0058896D02*
X0168130Y0058896D01*
X0169729Y0057297D02*
X0164892Y0057297D01*
X0165459Y0052502D02*
X0169162Y0052502D01*
X0175459Y0052502D02*
X0179162Y0052502D01*
X0180343Y0056683D02*
X0184278Y0056683D01*
X0187061Y0059466D01*
X0187061Y0063401D01*
X0184911Y0065551D01*
X0184911Y0067316D01*
X0187061Y0069466D01*
X0187061Y0073401D01*
X0184911Y0075551D01*
X0184911Y0077316D01*
X0187061Y0079466D01*
X0187061Y0083401D01*
X0184911Y0085551D01*
X0184911Y0087316D01*
X0187061Y0089466D01*
X0187061Y0093401D01*
X0184911Y0095551D01*
X0184911Y0097316D01*
X0187061Y0099466D01*
X0187061Y0103401D01*
X0184911Y0105551D01*
X0184911Y0107316D01*
X0187061Y0109466D01*
X0187061Y0113401D01*
X0184911Y0115551D01*
X0184911Y0117316D01*
X0187061Y0119466D01*
X0187061Y0123401D01*
X0184911Y0125551D01*
X0184911Y0127316D01*
X0187061Y0129466D01*
X0187061Y0133401D01*
X0184278Y0136183D01*
X0180343Y0136183D01*
X0177561Y0133401D01*
X0177561Y0129466D01*
X0179711Y0127316D01*
X0179711Y0125551D01*
X0177561Y0123401D01*
X0177561Y0119466D01*
X0179711Y0117316D01*
X0179711Y0115551D01*
X0177561Y0113401D01*
X0177561Y0109466D01*
X0179711Y0107316D01*
X0179711Y0105551D01*
X0177561Y0103401D01*
X0177561Y0099466D01*
X0179711Y0097316D01*
X0179711Y0095551D01*
X0177561Y0093401D01*
X0177561Y0089466D01*
X0179711Y0087316D01*
X0179711Y0085551D01*
X0177561Y0083401D01*
X0177561Y0079466D01*
X0179711Y0077316D01*
X0179711Y0075551D01*
X0177561Y0073401D01*
X0177561Y0069466D01*
X0179711Y0067316D01*
X0179711Y0065551D01*
X0177561Y0063401D01*
X0177561Y0059466D01*
X0180343Y0056683D01*
X0179729Y0057297D02*
X0174892Y0057297D01*
X0176491Y0058896D02*
X0178130Y0058896D01*
X0177561Y0060494D02*
X0177061Y0060494D01*
X0177061Y0062093D02*
X0177561Y0062093D01*
X0177851Y0063691D02*
X0176770Y0063691D01*
X0175171Y0065290D02*
X0179450Y0065290D01*
X0179711Y0066888D02*
X0174911Y0066888D01*
X0176082Y0068487D02*
X0178539Y0068487D01*
X0177561Y0070085D02*
X0177061Y0070085D01*
X0177061Y0071684D02*
X0177561Y0071684D01*
X0177561Y0073282D02*
X0177061Y0073282D01*
X0175580Y0074881D02*
X0179041Y0074881D01*
X0179711Y0076479D02*
X0174911Y0076479D01*
X0175673Y0078078D02*
X0178948Y0078078D01*
X0177561Y0079677D02*
X0177061Y0079677D01*
X0177061Y0081275D02*
X0177561Y0081275D01*
X0177561Y0082874D02*
X0177061Y0082874D01*
X0175989Y0084472D02*
X0178632Y0084472D01*
X0179711Y0086071D02*
X0174911Y0086071D01*
X0175264Y0087669D02*
X0179357Y0087669D01*
X0177759Y0089268D02*
X0176863Y0089268D01*
X0177061Y0090866D02*
X0177561Y0090866D01*
X0177561Y0092465D02*
X0177061Y0092465D01*
X0176398Y0094063D02*
X0178223Y0094063D01*
X0179711Y0095662D02*
X0174911Y0095662D01*
X0174911Y0097260D02*
X0179711Y0097260D01*
X0178167Y0098859D02*
X0176454Y0098859D01*
X0177061Y0100457D02*
X0177561Y0100457D01*
X0177561Y0102056D02*
X0177061Y0102056D01*
X0176807Y0103654D02*
X0177814Y0103654D01*
X0179413Y0105253D02*
X0175208Y0105253D01*
X0174911Y0106851D02*
X0179711Y0106851D01*
X0178576Y0108450D02*
X0176045Y0108450D01*
X0177061Y0110048D02*
X0177561Y0110048D01*
X0177561Y0111647D02*
X0177061Y0111647D01*
X0177061Y0113245D02*
X0177561Y0113245D01*
X0179004Y0114844D02*
X0175617Y0114844D01*
X0174911Y0116442D02*
X0179711Y0116442D01*
X0178985Y0118041D02*
X0175636Y0118041D01*
X0177061Y0119639D02*
X0177561Y0119639D01*
X0177561Y0121238D02*
X0177061Y0121238D01*
X0177061Y0122836D02*
X0177561Y0122836D01*
X0178595Y0124435D02*
X0176026Y0124435D01*
X0174911Y0126033D02*
X0179711Y0126033D01*
X0179394Y0127632D02*
X0175227Y0127632D01*
X0176825Y0129230D02*
X0177796Y0129230D01*
X0177561Y0130829D02*
X0177061Y0130829D01*
X0177061Y0132427D02*
X0177561Y0132427D01*
X0178186Y0134026D02*
X0176435Y0134026D01*
X0174837Y0135624D02*
X0179784Y0135624D01*
X0184837Y0135624D02*
X0189784Y0135624D01*
X0190343Y0136183D02*
X0187561Y0133401D01*
X0187561Y0129466D01*
X0189711Y0127316D01*
X0189711Y0125551D01*
X0187561Y0123401D01*
X0187561Y0119466D01*
X0189711Y0117316D01*
X0189711Y0115551D01*
X0187561Y0113401D01*
X0187561Y0109466D01*
X0189711Y0107316D01*
X0189711Y0105551D01*
X0187561Y0103401D01*
X0187561Y0099466D01*
X0189711Y0097316D01*
X0189711Y0095551D01*
X0187561Y0093401D01*
X0187561Y0089466D01*
X0189711Y0087316D01*
X0189711Y0085551D01*
X0187561Y0083401D01*
X0187561Y0079466D01*
X0189711Y0077316D01*
X0189711Y0075551D01*
X0187561Y0073401D01*
X0187561Y0069466D01*
X0189711Y0067316D01*
X0189711Y0065551D01*
X0187561Y0063401D01*
X0187561Y0059466D01*
X0190343Y0056683D01*
X0194278Y0056683D01*
X0197061Y0059466D01*
X0197061Y0063401D01*
X0194911Y0065551D01*
X0194911Y0067316D01*
X0197061Y0069466D01*
X0197061Y0073401D01*
X0194911Y0075551D01*
X0194911Y0077316D01*
X0197061Y0079466D01*
X0197061Y0083401D01*
X0194911Y0085551D01*
X0194911Y0087316D01*
X0197061Y0089466D01*
X0197061Y0093401D01*
X0194911Y0095551D01*
X0194911Y0097316D01*
X0197061Y0099466D01*
X0197061Y0103401D01*
X0194911Y0105551D01*
X0194911Y0107316D01*
X0197061Y0109466D01*
X0197061Y0113401D01*
X0194911Y0115551D01*
X0194911Y0117316D01*
X0197061Y0119466D01*
X0197061Y0123401D01*
X0194911Y0125551D01*
X0194911Y0127316D01*
X0197061Y0129466D01*
X0197061Y0133401D01*
X0194278Y0136183D01*
X0190343Y0136183D01*
X0188186Y0134026D02*
X0186435Y0134026D01*
X0187061Y0132427D02*
X0187561Y0132427D01*
X0187561Y0130829D02*
X0187061Y0130829D01*
X0186825Y0129230D02*
X0187796Y0129230D01*
X0189394Y0127632D02*
X0185227Y0127632D01*
X0184911Y0126033D02*
X0189711Y0126033D01*
X0188595Y0124435D02*
X0186026Y0124435D01*
X0187061Y0122836D02*
X0187561Y0122836D01*
X0187561Y0121238D02*
X0187061Y0121238D01*
X0187061Y0119639D02*
X0187561Y0119639D01*
X0188985Y0118041D02*
X0185636Y0118041D01*
X0184911Y0116442D02*
X0189711Y0116442D01*
X0189004Y0114844D02*
X0185617Y0114844D01*
X0187061Y0113245D02*
X0187561Y0113245D01*
X0187561Y0111647D02*
X0187061Y0111647D01*
X0187061Y0110048D02*
X0187561Y0110048D01*
X0188576Y0108450D02*
X0186045Y0108450D01*
X0184911Y0106851D02*
X0189711Y0106851D01*
X0189413Y0105253D02*
X0185208Y0105253D01*
X0186807Y0103654D02*
X0187814Y0103654D01*
X0187561Y0102056D02*
X0187061Y0102056D01*
X0187061Y0100457D02*
X0187561Y0100457D01*
X0188167Y0098859D02*
X0186454Y0098859D01*
X0184911Y0097260D02*
X0189711Y0097260D01*
X0189711Y0095662D02*
X0184911Y0095662D01*
X0186398Y0094063D02*
X0188223Y0094063D01*
X0187561Y0092465D02*
X0187061Y0092465D01*
X0187061Y0090866D02*
X0187561Y0090866D01*
X0187759Y0089268D02*
X0186863Y0089268D01*
X0185264Y0087669D02*
X0189357Y0087669D01*
X0189711Y0086071D02*
X0184911Y0086071D01*
X0185989Y0084472D02*
X0188632Y0084472D01*
X0187561Y0082874D02*
X0187061Y0082874D01*
X0187061Y0081275D02*
X0187561Y0081275D01*
X0187561Y0079677D02*
X0187061Y0079677D01*
X0185673Y0078078D02*
X0188948Y0078078D01*
X0189711Y0076479D02*
X0184911Y0076479D01*
X0185580Y0074881D02*
X0189041Y0074881D01*
X0187561Y0073282D02*
X0187061Y0073282D01*
X0187061Y0071684D02*
X0187561Y0071684D01*
X0187561Y0070085D02*
X0187061Y0070085D01*
X0186082Y0068487D02*
X0188539Y0068487D01*
X0189711Y0066888D02*
X0184911Y0066888D01*
X0185171Y0065290D02*
X0189450Y0065290D01*
X0187851Y0063691D02*
X0186770Y0063691D01*
X0187061Y0062093D02*
X0187561Y0062093D01*
X0187561Y0060494D02*
X0187061Y0060494D01*
X0186491Y0058896D02*
X0188130Y0058896D01*
X0189729Y0057297D02*
X0184892Y0057297D01*
X0185459Y0052502D02*
X0189162Y0052502D01*
X0194892Y0057297D02*
X0199729Y0057297D01*
X0200343Y0056683D02*
X0204278Y0056683D01*
X0207061Y0059466D01*
X0207061Y0063401D01*
X0204911Y0065551D01*
X0204911Y0067316D01*
X0207061Y0069466D01*
X0207061Y0073401D01*
X0204911Y0075551D01*
X0204911Y0077316D01*
X0207061Y0079466D01*
X0207061Y0083401D01*
X0204911Y0085551D01*
X0204911Y0087316D01*
X0207061Y0089466D01*
X0207061Y0093401D01*
X0204911Y0095551D01*
X0204911Y0097316D01*
X0207061Y0099466D01*
X0207061Y0103401D01*
X0204911Y0105551D01*
X0204911Y0107316D01*
X0207061Y0109466D01*
X0207061Y0113401D01*
X0204911Y0115551D01*
X0204911Y0117316D01*
X0207061Y0119466D01*
X0207061Y0123401D01*
X0204911Y0125551D01*
X0204911Y0127316D01*
X0207061Y0129466D01*
X0207061Y0133401D01*
X0204278Y0136183D01*
X0200343Y0136183D01*
X0197561Y0133401D01*
X0197561Y0129466D01*
X0199711Y0127316D01*
X0199711Y0125551D01*
X0197561Y0123401D01*
X0197561Y0119466D01*
X0199711Y0117316D01*
X0199711Y0115551D01*
X0197561Y0113401D01*
X0197561Y0109466D01*
X0199711Y0107316D01*
X0199711Y0105551D01*
X0197561Y0103401D01*
X0197561Y0099466D01*
X0199711Y0097316D01*
X0199711Y0095551D01*
X0197561Y0093401D01*
X0197561Y0089466D01*
X0199711Y0087316D01*
X0199711Y0085551D01*
X0197561Y0083401D01*
X0197561Y0079466D01*
X0199711Y0077316D01*
X0199711Y0075551D01*
X0197561Y0073401D01*
X0197561Y0069466D01*
X0199711Y0067316D01*
X0199711Y0065551D01*
X0197561Y0063401D01*
X0197561Y0059466D01*
X0200343Y0056683D01*
X0198130Y0058896D02*
X0196491Y0058896D01*
X0197061Y0060494D02*
X0197561Y0060494D01*
X0197561Y0062093D02*
X0197061Y0062093D01*
X0196770Y0063691D02*
X0197851Y0063691D01*
X0199450Y0065290D02*
X0195171Y0065290D01*
X0194911Y0066888D02*
X0199711Y0066888D01*
X0198539Y0068487D02*
X0196082Y0068487D01*
X0197061Y0070085D02*
X0197561Y0070085D01*
X0197561Y0071684D02*
X0197061Y0071684D01*
X0197061Y0073282D02*
X0197561Y0073282D01*
X0199041Y0074881D02*
X0195580Y0074881D01*
X0194911Y0076479D02*
X0199711Y0076479D01*
X0198948Y0078078D02*
X0195673Y0078078D01*
X0197061Y0079677D02*
X0197561Y0079677D01*
X0197561Y0081275D02*
X0197061Y0081275D01*
X0197061Y0082874D02*
X0197561Y0082874D01*
X0198632Y0084472D02*
X0195989Y0084472D01*
X0194911Y0086071D02*
X0199711Y0086071D01*
X0199357Y0087669D02*
X0195264Y0087669D01*
X0196863Y0089268D02*
X0197759Y0089268D01*
X0197561Y0090866D02*
X0197061Y0090866D01*
X0197061Y0092465D02*
X0197561Y0092465D01*
X0198223Y0094063D02*
X0196398Y0094063D01*
X0194911Y0095662D02*
X0199711Y0095662D01*
X0199711Y0097260D02*
X0194911Y0097260D01*
X0196454Y0098859D02*
X0198167Y0098859D01*
X0197561Y0100457D02*
X0197061Y0100457D01*
X0197061Y0102056D02*
X0197561Y0102056D01*
X0197814Y0103654D02*
X0196807Y0103654D01*
X0195208Y0105253D02*
X0199413Y0105253D01*
X0199711Y0106851D02*
X0194911Y0106851D01*
X0196045Y0108450D02*
X0198576Y0108450D01*
X0197561Y0110048D02*
X0197061Y0110048D01*
X0197061Y0111647D02*
X0197561Y0111647D01*
X0197561Y0113245D02*
X0197061Y0113245D01*
X0195617Y0114844D02*
X0199004Y0114844D01*
X0199711Y0116442D02*
X0194911Y0116442D01*
X0195636Y0118041D02*
X0198985Y0118041D01*
X0197561Y0119639D02*
X0197061Y0119639D01*
X0197061Y0121238D02*
X0197561Y0121238D01*
X0197561Y0122836D02*
X0197061Y0122836D01*
X0196026Y0124435D02*
X0198595Y0124435D01*
X0199711Y0126033D02*
X0194911Y0126033D01*
X0195227Y0127632D02*
X0199394Y0127632D01*
X0197796Y0129230D02*
X0196825Y0129230D01*
X0197061Y0130829D02*
X0197561Y0130829D01*
X0197561Y0132427D02*
X0197061Y0132427D01*
X0196435Y0134026D02*
X0198186Y0134026D01*
X0199784Y0135624D02*
X0194837Y0135624D01*
X0204837Y0135624D02*
X0209784Y0135624D01*
X0210343Y0136183D02*
X0207561Y0133401D01*
X0207561Y0129466D01*
X0209711Y0127316D01*
X0209711Y0125551D01*
X0207561Y0123401D01*
X0207561Y0119466D01*
X0209711Y0117316D01*
X0209711Y0115551D01*
X0207561Y0113401D01*
X0207561Y0109466D01*
X0209711Y0107316D01*
X0209711Y0105551D01*
X0207561Y0103401D01*
X0207561Y0099466D01*
X0210343Y0096683D01*
X0214278Y0096683D01*
X0217061Y0099466D01*
X0217061Y0103401D01*
X0214911Y0105551D01*
X0214911Y0107316D01*
X0217061Y0109466D01*
X0217061Y0113401D01*
X0214911Y0115551D01*
X0214911Y0117316D01*
X0217061Y0119466D01*
X0217061Y0123401D01*
X0214911Y0125551D01*
X0214911Y0127316D01*
X0217061Y0129466D01*
X0217061Y0133401D01*
X0214278Y0136183D01*
X0210343Y0136183D01*
X0208186Y0134026D02*
X0206435Y0134026D01*
X0207061Y0132427D02*
X0207561Y0132427D01*
X0207561Y0130829D02*
X0207061Y0130829D01*
X0206825Y0129230D02*
X0207796Y0129230D01*
X0209394Y0127632D02*
X0205227Y0127632D01*
X0204911Y0126033D02*
X0209711Y0126033D01*
X0208595Y0124435D02*
X0206026Y0124435D01*
X0207061Y0122836D02*
X0207561Y0122836D01*
X0207561Y0121238D02*
X0207061Y0121238D01*
X0207061Y0119639D02*
X0207561Y0119639D01*
X0208985Y0118041D02*
X0205636Y0118041D01*
X0204911Y0116442D02*
X0209711Y0116442D01*
X0209004Y0114844D02*
X0205617Y0114844D01*
X0207061Y0113245D02*
X0207561Y0113245D01*
X0207561Y0111647D02*
X0207061Y0111647D01*
X0207061Y0110048D02*
X0207561Y0110048D01*
X0208576Y0108450D02*
X0206045Y0108450D01*
X0204911Y0106851D02*
X0209711Y0106851D01*
X0209413Y0105253D02*
X0205208Y0105253D01*
X0206807Y0103654D02*
X0207814Y0103654D01*
X0207561Y0102056D02*
X0207061Y0102056D01*
X0207061Y0100457D02*
X0207561Y0100457D01*
X0208167Y0098859D02*
X0206454Y0098859D01*
X0204911Y0097260D02*
X0209766Y0097260D01*
X0214855Y0097260D02*
X0219766Y0097260D01*
X0220343Y0096683D02*
X0224278Y0096683D01*
X0227061Y0099466D01*
X0227061Y0103401D01*
X0224911Y0105551D01*
X0224911Y0107316D01*
X0227061Y0109466D01*
X0227061Y0113401D01*
X0224911Y0115551D01*
X0224911Y0117316D01*
X0227061Y0119466D01*
X0227061Y0123401D01*
X0224911Y0125551D01*
X0224911Y0127316D01*
X0227061Y0129466D01*
X0227061Y0133401D01*
X0224278Y0136183D01*
X0220343Y0136183D01*
X0217561Y0133401D01*
X0217561Y0129466D01*
X0219711Y0127316D01*
X0219711Y0125551D01*
X0217561Y0123401D01*
X0217561Y0119466D01*
X0219711Y0117316D01*
X0219711Y0115551D01*
X0217561Y0113401D01*
X0217561Y0109466D01*
X0219711Y0107316D01*
X0219711Y0105551D01*
X0217561Y0103401D01*
X0217561Y0099466D01*
X0220343Y0096683D01*
X0218167Y0098859D02*
X0216454Y0098859D01*
X0217061Y0100457D02*
X0217561Y0100457D01*
X0217561Y0102056D02*
X0217061Y0102056D01*
X0216807Y0103654D02*
X0217814Y0103654D01*
X0219413Y0105253D02*
X0215208Y0105253D01*
X0214911Y0106851D02*
X0219711Y0106851D01*
X0218576Y0108450D02*
X0216045Y0108450D01*
X0217061Y0110048D02*
X0217561Y0110048D01*
X0217561Y0111647D02*
X0217061Y0111647D01*
X0217061Y0113245D02*
X0217561Y0113245D01*
X0219004Y0114844D02*
X0215617Y0114844D01*
X0214911Y0116442D02*
X0219711Y0116442D01*
X0218985Y0118041D02*
X0215636Y0118041D01*
X0217061Y0119639D02*
X0217561Y0119639D01*
X0217561Y0121238D02*
X0217061Y0121238D01*
X0217061Y0122836D02*
X0217561Y0122836D01*
X0218595Y0124435D02*
X0216026Y0124435D01*
X0214911Y0126033D02*
X0219711Y0126033D01*
X0219394Y0127632D02*
X0215227Y0127632D01*
X0216825Y0129230D02*
X0217796Y0129230D01*
X0217561Y0130829D02*
X0217061Y0130829D01*
X0217061Y0132427D02*
X0217561Y0132427D01*
X0218186Y0134026D02*
X0216435Y0134026D01*
X0214837Y0135624D02*
X0219784Y0135624D01*
X0224837Y0135624D02*
X0242089Y0135624D01*
X0242089Y0134026D02*
X0226435Y0134026D01*
X0227061Y0132427D02*
X0242089Y0132427D01*
X0242230Y0130829D02*
X0227061Y0130829D01*
X0226825Y0129230D02*
X0243061Y0129230D01*
X0246267Y0129230D02*
X0246267Y0129230D01*
X0246253Y0127632D02*
X0225227Y0127632D01*
X0224911Y0126033D02*
X0246133Y0126033D01*
X0246785Y0124435D02*
X0226026Y0124435D01*
X0227061Y0122836D02*
X0262596Y0122836D01*
X0262596Y0121238D02*
X0227061Y0121238D01*
X0227061Y0119639D02*
X0262596Y0119639D01*
X0262596Y0118041D02*
X0225636Y0118041D01*
X0224911Y0116442D02*
X0262596Y0116442D01*
X0262596Y0114844D02*
X0250760Y0114844D01*
X0248861Y0114844D02*
X0225617Y0114844D01*
X0227061Y0113245D02*
X0246654Y0113245D01*
X0246133Y0111647D02*
X0227061Y0111647D01*
X0227061Y0110048D02*
X0245492Y0110048D01*
X0246267Y0110048D02*
X0246267Y0110048D01*
X0246267Y0108450D02*
X0246267Y0108450D01*
X0246267Y0106851D02*
X0246267Y0106851D01*
X0246267Y0105941D02*
X0246267Y0105941D01*
X0246267Y0097007D01*
X0246596Y0097007D01*
X0247246Y0097110D01*
X0247871Y0097313D01*
X0248457Y0097612D01*
X0248989Y0097998D01*
X0249454Y0098463D01*
X0249841Y0098995D01*
X0250139Y0099581D01*
X0250342Y0100207D01*
X0250445Y0100856D01*
X0250445Y0105941D01*
X0246267Y0105941D01*
X0246267Y0105253D02*
X0246267Y0105253D01*
X0246267Y0103654D02*
X0246267Y0103654D01*
X0246267Y0102056D02*
X0246267Y0102056D01*
X0246267Y0100457D02*
X0246267Y0100457D01*
X0246267Y0098859D02*
X0246267Y0098859D01*
X0246267Y0097260D02*
X0246267Y0097260D01*
X0244827Y0097260D02*
X0224855Y0097260D01*
X0226454Y0098859D02*
X0242793Y0098859D01*
X0242152Y0100457D02*
X0227061Y0100457D01*
X0227061Y0102056D02*
X0242089Y0102056D01*
X0242089Y0103654D02*
X0226807Y0103654D01*
X0225208Y0105253D02*
X0242089Y0105253D01*
X0242181Y0106851D02*
X0224911Y0106851D01*
X0226045Y0108450D02*
X0242926Y0108450D01*
X0250353Y0106851D02*
X0250570Y0106851D01*
X0250570Y0105253D02*
X0250445Y0105253D01*
X0250445Y0103654D02*
X0250570Y0103654D01*
X0250570Y0102056D02*
X0250445Y0102056D01*
X0250382Y0100457D02*
X0250570Y0100457D01*
X0250857Y0098859D02*
X0249741Y0098859D01*
X0247708Y0097260D02*
X0262596Y0097260D01*
X0262596Y0095662D02*
X0204911Y0095662D01*
X0206398Y0094063D02*
X0262596Y0094063D01*
X0262596Y0092465D02*
X0207061Y0092465D01*
X0207061Y0090866D02*
X0262596Y0090866D01*
X0262596Y0089268D02*
X0206863Y0089268D01*
X0205264Y0087669D02*
X0238130Y0087669D01*
X0238324Y0087732D02*
X0237561Y0087484D01*
X0236846Y0087120D01*
X0236196Y0086648D01*
X0235629Y0086080D01*
X0235157Y0085431D01*
X0234792Y0084715D01*
X0234544Y0083952D01*
X0234419Y0083159D01*
X0234419Y0082942D01*
X0239334Y0082942D01*
X0239334Y0082573D01*
X0239703Y0082573D01*
X0239703Y0077658D01*
X0239920Y0077658D01*
X0240713Y0077783D01*
X0241476Y0078031D01*
X0242192Y0078396D01*
X0242841Y0078868D01*
X0243409Y0079435D01*
X0243881Y0080085D01*
X0244245Y0080800D01*
X0244493Y0081563D01*
X0244619Y0082356D01*
X0244619Y0082573D01*
X0239703Y0082573D01*
X0239703Y0082942D01*
X0244619Y0082942D01*
X0244619Y0083159D01*
X0244493Y0083952D01*
X0244245Y0084715D01*
X0243881Y0085431D01*
X0243409Y0086080D01*
X0242841Y0086648D01*
X0242192Y0087120D01*
X0241476Y0087484D01*
X0240713Y0087732D01*
X0239920Y0087858D01*
X0239703Y0087858D01*
X0239703Y0082942D01*
X0239334Y0082942D01*
X0239334Y0087858D01*
X0239117Y0087858D01*
X0238324Y0087732D01*
X0239334Y0087669D02*
X0239703Y0087669D01*
X0240907Y0087669D02*
X0262596Y0087669D01*
X0262596Y0086071D02*
X0253135Y0086071D01*
X0253673Y0085533D02*
X0252294Y0086912D01*
X0250493Y0087658D01*
X0248544Y0087658D01*
X0246743Y0086912D01*
X0245365Y0085533D01*
X0244619Y0083732D01*
X0244619Y0081783D01*
X0245365Y0079982D01*
X0246743Y0078604D01*
X0248544Y0077858D01*
X0250493Y0077858D01*
X0252294Y0078604D01*
X0253673Y0079982D01*
X0254419Y0081783D01*
X0254419Y0083732D01*
X0253673Y0085533D01*
X0254112Y0084472D02*
X0262596Y0084472D01*
X0262596Y0082874D02*
X0254419Y0082874D01*
X0254208Y0081275D02*
X0262596Y0081275D01*
X0262596Y0079677D02*
X0253367Y0079677D01*
X0251025Y0078078D02*
X0262596Y0078078D01*
X0262596Y0076479D02*
X0204911Y0076479D01*
X0205580Y0074881D02*
X0262596Y0074881D01*
X0262596Y0073282D02*
X0207061Y0073282D01*
X0207061Y0071684D02*
X0262596Y0071684D01*
X0262596Y0070085D02*
X0207061Y0070085D01*
X0206082Y0068487D02*
X0262596Y0068487D01*
X0262596Y0066888D02*
X0204911Y0066888D01*
X0205171Y0065290D02*
X0262596Y0065290D01*
X0262596Y0063691D02*
X0206770Y0063691D01*
X0207061Y0062093D02*
X0262596Y0062093D01*
X0262596Y0060494D02*
X0207061Y0060494D01*
X0206491Y0058896D02*
X0262596Y0058896D01*
X0262596Y0057297D02*
X0204892Y0057297D01*
X0205459Y0052502D02*
X0209162Y0052502D01*
X0215459Y0052502D02*
X0219162Y0052502D01*
X0225459Y0052502D02*
X0229162Y0052502D01*
X0235459Y0052502D02*
X0239162Y0052502D01*
X0245459Y0052502D02*
X0249162Y0052502D01*
X0255459Y0052502D02*
X0262596Y0052502D01*
X0262596Y0054100D02*
X0055411Y0054100D01*
X0055411Y0052502D02*
X0069162Y0052502D01*
X0067563Y0050903D02*
X0055411Y0050903D01*
X0055411Y0049305D02*
X0067561Y0049305D01*
X0067561Y0047706D02*
X0055411Y0047706D01*
X0055411Y0046108D02*
X0068418Y0046108D01*
X0070017Y0044509D02*
X0055411Y0044509D01*
X0055411Y0042911D02*
X0069288Y0042911D01*
X0070260Y0043883D02*
X0067361Y0040983D01*
X0067361Y0038933D01*
X0067361Y0036883D01*
X0070260Y0033983D01*
X0072310Y0033983D01*
X0072310Y0038933D01*
X0067361Y0038933D01*
X0072310Y0038933D01*
X0072310Y0038933D01*
X0072311Y0038933D01*
X0072311Y0038933D01*
X0077261Y0038933D01*
X0077261Y0036883D01*
X0074361Y0033983D01*
X0072311Y0033983D01*
X0072311Y0038933D01*
X0077261Y0038933D01*
X0077261Y0040983D01*
X0074361Y0043883D01*
X0072311Y0043883D01*
X0072311Y0038933D01*
X0072310Y0038933D01*
X0072310Y0043883D01*
X0070260Y0043883D01*
X0072310Y0042911D02*
X0072311Y0042911D01*
X0072310Y0041312D02*
X0072311Y0041312D01*
X0072310Y0039714D02*
X0072311Y0039714D01*
X0072310Y0038115D02*
X0072311Y0038115D01*
X0072310Y0036517D02*
X0072311Y0036517D01*
X0072310Y0034918D02*
X0072311Y0034918D01*
X0075296Y0034918D02*
X0079325Y0034918D01*
X0080260Y0033983D02*
X0082310Y0033983D01*
X0082310Y0038933D01*
X0077361Y0038933D01*
X0077361Y0036883D01*
X0080260Y0033983D01*
X0082311Y0033983D02*
X0082311Y0038933D01*
X0082311Y0038933D01*
X0087261Y0038933D01*
X0087261Y0036883D01*
X0084361Y0033983D01*
X0082311Y0033983D01*
X0082310Y0034918D02*
X0082311Y0034918D01*
X0082310Y0036517D02*
X0082311Y0036517D01*
X0082310Y0038115D02*
X0082311Y0038115D01*
X0082310Y0038933D02*
X0082311Y0038933D01*
X0087261Y0038933D01*
X0087261Y0040983D01*
X0084361Y0043883D01*
X0082311Y0043883D01*
X0082311Y0038933D01*
X0082310Y0038933D01*
X0082310Y0038933D01*
X0077361Y0038933D01*
X0077361Y0040983D01*
X0080260Y0043883D01*
X0082310Y0043883D01*
X0082310Y0038933D01*
X0082310Y0039714D02*
X0082311Y0039714D01*
X0082310Y0041312D02*
X0082311Y0041312D01*
X0082310Y0042911D02*
X0082311Y0042911D01*
X0084604Y0044509D02*
X0090017Y0044509D01*
X0090260Y0043883D02*
X0087361Y0040983D01*
X0087361Y0038933D01*
X0087361Y0036883D01*
X0090260Y0033983D01*
X0092310Y0033983D01*
X0092310Y0038933D01*
X0087361Y0038933D01*
X0092310Y0038933D01*
X0092310Y0038933D01*
X0092311Y0038933D01*
X0092311Y0038933D01*
X0097261Y0038933D01*
X0097261Y0036883D01*
X0094361Y0033983D01*
X0092311Y0033983D01*
X0092311Y0038933D01*
X0097261Y0038933D01*
X0097261Y0040983D01*
X0094361Y0043883D01*
X0092311Y0043883D01*
X0092311Y0038933D01*
X0092310Y0038933D01*
X0092310Y0043883D01*
X0090260Y0043883D01*
X0089288Y0042911D02*
X0085333Y0042911D01*
X0086932Y0041312D02*
X0087689Y0041312D01*
X0087361Y0039714D02*
X0087261Y0039714D01*
X0087261Y0038115D02*
X0087361Y0038115D01*
X0087727Y0036517D02*
X0086894Y0036517D01*
X0085296Y0034918D02*
X0089325Y0034918D01*
X0092310Y0034918D02*
X0092311Y0034918D01*
X0092310Y0036517D02*
X0092311Y0036517D01*
X0092310Y0038115D02*
X0092311Y0038115D01*
X0092310Y0039714D02*
X0092311Y0039714D01*
X0092310Y0041312D02*
X0092311Y0041312D01*
X0092310Y0042911D02*
X0092311Y0042911D01*
X0094604Y0044509D02*
X0100017Y0044509D01*
X0100260Y0043883D02*
X0097361Y0040983D01*
X0097361Y0038933D01*
X0097361Y0036883D01*
X0100260Y0033983D01*
X0102310Y0033983D01*
X0102310Y0038933D01*
X0097361Y0038933D01*
X0102310Y0038933D01*
X0102310Y0038933D01*
X0102311Y0038933D01*
X0102311Y0038933D01*
X0107261Y0038933D01*
X0107261Y0036883D01*
X0104361Y0033983D01*
X0102311Y0033983D01*
X0102311Y0038933D01*
X0107261Y0038933D01*
X0107261Y0040983D01*
X0104361Y0043883D01*
X0102311Y0043883D01*
X0102311Y0038933D01*
X0102310Y0038933D01*
X0102310Y0043883D01*
X0100260Y0043883D01*
X0099288Y0042911D02*
X0095333Y0042911D01*
X0096932Y0041312D02*
X0097689Y0041312D01*
X0097361Y0039714D02*
X0097261Y0039714D01*
X0097261Y0038115D02*
X0097361Y0038115D01*
X0097727Y0036517D02*
X0096894Y0036517D01*
X0095296Y0034918D02*
X0099325Y0034918D01*
X0102310Y0034918D02*
X0102311Y0034918D01*
X0102310Y0036517D02*
X0102311Y0036517D01*
X0102310Y0038115D02*
X0102311Y0038115D01*
X0102310Y0039714D02*
X0102311Y0039714D01*
X0102310Y0041312D02*
X0102311Y0041312D01*
X0102310Y0042911D02*
X0102311Y0042911D01*
X0104604Y0044509D02*
X0110017Y0044509D01*
X0110260Y0043883D02*
X0107361Y0040983D01*
X0107361Y0038933D01*
X0107361Y0036883D01*
X0110260Y0033983D01*
X0112310Y0033983D01*
X0112310Y0038933D01*
X0107361Y0038933D01*
X0112310Y0038933D01*
X0112310Y0038933D01*
X0112311Y0038933D01*
X0112311Y0038933D01*
X0117261Y0038933D01*
X0117261Y0036883D01*
X0114361Y0033983D01*
X0112311Y0033983D01*
X0112311Y0038933D01*
X0117261Y0038933D01*
X0117261Y0040983D01*
X0114361Y0043883D01*
X0112311Y0043883D01*
X0112311Y0038933D01*
X0112310Y0038933D01*
X0112310Y0043883D01*
X0110260Y0043883D01*
X0109288Y0042911D02*
X0105333Y0042911D01*
X0106932Y0041312D02*
X0107689Y0041312D01*
X0107361Y0039714D02*
X0107261Y0039714D01*
X0107261Y0038115D02*
X0107361Y0038115D01*
X0107727Y0036517D02*
X0106894Y0036517D01*
X0105296Y0034918D02*
X0109325Y0034918D01*
X0112310Y0034918D02*
X0112311Y0034918D01*
X0112310Y0036517D02*
X0112311Y0036517D01*
X0112310Y0038115D02*
X0112311Y0038115D01*
X0112310Y0039714D02*
X0112311Y0039714D01*
X0112310Y0041312D02*
X0112311Y0041312D01*
X0112310Y0042911D02*
X0112311Y0042911D01*
X0114604Y0044509D02*
X0120017Y0044509D01*
X0120260Y0043883D02*
X0117361Y0040983D01*
X0117361Y0038933D01*
X0117361Y0036883D01*
X0120260Y0033983D01*
X0122310Y0033983D01*
X0122310Y0038933D01*
X0117361Y0038933D01*
X0122310Y0038933D01*
X0122310Y0038933D01*
X0122311Y0038933D01*
X0122311Y0038933D01*
X0127261Y0038933D01*
X0127261Y0036883D01*
X0124361Y0033983D01*
X0122311Y0033983D01*
X0122311Y0038933D01*
X0127261Y0038933D01*
X0127261Y0040983D01*
X0124361Y0043883D01*
X0122311Y0043883D01*
X0122311Y0038933D01*
X0122310Y0038933D01*
X0122310Y0043883D01*
X0120260Y0043883D01*
X0119288Y0042911D02*
X0115333Y0042911D01*
X0116932Y0041312D02*
X0117689Y0041312D01*
X0117361Y0039714D02*
X0117261Y0039714D01*
X0117261Y0038115D02*
X0117361Y0038115D01*
X0117727Y0036517D02*
X0116894Y0036517D01*
X0115296Y0034918D02*
X0119325Y0034918D01*
X0122310Y0034918D02*
X0122311Y0034918D01*
X0122310Y0036517D02*
X0122311Y0036517D01*
X0122310Y0038115D02*
X0122311Y0038115D01*
X0122310Y0039714D02*
X0122311Y0039714D01*
X0122310Y0041312D02*
X0122311Y0041312D01*
X0122310Y0042911D02*
X0122311Y0042911D01*
X0124604Y0044509D02*
X0130017Y0044509D01*
X0130260Y0043883D02*
X0127361Y0040983D01*
X0127361Y0038933D01*
X0127361Y0036883D01*
X0130260Y0033983D01*
X0132310Y0033983D01*
X0132310Y0038933D01*
X0127361Y0038933D01*
X0132310Y0038933D01*
X0132310Y0038933D01*
X0132311Y0038933D01*
X0132311Y0038933D01*
X0137261Y0038933D01*
X0137261Y0036883D01*
X0134361Y0033983D01*
X0132311Y0033983D01*
X0132311Y0038933D01*
X0137261Y0038933D01*
X0137261Y0040983D01*
X0134361Y0043883D01*
X0132311Y0043883D01*
X0132311Y0038933D01*
X0132310Y0038933D01*
X0132310Y0043883D01*
X0130260Y0043883D01*
X0129288Y0042911D02*
X0125333Y0042911D01*
X0126932Y0041312D02*
X0127689Y0041312D01*
X0127361Y0039714D02*
X0127261Y0039714D01*
X0127261Y0038115D02*
X0127361Y0038115D01*
X0127727Y0036517D02*
X0126894Y0036517D01*
X0125296Y0034918D02*
X0129325Y0034918D01*
X0132310Y0034918D02*
X0132311Y0034918D01*
X0132310Y0036517D02*
X0132311Y0036517D01*
X0132310Y0038115D02*
X0132311Y0038115D01*
X0132310Y0039714D02*
X0132311Y0039714D01*
X0132310Y0041312D02*
X0132311Y0041312D01*
X0132310Y0042911D02*
X0132311Y0042911D01*
X0134604Y0044509D02*
X0140017Y0044509D01*
X0140260Y0043883D02*
X0137361Y0040983D01*
X0137361Y0038933D01*
X0137361Y0036883D01*
X0140260Y0033983D01*
X0142310Y0033983D01*
X0142310Y0038933D01*
X0137361Y0038933D01*
X0142310Y0038933D01*
X0142310Y0038933D01*
X0142311Y0038933D01*
X0142311Y0038933D01*
X0147261Y0038933D01*
X0147261Y0036883D01*
X0144361Y0033983D01*
X0142311Y0033983D01*
X0142311Y0038933D01*
X0147261Y0038933D01*
X0147261Y0040983D01*
X0144361Y0043883D01*
X0142311Y0043883D01*
X0142311Y0038933D01*
X0142310Y0038933D01*
X0142310Y0043883D01*
X0140260Y0043883D01*
X0139288Y0042911D02*
X0135333Y0042911D01*
X0136932Y0041312D02*
X0137689Y0041312D01*
X0137361Y0039714D02*
X0137261Y0039714D01*
X0137261Y0038115D02*
X0137361Y0038115D01*
X0137727Y0036517D02*
X0136894Y0036517D01*
X0135296Y0034918D02*
X0139325Y0034918D01*
X0142310Y0034918D02*
X0142311Y0034918D01*
X0142310Y0036517D02*
X0142311Y0036517D01*
X0142310Y0038115D02*
X0142311Y0038115D01*
X0142310Y0039714D02*
X0142311Y0039714D01*
X0142310Y0041312D02*
X0142311Y0041312D01*
X0142310Y0042911D02*
X0142311Y0042911D01*
X0144604Y0044509D02*
X0150017Y0044509D01*
X0150260Y0043883D02*
X0147361Y0040983D01*
X0147361Y0038933D01*
X0147361Y0036883D01*
X0150260Y0033983D01*
X0152310Y0033983D01*
X0152310Y0038933D01*
X0147361Y0038933D01*
X0152310Y0038933D01*
X0152310Y0038933D01*
X0152311Y0038933D01*
X0152311Y0038933D01*
X0157261Y0038933D01*
X0157261Y0036883D01*
X0154361Y0033983D01*
X0152311Y0033983D01*
X0152311Y0038933D01*
X0157261Y0038933D01*
X0157261Y0040983D01*
X0154361Y0043883D01*
X0152311Y0043883D01*
X0152311Y0038933D01*
X0152310Y0038933D01*
X0152310Y0043883D01*
X0150260Y0043883D01*
X0149288Y0042911D02*
X0145333Y0042911D01*
X0146932Y0041312D02*
X0147689Y0041312D01*
X0147361Y0039714D02*
X0147261Y0039714D01*
X0147261Y0038115D02*
X0147361Y0038115D01*
X0147727Y0036517D02*
X0146894Y0036517D01*
X0145296Y0034918D02*
X0149325Y0034918D01*
X0152310Y0034918D02*
X0152311Y0034918D01*
X0152310Y0036517D02*
X0152311Y0036517D01*
X0152310Y0038115D02*
X0152311Y0038115D01*
X0152310Y0039714D02*
X0152311Y0039714D01*
X0152310Y0041312D02*
X0152311Y0041312D01*
X0152310Y0042911D02*
X0152311Y0042911D01*
X0154604Y0044509D02*
X0160017Y0044509D01*
X0160260Y0043883D02*
X0157361Y0040983D01*
X0157361Y0038933D01*
X0157361Y0036883D01*
X0160260Y0033983D01*
X0162310Y0033983D01*
X0162310Y0038933D01*
X0157361Y0038933D01*
X0162310Y0038933D01*
X0162310Y0038933D01*
X0162311Y0038933D01*
X0162311Y0038933D01*
X0167261Y0038933D01*
X0167261Y0036883D01*
X0164361Y0033983D01*
X0162311Y0033983D01*
X0162311Y0038933D01*
X0167261Y0038933D01*
X0167261Y0040983D01*
X0164361Y0043883D01*
X0162311Y0043883D01*
X0162311Y0038933D01*
X0162310Y0038933D01*
X0162310Y0043883D01*
X0160260Y0043883D01*
X0159288Y0042911D02*
X0155333Y0042911D01*
X0156932Y0041312D02*
X0157689Y0041312D01*
X0157361Y0039714D02*
X0157261Y0039714D01*
X0157261Y0038115D02*
X0157361Y0038115D01*
X0157727Y0036517D02*
X0156894Y0036517D01*
X0155296Y0034918D02*
X0159325Y0034918D01*
X0162310Y0034918D02*
X0162311Y0034918D01*
X0162310Y0036517D02*
X0162311Y0036517D01*
X0162310Y0038115D02*
X0162311Y0038115D01*
X0162310Y0039714D02*
X0162311Y0039714D01*
X0162310Y0041312D02*
X0162311Y0041312D01*
X0162310Y0042911D02*
X0162311Y0042911D01*
X0164604Y0044509D02*
X0170017Y0044509D01*
X0170260Y0043883D02*
X0167361Y0040983D01*
X0167361Y0038933D01*
X0167361Y0036883D01*
X0170260Y0033983D01*
X0172310Y0033983D01*
X0172310Y0038933D01*
X0167361Y0038933D01*
X0172310Y0038933D01*
X0172310Y0038933D01*
X0172311Y0038933D01*
X0172311Y0038933D01*
X0177261Y0038933D01*
X0177261Y0036883D01*
X0174361Y0033983D01*
X0172311Y0033983D01*
X0172311Y0038933D01*
X0177261Y0038933D01*
X0177261Y0040983D01*
X0174361Y0043883D01*
X0172311Y0043883D01*
X0172311Y0038933D01*
X0172310Y0038933D01*
X0172310Y0043883D01*
X0170260Y0043883D01*
X0169288Y0042911D02*
X0165333Y0042911D01*
X0166932Y0041312D02*
X0167689Y0041312D01*
X0167361Y0039714D02*
X0167261Y0039714D01*
X0167261Y0038115D02*
X0167361Y0038115D01*
X0167727Y0036517D02*
X0166894Y0036517D01*
X0165296Y0034918D02*
X0169325Y0034918D01*
X0172310Y0034918D02*
X0172311Y0034918D01*
X0172310Y0036517D02*
X0172311Y0036517D01*
X0172310Y0038115D02*
X0172311Y0038115D01*
X0172310Y0039714D02*
X0172311Y0039714D01*
X0172310Y0041312D02*
X0172311Y0041312D01*
X0172310Y0042911D02*
X0172311Y0042911D01*
X0174604Y0044509D02*
X0180017Y0044509D01*
X0180260Y0043883D02*
X0177361Y0040983D01*
X0177361Y0038933D01*
X0177361Y0036883D01*
X0180260Y0033983D01*
X0182310Y0033983D01*
X0182310Y0038933D01*
X0177361Y0038933D01*
X0182310Y0038933D01*
X0182310Y0038933D01*
X0182311Y0038933D01*
X0182311Y0038933D01*
X0187261Y0038933D01*
X0187261Y0036883D01*
X0184361Y0033983D01*
X0182311Y0033983D01*
X0182311Y0038933D01*
X0187261Y0038933D01*
X0187261Y0040983D01*
X0184361Y0043883D01*
X0182311Y0043883D01*
X0182311Y0038933D01*
X0182310Y0038933D01*
X0182310Y0043883D01*
X0180260Y0043883D01*
X0179288Y0042911D02*
X0175333Y0042911D01*
X0176932Y0041312D02*
X0177689Y0041312D01*
X0177361Y0039714D02*
X0177261Y0039714D01*
X0177261Y0038115D02*
X0177361Y0038115D01*
X0177727Y0036517D02*
X0176894Y0036517D01*
X0175296Y0034918D02*
X0179325Y0034918D01*
X0182310Y0034918D02*
X0182311Y0034918D01*
X0182310Y0036517D02*
X0182311Y0036517D01*
X0182310Y0038115D02*
X0182311Y0038115D01*
X0182310Y0039714D02*
X0182311Y0039714D01*
X0182310Y0041312D02*
X0182311Y0041312D01*
X0182310Y0042911D02*
X0182311Y0042911D01*
X0184604Y0044509D02*
X0190017Y0044509D01*
X0190260Y0043883D02*
X0187361Y0040983D01*
X0187361Y0038933D01*
X0187361Y0036883D01*
X0190260Y0033983D01*
X0192310Y0033983D01*
X0192310Y0038933D01*
X0187361Y0038933D01*
X0192310Y0038933D01*
X0192310Y0038933D01*
X0192311Y0038933D01*
X0192311Y0038933D01*
X0197260Y0038933D01*
X0197261Y0036883D01*
X0194361Y0033983D01*
X0192311Y0033983D01*
X0192311Y0038933D01*
X0197261Y0038933D01*
X0197261Y0040983D01*
X0194361Y0043883D01*
X0192311Y0043883D01*
X0192311Y0038933D01*
X0192310Y0038933D01*
X0192310Y0043883D01*
X0190260Y0043883D01*
X0189288Y0042911D02*
X0185333Y0042911D01*
X0186932Y0041312D02*
X0187689Y0041312D01*
X0187361Y0039714D02*
X0187261Y0039714D01*
X0187261Y0038115D02*
X0187361Y0038115D01*
X0187727Y0036517D02*
X0186894Y0036517D01*
X0185296Y0034918D02*
X0189325Y0034918D01*
X0192310Y0034918D02*
X0192311Y0034918D01*
X0192310Y0036517D02*
X0192311Y0036517D01*
X0192310Y0038115D02*
X0192311Y0038115D01*
X0192310Y0039714D02*
X0192311Y0039714D01*
X0192310Y0041312D02*
X0192311Y0041312D01*
X0192310Y0042911D02*
X0192311Y0042911D01*
X0194604Y0044509D02*
X0200017Y0044509D01*
X0200260Y0043883D02*
X0197361Y0040983D01*
X0197361Y0038933D01*
X0197361Y0036883D01*
X0200260Y0033983D01*
X0202310Y0033983D01*
X0202310Y0038933D01*
X0197361Y0038933D01*
X0202310Y0038933D01*
X0202310Y0038933D01*
X0202311Y0038933D01*
X0202311Y0038933D01*
X0207261Y0038933D01*
X0207261Y0036883D01*
X0204361Y0033983D01*
X0202311Y0033983D01*
X0202311Y0038933D01*
X0207261Y0038933D01*
X0207261Y0040983D01*
X0204361Y0043883D01*
X0202311Y0043883D01*
X0202311Y0038933D01*
X0202310Y0038933D01*
X0202310Y0043883D01*
X0200260Y0043883D01*
X0199288Y0042911D02*
X0195333Y0042911D01*
X0196932Y0041312D02*
X0197689Y0041312D01*
X0197361Y0039714D02*
X0197261Y0039714D01*
X0197261Y0038115D02*
X0197361Y0038115D01*
X0197727Y0036517D02*
X0196894Y0036517D01*
X0195296Y0034918D02*
X0199325Y0034918D01*
X0202310Y0034918D02*
X0202311Y0034918D01*
X0202310Y0036517D02*
X0202311Y0036517D01*
X0202310Y0038115D02*
X0202311Y0038115D01*
X0202310Y0039714D02*
X0202311Y0039714D01*
X0202310Y0041312D02*
X0202311Y0041312D01*
X0202310Y0042911D02*
X0202311Y0042911D01*
X0204604Y0044509D02*
X0210017Y0044509D01*
X0210260Y0043883D02*
X0207361Y0040983D01*
X0207361Y0038933D01*
X0207361Y0036883D01*
X0210260Y0033983D01*
X0212310Y0033983D01*
X0212310Y0038933D01*
X0207361Y0038933D01*
X0212310Y0038933D01*
X0212310Y0038933D01*
X0212311Y0038933D01*
X0212311Y0038933D01*
X0217261Y0038933D01*
X0217261Y0036883D01*
X0214361Y0033983D01*
X0212311Y0033983D01*
X0212311Y0038933D01*
X0217261Y0038933D01*
X0217261Y0040983D01*
X0214361Y0043883D01*
X0212311Y0043883D01*
X0212311Y0038933D01*
X0212310Y0038933D01*
X0212310Y0043883D01*
X0210260Y0043883D01*
X0209288Y0042911D02*
X0205333Y0042911D01*
X0206932Y0041312D02*
X0207689Y0041312D01*
X0207361Y0039714D02*
X0207261Y0039714D01*
X0207261Y0038115D02*
X0207361Y0038115D01*
X0207727Y0036517D02*
X0206894Y0036517D01*
X0205296Y0034918D02*
X0209325Y0034918D01*
X0212310Y0034918D02*
X0212311Y0034918D01*
X0212310Y0036517D02*
X0212311Y0036517D01*
X0212310Y0038115D02*
X0212311Y0038115D01*
X0212310Y0039714D02*
X0212311Y0039714D01*
X0212310Y0041312D02*
X0212311Y0041312D01*
X0212310Y0042911D02*
X0212311Y0042911D01*
X0214604Y0044509D02*
X0220017Y0044509D01*
X0220260Y0043883D02*
X0217361Y0040983D01*
X0217361Y0038933D01*
X0217361Y0036883D01*
X0220260Y0033983D01*
X0222310Y0033983D01*
X0222310Y0038933D01*
X0217361Y0038933D01*
X0222310Y0038933D01*
X0222310Y0038933D01*
X0222311Y0038933D01*
X0222311Y0038933D01*
X0227261Y0038933D01*
X0227261Y0036883D01*
X0224361Y0033983D01*
X0222311Y0033983D01*
X0222311Y0038933D01*
X0227261Y0038933D01*
X0227261Y0040983D01*
X0224361Y0043883D01*
X0222311Y0043883D01*
X0222311Y0038933D01*
X0222310Y0038933D01*
X0222310Y0043883D01*
X0220260Y0043883D01*
X0219288Y0042911D02*
X0215333Y0042911D01*
X0216932Y0041312D02*
X0217689Y0041312D01*
X0217361Y0039714D02*
X0217261Y0039714D01*
X0217261Y0038115D02*
X0217361Y0038115D01*
X0217727Y0036517D02*
X0216894Y0036517D01*
X0215296Y0034918D02*
X0219325Y0034918D01*
X0222310Y0034918D02*
X0222311Y0034918D01*
X0222310Y0036517D02*
X0222311Y0036517D01*
X0222310Y0038115D02*
X0222311Y0038115D01*
X0222310Y0039714D02*
X0222311Y0039714D01*
X0222310Y0041312D02*
X0222311Y0041312D01*
X0222310Y0042911D02*
X0222311Y0042911D01*
X0224604Y0044509D02*
X0230017Y0044509D01*
X0230260Y0043883D02*
X0227361Y0040983D01*
X0227361Y0038933D01*
X0227361Y0036883D01*
X0230260Y0033983D01*
X0232310Y0033983D01*
X0232310Y0038933D01*
X0227361Y0038933D01*
X0232310Y0038933D01*
X0232310Y0038933D01*
X0232311Y0038933D01*
X0232311Y0038933D01*
X0237261Y0038933D01*
X0237261Y0036883D01*
X0234361Y0033983D01*
X0232311Y0033983D01*
X0232311Y0038933D01*
X0237261Y0038933D01*
X0237261Y0040983D01*
X0234361Y0043883D01*
X0232311Y0043883D01*
X0232311Y0038933D01*
X0232310Y0038933D01*
X0232310Y0043883D01*
X0230260Y0043883D01*
X0229288Y0042911D02*
X0225333Y0042911D01*
X0226932Y0041312D02*
X0227689Y0041312D01*
X0227361Y0039714D02*
X0227261Y0039714D01*
X0227261Y0038115D02*
X0227361Y0038115D01*
X0227727Y0036517D02*
X0226894Y0036517D01*
X0225296Y0034918D02*
X0229325Y0034918D01*
X0232310Y0034918D02*
X0232311Y0034918D01*
X0232310Y0036517D02*
X0232311Y0036517D01*
X0232310Y0038115D02*
X0232311Y0038115D01*
X0232310Y0039714D02*
X0232311Y0039714D01*
X0232310Y0041312D02*
X0232311Y0041312D01*
X0232310Y0042911D02*
X0232311Y0042911D01*
X0234604Y0044509D02*
X0240017Y0044509D01*
X0240260Y0043883D02*
X0237361Y0040983D01*
X0237361Y0038933D01*
X0237361Y0036883D01*
X0240260Y0033983D01*
X0242310Y0033983D01*
X0242310Y0038933D01*
X0237361Y0038933D01*
X0242310Y0038933D01*
X0242310Y0038933D01*
X0242311Y0038933D01*
X0242311Y0038933D01*
X0247261Y0038933D01*
X0247261Y0036883D01*
X0244361Y0033983D01*
X0242311Y0033983D01*
X0242311Y0038933D01*
X0247261Y0038933D01*
X0247261Y0040983D01*
X0244361Y0043883D01*
X0242311Y0043883D01*
X0242311Y0038933D01*
X0242310Y0038933D01*
X0242310Y0043883D01*
X0240260Y0043883D01*
X0239288Y0042911D02*
X0235333Y0042911D01*
X0236932Y0041312D02*
X0237689Y0041312D01*
X0237361Y0039714D02*
X0237261Y0039714D01*
X0237261Y0038115D02*
X0237361Y0038115D01*
X0237727Y0036517D02*
X0236894Y0036517D01*
X0235296Y0034918D02*
X0239325Y0034918D01*
X0242310Y0034918D02*
X0242311Y0034918D01*
X0242310Y0036517D02*
X0242311Y0036517D01*
X0242310Y0038115D02*
X0242311Y0038115D01*
X0242310Y0039714D02*
X0242311Y0039714D01*
X0242310Y0041312D02*
X0242311Y0041312D01*
X0242310Y0042911D02*
X0242311Y0042911D01*
X0244604Y0044509D02*
X0250017Y0044509D01*
X0250260Y0043883D02*
X0247361Y0040983D01*
X0247361Y0038933D01*
X0247361Y0036883D01*
X0250260Y0033983D01*
X0252310Y0033983D01*
X0252310Y0038933D01*
X0247361Y0038933D01*
X0252310Y0038933D01*
X0252310Y0038933D01*
X0252311Y0038933D01*
X0252311Y0038933D01*
X0257261Y0038933D01*
X0257261Y0036883D01*
X0254361Y0033983D01*
X0252311Y0033983D01*
X0252311Y0038933D01*
X0257261Y0038933D01*
X0257261Y0040983D01*
X0254361Y0043883D01*
X0252311Y0043883D01*
X0252311Y0038933D01*
X0252310Y0038933D01*
X0252310Y0043883D01*
X0250260Y0043883D01*
X0249288Y0042911D02*
X0245333Y0042911D01*
X0246932Y0041312D02*
X0247689Y0041312D01*
X0247361Y0039714D02*
X0247261Y0039714D01*
X0247261Y0038115D02*
X0247361Y0038115D01*
X0247727Y0036517D02*
X0246894Y0036517D01*
X0245296Y0034918D02*
X0249325Y0034918D01*
X0252310Y0034918D02*
X0252311Y0034918D01*
X0252310Y0036517D02*
X0252311Y0036517D01*
X0252310Y0038115D02*
X0252311Y0038115D01*
X0252310Y0039714D02*
X0252311Y0039714D01*
X0252310Y0041312D02*
X0252311Y0041312D01*
X0252310Y0042911D02*
X0252311Y0042911D01*
X0254604Y0044509D02*
X0262596Y0044509D01*
X0262596Y0042911D02*
X0255333Y0042911D01*
X0256932Y0041312D02*
X0262596Y0041312D01*
X0262596Y0039714D02*
X0257261Y0039714D01*
X0257261Y0038115D02*
X0262596Y0038115D01*
X0262596Y0036517D02*
X0256894Y0036517D01*
X0255296Y0034918D02*
X0262596Y0034918D01*
X0262596Y0033320D02*
X0055411Y0033320D01*
X0055411Y0034918D02*
X0069325Y0034918D01*
X0067727Y0036517D02*
X0055411Y0036517D01*
X0055411Y0038115D02*
X0067361Y0038115D01*
X0067361Y0039714D02*
X0055411Y0039714D01*
X0055411Y0041312D02*
X0067689Y0041312D01*
X0074604Y0044509D02*
X0080017Y0044509D01*
X0079288Y0042911D02*
X0075333Y0042911D01*
X0076932Y0041312D02*
X0077689Y0041312D01*
X0077361Y0039714D02*
X0077261Y0039714D01*
X0077261Y0038115D02*
X0077361Y0038115D01*
X0077727Y0036517D02*
X0076894Y0036517D01*
X0076203Y0046108D02*
X0078418Y0046108D01*
X0086203Y0046108D02*
X0088418Y0046108D01*
X0089162Y0052502D02*
X0085459Y0052502D01*
X0084278Y0056683D02*
X0087061Y0059466D01*
X0087061Y0063401D01*
X0084911Y0065551D01*
X0084911Y0067316D01*
X0087061Y0069466D01*
X0087061Y0073401D01*
X0084911Y0075551D01*
X0084911Y0077316D01*
X0087061Y0079466D01*
X0087061Y0083401D01*
X0084911Y0085551D01*
X0084911Y0087316D01*
X0087061Y0089466D01*
X0087061Y0093401D01*
X0084278Y0096183D01*
X0080343Y0096183D01*
X0077561Y0093401D01*
X0077561Y0089466D01*
X0079711Y0087316D01*
X0079711Y0085551D01*
X0077561Y0083401D01*
X0077561Y0079466D01*
X0079711Y0077316D01*
X0079711Y0075551D01*
X0077561Y0073401D01*
X0077561Y0069466D01*
X0079711Y0067316D01*
X0079711Y0065551D01*
X0077561Y0063401D01*
X0077561Y0059466D01*
X0080343Y0056683D01*
X0084278Y0056683D01*
X0084892Y0057297D02*
X0089729Y0057297D01*
X0090343Y0056683D02*
X0094278Y0056683D01*
X0097061Y0059466D01*
X0097061Y0063401D01*
X0094911Y0065551D01*
X0094911Y0067316D01*
X0097061Y0069466D01*
X0097061Y0073401D01*
X0094911Y0075551D01*
X0094911Y0077316D01*
X0097061Y0079466D01*
X0097061Y0083401D01*
X0094911Y0085551D01*
X0094911Y0087316D01*
X0097061Y0089466D01*
X0097061Y0093401D01*
X0094278Y0096183D01*
X0090343Y0096183D01*
X0087561Y0093401D01*
X0087561Y0089466D01*
X0089711Y0087316D01*
X0089711Y0085551D01*
X0087561Y0083401D01*
X0087561Y0079466D01*
X0089711Y0077316D01*
X0089711Y0075551D01*
X0087561Y0073401D01*
X0087561Y0069466D01*
X0089711Y0067316D01*
X0089711Y0065551D01*
X0087561Y0063401D01*
X0087561Y0059466D01*
X0090343Y0056683D01*
X0088130Y0058896D02*
X0086491Y0058896D01*
X0087061Y0060494D02*
X0087561Y0060494D01*
X0087561Y0062093D02*
X0087061Y0062093D01*
X0086770Y0063691D02*
X0087851Y0063691D01*
X0089450Y0065290D02*
X0085171Y0065290D01*
X0084911Y0066888D02*
X0089711Y0066888D01*
X0088539Y0068487D02*
X0086082Y0068487D01*
X0087061Y0070085D02*
X0087561Y0070085D01*
X0087561Y0071684D02*
X0087061Y0071684D01*
X0087061Y0073282D02*
X0087561Y0073282D01*
X0089041Y0074881D02*
X0085580Y0074881D01*
X0084911Y0076479D02*
X0089711Y0076479D01*
X0088948Y0078078D02*
X0085673Y0078078D01*
X0087061Y0079677D02*
X0087561Y0079677D01*
X0087561Y0081275D02*
X0087061Y0081275D01*
X0087061Y0082874D02*
X0087561Y0082874D01*
X0088632Y0084472D02*
X0085989Y0084472D01*
X0084911Y0086071D02*
X0089711Y0086071D01*
X0089357Y0087669D02*
X0085264Y0087669D01*
X0086863Y0089268D02*
X0087759Y0089268D01*
X0087561Y0090866D02*
X0087061Y0090866D01*
X0087061Y0092465D02*
X0087561Y0092465D01*
X0088223Y0094063D02*
X0086398Y0094063D01*
X0084799Y0095662D02*
X0089822Y0095662D01*
X0094799Y0095662D02*
X0099822Y0095662D01*
X0100343Y0096183D02*
X0097561Y0093401D01*
X0097561Y0089466D01*
X0099711Y0087316D01*
X0099711Y0085551D01*
X0097561Y0083401D01*
X0097561Y0079466D01*
X0099711Y0077316D01*
X0099711Y0075551D01*
X0097561Y0073401D01*
X0097561Y0069466D01*
X0099711Y0067316D01*
X0099711Y0065551D01*
X0097561Y0063401D01*
X0097561Y0059466D01*
X0100343Y0056683D01*
X0104278Y0056683D01*
X0107061Y0059466D01*
X0107061Y0063401D01*
X0104911Y0065551D01*
X0104911Y0067316D01*
X0107061Y0069466D01*
X0107061Y0073401D01*
X0104911Y0075551D01*
X0104911Y0077316D01*
X0107061Y0079466D01*
X0107061Y0083401D01*
X0104911Y0085551D01*
X0104911Y0087316D01*
X0107061Y0089466D01*
X0107061Y0093401D01*
X0104278Y0096183D01*
X0100343Y0096183D01*
X0098223Y0094063D02*
X0096398Y0094063D01*
X0097061Y0092465D02*
X0097561Y0092465D01*
X0097561Y0090866D02*
X0097061Y0090866D01*
X0096863Y0089268D02*
X0097759Y0089268D01*
X0099357Y0087669D02*
X0095264Y0087669D01*
X0094911Y0086071D02*
X0099711Y0086071D01*
X0098632Y0084472D02*
X0095989Y0084472D01*
X0097061Y0082874D02*
X0097561Y0082874D01*
X0097561Y0081275D02*
X0097061Y0081275D01*
X0097061Y0079677D02*
X0097561Y0079677D01*
X0098948Y0078078D02*
X0095673Y0078078D01*
X0094911Y0076479D02*
X0099711Y0076479D01*
X0099041Y0074881D02*
X0095580Y0074881D01*
X0097061Y0073282D02*
X0097561Y0073282D01*
X0097561Y0071684D02*
X0097061Y0071684D01*
X0097061Y0070085D02*
X0097561Y0070085D01*
X0098539Y0068487D02*
X0096082Y0068487D01*
X0094911Y0066888D02*
X0099711Y0066888D01*
X0099450Y0065290D02*
X0095171Y0065290D01*
X0096770Y0063691D02*
X0097851Y0063691D01*
X0097561Y0062093D02*
X0097061Y0062093D01*
X0097061Y0060494D02*
X0097561Y0060494D01*
X0098130Y0058896D02*
X0096491Y0058896D01*
X0094892Y0057297D02*
X0099729Y0057297D01*
X0099162Y0052502D02*
X0095459Y0052502D01*
X0096203Y0046108D02*
X0098418Y0046108D01*
X0106203Y0046108D02*
X0108418Y0046108D01*
X0109162Y0052502D02*
X0105459Y0052502D01*
X0104892Y0057297D02*
X0109729Y0057297D01*
X0110343Y0056683D02*
X0114278Y0056683D01*
X0117061Y0059466D01*
X0117061Y0063401D01*
X0114911Y0065551D01*
X0114911Y0067316D01*
X0117061Y0069466D01*
X0117061Y0073401D01*
X0114911Y0075551D01*
X0114911Y0077316D01*
X0117061Y0079466D01*
X0117061Y0083401D01*
X0114911Y0085551D01*
X0114911Y0087316D01*
X0117061Y0089466D01*
X0117061Y0093401D01*
X0114278Y0096183D01*
X0110343Y0096183D01*
X0107561Y0093401D01*
X0107561Y0089466D01*
X0109711Y0087316D01*
X0109711Y0085551D01*
X0107561Y0083401D01*
X0107561Y0079466D01*
X0109711Y0077316D01*
X0109711Y0075551D01*
X0107561Y0073401D01*
X0107561Y0069466D01*
X0109711Y0067316D01*
X0109711Y0065551D01*
X0107561Y0063401D01*
X0107561Y0059466D01*
X0110343Y0056683D01*
X0108130Y0058896D02*
X0106491Y0058896D01*
X0107061Y0060494D02*
X0107561Y0060494D01*
X0107561Y0062093D02*
X0107061Y0062093D01*
X0106770Y0063691D02*
X0107851Y0063691D01*
X0109450Y0065290D02*
X0105171Y0065290D01*
X0104911Y0066888D02*
X0109711Y0066888D01*
X0108539Y0068487D02*
X0106082Y0068487D01*
X0107061Y0070085D02*
X0107561Y0070085D01*
X0107561Y0071684D02*
X0107061Y0071684D01*
X0107061Y0073282D02*
X0107561Y0073282D01*
X0109041Y0074881D02*
X0105580Y0074881D01*
X0104911Y0076479D02*
X0109711Y0076479D01*
X0108948Y0078078D02*
X0105673Y0078078D01*
X0107061Y0079677D02*
X0107561Y0079677D01*
X0107561Y0081275D02*
X0107061Y0081275D01*
X0107061Y0082874D02*
X0107561Y0082874D01*
X0108632Y0084472D02*
X0105989Y0084472D01*
X0104911Y0086071D02*
X0109711Y0086071D01*
X0109357Y0087669D02*
X0105264Y0087669D01*
X0106863Y0089268D02*
X0107759Y0089268D01*
X0107561Y0090866D02*
X0107061Y0090866D01*
X0107061Y0092465D02*
X0107561Y0092465D01*
X0108223Y0094063D02*
X0106398Y0094063D01*
X0104799Y0095662D02*
X0109822Y0095662D01*
X0114799Y0095662D02*
X0119822Y0095662D01*
X0120343Y0096183D02*
X0117561Y0093401D01*
X0117561Y0089466D01*
X0119711Y0087316D01*
X0119711Y0085551D01*
X0117561Y0083401D01*
X0117561Y0079466D01*
X0119711Y0077316D01*
X0119711Y0075551D01*
X0117561Y0073401D01*
X0117561Y0069466D01*
X0119711Y0067316D01*
X0119711Y0065551D01*
X0117561Y0063401D01*
X0117561Y0059466D01*
X0120343Y0056683D01*
X0124278Y0056683D01*
X0127061Y0059466D01*
X0127061Y0063401D01*
X0124911Y0065551D01*
X0124911Y0067316D01*
X0127061Y0069466D01*
X0127061Y0073401D01*
X0124911Y0075551D01*
X0124911Y0077316D01*
X0127061Y0079466D01*
X0127061Y0083401D01*
X0124911Y0085551D01*
X0124911Y0087316D01*
X0127061Y0089466D01*
X0127061Y0093401D01*
X0124278Y0096183D01*
X0120343Y0096183D01*
X0118223Y0094063D02*
X0116398Y0094063D01*
X0117061Y0092465D02*
X0117561Y0092465D01*
X0117561Y0090866D02*
X0117061Y0090866D01*
X0116863Y0089268D02*
X0117759Y0089268D01*
X0119357Y0087669D02*
X0115264Y0087669D01*
X0114911Y0086071D02*
X0119711Y0086071D01*
X0118632Y0084472D02*
X0115989Y0084472D01*
X0117061Y0082874D02*
X0117561Y0082874D01*
X0117561Y0081275D02*
X0117061Y0081275D01*
X0117061Y0079677D02*
X0117561Y0079677D01*
X0118948Y0078078D02*
X0115673Y0078078D01*
X0114911Y0076479D02*
X0119711Y0076479D01*
X0119041Y0074881D02*
X0115580Y0074881D01*
X0117061Y0073282D02*
X0117561Y0073282D01*
X0117561Y0071684D02*
X0117061Y0071684D01*
X0117061Y0070085D02*
X0117561Y0070085D01*
X0118539Y0068487D02*
X0116082Y0068487D01*
X0114911Y0066888D02*
X0119711Y0066888D01*
X0119450Y0065290D02*
X0115171Y0065290D01*
X0116770Y0063691D02*
X0117851Y0063691D01*
X0117561Y0062093D02*
X0117061Y0062093D01*
X0117061Y0060494D02*
X0117561Y0060494D01*
X0118130Y0058896D02*
X0116491Y0058896D01*
X0114892Y0057297D02*
X0119729Y0057297D01*
X0119162Y0052502D02*
X0115459Y0052502D01*
X0116203Y0046108D02*
X0118418Y0046108D01*
X0126203Y0046108D02*
X0128418Y0046108D01*
X0136203Y0046108D02*
X0138418Y0046108D01*
X0139162Y0052502D02*
X0135459Y0052502D01*
X0134278Y0056683D02*
X0137061Y0059466D01*
X0137061Y0063401D01*
X0134911Y0065551D01*
X0134911Y0067316D01*
X0137061Y0069466D01*
X0137061Y0073401D01*
X0134911Y0075551D01*
X0134911Y0077316D01*
X0137061Y0079466D01*
X0137061Y0083401D01*
X0134911Y0085551D01*
X0134911Y0087316D01*
X0137061Y0089466D01*
X0137061Y0093401D01*
X0134278Y0096183D01*
X0130343Y0096183D01*
X0127561Y0093401D01*
X0127561Y0089466D01*
X0129711Y0087316D01*
X0129711Y0085551D01*
X0127561Y0083401D01*
X0127561Y0079466D01*
X0129711Y0077316D01*
X0129711Y0075551D01*
X0127561Y0073401D01*
X0127561Y0069466D01*
X0129711Y0067316D01*
X0129711Y0065551D01*
X0127561Y0063401D01*
X0127561Y0059466D01*
X0130343Y0056683D01*
X0134278Y0056683D01*
X0134892Y0057297D02*
X0139729Y0057297D01*
X0138130Y0058896D02*
X0136491Y0058896D01*
X0137061Y0060494D02*
X0137561Y0060494D01*
X0137561Y0062093D02*
X0137061Y0062093D01*
X0136770Y0063691D02*
X0137851Y0063691D01*
X0139450Y0065290D02*
X0135171Y0065290D01*
X0134911Y0066888D02*
X0139711Y0066888D01*
X0138539Y0068487D02*
X0136082Y0068487D01*
X0137061Y0070085D02*
X0137561Y0070085D01*
X0137561Y0071684D02*
X0137061Y0071684D01*
X0137061Y0073282D02*
X0137561Y0073282D01*
X0139041Y0074881D02*
X0135580Y0074881D01*
X0134911Y0076479D02*
X0139711Y0076479D01*
X0138948Y0078078D02*
X0135673Y0078078D01*
X0137061Y0079677D02*
X0137561Y0079677D01*
X0137561Y0081275D02*
X0137061Y0081275D01*
X0137061Y0082874D02*
X0137561Y0082874D01*
X0138632Y0084472D02*
X0135989Y0084472D01*
X0134911Y0086071D02*
X0139711Y0086071D01*
X0139357Y0087669D02*
X0135264Y0087669D01*
X0136863Y0089268D02*
X0137759Y0089268D01*
X0137561Y0090866D02*
X0137061Y0090866D01*
X0137061Y0092465D02*
X0137561Y0092465D01*
X0138223Y0094063D02*
X0136398Y0094063D01*
X0134799Y0095662D02*
X0139822Y0095662D01*
X0129822Y0095662D02*
X0124799Y0095662D01*
X0126398Y0094063D02*
X0128223Y0094063D01*
X0127561Y0092465D02*
X0127061Y0092465D01*
X0127061Y0090866D02*
X0127561Y0090866D01*
X0127759Y0089268D02*
X0126863Y0089268D01*
X0125264Y0087669D02*
X0129357Y0087669D01*
X0129711Y0086071D02*
X0124911Y0086071D01*
X0125989Y0084472D02*
X0128632Y0084472D01*
X0127561Y0082874D02*
X0127061Y0082874D01*
X0127061Y0081275D02*
X0127561Y0081275D01*
X0127561Y0079677D02*
X0127061Y0079677D01*
X0125673Y0078078D02*
X0128948Y0078078D01*
X0129711Y0076479D02*
X0124911Y0076479D01*
X0125580Y0074881D02*
X0129041Y0074881D01*
X0127561Y0073282D02*
X0127061Y0073282D01*
X0127061Y0071684D02*
X0127561Y0071684D01*
X0127561Y0070085D02*
X0127061Y0070085D01*
X0126082Y0068487D02*
X0128539Y0068487D01*
X0129711Y0066888D02*
X0124911Y0066888D01*
X0125171Y0065290D02*
X0129450Y0065290D01*
X0127851Y0063691D02*
X0126770Y0063691D01*
X0127061Y0062093D02*
X0127561Y0062093D01*
X0127561Y0060494D02*
X0127061Y0060494D01*
X0126491Y0058896D02*
X0128130Y0058896D01*
X0129729Y0057297D02*
X0124892Y0057297D01*
X0125459Y0052502D02*
X0129162Y0052502D01*
X0146203Y0046108D02*
X0148418Y0046108D01*
X0156203Y0046108D02*
X0158418Y0046108D01*
X0166203Y0046108D02*
X0168418Y0046108D01*
X0176203Y0046108D02*
X0178418Y0046108D01*
X0186203Y0046108D02*
X0188418Y0046108D01*
X0196203Y0046108D02*
X0198418Y0046108D01*
X0206203Y0046108D02*
X0208418Y0046108D01*
X0216203Y0046108D02*
X0218418Y0046108D01*
X0226203Y0046108D02*
X0228418Y0046108D01*
X0236203Y0046108D02*
X0238418Y0046108D01*
X0246203Y0046108D02*
X0248418Y0046108D01*
X0256203Y0046108D02*
X0262596Y0046108D01*
X0262596Y0047706D02*
X0257061Y0047706D01*
X0257061Y0049305D02*
X0262596Y0049305D01*
X0262596Y0050903D02*
X0257058Y0050903D01*
X0262596Y0055699D02*
X0055411Y0055699D01*
X0055411Y0057297D02*
X0069729Y0057297D01*
X0070343Y0056683D02*
X0067561Y0059466D01*
X0067561Y0063401D01*
X0069711Y0065551D01*
X0069711Y0067316D01*
X0067561Y0069466D01*
X0067561Y0073401D01*
X0069711Y0075551D01*
X0069711Y0077316D01*
X0067561Y0079466D01*
X0067561Y0083401D01*
X0069711Y0085551D01*
X0069711Y0087316D01*
X0067561Y0089466D01*
X0067561Y0093401D01*
X0070343Y0096183D01*
X0074278Y0096183D01*
X0077061Y0093401D01*
X0077061Y0089466D01*
X0074911Y0087316D01*
X0074911Y0085551D01*
X0077061Y0083401D01*
X0077061Y0079466D01*
X0074911Y0077316D01*
X0074911Y0075551D01*
X0077061Y0073401D01*
X0077061Y0069466D01*
X0074911Y0067316D01*
X0074911Y0065551D01*
X0077061Y0063401D01*
X0077061Y0059466D01*
X0074278Y0056683D01*
X0070343Y0056683D01*
X0068130Y0058896D02*
X0055411Y0058896D01*
X0055411Y0060494D02*
X0067561Y0060494D01*
X0067561Y0062093D02*
X0055411Y0062093D01*
X0055411Y0063691D02*
X0067851Y0063691D01*
X0069450Y0065290D02*
X0055411Y0065290D01*
X0055411Y0066888D02*
X0069711Y0066888D01*
X0068539Y0068487D02*
X0055411Y0068487D01*
X0055411Y0070085D02*
X0067561Y0070085D01*
X0067561Y0071684D02*
X0055411Y0071684D01*
X0055411Y0073282D02*
X0067561Y0073282D01*
X0069041Y0074881D02*
X0055411Y0074881D01*
X0055411Y0076479D02*
X0069711Y0076479D01*
X0068948Y0078078D02*
X0055411Y0078078D01*
X0055411Y0079677D02*
X0067561Y0079677D01*
X0067561Y0081275D02*
X0055411Y0081275D01*
X0055411Y0082874D02*
X0067561Y0082874D01*
X0068632Y0084472D02*
X0055411Y0084472D01*
X0055411Y0086071D02*
X0069711Y0086071D01*
X0069357Y0087669D02*
X0055411Y0087669D01*
X0055411Y0089268D02*
X0067759Y0089268D01*
X0067561Y0090866D02*
X0055411Y0090866D01*
X0055411Y0092465D02*
X0067561Y0092465D01*
X0068223Y0094063D02*
X0055411Y0094063D01*
X0055411Y0095662D02*
X0069822Y0095662D01*
X0074799Y0095662D02*
X0079822Y0095662D01*
X0078223Y0094063D02*
X0076398Y0094063D01*
X0077061Y0092465D02*
X0077561Y0092465D01*
X0077561Y0090866D02*
X0077061Y0090866D01*
X0076863Y0089268D02*
X0077759Y0089268D01*
X0079357Y0087669D02*
X0075264Y0087669D01*
X0074911Y0086071D02*
X0079711Y0086071D01*
X0078632Y0084472D02*
X0075989Y0084472D01*
X0077061Y0082874D02*
X0077561Y0082874D01*
X0077561Y0081275D02*
X0077061Y0081275D01*
X0077061Y0079677D02*
X0077561Y0079677D01*
X0078948Y0078078D02*
X0075673Y0078078D01*
X0074911Y0076479D02*
X0079711Y0076479D01*
X0079041Y0074881D02*
X0075580Y0074881D01*
X0077061Y0073282D02*
X0077561Y0073282D01*
X0077561Y0071684D02*
X0077061Y0071684D01*
X0077061Y0070085D02*
X0077561Y0070085D01*
X0078539Y0068487D02*
X0076082Y0068487D01*
X0074911Y0066888D02*
X0079711Y0066888D01*
X0079450Y0065290D02*
X0075171Y0065290D01*
X0076770Y0063691D02*
X0077851Y0063691D01*
X0077561Y0062093D02*
X0077061Y0062093D01*
X0077061Y0060494D02*
X0077561Y0060494D01*
X0078130Y0058896D02*
X0076491Y0058896D01*
X0074892Y0057297D02*
X0079729Y0057297D01*
X0079162Y0052502D02*
X0075459Y0052502D01*
X0055411Y0031721D02*
X0262596Y0031721D01*
X0262596Y0030123D02*
X0055411Y0030123D01*
X0055411Y0028524D02*
X0262596Y0028524D01*
X0262596Y0026926D02*
X0055411Y0026926D01*
X0055411Y0025327D02*
X0262596Y0025327D01*
X0262596Y0023729D02*
X0055411Y0023729D01*
X0055411Y0022130D02*
X0262596Y0022130D01*
X0248012Y0078078D02*
X0241568Y0078078D01*
X0239703Y0078078D02*
X0239334Y0078078D01*
X0239334Y0077658D02*
X0239334Y0082573D01*
X0234419Y0082573D01*
X0234419Y0082356D01*
X0234544Y0081563D01*
X0234792Y0080800D01*
X0235157Y0080085D01*
X0235629Y0079435D01*
X0236196Y0078868D01*
X0236846Y0078396D01*
X0237561Y0078031D01*
X0238324Y0077783D01*
X0239117Y0077658D01*
X0239334Y0077658D01*
X0237469Y0078078D02*
X0231025Y0078078D01*
X0230493Y0077858D02*
X0232294Y0078604D01*
X0233673Y0079982D01*
X0234419Y0081783D01*
X0234419Y0083732D01*
X0233673Y0085533D01*
X0232294Y0086912D01*
X0230493Y0087658D01*
X0228544Y0087658D01*
X0226743Y0086912D01*
X0225365Y0085533D01*
X0224619Y0083732D01*
X0224619Y0081783D01*
X0225365Y0079982D01*
X0226743Y0078604D01*
X0228544Y0077858D01*
X0230493Y0077858D01*
X0228012Y0078078D02*
X0205673Y0078078D01*
X0207061Y0079677D02*
X0225670Y0079677D01*
X0224829Y0081275D02*
X0207061Y0081275D01*
X0207061Y0082874D02*
X0224619Y0082874D01*
X0224925Y0084472D02*
X0205989Y0084472D01*
X0204911Y0086071D02*
X0225902Y0086071D01*
X0233135Y0086071D02*
X0235622Y0086071D01*
X0234713Y0084472D02*
X0234112Y0084472D01*
X0234419Y0082874D02*
X0239334Y0082874D01*
X0239703Y0082874D02*
X0244619Y0082874D01*
X0244829Y0081275D02*
X0244399Y0081275D01*
X0243584Y0079677D02*
X0245670Y0079677D01*
X0244925Y0084472D02*
X0244324Y0084472D01*
X0243416Y0086071D02*
X0245902Y0086071D01*
X0239703Y0086071D02*
X0239334Y0086071D01*
X0239334Y0084472D02*
X0239703Y0084472D01*
X0239703Y0081275D02*
X0239334Y0081275D01*
X0239334Y0079677D02*
X0239703Y0079677D01*
X0235453Y0079677D02*
X0233367Y0079677D01*
X0234208Y0081275D02*
X0234638Y0081275D01*
X0257291Y0098859D02*
X0257291Y0098859D01*
X0257291Y0100457D02*
X0257291Y0100457D01*
X0257291Y0108450D02*
X0257291Y0108450D01*
X0257291Y0110048D02*
X0257291Y0110048D01*
X0253488Y0111647D02*
X0262596Y0111647D01*
X0262596Y0113245D02*
X0252967Y0113245D01*
X0252837Y0124435D02*
X0262596Y0124435D01*
X0262596Y0126033D02*
X0253488Y0126033D01*
X0257291Y0127632D02*
X0257291Y0127632D01*
X0257291Y0129230D02*
X0257291Y0129230D01*
X0250570Y0130829D02*
X0250304Y0130829D01*
X0250445Y0131925D02*
X0250445Y0137010D01*
X0250342Y0137659D01*
X0250139Y0138285D01*
X0249841Y0138871D01*
X0249454Y0139403D01*
X0248989Y0139868D01*
X0248457Y0140254D01*
X0247871Y0140553D01*
X0247246Y0140756D01*
X0246596Y0140859D01*
X0246267Y0140859D01*
X0246267Y0131925D01*
X0250445Y0131925D01*
X0250445Y0132427D02*
X0250570Y0132427D01*
X0250570Y0134026D02*
X0250445Y0134026D01*
X0250445Y0135624D02*
X0250570Y0135624D01*
X0250570Y0137223D02*
X0250411Y0137223D01*
X0250749Y0138821D02*
X0249866Y0138821D01*
X0248132Y0140420D02*
X0262596Y0140420D01*
X0262596Y0142018D02*
X0237061Y0142018D01*
X0237061Y0143401D02*
X0234278Y0146183D01*
X0230343Y0146183D01*
X0227561Y0143401D01*
X0227561Y0139466D01*
X0230343Y0136683D01*
X0234278Y0136683D01*
X0237061Y0139466D01*
X0237061Y0143401D01*
X0236844Y0143617D02*
X0262596Y0143617D01*
X0262596Y0145215D02*
X0235246Y0145215D01*
X0237061Y0140420D02*
X0244402Y0140420D01*
X0246267Y0140420D02*
X0246267Y0140420D01*
X0246267Y0138821D02*
X0246267Y0138821D01*
X0246267Y0137223D02*
X0246267Y0137223D01*
X0246267Y0135624D02*
X0246267Y0135624D01*
X0246267Y0134026D02*
X0246267Y0134026D01*
X0246267Y0132427D02*
X0246267Y0132427D01*
X0246267Y0130829D02*
X0246267Y0130829D01*
X0242123Y0137223D02*
X0234818Y0137223D01*
X0236416Y0138821D02*
X0242669Y0138821D01*
X0229803Y0137223D02*
X0161233Y0137223D01*
X0162130Y0135624D02*
X0169784Y0135624D01*
X0168186Y0134026D02*
X0162411Y0134026D01*
X0162207Y0132427D02*
X0167561Y0132427D01*
X0167561Y0130829D02*
X0161419Y0130829D01*
X0159284Y0129230D02*
X0167796Y0129230D01*
X0169394Y0127632D02*
X0161107Y0127632D01*
X0162189Y0126033D02*
X0169711Y0126033D01*
X0168595Y0124435D02*
X0162597Y0124435D01*
X0162503Y0122836D02*
X0167561Y0122836D01*
X0167561Y0121238D02*
X0161886Y0121238D01*
X0160418Y0119639D02*
X0167561Y0119639D01*
X0168985Y0118041D02*
X0130621Y0118041D01*
X0130698Y0119639D02*
X0154203Y0119639D01*
X0152735Y0121238D02*
X0129814Y0121238D01*
X0129911Y0116442D02*
X0169711Y0116442D01*
X0169004Y0114844D02*
X0129911Y0114844D01*
X0129911Y0113245D02*
X0167561Y0113245D01*
X0167561Y0111647D02*
X0129911Y0111647D01*
X0129911Y0110048D02*
X0167561Y0110048D01*
X0168576Y0108450D02*
X0131471Y0108450D01*
X0133069Y0106851D02*
X0169711Y0106851D01*
X0169413Y0105253D02*
X0149668Y0105253D01*
X0151266Y0103654D02*
X0167814Y0103654D01*
X0167561Y0102056D02*
X0152865Y0102056D01*
X0154463Y0100457D02*
X0167561Y0100457D01*
X0168167Y0098859D02*
X0154911Y0098859D01*
X0157110Y0119639D02*
X0157511Y0119639D01*
X0157511Y0121238D02*
X0157110Y0121238D01*
X0157110Y0122836D02*
X0157511Y0122836D01*
X0153514Y0127632D02*
X0077067Y0127632D01*
X0077067Y0129230D02*
X0155337Y0129230D01*
X0153202Y0130829D02*
X0093701Y0130829D01*
X0090920Y0130829D02*
X0077067Y0130829D01*
X0077067Y0132427D02*
X0089254Y0132427D01*
X0088911Y0134026D02*
X0077067Y0134026D01*
X0077067Y0135624D02*
X0089331Y0135624D01*
X0091368Y0137223D02*
X0077067Y0137223D01*
X0077067Y0138821D02*
X0155785Y0138821D01*
X0153611Y0140420D02*
X0077067Y0140420D01*
X0078107Y0146814D02*
X0152984Y0146814D01*
X0154798Y0148412D02*
X0077067Y0148412D01*
X0077067Y0150011D02*
X0167561Y0150011D01*
X0167561Y0149466D02*
X0170343Y0146683D01*
X0174278Y0146683D01*
X0177061Y0149466D01*
X0177061Y0153401D01*
X0174911Y0155551D01*
X0174911Y0157316D01*
X0177061Y0159466D01*
X0177061Y0163401D01*
X0174911Y0165551D01*
X0174911Y0167316D01*
X0177061Y0169466D01*
X0177061Y0173401D01*
X0174911Y0175551D01*
X0174911Y0177316D01*
X0177061Y0179466D01*
X0177061Y0183401D01*
X0174911Y0185551D01*
X0174911Y0187316D01*
X0177061Y0189466D01*
X0177061Y0193401D01*
X0174911Y0195551D01*
X0174911Y0197316D01*
X0177061Y0199466D01*
X0177061Y0203401D01*
X0174911Y0205551D01*
X0174911Y0207316D01*
X0177061Y0209466D01*
X0177061Y0213401D01*
X0174278Y0216183D01*
X0170343Y0216183D01*
X0167561Y0213401D01*
X0167561Y0209466D01*
X0169711Y0207316D01*
X0169711Y0205551D01*
X0167561Y0203401D01*
X0167561Y0199466D01*
X0169711Y0197316D01*
X0169711Y0195551D01*
X0167561Y0193401D01*
X0167561Y0189466D01*
X0169711Y0187316D01*
X0169711Y0185551D01*
X0167561Y0183401D01*
X0167561Y0179466D01*
X0169711Y0177316D01*
X0169711Y0175551D01*
X0167561Y0173401D01*
X0167561Y0169466D01*
X0169711Y0167316D01*
X0169711Y0165551D01*
X0167561Y0163401D01*
X0167561Y0159466D01*
X0169711Y0157316D01*
X0169711Y0155551D01*
X0167561Y0153401D01*
X0167561Y0149466D01*
X0168614Y0148412D02*
X0159823Y0148412D01*
X0161637Y0146814D02*
X0170212Y0146814D01*
X0174409Y0146814D02*
X0180212Y0146814D01*
X0180343Y0146683D02*
X0184278Y0146683D01*
X0187061Y0149466D01*
X0187061Y0153401D01*
X0184911Y0155551D01*
X0184911Y0157316D01*
X0187061Y0159466D01*
X0187061Y0163401D01*
X0184911Y0165551D01*
X0184911Y0167316D01*
X0187061Y0169466D01*
X0187061Y0173401D01*
X0184911Y0175551D01*
X0184911Y0177316D01*
X0187061Y0179466D01*
X0187061Y0183401D01*
X0184911Y0185551D01*
X0184911Y0187316D01*
X0187061Y0189466D01*
X0187061Y0193401D01*
X0184911Y0195551D01*
X0184911Y0197316D01*
X0187061Y0199466D01*
X0187061Y0203401D01*
X0184911Y0205551D01*
X0184911Y0207316D01*
X0187061Y0209466D01*
X0187061Y0213401D01*
X0184278Y0216183D01*
X0180343Y0216183D01*
X0177561Y0213401D01*
X0177561Y0209466D01*
X0179711Y0207316D01*
X0179711Y0205551D01*
X0177561Y0203401D01*
X0177561Y0199466D01*
X0179711Y0197316D01*
X0179711Y0195551D01*
X0177561Y0193401D01*
X0177561Y0189466D01*
X0179711Y0187316D01*
X0179711Y0185551D01*
X0177561Y0183401D01*
X0177561Y0179466D01*
X0179711Y0177316D01*
X0179711Y0175551D01*
X0177561Y0173401D01*
X0177561Y0169466D01*
X0179711Y0167316D01*
X0179711Y0165551D01*
X0177561Y0163401D01*
X0177561Y0159466D01*
X0179711Y0157316D01*
X0179711Y0155551D01*
X0177561Y0153401D01*
X0177561Y0149466D01*
X0180343Y0146683D01*
X0178614Y0148412D02*
X0176007Y0148412D01*
X0177061Y0150011D02*
X0177561Y0150011D01*
X0177561Y0151610D02*
X0177061Y0151610D01*
X0177061Y0153208D02*
X0177561Y0153208D01*
X0178966Y0154807D02*
X0175655Y0154807D01*
X0174911Y0156405D02*
X0179711Y0156405D01*
X0179023Y0158004D02*
X0175599Y0158004D01*
X0177061Y0159602D02*
X0177561Y0159602D01*
X0177561Y0161201D02*
X0177061Y0161201D01*
X0177061Y0162799D02*
X0177561Y0162799D01*
X0178558Y0164398D02*
X0176063Y0164398D01*
X0174911Y0165996D02*
X0179711Y0165996D01*
X0179431Y0167595D02*
X0175190Y0167595D01*
X0176788Y0169193D02*
X0177833Y0169193D01*
X0177561Y0170792D02*
X0177061Y0170792D01*
X0177061Y0172390D02*
X0177561Y0172390D01*
X0178149Y0173989D02*
X0176472Y0173989D01*
X0174911Y0175587D02*
X0179711Y0175587D01*
X0179711Y0177186D02*
X0174911Y0177186D01*
X0176379Y0178784D02*
X0178242Y0178784D01*
X0177561Y0180383D02*
X0177061Y0180383D01*
X0177061Y0181981D02*
X0177561Y0181981D01*
X0177740Y0183580D02*
X0176881Y0183580D01*
X0175283Y0185178D02*
X0179338Y0185178D01*
X0179711Y0186777D02*
X0174911Y0186777D01*
X0175970Y0188375D02*
X0178651Y0188375D01*
X0177561Y0189974D02*
X0177061Y0189974D01*
X0177061Y0191572D02*
X0177561Y0191572D01*
X0177561Y0193171D02*
X0177061Y0193171D01*
X0175692Y0194769D02*
X0178929Y0194769D01*
X0179711Y0196368D02*
X0174911Y0196368D01*
X0175561Y0197966D02*
X0179060Y0197966D01*
X0177561Y0199565D02*
X0177061Y0199565D01*
X0177061Y0201163D02*
X0177561Y0201163D01*
X0177561Y0202762D02*
X0177061Y0202762D01*
X0176101Y0204360D02*
X0178520Y0204360D01*
X0179711Y0205959D02*
X0174911Y0205959D01*
X0175152Y0207557D02*
X0179469Y0207557D01*
X0177870Y0209156D02*
X0176751Y0209156D01*
X0177061Y0210754D02*
X0177561Y0210754D01*
X0177561Y0212353D02*
X0177061Y0212353D01*
X0176510Y0213951D02*
X0178111Y0213951D01*
X0179710Y0215550D02*
X0174911Y0215550D01*
X0174278Y0219183D02*
X0170343Y0219183D01*
X0168193Y0221333D01*
X0166428Y0221333D01*
X0164278Y0219183D01*
X0160343Y0219183D01*
X0158193Y0221333D01*
X0156428Y0221333D01*
X0154278Y0219183D01*
X0150343Y0219183D01*
X0148193Y0221333D01*
X0146428Y0221333D01*
X0144278Y0219183D01*
X0140343Y0219183D01*
X0138193Y0221333D01*
X0136428Y0221333D01*
X0134278Y0219183D01*
X0130343Y0219183D01*
X0128193Y0221333D01*
X0126428Y0221333D01*
X0124278Y0219183D01*
X0120343Y0219183D01*
X0118193Y0221333D01*
X0116428Y0221333D01*
X0114278Y0219183D01*
X0110343Y0219183D01*
X0108193Y0221333D01*
X0106428Y0221333D01*
X0104278Y0219183D01*
X0100343Y0219183D01*
X0098193Y0221333D01*
X0096428Y0221333D01*
X0094278Y0219183D01*
X0090343Y0219183D01*
X0088193Y0221333D01*
X0086428Y0221333D01*
X0084278Y0219183D01*
X0080343Y0219183D01*
X0078193Y0221333D01*
X0076428Y0221333D01*
X0074278Y0219183D01*
X0070343Y0219183D01*
X0067561Y0221966D01*
X0067561Y0225901D01*
X0070343Y0228683D01*
X0074278Y0228683D01*
X0076428Y0226533D01*
X0078193Y0226533D01*
X0080343Y0228683D01*
X0084278Y0228683D01*
X0086428Y0226533D01*
X0088193Y0226533D01*
X0090343Y0228683D01*
X0094278Y0228683D01*
X0096428Y0226533D01*
X0098193Y0226533D01*
X0100343Y0228683D01*
X0104278Y0228683D01*
X0106428Y0226533D01*
X0108193Y0226533D01*
X0110343Y0228683D01*
X0114278Y0228683D01*
X0116428Y0226533D01*
X0118193Y0226533D01*
X0120343Y0228683D01*
X0124278Y0228683D01*
X0126428Y0226533D01*
X0128193Y0226533D01*
X0130343Y0228683D01*
X0134278Y0228683D01*
X0136428Y0226533D01*
X0138193Y0226533D01*
X0140343Y0228683D01*
X0144278Y0228683D01*
X0146428Y0226533D01*
X0148193Y0226533D01*
X0150343Y0228683D01*
X0154278Y0228683D01*
X0156428Y0226533D01*
X0158193Y0226533D01*
X0160343Y0228683D01*
X0164278Y0228683D01*
X0166428Y0226533D01*
X0168193Y0226533D01*
X0170343Y0228683D01*
X0174278Y0228683D01*
X0176428Y0226533D01*
X0178193Y0226533D01*
X0180343Y0228683D01*
X0184278Y0228683D01*
X0186428Y0226533D01*
X0188193Y0226533D01*
X0190343Y0228683D01*
X0194278Y0228683D01*
X0196428Y0226533D01*
X0198193Y0226533D01*
X0200343Y0228683D01*
X0204278Y0228683D01*
X0206428Y0226533D01*
X0208193Y0226533D01*
X0210343Y0228683D01*
X0214278Y0228683D01*
X0216428Y0226533D01*
X0218193Y0226533D01*
X0220343Y0228683D01*
X0224278Y0228683D01*
X0227061Y0225901D01*
X0227061Y0221966D01*
X0224278Y0219183D01*
X0220343Y0219183D01*
X0218193Y0221333D01*
X0216428Y0221333D01*
X0214278Y0219183D01*
X0210343Y0219183D01*
X0208193Y0221333D01*
X0206428Y0221333D01*
X0204278Y0219183D01*
X0200343Y0219183D01*
X0198193Y0221333D01*
X0196428Y0221333D01*
X0194278Y0219183D01*
X0190343Y0219183D01*
X0188193Y0221333D01*
X0186428Y0221333D01*
X0184278Y0219183D01*
X0180343Y0219183D01*
X0178193Y0221333D01*
X0176428Y0221333D01*
X0174278Y0219183D01*
X0175440Y0220345D02*
X0179181Y0220345D01*
X0185440Y0220345D02*
X0189181Y0220345D01*
X0190343Y0216183D02*
X0187561Y0213401D01*
X0187561Y0209466D01*
X0189711Y0207316D01*
X0189711Y0205551D01*
X0187561Y0203401D01*
X0187561Y0199466D01*
X0189711Y0197316D01*
X0189711Y0195551D01*
X0187561Y0193401D01*
X0187561Y0189466D01*
X0189711Y0187316D01*
X0189711Y0185551D01*
X0187561Y0183401D01*
X0187561Y0179466D01*
X0189711Y0177316D01*
X0189711Y0175551D01*
X0187561Y0173401D01*
X0187561Y0169466D01*
X0189711Y0167316D01*
X0189711Y0165551D01*
X0187561Y0163401D01*
X0187561Y0159466D01*
X0189711Y0157316D01*
X0189711Y0155551D01*
X0187561Y0153401D01*
X0187561Y0149466D01*
X0190343Y0146683D01*
X0194278Y0146683D01*
X0197061Y0149466D01*
X0197061Y0153401D01*
X0194911Y0155551D01*
X0194911Y0157316D01*
X0197061Y0159466D01*
X0197061Y0163401D01*
X0194911Y0165551D01*
X0194911Y0167316D01*
X0197061Y0169466D01*
X0197061Y0173401D01*
X0194911Y0175551D01*
X0194911Y0177316D01*
X0197061Y0179466D01*
X0197061Y0183401D01*
X0194911Y0185551D01*
X0194911Y0187316D01*
X0197061Y0189466D01*
X0197061Y0193401D01*
X0194911Y0195551D01*
X0194911Y0197316D01*
X0197061Y0199466D01*
X0197061Y0203401D01*
X0194911Y0205551D01*
X0194911Y0207316D01*
X0197061Y0209466D01*
X0197061Y0213401D01*
X0194278Y0216183D01*
X0190343Y0216183D01*
X0189710Y0215550D02*
X0184911Y0215550D01*
X0186510Y0213951D02*
X0188111Y0213951D01*
X0187561Y0212353D02*
X0187061Y0212353D01*
X0187061Y0210754D02*
X0187561Y0210754D01*
X0187870Y0209156D02*
X0186751Y0209156D01*
X0185152Y0207557D02*
X0189469Y0207557D01*
X0189711Y0205959D02*
X0184911Y0205959D01*
X0186101Y0204360D02*
X0188520Y0204360D01*
X0187561Y0202762D02*
X0187061Y0202762D01*
X0187061Y0201163D02*
X0187561Y0201163D01*
X0187561Y0199565D02*
X0187061Y0199565D01*
X0185561Y0197966D02*
X0189060Y0197966D01*
X0189711Y0196368D02*
X0184911Y0196368D01*
X0185692Y0194769D02*
X0188929Y0194769D01*
X0187561Y0193171D02*
X0187061Y0193171D01*
X0187061Y0191572D02*
X0187561Y0191572D01*
X0187561Y0189974D02*
X0187061Y0189974D01*
X0185970Y0188375D02*
X0188651Y0188375D01*
X0189711Y0186777D02*
X0184911Y0186777D01*
X0185283Y0185178D02*
X0189338Y0185178D01*
X0187740Y0183580D02*
X0186881Y0183580D01*
X0187061Y0181981D02*
X0187561Y0181981D01*
X0187561Y0180383D02*
X0187061Y0180383D01*
X0186379Y0178784D02*
X0188242Y0178784D01*
X0189711Y0177186D02*
X0184911Y0177186D01*
X0184911Y0175587D02*
X0189711Y0175587D01*
X0188149Y0173989D02*
X0186472Y0173989D01*
X0187061Y0172390D02*
X0187561Y0172390D01*
X0187561Y0170792D02*
X0187061Y0170792D01*
X0186788Y0169193D02*
X0187833Y0169193D01*
X0189431Y0167595D02*
X0185190Y0167595D01*
X0184911Y0165996D02*
X0189711Y0165996D01*
X0188558Y0164398D02*
X0186063Y0164398D01*
X0187061Y0162799D02*
X0187561Y0162799D01*
X0187561Y0161201D02*
X0187061Y0161201D01*
X0187061Y0159602D02*
X0187561Y0159602D01*
X0189023Y0158004D02*
X0185598Y0158004D01*
X0184911Y0156405D02*
X0189711Y0156405D01*
X0188966Y0154807D02*
X0185655Y0154807D01*
X0187061Y0153208D02*
X0187561Y0153208D01*
X0187561Y0151610D02*
X0187061Y0151610D01*
X0187061Y0150011D02*
X0187561Y0150011D01*
X0188614Y0148412D02*
X0186007Y0148412D01*
X0184409Y0146814D02*
X0190212Y0146814D01*
X0194409Y0146814D02*
X0200212Y0146814D01*
X0200343Y0146683D02*
X0204278Y0146683D01*
X0207061Y0149466D01*
X0207061Y0153401D01*
X0204911Y0155551D01*
X0204911Y0157316D01*
X0207061Y0159466D01*
X0207061Y0163401D01*
X0204911Y0165551D01*
X0204911Y0167316D01*
X0207061Y0169466D01*
X0207061Y0173401D01*
X0204911Y0175551D01*
X0204911Y0177316D01*
X0207061Y0179466D01*
X0207061Y0183401D01*
X0204911Y0185551D01*
X0204911Y0187316D01*
X0207061Y0189466D01*
X0207061Y0193401D01*
X0204911Y0195551D01*
X0204911Y0197316D01*
X0207061Y0199466D01*
X0207061Y0203401D01*
X0204911Y0205551D01*
X0204911Y0207316D01*
X0207061Y0209466D01*
X0207061Y0213401D01*
X0204278Y0216183D01*
X0200343Y0216183D01*
X0197561Y0213401D01*
X0197561Y0209466D01*
X0199711Y0207316D01*
X0199711Y0205551D01*
X0197561Y0203401D01*
X0197561Y0199466D01*
X0199711Y0197316D01*
X0199711Y0195551D01*
X0197561Y0193401D01*
X0197561Y0189466D01*
X0199711Y0187316D01*
X0199711Y0185551D01*
X0197561Y0183401D01*
X0197561Y0179466D01*
X0199711Y0177316D01*
X0199711Y0175551D01*
X0197561Y0173401D01*
X0197561Y0169466D01*
X0199711Y0167316D01*
X0199711Y0165551D01*
X0197561Y0163401D01*
X0197561Y0159466D01*
X0199711Y0157316D01*
X0199711Y0155551D01*
X0197561Y0153401D01*
X0197561Y0149466D01*
X0200343Y0146683D01*
X0198614Y0148412D02*
X0196007Y0148412D01*
X0197061Y0150011D02*
X0197561Y0150011D01*
X0197561Y0151610D02*
X0197061Y0151610D01*
X0197061Y0153208D02*
X0197561Y0153208D01*
X0198966Y0154807D02*
X0195655Y0154807D01*
X0194911Y0156405D02*
X0199711Y0156405D01*
X0199023Y0158004D02*
X0195598Y0158004D01*
X0197061Y0159602D02*
X0197561Y0159602D01*
X0197561Y0161201D02*
X0197061Y0161201D01*
X0197061Y0162799D02*
X0197561Y0162799D01*
X0198558Y0164398D02*
X0196063Y0164398D01*
X0194911Y0165996D02*
X0199711Y0165996D01*
X0199431Y0167595D02*
X0195190Y0167595D01*
X0196788Y0169193D02*
X0197833Y0169193D01*
X0197561Y0170792D02*
X0197061Y0170792D01*
X0197061Y0172390D02*
X0197561Y0172390D01*
X0198149Y0173989D02*
X0196472Y0173989D01*
X0194911Y0175587D02*
X0199711Y0175587D01*
X0199711Y0177186D02*
X0194911Y0177186D01*
X0196379Y0178784D02*
X0198242Y0178784D01*
X0197561Y0180383D02*
X0197061Y0180383D01*
X0197061Y0181981D02*
X0197561Y0181981D01*
X0197740Y0183580D02*
X0196881Y0183580D01*
X0195283Y0185178D02*
X0199338Y0185178D01*
X0199711Y0186777D02*
X0194911Y0186777D01*
X0195970Y0188375D02*
X0198651Y0188375D01*
X0197561Y0189974D02*
X0197061Y0189974D01*
X0197061Y0191572D02*
X0197561Y0191572D01*
X0197561Y0193171D02*
X0197061Y0193171D01*
X0195692Y0194769D02*
X0198929Y0194769D01*
X0199711Y0196368D02*
X0194911Y0196368D01*
X0195561Y0197966D02*
X0199060Y0197966D01*
X0197561Y0199565D02*
X0197061Y0199565D01*
X0197061Y0201163D02*
X0197561Y0201163D01*
X0197561Y0202762D02*
X0197061Y0202762D01*
X0196101Y0204360D02*
X0198520Y0204360D01*
X0199711Y0205959D02*
X0194911Y0205959D01*
X0195152Y0207557D02*
X0199469Y0207557D01*
X0197870Y0209156D02*
X0196751Y0209156D01*
X0197061Y0210754D02*
X0197561Y0210754D01*
X0197561Y0212353D02*
X0197061Y0212353D01*
X0196510Y0213951D02*
X0198111Y0213951D01*
X0199710Y0215550D02*
X0194911Y0215550D01*
X0195440Y0220345D02*
X0199181Y0220345D01*
X0205440Y0220345D02*
X0209181Y0220345D01*
X0210343Y0216183D02*
X0207561Y0213401D01*
X0207561Y0209466D01*
X0209711Y0207316D01*
X0209711Y0205551D01*
X0207561Y0203401D01*
X0207561Y0199466D01*
X0209711Y0197316D01*
X0209711Y0195551D01*
X0207561Y0193401D01*
X0207561Y0189466D01*
X0209711Y0187316D01*
X0209711Y0185551D01*
X0207561Y0183401D01*
X0207561Y0179466D01*
X0209711Y0177316D01*
X0209711Y0175551D01*
X0207561Y0173401D01*
X0207561Y0169466D01*
X0209711Y0167316D01*
X0209711Y0165551D01*
X0207561Y0163401D01*
X0207561Y0159466D01*
X0209711Y0157316D01*
X0209711Y0155551D01*
X0207561Y0153401D01*
X0207561Y0149466D01*
X0210343Y0146683D01*
X0214278Y0146683D01*
X0217061Y0149466D01*
X0217061Y0153401D01*
X0214911Y0155551D01*
X0214911Y0157316D01*
X0217061Y0159466D01*
X0217061Y0163401D01*
X0214911Y0165551D01*
X0214911Y0167316D01*
X0217061Y0169466D01*
X0217061Y0173401D01*
X0214911Y0175551D01*
X0214911Y0177316D01*
X0217061Y0179466D01*
X0217061Y0183401D01*
X0214911Y0185551D01*
X0214911Y0187316D01*
X0217061Y0189466D01*
X0217061Y0193401D01*
X0214911Y0195551D01*
X0214911Y0197316D01*
X0217061Y0199466D01*
X0217061Y0203401D01*
X0214911Y0205551D01*
X0214911Y0207316D01*
X0217061Y0209466D01*
X0217061Y0213401D01*
X0214278Y0216183D01*
X0210343Y0216183D01*
X0209710Y0215550D02*
X0204911Y0215550D01*
X0206510Y0213951D02*
X0208111Y0213951D01*
X0207561Y0212353D02*
X0207061Y0212353D01*
X0207061Y0210754D02*
X0207561Y0210754D01*
X0207870Y0209156D02*
X0206751Y0209156D01*
X0205152Y0207557D02*
X0209469Y0207557D01*
X0209711Y0205959D02*
X0204911Y0205959D01*
X0206101Y0204360D02*
X0208520Y0204360D01*
X0207561Y0202762D02*
X0207061Y0202762D01*
X0207061Y0201163D02*
X0207561Y0201163D01*
X0207561Y0199565D02*
X0207061Y0199565D01*
X0205561Y0197966D02*
X0209060Y0197966D01*
X0209711Y0196368D02*
X0204911Y0196368D01*
X0205692Y0194769D02*
X0208929Y0194769D01*
X0207561Y0193171D02*
X0207061Y0193171D01*
X0207061Y0191572D02*
X0207561Y0191572D01*
X0207561Y0189974D02*
X0207061Y0189974D01*
X0205970Y0188375D02*
X0208651Y0188375D01*
X0209711Y0186777D02*
X0204911Y0186777D01*
X0205283Y0185178D02*
X0209338Y0185178D01*
X0207740Y0183580D02*
X0206881Y0183580D01*
X0207061Y0181981D02*
X0207561Y0181981D01*
X0207561Y0180383D02*
X0207061Y0180383D01*
X0206379Y0178784D02*
X0208242Y0178784D01*
X0209711Y0177186D02*
X0204911Y0177186D01*
X0204911Y0175587D02*
X0209711Y0175587D01*
X0208149Y0173989D02*
X0206472Y0173989D01*
X0207061Y0172390D02*
X0207561Y0172390D01*
X0207561Y0170792D02*
X0207061Y0170792D01*
X0206788Y0169193D02*
X0207833Y0169193D01*
X0209431Y0167595D02*
X0205190Y0167595D01*
X0204911Y0165996D02*
X0209711Y0165996D01*
X0208558Y0164398D02*
X0206063Y0164398D01*
X0207061Y0162799D02*
X0207561Y0162799D01*
X0207561Y0161201D02*
X0207061Y0161201D01*
X0207061Y0159602D02*
X0207561Y0159602D01*
X0209023Y0158004D02*
X0205599Y0158004D01*
X0204911Y0156405D02*
X0209711Y0156405D01*
X0208966Y0154807D02*
X0205655Y0154807D01*
X0207061Y0153208D02*
X0207561Y0153208D01*
X0207561Y0151610D02*
X0207061Y0151610D01*
X0207061Y0150011D02*
X0207561Y0150011D01*
X0208614Y0148412D02*
X0206007Y0148412D01*
X0204409Y0146814D02*
X0210212Y0146814D01*
X0214409Y0146814D02*
X0220212Y0146814D01*
X0220343Y0146683D02*
X0224278Y0146683D01*
X0227061Y0149466D01*
X0227061Y0153401D01*
X0224911Y0155551D01*
X0224911Y0157316D01*
X0227061Y0159466D01*
X0227061Y0163401D01*
X0224911Y0165551D01*
X0224911Y0167316D01*
X0227061Y0169466D01*
X0227061Y0173401D01*
X0224911Y0175551D01*
X0224911Y0177316D01*
X0227061Y0179466D01*
X0227061Y0183401D01*
X0224911Y0185551D01*
X0224911Y0187316D01*
X0227061Y0189466D01*
X0227061Y0193401D01*
X0224911Y0195551D01*
X0224911Y0197316D01*
X0227061Y0199466D01*
X0227061Y0203401D01*
X0224911Y0205551D01*
X0224911Y0207316D01*
X0227061Y0209466D01*
X0227061Y0213401D01*
X0224278Y0216183D01*
X0220343Y0216183D01*
X0217561Y0213401D01*
X0217561Y0209466D01*
X0219711Y0207316D01*
X0219711Y0205551D01*
X0217561Y0203401D01*
X0217561Y0199466D01*
X0219711Y0197316D01*
X0219711Y0195551D01*
X0217561Y0193401D01*
X0217561Y0189466D01*
X0219711Y0187316D01*
X0219711Y0185551D01*
X0217561Y0183401D01*
X0217561Y0179466D01*
X0219711Y0177316D01*
X0219711Y0175551D01*
X0217561Y0173401D01*
X0217561Y0169466D01*
X0219711Y0167316D01*
X0219711Y0165551D01*
X0217561Y0163401D01*
X0217561Y0159466D01*
X0219711Y0157316D01*
X0219711Y0155551D01*
X0217561Y0153401D01*
X0217561Y0149466D01*
X0220343Y0146683D01*
X0218614Y0148412D02*
X0216007Y0148412D01*
X0217061Y0150011D02*
X0217561Y0150011D01*
X0217561Y0151610D02*
X0217061Y0151610D01*
X0217061Y0153208D02*
X0217561Y0153208D01*
X0218966Y0154807D02*
X0215655Y0154807D01*
X0214911Y0156405D02*
X0219711Y0156405D01*
X0219023Y0158004D02*
X0215599Y0158004D01*
X0217061Y0159602D02*
X0217561Y0159602D01*
X0217561Y0161201D02*
X0217061Y0161201D01*
X0217061Y0162799D02*
X0217561Y0162799D01*
X0218558Y0164398D02*
X0216063Y0164398D01*
X0214911Y0165996D02*
X0219711Y0165996D01*
X0219431Y0167595D02*
X0215190Y0167595D01*
X0216788Y0169193D02*
X0217833Y0169193D01*
X0217561Y0170792D02*
X0217061Y0170792D01*
X0217061Y0172390D02*
X0217561Y0172390D01*
X0218149Y0173989D02*
X0216472Y0173989D01*
X0214911Y0175587D02*
X0219711Y0175587D01*
X0219711Y0177186D02*
X0214911Y0177186D01*
X0216379Y0178784D02*
X0218242Y0178784D01*
X0217561Y0180383D02*
X0217061Y0180383D01*
X0217061Y0181981D02*
X0217561Y0181981D01*
X0217740Y0183580D02*
X0216881Y0183580D01*
X0215283Y0185178D02*
X0219338Y0185178D01*
X0219711Y0186777D02*
X0214911Y0186777D01*
X0215970Y0188375D02*
X0218651Y0188375D01*
X0217561Y0189974D02*
X0217061Y0189974D01*
X0217061Y0191572D02*
X0217561Y0191572D01*
X0217561Y0193171D02*
X0217061Y0193171D01*
X0215692Y0194769D02*
X0218929Y0194769D01*
X0219711Y0196368D02*
X0214911Y0196368D01*
X0215561Y0197966D02*
X0219060Y0197966D01*
X0217561Y0199565D02*
X0217061Y0199565D01*
X0217061Y0201163D02*
X0217561Y0201163D01*
X0217561Y0202762D02*
X0217061Y0202762D01*
X0216101Y0204360D02*
X0218520Y0204360D01*
X0219711Y0205959D02*
X0214911Y0205959D01*
X0215152Y0207557D02*
X0219469Y0207557D01*
X0217870Y0209156D02*
X0216751Y0209156D01*
X0217061Y0210754D02*
X0217561Y0210754D01*
X0217561Y0212353D02*
X0217061Y0212353D01*
X0216510Y0213951D02*
X0218111Y0213951D01*
X0219710Y0215550D02*
X0214911Y0215550D01*
X0215440Y0220345D02*
X0219181Y0220345D01*
X0225440Y0220345D02*
X0229797Y0220345D01*
X0229461Y0220681D02*
X0234059Y0216083D01*
X0240562Y0216083D01*
X0244811Y0220332D01*
X0249059Y0216083D01*
X0255562Y0216083D01*
X0260161Y0220681D01*
X0260161Y0227185D01*
X0255562Y0231783D01*
X0249059Y0231783D01*
X0244811Y0227535D01*
X0240562Y0231783D01*
X0234059Y0231783D01*
X0229461Y0227185D01*
X0229461Y0220681D01*
X0229461Y0221944D02*
X0227039Y0221944D01*
X0227061Y0223543D02*
X0229461Y0223543D01*
X0229461Y0225141D02*
X0227061Y0225141D01*
X0226222Y0226740D02*
X0229461Y0226740D01*
X0230614Y0228338D02*
X0224623Y0228338D01*
X0224361Y0228983D02*
X0227261Y0231883D01*
X0227261Y0233933D01*
X0222311Y0233933D01*
X0222311Y0233933D01*
X0227261Y0233933D01*
X0227261Y0235983D01*
X0224361Y0238883D01*
X0222311Y0238883D01*
X0222311Y0233933D01*
X0222311Y0228983D01*
X0224361Y0228983D01*
X0225314Y0229937D02*
X0232212Y0229937D01*
X0233811Y0231535D02*
X0226913Y0231535D01*
X0227261Y0233134D02*
X0262596Y0233134D01*
X0262596Y0234732D02*
X0227261Y0234732D01*
X0226913Y0236331D02*
X0262596Y0236331D01*
X0262596Y0237929D02*
X0225315Y0237929D01*
X0222311Y0237929D02*
X0222310Y0237929D01*
X0222310Y0238883D02*
X0220260Y0238883D01*
X0217361Y0235983D01*
X0217361Y0233933D01*
X0217361Y0231883D01*
X0220260Y0228983D01*
X0222310Y0228983D01*
X0222310Y0233933D01*
X0217361Y0233933D01*
X0222310Y0233933D01*
X0222310Y0233933D01*
X0222311Y0233933D01*
X0222310Y0233933D01*
X0222310Y0238883D01*
X0222310Y0236331D02*
X0222311Y0236331D01*
X0222310Y0234732D02*
X0222311Y0234732D01*
X0222310Y0233134D02*
X0222311Y0233134D01*
X0222310Y0231535D02*
X0222311Y0231535D01*
X0222310Y0229937D02*
X0222311Y0229937D01*
X0219998Y0228338D02*
X0214623Y0228338D01*
X0214361Y0228983D02*
X0217261Y0231883D01*
X0217261Y0233933D01*
X0212311Y0233933D01*
X0212311Y0233933D01*
X0217261Y0233933D01*
X0217261Y0235983D01*
X0214361Y0238883D01*
X0212311Y0238883D01*
X0212311Y0233933D01*
X0212311Y0228983D01*
X0214361Y0228983D01*
X0215314Y0229937D02*
X0219307Y0229937D01*
X0217708Y0231535D02*
X0216913Y0231535D01*
X0217261Y0233134D02*
X0217361Y0233134D01*
X0217361Y0234732D02*
X0217261Y0234732D01*
X0216913Y0236331D02*
X0217708Y0236331D01*
X0219306Y0237929D02*
X0215315Y0237929D01*
X0212311Y0237929D02*
X0212310Y0237929D01*
X0212310Y0238883D02*
X0210260Y0238883D01*
X0207361Y0235983D01*
X0207361Y0233933D01*
X0207361Y0231883D01*
X0210260Y0228983D01*
X0212310Y0228983D01*
X0212310Y0233933D01*
X0207361Y0233933D01*
X0212310Y0233933D01*
X0212310Y0233933D01*
X0212311Y0233933D01*
X0212310Y0233933D01*
X0212310Y0238883D01*
X0212310Y0236331D02*
X0212311Y0236331D01*
X0212310Y0234732D02*
X0212311Y0234732D01*
X0212310Y0233134D02*
X0212311Y0233134D01*
X0212310Y0231535D02*
X0212311Y0231535D01*
X0212310Y0229937D02*
X0212311Y0229937D01*
X0209998Y0228338D02*
X0204623Y0228338D01*
X0204361Y0228983D02*
X0207261Y0231883D01*
X0207261Y0233933D01*
X0202311Y0233933D01*
X0202311Y0233933D01*
X0207261Y0233933D01*
X0207261Y0235983D01*
X0204361Y0238883D01*
X0202311Y0238883D01*
X0202311Y0233933D01*
X0202311Y0228983D01*
X0204361Y0228983D01*
X0205314Y0229937D02*
X0209307Y0229937D01*
X0207708Y0231535D02*
X0206913Y0231535D01*
X0207261Y0233134D02*
X0207361Y0233134D01*
X0207361Y0234732D02*
X0207261Y0234732D01*
X0206913Y0236331D02*
X0207708Y0236331D01*
X0209306Y0237929D02*
X0205315Y0237929D01*
X0202311Y0237929D02*
X0202310Y0237929D01*
X0202310Y0238883D02*
X0200260Y0238883D01*
X0197361Y0235983D01*
X0197361Y0233933D01*
X0197361Y0231883D01*
X0200260Y0228983D01*
X0202310Y0228983D01*
X0202310Y0233933D01*
X0197361Y0233933D01*
X0202310Y0233933D01*
X0202310Y0233933D01*
X0202311Y0233933D01*
X0202310Y0233933D01*
X0202310Y0238883D01*
X0202310Y0236331D02*
X0202311Y0236331D01*
X0202310Y0234732D02*
X0202311Y0234732D01*
X0202310Y0233134D02*
X0202311Y0233134D01*
X0202310Y0231535D02*
X0202311Y0231535D01*
X0202310Y0229937D02*
X0202311Y0229937D01*
X0199998Y0228338D02*
X0194623Y0228338D01*
X0194361Y0228983D02*
X0197261Y0231883D01*
X0197260Y0233933D01*
X0192311Y0233933D01*
X0192311Y0233933D01*
X0197261Y0233933D01*
X0197261Y0235983D01*
X0194361Y0238883D01*
X0192311Y0238883D01*
X0192311Y0233933D01*
X0192311Y0228983D01*
X0194361Y0228983D01*
X0195314Y0229937D02*
X0199307Y0229937D01*
X0197708Y0231535D02*
X0196913Y0231535D01*
X0197261Y0233134D02*
X0197361Y0233134D01*
X0197361Y0234732D02*
X0197261Y0234732D01*
X0196913Y0236331D02*
X0197708Y0236331D01*
X0199306Y0237929D02*
X0195315Y0237929D01*
X0192311Y0237929D02*
X0192310Y0237929D01*
X0192310Y0238883D02*
X0190260Y0238883D01*
X0187361Y0235983D01*
X0187361Y0233933D01*
X0187361Y0231883D01*
X0190260Y0228983D01*
X0192310Y0228983D01*
X0192310Y0233933D01*
X0187361Y0233933D01*
X0192310Y0233933D01*
X0192310Y0233933D01*
X0192311Y0233933D01*
X0192310Y0233933D01*
X0192310Y0238883D01*
X0192310Y0236331D02*
X0192311Y0236331D01*
X0192310Y0234732D02*
X0192311Y0234732D01*
X0192310Y0233134D02*
X0192311Y0233134D01*
X0192310Y0231535D02*
X0192311Y0231535D01*
X0192310Y0229937D02*
X0192311Y0229937D01*
X0189998Y0228338D02*
X0184623Y0228338D01*
X0184361Y0228983D02*
X0187261Y0231883D01*
X0187261Y0233933D01*
X0182311Y0233933D01*
X0182311Y0233933D01*
X0187261Y0233933D01*
X0187261Y0235983D01*
X0184361Y0238883D01*
X0182311Y0238883D01*
X0182311Y0233933D01*
X0182311Y0228983D01*
X0184361Y0228983D01*
X0185314Y0229937D02*
X0189307Y0229937D01*
X0187708Y0231535D02*
X0186913Y0231535D01*
X0187261Y0233134D02*
X0187361Y0233134D01*
X0187361Y0234732D02*
X0187261Y0234732D01*
X0186913Y0236331D02*
X0187708Y0236331D01*
X0189306Y0237929D02*
X0185315Y0237929D01*
X0182311Y0237929D02*
X0182310Y0237929D01*
X0182310Y0238883D02*
X0180260Y0238883D01*
X0177361Y0235983D01*
X0177361Y0233933D01*
X0177361Y0231883D01*
X0180260Y0228983D01*
X0182310Y0228983D01*
X0182310Y0233933D01*
X0177361Y0233933D01*
X0182310Y0233933D01*
X0182310Y0233933D01*
X0182311Y0233933D01*
X0182310Y0233933D01*
X0182310Y0238883D01*
X0182310Y0236331D02*
X0182311Y0236331D01*
X0182310Y0234732D02*
X0182311Y0234732D01*
X0182310Y0233134D02*
X0182311Y0233134D01*
X0182310Y0231535D02*
X0182311Y0231535D01*
X0182310Y0229937D02*
X0182311Y0229937D01*
X0179998Y0228338D02*
X0174623Y0228338D01*
X0174361Y0228983D02*
X0177261Y0231883D01*
X0177261Y0233933D01*
X0172311Y0233933D01*
X0172311Y0233933D01*
X0177261Y0233933D01*
X0177261Y0235983D01*
X0174361Y0238883D01*
X0172311Y0238883D01*
X0172311Y0233933D01*
X0172311Y0228983D01*
X0174361Y0228983D01*
X0175314Y0229937D02*
X0179307Y0229937D01*
X0177708Y0231535D02*
X0176913Y0231535D01*
X0177261Y0233134D02*
X0177361Y0233134D01*
X0177361Y0234732D02*
X0177261Y0234732D01*
X0176913Y0236331D02*
X0177708Y0236331D01*
X0179306Y0237929D02*
X0175315Y0237929D01*
X0172311Y0237929D02*
X0172310Y0237929D01*
X0172310Y0238883D02*
X0170260Y0238883D01*
X0167361Y0235983D01*
X0167361Y0233933D01*
X0167361Y0231883D01*
X0170260Y0228983D01*
X0172310Y0228983D01*
X0172310Y0233933D01*
X0167361Y0233933D01*
X0172310Y0233933D01*
X0172310Y0233933D01*
X0172311Y0233933D01*
X0172310Y0233933D01*
X0172310Y0238883D01*
X0172310Y0236331D02*
X0172311Y0236331D01*
X0172310Y0234732D02*
X0172311Y0234732D01*
X0172310Y0233134D02*
X0172311Y0233134D01*
X0172310Y0231535D02*
X0172311Y0231535D01*
X0172310Y0229937D02*
X0172311Y0229937D01*
X0169998Y0228338D02*
X0164623Y0228338D01*
X0164361Y0228983D02*
X0167261Y0231883D01*
X0167261Y0233933D01*
X0162311Y0233933D01*
X0162311Y0233933D01*
X0167261Y0233933D01*
X0167261Y0235983D01*
X0164361Y0238883D01*
X0162311Y0238883D01*
X0162311Y0233933D01*
X0162311Y0228983D01*
X0164361Y0228983D01*
X0165314Y0229937D02*
X0169307Y0229937D01*
X0167708Y0231535D02*
X0166913Y0231535D01*
X0167261Y0233134D02*
X0167361Y0233134D01*
X0167361Y0234732D02*
X0167261Y0234732D01*
X0166913Y0236331D02*
X0167708Y0236331D01*
X0169306Y0237929D02*
X0165315Y0237929D01*
X0162311Y0237929D02*
X0162310Y0237929D01*
X0162310Y0238883D02*
X0160260Y0238883D01*
X0157361Y0235983D01*
X0157361Y0233933D01*
X0157361Y0231883D01*
X0160260Y0228983D01*
X0162310Y0228983D01*
X0162310Y0233933D01*
X0157361Y0233933D01*
X0162310Y0233933D01*
X0162310Y0233933D01*
X0162311Y0233933D01*
X0162310Y0233933D01*
X0162310Y0238883D01*
X0162310Y0236331D02*
X0162311Y0236331D01*
X0162310Y0234732D02*
X0162311Y0234732D01*
X0162310Y0233134D02*
X0162311Y0233134D01*
X0162310Y0231535D02*
X0162311Y0231535D01*
X0162310Y0229937D02*
X0162311Y0229937D01*
X0159998Y0228338D02*
X0154623Y0228338D01*
X0154361Y0228983D02*
X0157261Y0231883D01*
X0157261Y0233933D01*
X0152311Y0233933D01*
X0152311Y0233933D01*
X0157261Y0233933D01*
X0157261Y0235983D01*
X0154361Y0238883D01*
X0152311Y0238883D01*
X0152311Y0233933D01*
X0152311Y0228983D01*
X0154361Y0228983D01*
X0155314Y0229937D02*
X0159307Y0229937D01*
X0157708Y0231535D02*
X0156913Y0231535D01*
X0157261Y0233134D02*
X0157361Y0233134D01*
X0157361Y0234732D02*
X0157261Y0234732D01*
X0156913Y0236331D02*
X0157708Y0236331D01*
X0159306Y0237929D02*
X0155315Y0237929D01*
X0152311Y0237929D02*
X0152310Y0237929D01*
X0152310Y0238883D02*
X0150260Y0238883D01*
X0147361Y0235983D01*
X0147361Y0233933D01*
X0147361Y0231883D01*
X0150260Y0228983D01*
X0152310Y0228983D01*
X0152310Y0233933D01*
X0147361Y0233933D01*
X0152310Y0233933D01*
X0152310Y0233933D01*
X0152311Y0233933D01*
X0152310Y0233933D01*
X0152310Y0238883D01*
X0152310Y0236331D02*
X0152311Y0236331D01*
X0152310Y0234732D02*
X0152311Y0234732D01*
X0152310Y0233134D02*
X0152311Y0233134D01*
X0152310Y0231535D02*
X0152311Y0231535D01*
X0152310Y0229937D02*
X0152311Y0229937D01*
X0149998Y0228338D02*
X0144623Y0228338D01*
X0144361Y0228983D02*
X0147261Y0231883D01*
X0147261Y0233933D01*
X0142311Y0233933D01*
X0142311Y0233933D01*
X0147261Y0233933D01*
X0147261Y0235983D01*
X0144361Y0238883D01*
X0142311Y0238883D01*
X0142311Y0233933D01*
X0142311Y0228983D01*
X0144361Y0228983D01*
X0145314Y0229937D02*
X0149307Y0229937D01*
X0147708Y0231535D02*
X0146913Y0231535D01*
X0147261Y0233134D02*
X0147361Y0233134D01*
X0147361Y0234732D02*
X0147261Y0234732D01*
X0146913Y0236331D02*
X0147708Y0236331D01*
X0149306Y0237929D02*
X0145315Y0237929D01*
X0142311Y0237929D02*
X0142310Y0237929D01*
X0142310Y0238883D02*
X0140260Y0238883D01*
X0137361Y0235983D01*
X0137361Y0233933D01*
X0137361Y0231883D01*
X0140260Y0228983D01*
X0142310Y0228983D01*
X0142310Y0233933D01*
X0137361Y0233933D01*
X0142310Y0233933D01*
X0142310Y0233933D01*
X0142311Y0233933D01*
X0142310Y0233933D01*
X0142310Y0238883D01*
X0142310Y0236331D02*
X0142311Y0236331D01*
X0142310Y0234732D02*
X0142311Y0234732D01*
X0142310Y0233134D02*
X0142311Y0233134D01*
X0142310Y0231535D02*
X0142311Y0231535D01*
X0142310Y0229937D02*
X0142311Y0229937D01*
X0139998Y0228338D02*
X0134623Y0228338D01*
X0134361Y0228983D02*
X0137261Y0231883D01*
X0137261Y0233933D01*
X0132311Y0233933D01*
X0132311Y0233933D01*
X0137261Y0233933D01*
X0137261Y0235983D01*
X0134361Y0238883D01*
X0132311Y0238883D01*
X0132311Y0233933D01*
X0132311Y0228983D01*
X0134361Y0228983D01*
X0135314Y0229937D02*
X0139307Y0229937D01*
X0137708Y0231535D02*
X0136913Y0231535D01*
X0137261Y0233134D02*
X0137361Y0233134D01*
X0137361Y0234732D02*
X0137261Y0234732D01*
X0136913Y0236331D02*
X0137708Y0236331D01*
X0139306Y0237929D02*
X0135315Y0237929D01*
X0132311Y0237929D02*
X0132310Y0237929D01*
X0132310Y0238883D02*
X0130260Y0238883D01*
X0127361Y0235983D01*
X0127361Y0233933D01*
X0127361Y0231883D01*
X0130260Y0228983D01*
X0132310Y0228983D01*
X0132310Y0233933D01*
X0127361Y0233933D01*
X0132310Y0233933D01*
X0132310Y0233933D01*
X0132311Y0233933D01*
X0132310Y0233933D01*
X0132310Y0238883D01*
X0132310Y0236331D02*
X0132311Y0236331D01*
X0132310Y0234732D02*
X0132311Y0234732D01*
X0132310Y0233134D02*
X0132311Y0233134D01*
X0132310Y0231535D02*
X0132311Y0231535D01*
X0132310Y0229937D02*
X0132311Y0229937D01*
X0129998Y0228338D02*
X0124623Y0228338D01*
X0124361Y0228983D02*
X0127261Y0231883D01*
X0127261Y0233933D01*
X0122311Y0233933D01*
X0122311Y0233933D01*
X0127261Y0233933D01*
X0127261Y0235983D01*
X0124361Y0238883D01*
X0122311Y0238883D01*
X0122311Y0233933D01*
X0122311Y0228983D01*
X0124361Y0228983D01*
X0125314Y0229937D02*
X0129307Y0229937D01*
X0127708Y0231535D02*
X0126913Y0231535D01*
X0127261Y0233134D02*
X0127361Y0233134D01*
X0127361Y0234732D02*
X0127261Y0234732D01*
X0126913Y0236331D02*
X0127708Y0236331D01*
X0129306Y0237929D02*
X0125315Y0237929D01*
X0122311Y0237929D02*
X0122310Y0237929D01*
X0122310Y0238883D02*
X0120260Y0238883D01*
X0117361Y0235983D01*
X0117361Y0233933D01*
X0117361Y0231883D01*
X0120260Y0228983D01*
X0122310Y0228983D01*
X0122310Y0233933D01*
X0117361Y0233933D01*
X0122310Y0233933D01*
X0122310Y0233933D01*
X0122311Y0233933D01*
X0122310Y0233933D01*
X0122310Y0238883D01*
X0122310Y0236331D02*
X0122311Y0236331D01*
X0122310Y0234732D02*
X0122311Y0234732D01*
X0122310Y0233134D02*
X0122311Y0233134D01*
X0122310Y0231535D02*
X0122311Y0231535D01*
X0122310Y0229937D02*
X0122311Y0229937D01*
X0119998Y0228338D02*
X0114623Y0228338D01*
X0114361Y0228983D02*
X0117261Y0231883D01*
X0117261Y0233933D01*
X0112311Y0233933D01*
X0112311Y0233933D01*
X0117261Y0233933D01*
X0117261Y0235983D01*
X0114361Y0238883D01*
X0112311Y0238883D01*
X0112311Y0233933D01*
X0112311Y0228983D01*
X0114361Y0228983D01*
X0115314Y0229937D02*
X0119307Y0229937D01*
X0117708Y0231535D02*
X0116913Y0231535D01*
X0117261Y0233134D02*
X0117361Y0233134D01*
X0117361Y0234732D02*
X0117261Y0234732D01*
X0116913Y0236331D02*
X0117708Y0236331D01*
X0119306Y0237929D02*
X0115315Y0237929D01*
X0112311Y0237929D02*
X0112310Y0237929D01*
X0112310Y0238883D02*
X0110260Y0238883D01*
X0107361Y0235983D01*
X0107361Y0233933D01*
X0107361Y0231883D01*
X0110260Y0228983D01*
X0112310Y0228983D01*
X0112310Y0233933D01*
X0107361Y0233933D01*
X0112310Y0233933D01*
X0112310Y0233933D01*
X0112311Y0233933D01*
X0112310Y0233933D01*
X0112310Y0238883D01*
X0112310Y0236331D02*
X0112311Y0236331D01*
X0112310Y0234732D02*
X0112311Y0234732D01*
X0112310Y0233134D02*
X0112311Y0233134D01*
X0112310Y0231535D02*
X0112311Y0231535D01*
X0112310Y0229937D02*
X0112311Y0229937D01*
X0109998Y0228338D02*
X0104623Y0228338D01*
X0104361Y0228983D02*
X0107261Y0231883D01*
X0107261Y0233933D01*
X0102311Y0233933D01*
X0102311Y0233933D01*
X0107261Y0233933D01*
X0107261Y0235983D01*
X0104361Y0238883D01*
X0102311Y0238883D01*
X0102311Y0233933D01*
X0102311Y0228983D01*
X0104361Y0228983D01*
X0105314Y0229937D02*
X0109307Y0229937D01*
X0107708Y0231535D02*
X0106913Y0231535D01*
X0107261Y0233134D02*
X0107361Y0233134D01*
X0107361Y0234732D02*
X0107261Y0234732D01*
X0106913Y0236331D02*
X0107708Y0236331D01*
X0109306Y0237929D02*
X0105315Y0237929D01*
X0102311Y0237929D02*
X0102310Y0237929D01*
X0102310Y0238883D02*
X0100260Y0238883D01*
X0097361Y0235983D01*
X0097361Y0233933D01*
X0097361Y0231883D01*
X0100260Y0228983D01*
X0102310Y0228983D01*
X0102310Y0233933D01*
X0097361Y0233933D01*
X0102310Y0233933D01*
X0102310Y0233933D01*
X0102311Y0233933D01*
X0102310Y0233933D01*
X0102310Y0238883D01*
X0102310Y0236331D02*
X0102311Y0236331D01*
X0102310Y0234732D02*
X0102311Y0234732D01*
X0102310Y0233134D02*
X0102311Y0233134D01*
X0102310Y0231535D02*
X0102311Y0231535D01*
X0102310Y0229937D02*
X0102311Y0229937D01*
X0099998Y0228338D02*
X0094623Y0228338D01*
X0094361Y0228983D02*
X0097261Y0231883D01*
X0097261Y0233933D01*
X0092311Y0233933D01*
X0092311Y0233933D01*
X0097261Y0233933D01*
X0097261Y0235983D01*
X0094361Y0238883D01*
X0092311Y0238883D01*
X0092311Y0233933D01*
X0092311Y0228983D01*
X0094361Y0228983D01*
X0095314Y0229937D02*
X0099307Y0229937D01*
X0097708Y0231535D02*
X0096913Y0231535D01*
X0097261Y0233134D02*
X0097361Y0233134D01*
X0097361Y0234732D02*
X0097261Y0234732D01*
X0096913Y0236331D02*
X0097708Y0236331D01*
X0099306Y0237929D02*
X0095315Y0237929D01*
X0092311Y0237929D02*
X0092310Y0237929D01*
X0092310Y0238883D02*
X0090260Y0238883D01*
X0087361Y0235983D01*
X0087361Y0233933D01*
X0087361Y0231883D01*
X0090260Y0228983D01*
X0092310Y0228983D01*
X0092310Y0233933D01*
X0087361Y0233933D01*
X0092310Y0233933D01*
X0092310Y0233933D01*
X0092311Y0233933D01*
X0092310Y0233933D01*
X0092310Y0238883D01*
X0092310Y0236331D02*
X0092311Y0236331D01*
X0092310Y0234732D02*
X0092311Y0234732D01*
X0092310Y0233134D02*
X0092311Y0233134D01*
X0092310Y0231535D02*
X0092311Y0231535D01*
X0092310Y0229937D02*
X0092311Y0229937D01*
X0089998Y0228338D02*
X0084623Y0228338D01*
X0084361Y0228983D02*
X0087261Y0231883D01*
X0087261Y0233933D01*
X0082311Y0233933D01*
X0082311Y0233933D01*
X0087261Y0233933D01*
X0087261Y0235983D01*
X0084361Y0238883D01*
X0082311Y0238883D01*
X0082311Y0233933D01*
X0082311Y0228983D01*
X0084361Y0228983D01*
X0085314Y0229937D02*
X0089307Y0229937D01*
X0087708Y0231535D02*
X0086913Y0231535D01*
X0087261Y0233134D02*
X0087361Y0233134D01*
X0087361Y0234732D02*
X0087261Y0234732D01*
X0086913Y0236331D02*
X0087708Y0236331D01*
X0089306Y0237929D02*
X0085315Y0237929D01*
X0082311Y0237929D02*
X0082310Y0237929D01*
X0082310Y0238883D02*
X0080260Y0238883D01*
X0077361Y0235983D01*
X0077361Y0233933D01*
X0077361Y0231883D01*
X0080260Y0228983D01*
X0082310Y0228983D01*
X0082310Y0233933D01*
X0077361Y0233933D01*
X0082310Y0233933D01*
X0082310Y0233933D01*
X0082311Y0233933D01*
X0082310Y0233933D01*
X0082310Y0238883D01*
X0082310Y0236331D02*
X0082311Y0236331D01*
X0082310Y0234732D02*
X0082311Y0234732D01*
X0082310Y0233134D02*
X0082311Y0233134D01*
X0082310Y0231535D02*
X0082311Y0231535D01*
X0082310Y0229937D02*
X0082311Y0229937D01*
X0079998Y0228338D02*
X0074623Y0228338D01*
X0074361Y0228983D02*
X0077261Y0231883D01*
X0077261Y0233933D01*
X0072311Y0233933D01*
X0072311Y0233933D01*
X0077261Y0233933D01*
X0077261Y0235983D01*
X0074361Y0238883D01*
X0072311Y0238883D01*
X0072311Y0233933D01*
X0072311Y0228983D01*
X0074361Y0228983D01*
X0075314Y0229937D02*
X0079307Y0229937D01*
X0077708Y0231535D02*
X0076913Y0231535D01*
X0077261Y0233134D02*
X0077361Y0233134D01*
X0077361Y0234732D02*
X0077261Y0234732D01*
X0076913Y0236331D02*
X0077708Y0236331D01*
X0079306Y0237929D02*
X0075315Y0237929D01*
X0072311Y0237929D02*
X0072310Y0237929D01*
X0072310Y0238883D02*
X0070260Y0238883D01*
X0067361Y0235983D01*
X0067361Y0233933D01*
X0067361Y0231883D01*
X0070260Y0228983D01*
X0072310Y0228983D01*
X0072310Y0233933D01*
X0067361Y0233933D01*
X0072310Y0233933D01*
X0072310Y0233933D01*
X0072311Y0233933D01*
X0072310Y0233933D01*
X0072310Y0238883D01*
X0072310Y0236331D02*
X0072311Y0236331D01*
X0072310Y0234732D02*
X0072311Y0234732D01*
X0072310Y0233134D02*
X0072311Y0233134D01*
X0072310Y0231535D02*
X0072311Y0231535D01*
X0072310Y0229937D02*
X0072311Y0229937D01*
X0069998Y0228338D02*
X0055411Y0228338D01*
X0055411Y0226740D02*
X0068399Y0226740D01*
X0067561Y0225141D02*
X0055411Y0225141D01*
X0055411Y0223543D02*
X0067561Y0223543D01*
X0067582Y0221944D02*
X0055411Y0221944D01*
X0055411Y0220345D02*
X0069181Y0220345D01*
X0069710Y0215550D02*
X0055411Y0215550D01*
X0055411Y0217148D02*
X0232994Y0217148D01*
X0231395Y0218747D02*
X0055411Y0218747D01*
X0055411Y0213951D02*
X0068111Y0213951D01*
X0067561Y0212353D02*
X0055411Y0212353D01*
X0055411Y0210754D02*
X0067561Y0210754D01*
X0067870Y0209156D02*
X0055411Y0209156D01*
X0055411Y0207557D02*
X0069469Y0207557D01*
X0069711Y0205959D02*
X0055411Y0205959D01*
X0055411Y0204360D02*
X0068520Y0204360D01*
X0067561Y0202762D02*
X0055411Y0202762D01*
X0055411Y0201163D02*
X0067561Y0201163D01*
X0067561Y0199565D02*
X0055411Y0199565D01*
X0055411Y0197966D02*
X0069060Y0197966D01*
X0069711Y0196368D02*
X0055411Y0196368D01*
X0055411Y0194769D02*
X0068929Y0194769D01*
X0067561Y0193171D02*
X0055411Y0193171D01*
X0055411Y0191572D02*
X0067561Y0191572D01*
X0067561Y0189974D02*
X0055411Y0189974D01*
X0055411Y0188375D02*
X0068651Y0188375D01*
X0069711Y0186777D02*
X0055411Y0186777D01*
X0055411Y0185178D02*
X0069338Y0185178D01*
X0067740Y0183580D02*
X0055411Y0183580D01*
X0055411Y0181981D02*
X0067561Y0181981D01*
X0067561Y0180383D02*
X0055411Y0180383D01*
X0055411Y0178784D02*
X0068242Y0178784D01*
X0069711Y0177186D02*
X0055411Y0177186D01*
X0055411Y0175587D02*
X0069711Y0175587D01*
X0069711Y0173989D02*
X0055411Y0173989D01*
X0055411Y0172390D02*
X0069711Y0172390D01*
X0069711Y0170792D02*
X0055411Y0170792D01*
X0074911Y0170792D02*
X0079711Y0170792D01*
X0079711Y0172390D02*
X0074911Y0172390D01*
X0074911Y0173989D02*
X0079711Y0173989D01*
X0079711Y0175587D02*
X0074911Y0175587D01*
X0074911Y0177186D02*
X0079711Y0177186D01*
X0079711Y0177316D02*
X0077561Y0179466D01*
X0077561Y0183401D01*
X0079711Y0185551D01*
X0079711Y0187316D01*
X0077561Y0189466D01*
X0077561Y0193401D01*
X0079711Y0195551D01*
X0079711Y0197316D01*
X0077561Y0199466D01*
X0077561Y0203401D01*
X0079711Y0205551D01*
X0079711Y0207316D01*
X0077561Y0209466D01*
X0077561Y0213401D01*
X0080343Y0216183D01*
X0084278Y0216183D01*
X0087061Y0213401D01*
X0087061Y0209466D01*
X0084911Y0207316D01*
X0084911Y0205551D01*
X0087061Y0203401D01*
X0087061Y0199466D01*
X0084911Y0197316D01*
X0084911Y0195551D01*
X0087061Y0193401D01*
X0087061Y0189466D01*
X0084911Y0187316D01*
X0084911Y0185551D01*
X0087061Y0183401D01*
X0087061Y0179466D01*
X0084911Y0177316D01*
X0084911Y0156141D01*
X0085193Y0155859D01*
X0085711Y0154609D01*
X0085711Y0153257D01*
X0085193Y0152007D01*
X0084236Y0151051D01*
X0082987Y0150533D01*
X0081634Y0150533D01*
X0080385Y0151051D01*
X0079428Y0152007D01*
X0078911Y0153257D01*
X0078911Y0154609D01*
X0079428Y0155859D01*
X0079711Y0156141D01*
X0079711Y0177316D01*
X0078242Y0178784D02*
X0076379Y0178784D01*
X0077061Y0180383D02*
X0077561Y0180383D01*
X0077561Y0181981D02*
X0077061Y0181981D01*
X0076881Y0183580D02*
X0077740Y0183580D01*
X0079338Y0185178D02*
X0075283Y0185178D01*
X0074911Y0186777D02*
X0079711Y0186777D01*
X0078651Y0188375D02*
X0075970Y0188375D01*
X0077061Y0189974D02*
X0077561Y0189974D01*
X0077561Y0191572D02*
X0077061Y0191572D01*
X0077061Y0193171D02*
X0077561Y0193171D01*
X0078929Y0194769D02*
X0075692Y0194769D01*
X0074911Y0196368D02*
X0079711Y0196368D01*
X0079060Y0197966D02*
X0075561Y0197966D01*
X0077061Y0199565D02*
X0077561Y0199565D01*
X0077561Y0201163D02*
X0077061Y0201163D01*
X0077061Y0202762D02*
X0077561Y0202762D01*
X0078520Y0204360D02*
X0076101Y0204360D01*
X0074911Y0205959D02*
X0079711Y0205959D01*
X0079469Y0207557D02*
X0075152Y0207557D01*
X0076751Y0209156D02*
X0077870Y0209156D01*
X0077561Y0210754D02*
X0077061Y0210754D01*
X0077061Y0212353D02*
X0077561Y0212353D01*
X0078111Y0213951D02*
X0076510Y0213951D01*
X0074911Y0215550D02*
X0079710Y0215550D01*
X0079181Y0220345D02*
X0075440Y0220345D01*
X0076222Y0226740D02*
X0078399Y0226740D01*
X0086222Y0226740D02*
X0088399Y0226740D01*
X0089181Y0220345D02*
X0085440Y0220345D01*
X0084911Y0215550D02*
X0089710Y0215550D01*
X0090343Y0216183D02*
X0087561Y0213401D01*
X0087561Y0209466D01*
X0089711Y0207316D01*
X0089711Y0205551D01*
X0087561Y0203401D01*
X0087561Y0199466D01*
X0089711Y0197316D01*
X0089711Y0195551D01*
X0087561Y0193401D01*
X0087561Y0189466D01*
X0089711Y0187316D01*
X0089711Y0185551D01*
X0087561Y0183401D01*
X0087561Y0179466D01*
X0090343Y0176683D01*
X0094278Y0176683D01*
X0097061Y0179466D01*
X0097061Y0183401D01*
X0094911Y0185551D01*
X0094911Y0187316D01*
X0097061Y0189466D01*
X0097061Y0193401D01*
X0094911Y0195551D01*
X0094911Y0197316D01*
X0097061Y0199466D01*
X0097061Y0203401D01*
X0094911Y0205551D01*
X0094911Y0207316D01*
X0097061Y0209466D01*
X0097061Y0213401D01*
X0094278Y0216183D01*
X0090343Y0216183D01*
X0088111Y0213951D02*
X0086510Y0213951D01*
X0087061Y0212353D02*
X0087561Y0212353D01*
X0087561Y0210754D02*
X0087061Y0210754D01*
X0086751Y0209156D02*
X0087870Y0209156D01*
X0089469Y0207557D02*
X0085152Y0207557D01*
X0084911Y0205959D02*
X0089711Y0205959D01*
X0088520Y0204360D02*
X0086101Y0204360D01*
X0087061Y0202762D02*
X0087561Y0202762D01*
X0087561Y0201163D02*
X0087061Y0201163D01*
X0087061Y0199565D02*
X0087561Y0199565D01*
X0089060Y0197966D02*
X0085561Y0197966D01*
X0084911Y0196368D02*
X0089711Y0196368D01*
X0088929Y0194769D02*
X0085692Y0194769D01*
X0087061Y0193171D02*
X0087561Y0193171D01*
X0087561Y0191572D02*
X0087061Y0191572D01*
X0087061Y0189974D02*
X0087561Y0189974D01*
X0088651Y0188375D02*
X0085970Y0188375D01*
X0084911Y0186777D02*
X0089711Y0186777D01*
X0089338Y0185178D02*
X0085283Y0185178D01*
X0086881Y0183580D02*
X0087740Y0183580D01*
X0087561Y0181981D02*
X0087061Y0181981D01*
X0087061Y0180383D02*
X0087561Y0180383D01*
X0088242Y0178784D02*
X0086379Y0178784D01*
X0084911Y0177186D02*
X0089840Y0177186D01*
X0094781Y0177186D02*
X0099840Y0177186D01*
X0100343Y0176683D02*
X0104278Y0176683D01*
X0107061Y0179466D01*
X0107061Y0183401D01*
X0104911Y0185551D01*
X0104911Y0187316D01*
X0107061Y0189466D01*
X0107061Y0193401D01*
X0104911Y0195551D01*
X0104911Y0197316D01*
X0107061Y0199466D01*
X0107061Y0203401D01*
X0104911Y0205551D01*
X0104911Y0207316D01*
X0107061Y0209466D01*
X0107061Y0213401D01*
X0104278Y0216183D01*
X0100343Y0216183D01*
X0097561Y0213401D01*
X0097561Y0209466D01*
X0099711Y0207316D01*
X0099711Y0205551D01*
X0097561Y0203401D01*
X0097561Y0199466D01*
X0099711Y0197316D01*
X0099711Y0195551D01*
X0097561Y0193401D01*
X0097561Y0189466D01*
X0099711Y0187316D01*
X0099711Y0185551D01*
X0097561Y0183401D01*
X0097561Y0179466D01*
X0100343Y0176683D01*
X0098242Y0178784D02*
X0096379Y0178784D01*
X0097061Y0180383D02*
X0097561Y0180383D01*
X0097561Y0181981D02*
X0097061Y0181981D01*
X0096881Y0183580D02*
X0097740Y0183580D01*
X0099338Y0185178D02*
X0095283Y0185178D01*
X0094911Y0186777D02*
X0099711Y0186777D01*
X0098651Y0188375D02*
X0095970Y0188375D01*
X0097061Y0189974D02*
X0097561Y0189974D01*
X0097561Y0191572D02*
X0097061Y0191572D01*
X0097061Y0193171D02*
X0097561Y0193171D01*
X0098929Y0194769D02*
X0095692Y0194769D01*
X0094911Y0196368D02*
X0099711Y0196368D01*
X0099060Y0197966D02*
X0095561Y0197966D01*
X0097061Y0199565D02*
X0097561Y0199565D01*
X0097561Y0201163D02*
X0097061Y0201163D01*
X0097061Y0202762D02*
X0097561Y0202762D01*
X0098520Y0204360D02*
X0096101Y0204360D01*
X0094911Y0205959D02*
X0099711Y0205959D01*
X0099469Y0207557D02*
X0095152Y0207557D01*
X0096751Y0209156D02*
X0097870Y0209156D01*
X0097561Y0210754D02*
X0097061Y0210754D01*
X0097061Y0212353D02*
X0097561Y0212353D01*
X0098111Y0213951D02*
X0096510Y0213951D01*
X0094911Y0215550D02*
X0099710Y0215550D01*
X0099181Y0220345D02*
X0095440Y0220345D01*
X0096222Y0226740D02*
X0098399Y0226740D01*
X0105440Y0220345D02*
X0109181Y0220345D01*
X0110343Y0216183D02*
X0107561Y0213401D01*
X0107561Y0209466D01*
X0109711Y0207316D01*
X0109711Y0205551D01*
X0107561Y0203401D01*
X0107561Y0199466D01*
X0109711Y0197316D01*
X0109711Y0195551D01*
X0107561Y0193401D01*
X0107561Y0189466D01*
X0109711Y0187316D01*
X0109711Y0185551D01*
X0107561Y0183401D01*
X0107561Y0179466D01*
X0110343Y0176683D01*
X0114278Y0176683D01*
X0117061Y0179466D01*
X0117061Y0183401D01*
X0114911Y0185551D01*
X0114911Y0187316D01*
X0117061Y0189466D01*
X0117061Y0193401D01*
X0114911Y0195551D01*
X0114911Y0197316D01*
X0117061Y0199466D01*
X0117061Y0203401D01*
X0114911Y0205551D01*
X0114911Y0207316D01*
X0117061Y0209466D01*
X0117061Y0213401D01*
X0114278Y0216183D01*
X0110343Y0216183D01*
X0109710Y0215550D02*
X0104911Y0215550D01*
X0106510Y0213951D02*
X0108111Y0213951D01*
X0107561Y0212353D02*
X0107061Y0212353D01*
X0107061Y0210754D02*
X0107561Y0210754D01*
X0107870Y0209156D02*
X0106751Y0209156D01*
X0105152Y0207557D02*
X0109469Y0207557D01*
X0109711Y0205959D02*
X0104911Y0205959D01*
X0106101Y0204360D02*
X0108520Y0204360D01*
X0107561Y0202762D02*
X0107061Y0202762D01*
X0107061Y0201163D02*
X0107561Y0201163D01*
X0107561Y0199565D02*
X0107061Y0199565D01*
X0105561Y0197966D02*
X0109060Y0197966D01*
X0109711Y0196368D02*
X0104911Y0196368D01*
X0105692Y0194769D02*
X0108929Y0194769D01*
X0107561Y0193171D02*
X0107061Y0193171D01*
X0107061Y0191572D02*
X0107561Y0191572D01*
X0107561Y0189974D02*
X0107061Y0189974D01*
X0105970Y0188375D02*
X0108651Y0188375D01*
X0109711Y0186777D02*
X0104911Y0186777D01*
X0105283Y0185178D02*
X0109338Y0185178D01*
X0107740Y0183580D02*
X0106881Y0183580D01*
X0107061Y0181981D02*
X0107561Y0181981D01*
X0107561Y0180383D02*
X0107061Y0180383D01*
X0106379Y0178784D02*
X0108242Y0178784D01*
X0109840Y0177186D02*
X0104781Y0177186D01*
X0114781Y0177186D02*
X0119840Y0177186D01*
X0120343Y0176683D02*
X0117561Y0179466D01*
X0117561Y0183401D01*
X0119711Y0185551D01*
X0119711Y0187316D01*
X0117561Y0189466D01*
X0117561Y0193401D01*
X0119711Y0195551D01*
X0119711Y0197316D01*
X0117561Y0199466D01*
X0117561Y0203401D01*
X0119711Y0205551D01*
X0119711Y0207316D01*
X0117561Y0209466D01*
X0117561Y0213401D01*
X0120343Y0216183D01*
X0124278Y0216183D01*
X0127061Y0213401D01*
X0127061Y0209466D01*
X0124911Y0207316D01*
X0124911Y0205551D01*
X0127061Y0203401D01*
X0127061Y0199466D01*
X0124911Y0197316D01*
X0124911Y0195551D01*
X0127061Y0193401D01*
X0127061Y0189466D01*
X0124911Y0187316D01*
X0124911Y0185551D01*
X0127061Y0183401D01*
X0127061Y0179466D01*
X0124278Y0176683D01*
X0120343Y0176683D01*
X0118242Y0178784D02*
X0116379Y0178784D01*
X0117061Y0180383D02*
X0117561Y0180383D01*
X0117561Y0181981D02*
X0117061Y0181981D01*
X0116881Y0183580D02*
X0117740Y0183580D01*
X0119338Y0185178D02*
X0115283Y0185178D01*
X0114911Y0186777D02*
X0119711Y0186777D01*
X0118651Y0188375D02*
X0115970Y0188375D01*
X0117061Y0189974D02*
X0117561Y0189974D01*
X0117561Y0191572D02*
X0117061Y0191572D01*
X0117061Y0193171D02*
X0117561Y0193171D01*
X0118929Y0194769D02*
X0115692Y0194769D01*
X0114911Y0196368D02*
X0119711Y0196368D01*
X0119060Y0197966D02*
X0115561Y0197966D01*
X0117061Y0199565D02*
X0117561Y0199565D01*
X0117561Y0201163D02*
X0117061Y0201163D01*
X0117061Y0202762D02*
X0117561Y0202762D01*
X0118520Y0204360D02*
X0116101Y0204360D01*
X0114911Y0205959D02*
X0119711Y0205959D01*
X0119469Y0207557D02*
X0115152Y0207557D01*
X0116751Y0209156D02*
X0117870Y0209156D01*
X0117561Y0210754D02*
X0117061Y0210754D01*
X0117061Y0212353D02*
X0117561Y0212353D01*
X0118111Y0213951D02*
X0116510Y0213951D01*
X0114911Y0215550D02*
X0119710Y0215550D01*
X0119181Y0220345D02*
X0115440Y0220345D01*
X0116222Y0226740D02*
X0118399Y0226740D01*
X0125440Y0220345D02*
X0129181Y0220345D01*
X0130343Y0216183D02*
X0127561Y0213401D01*
X0127561Y0209466D01*
X0129711Y0207316D01*
X0129711Y0205551D01*
X0127561Y0203401D01*
X0127561Y0199466D01*
X0129711Y0197316D01*
X0129711Y0195551D01*
X0127561Y0193401D01*
X0127561Y0189466D01*
X0129711Y0187316D01*
X0129711Y0185551D01*
X0127561Y0183401D01*
X0127561Y0179466D01*
X0130343Y0176683D01*
X0134278Y0176683D01*
X0137061Y0179466D01*
X0137061Y0183401D01*
X0134911Y0185551D01*
X0134911Y0187316D01*
X0137061Y0189466D01*
X0137061Y0193401D01*
X0134911Y0195551D01*
X0134911Y0197316D01*
X0137061Y0199466D01*
X0137061Y0203401D01*
X0134911Y0205551D01*
X0134911Y0207316D01*
X0137061Y0209466D01*
X0137061Y0213401D01*
X0134278Y0216183D01*
X0130343Y0216183D01*
X0129710Y0215550D02*
X0124911Y0215550D01*
X0126510Y0213951D02*
X0128111Y0213951D01*
X0127561Y0212353D02*
X0127061Y0212353D01*
X0127061Y0210754D02*
X0127561Y0210754D01*
X0127870Y0209156D02*
X0126751Y0209156D01*
X0125152Y0207557D02*
X0129469Y0207557D01*
X0129711Y0205959D02*
X0124911Y0205959D01*
X0126101Y0204360D02*
X0128520Y0204360D01*
X0127561Y0202762D02*
X0127061Y0202762D01*
X0127061Y0201163D02*
X0127561Y0201163D01*
X0127561Y0199565D02*
X0127061Y0199565D01*
X0125561Y0197966D02*
X0129060Y0197966D01*
X0129711Y0196368D02*
X0124911Y0196368D01*
X0125692Y0194769D02*
X0128929Y0194769D01*
X0127561Y0193171D02*
X0127061Y0193171D01*
X0127061Y0191572D02*
X0127561Y0191572D01*
X0127561Y0189974D02*
X0127061Y0189974D01*
X0125970Y0188375D02*
X0128651Y0188375D01*
X0129711Y0186777D02*
X0124911Y0186777D01*
X0125283Y0185178D02*
X0129338Y0185178D01*
X0127740Y0183580D02*
X0126881Y0183580D01*
X0127061Y0181981D02*
X0127561Y0181981D01*
X0127561Y0180383D02*
X0127061Y0180383D01*
X0126379Y0178784D02*
X0128242Y0178784D01*
X0129840Y0177186D02*
X0124781Y0177186D01*
X0134781Y0177186D02*
X0139840Y0177186D01*
X0140343Y0176683D02*
X0144278Y0176683D01*
X0147061Y0179466D01*
X0147061Y0183401D01*
X0144911Y0185551D01*
X0144911Y0187316D01*
X0147061Y0189466D01*
X0147061Y0193401D01*
X0144911Y0195551D01*
X0144911Y0197316D01*
X0147061Y0199466D01*
X0147061Y0203401D01*
X0144911Y0205551D01*
X0144911Y0207316D01*
X0147061Y0209466D01*
X0147061Y0213401D01*
X0144278Y0216183D01*
X0140343Y0216183D01*
X0137561Y0213401D01*
X0137561Y0209466D01*
X0139711Y0207316D01*
X0139711Y0205551D01*
X0137561Y0203401D01*
X0137561Y0199466D01*
X0139711Y0197316D01*
X0139711Y0195551D01*
X0137561Y0193401D01*
X0137561Y0189466D01*
X0139711Y0187316D01*
X0139711Y0185551D01*
X0137561Y0183401D01*
X0137561Y0179466D01*
X0140343Y0176683D01*
X0138242Y0178784D02*
X0136379Y0178784D01*
X0137061Y0180383D02*
X0137561Y0180383D01*
X0137561Y0181981D02*
X0137061Y0181981D01*
X0136881Y0183580D02*
X0137740Y0183580D01*
X0139338Y0185178D02*
X0135283Y0185178D01*
X0134911Y0186777D02*
X0139711Y0186777D01*
X0138651Y0188375D02*
X0135970Y0188375D01*
X0137061Y0189974D02*
X0137561Y0189974D01*
X0137561Y0191572D02*
X0137061Y0191572D01*
X0137061Y0193171D02*
X0137561Y0193171D01*
X0138929Y0194769D02*
X0135692Y0194769D01*
X0134911Y0196368D02*
X0139711Y0196368D01*
X0139060Y0197966D02*
X0135561Y0197966D01*
X0137061Y0199565D02*
X0137561Y0199565D01*
X0137561Y0201163D02*
X0137061Y0201163D01*
X0137061Y0202762D02*
X0137561Y0202762D01*
X0138520Y0204360D02*
X0136101Y0204360D01*
X0134911Y0205959D02*
X0139711Y0205959D01*
X0139469Y0207557D02*
X0135152Y0207557D01*
X0136751Y0209156D02*
X0137870Y0209156D01*
X0137561Y0210754D02*
X0137061Y0210754D01*
X0137061Y0212353D02*
X0137561Y0212353D01*
X0138111Y0213951D02*
X0136510Y0213951D01*
X0134911Y0215550D02*
X0139710Y0215550D01*
X0144911Y0215550D02*
X0149710Y0215550D01*
X0150343Y0216183D02*
X0147561Y0213401D01*
X0147561Y0209466D01*
X0149711Y0207316D01*
X0149711Y0205551D01*
X0147561Y0203401D01*
X0147561Y0199466D01*
X0149711Y0197316D01*
X0149711Y0195551D01*
X0147561Y0193401D01*
X0147561Y0189466D01*
X0149711Y0187316D01*
X0149711Y0185551D01*
X0147561Y0183401D01*
X0147561Y0179466D01*
X0150343Y0176683D01*
X0154278Y0176683D01*
X0157061Y0179466D01*
X0157061Y0183401D01*
X0154911Y0185551D01*
X0154911Y0187316D01*
X0157061Y0189466D01*
X0157061Y0193401D01*
X0154911Y0195551D01*
X0154911Y0197316D01*
X0157061Y0199466D01*
X0157061Y0203401D01*
X0154911Y0205551D01*
X0154911Y0207316D01*
X0157061Y0209466D01*
X0157061Y0213401D01*
X0154278Y0216183D01*
X0150343Y0216183D01*
X0148111Y0213951D02*
X0146510Y0213951D01*
X0147061Y0212353D02*
X0147561Y0212353D01*
X0147561Y0210754D02*
X0147061Y0210754D01*
X0146751Y0209156D02*
X0147870Y0209156D01*
X0149469Y0207557D02*
X0145152Y0207557D01*
X0144911Y0205959D02*
X0149711Y0205959D01*
X0148520Y0204360D02*
X0146101Y0204360D01*
X0147061Y0202762D02*
X0147561Y0202762D01*
X0147561Y0201163D02*
X0147061Y0201163D01*
X0147061Y0199565D02*
X0147561Y0199565D01*
X0149060Y0197966D02*
X0145561Y0197966D01*
X0144911Y0196368D02*
X0149711Y0196368D01*
X0148929Y0194769D02*
X0145692Y0194769D01*
X0147061Y0193171D02*
X0147561Y0193171D01*
X0147561Y0191572D02*
X0147061Y0191572D01*
X0147061Y0189974D02*
X0147561Y0189974D01*
X0148651Y0188375D02*
X0145970Y0188375D01*
X0144911Y0186777D02*
X0149711Y0186777D01*
X0149338Y0185178D02*
X0145283Y0185178D01*
X0146881Y0183580D02*
X0147740Y0183580D01*
X0147561Y0181981D02*
X0147061Y0181981D01*
X0147061Y0180383D02*
X0147561Y0180383D01*
X0148242Y0178784D02*
X0146379Y0178784D01*
X0144781Y0177186D02*
X0149840Y0177186D01*
X0154781Y0177186D02*
X0159840Y0177186D01*
X0160343Y0176683D02*
X0164278Y0176683D01*
X0167061Y0179466D01*
X0167061Y0183401D01*
X0164911Y0185551D01*
X0164911Y0187316D01*
X0167061Y0189466D01*
X0167061Y0193401D01*
X0164911Y0195551D01*
X0164911Y0197316D01*
X0167061Y0199466D01*
X0167061Y0203401D01*
X0164911Y0205551D01*
X0164911Y0207316D01*
X0167061Y0209466D01*
X0167061Y0213401D01*
X0164278Y0216183D01*
X0160343Y0216183D01*
X0157561Y0213401D01*
X0157561Y0209466D01*
X0159711Y0207316D01*
X0159711Y0205551D01*
X0157561Y0203401D01*
X0157561Y0199466D01*
X0159711Y0197316D01*
X0159711Y0195551D01*
X0157561Y0193401D01*
X0157561Y0189466D01*
X0159711Y0187316D01*
X0159711Y0185551D01*
X0157561Y0183401D01*
X0157561Y0179466D01*
X0160343Y0176683D01*
X0158242Y0178784D02*
X0156379Y0178784D01*
X0157061Y0180383D02*
X0157561Y0180383D01*
X0157561Y0181981D02*
X0157061Y0181981D01*
X0156881Y0183580D02*
X0157740Y0183580D01*
X0159338Y0185178D02*
X0155283Y0185178D01*
X0154911Y0186777D02*
X0159711Y0186777D01*
X0158651Y0188375D02*
X0155970Y0188375D01*
X0157061Y0189974D02*
X0157561Y0189974D01*
X0157561Y0191572D02*
X0157061Y0191572D01*
X0157061Y0193171D02*
X0157561Y0193171D01*
X0158929Y0194769D02*
X0155692Y0194769D01*
X0154911Y0196368D02*
X0159711Y0196368D01*
X0159060Y0197966D02*
X0155561Y0197966D01*
X0157061Y0199565D02*
X0157561Y0199565D01*
X0157561Y0201163D02*
X0157061Y0201163D01*
X0157061Y0202762D02*
X0157561Y0202762D01*
X0158520Y0204360D02*
X0156101Y0204360D01*
X0154911Y0205959D02*
X0159711Y0205959D01*
X0159469Y0207557D02*
X0155152Y0207557D01*
X0156751Y0209156D02*
X0157870Y0209156D01*
X0157561Y0210754D02*
X0157061Y0210754D01*
X0157061Y0212353D02*
X0157561Y0212353D01*
X0158111Y0213951D02*
X0156510Y0213951D01*
X0154911Y0215550D02*
X0159710Y0215550D01*
X0159181Y0220345D02*
X0155440Y0220345D01*
X0149181Y0220345D02*
X0145440Y0220345D01*
X0146222Y0226740D02*
X0148399Y0226740D01*
X0156222Y0226740D02*
X0158399Y0226740D01*
X0166222Y0226740D02*
X0168399Y0226740D01*
X0169181Y0220345D02*
X0165440Y0220345D01*
X0164911Y0215550D02*
X0169710Y0215550D01*
X0168111Y0213951D02*
X0166510Y0213951D01*
X0167061Y0212353D02*
X0167561Y0212353D01*
X0167561Y0210754D02*
X0167061Y0210754D01*
X0166751Y0209156D02*
X0167870Y0209156D01*
X0169469Y0207557D02*
X0165152Y0207557D01*
X0164911Y0205959D02*
X0169711Y0205959D01*
X0168520Y0204360D02*
X0166101Y0204360D01*
X0167061Y0202762D02*
X0167561Y0202762D01*
X0167561Y0201163D02*
X0167061Y0201163D01*
X0167061Y0199565D02*
X0167561Y0199565D01*
X0169060Y0197966D02*
X0165561Y0197966D01*
X0164911Y0196368D02*
X0169711Y0196368D01*
X0168929Y0194769D02*
X0165692Y0194769D01*
X0167061Y0193171D02*
X0167561Y0193171D01*
X0167561Y0191572D02*
X0167061Y0191572D01*
X0167061Y0189974D02*
X0167561Y0189974D01*
X0168651Y0188375D02*
X0165970Y0188375D01*
X0164911Y0186777D02*
X0169711Y0186777D01*
X0169338Y0185178D02*
X0165283Y0185178D01*
X0166881Y0183580D02*
X0167740Y0183580D01*
X0167561Y0181981D02*
X0167061Y0181981D01*
X0167061Y0180383D02*
X0167561Y0180383D01*
X0168242Y0178784D02*
X0166379Y0178784D01*
X0164781Y0177186D02*
X0169711Y0177186D01*
X0169711Y0175587D02*
X0084911Y0175587D01*
X0084911Y0173989D02*
X0168149Y0173989D01*
X0167561Y0172390D02*
X0084911Y0172390D01*
X0084911Y0170792D02*
X0167561Y0170792D01*
X0167833Y0169193D02*
X0084911Y0169193D01*
X0084911Y0167595D02*
X0169431Y0167595D01*
X0169711Y0165996D02*
X0084911Y0165996D01*
X0084911Y0164398D02*
X0168558Y0164398D01*
X0167561Y0162799D02*
X0084911Y0162799D01*
X0084911Y0161201D02*
X0167561Y0161201D01*
X0167561Y0159602D02*
X0084911Y0159602D01*
X0084911Y0158004D02*
X0169023Y0158004D01*
X0169711Y0156405D02*
X0084911Y0156405D01*
X0085629Y0154807D02*
X0168966Y0154807D01*
X0167561Y0153208D02*
X0085690Y0153208D01*
X0084795Y0151610D02*
X0167561Y0151610D01*
X0162300Y0145215D02*
X0229375Y0145215D01*
X0227777Y0143617D02*
X0162411Y0143617D01*
X0162038Y0142018D02*
X0227561Y0142018D01*
X0227561Y0140420D02*
X0161010Y0140420D01*
X0158836Y0138821D02*
X0228205Y0138821D01*
X0224409Y0146814D02*
X0262596Y0146814D01*
X0262596Y0148412D02*
X0226007Y0148412D01*
X0227061Y0150011D02*
X0262596Y0150011D01*
X0262596Y0151610D02*
X0227061Y0151610D01*
X0227061Y0153208D02*
X0262596Y0153208D01*
X0262596Y0154807D02*
X0225655Y0154807D01*
X0224911Y0156405D02*
X0233737Y0156405D01*
X0234059Y0156083D02*
X0240562Y0156083D01*
X0244811Y0160332D01*
X0249059Y0156083D01*
X0255562Y0156083D01*
X0260161Y0160681D01*
X0260161Y0167185D01*
X0255562Y0171783D01*
X0249059Y0171783D01*
X0244811Y0167535D01*
X0240562Y0171783D01*
X0234059Y0171783D01*
X0229461Y0167185D01*
X0229461Y0160681D01*
X0234059Y0156083D01*
X0232138Y0158004D02*
X0225599Y0158004D01*
X0227061Y0159602D02*
X0230540Y0159602D01*
X0229461Y0161201D02*
X0227061Y0161201D01*
X0227061Y0162799D02*
X0229461Y0162799D01*
X0229461Y0164398D02*
X0226063Y0164398D01*
X0224911Y0165996D02*
X0229461Y0165996D01*
X0229871Y0167595D02*
X0225190Y0167595D01*
X0226788Y0169193D02*
X0231469Y0169193D01*
X0233068Y0170792D02*
X0227061Y0170792D01*
X0227061Y0172390D02*
X0262596Y0172390D01*
X0262596Y0170792D02*
X0256553Y0170792D01*
X0258152Y0169193D02*
X0262596Y0169193D01*
X0262596Y0167595D02*
X0259751Y0167595D01*
X0260161Y0165996D02*
X0262596Y0165996D01*
X0262596Y0164398D02*
X0260161Y0164398D01*
X0260161Y0162799D02*
X0262596Y0162799D01*
X0262596Y0161201D02*
X0260161Y0161201D01*
X0259081Y0159602D02*
X0262596Y0159602D01*
X0262596Y0158004D02*
X0257483Y0158004D01*
X0255884Y0156405D02*
X0262596Y0156405D01*
X0248737Y0156405D02*
X0240884Y0156405D01*
X0242483Y0158004D02*
X0247138Y0158004D01*
X0245540Y0159602D02*
X0244081Y0159602D01*
X0244751Y0167595D02*
X0244871Y0167595D01*
X0246469Y0169193D02*
X0243152Y0169193D01*
X0241553Y0170792D02*
X0248068Y0170792D01*
X0249059Y0176083D02*
X0255562Y0176083D01*
X0260161Y0180681D01*
X0260161Y0187185D01*
X0255562Y0191783D01*
X0249059Y0191783D01*
X0244811Y0187535D01*
X0240562Y0191783D01*
X0234059Y0191783D01*
X0229461Y0187185D01*
X0229461Y0180681D01*
X0234059Y0176083D01*
X0240562Y0176083D01*
X0244811Y0180332D01*
X0249059Y0176083D01*
X0247956Y0177186D02*
X0241665Y0177186D01*
X0243263Y0178784D02*
X0246358Y0178784D01*
X0256665Y0177186D02*
X0262596Y0177186D01*
X0262596Y0178784D02*
X0258263Y0178784D01*
X0259862Y0180383D02*
X0262596Y0180383D01*
X0262596Y0181981D02*
X0260161Y0181981D01*
X0260161Y0183580D02*
X0262596Y0183580D01*
X0262596Y0185178D02*
X0260161Y0185178D01*
X0260161Y0186777D02*
X0262596Y0186777D01*
X0262596Y0188375D02*
X0258970Y0188375D01*
X0257371Y0189974D02*
X0262596Y0189974D01*
X0262596Y0191572D02*
X0255773Y0191572D01*
X0255562Y0196083D02*
X0249059Y0196083D01*
X0244811Y0200332D01*
X0240562Y0196083D01*
X0234059Y0196083D01*
X0229461Y0200681D01*
X0229461Y0207185D01*
X0234059Y0211783D01*
X0240562Y0211783D01*
X0244811Y0207535D01*
X0249059Y0211783D01*
X0255562Y0211783D01*
X0260161Y0207185D01*
X0260161Y0200681D01*
X0255562Y0196083D01*
X0255847Y0196368D02*
X0262596Y0196368D01*
X0262596Y0197966D02*
X0257445Y0197966D01*
X0259044Y0199565D02*
X0262596Y0199565D01*
X0262596Y0201163D02*
X0260161Y0201163D01*
X0260161Y0202762D02*
X0262596Y0202762D01*
X0262596Y0204360D02*
X0260161Y0204360D01*
X0260161Y0205959D02*
X0262596Y0205959D01*
X0262596Y0207557D02*
X0259788Y0207557D01*
X0258189Y0209156D02*
X0262596Y0209156D01*
X0262596Y0210754D02*
X0256591Y0210754D01*
X0262596Y0212353D02*
X0227061Y0212353D01*
X0227061Y0210754D02*
X0233030Y0210754D01*
X0231432Y0209156D02*
X0226751Y0209156D01*
X0225152Y0207557D02*
X0229833Y0207557D01*
X0229461Y0205959D02*
X0224911Y0205959D01*
X0226101Y0204360D02*
X0229461Y0204360D01*
X0229461Y0202762D02*
X0227061Y0202762D01*
X0227061Y0201163D02*
X0229461Y0201163D01*
X0230577Y0199565D02*
X0227061Y0199565D01*
X0225561Y0197966D02*
X0232176Y0197966D01*
X0233774Y0196368D02*
X0224911Y0196368D01*
X0225692Y0194769D02*
X0262596Y0194769D01*
X0262596Y0193171D02*
X0227061Y0193171D01*
X0227061Y0191572D02*
X0233848Y0191572D01*
X0232250Y0189974D02*
X0227061Y0189974D01*
X0225970Y0188375D02*
X0230651Y0188375D01*
X0229461Y0186777D02*
X0224911Y0186777D01*
X0225283Y0185178D02*
X0229461Y0185178D01*
X0229461Y0183580D02*
X0226881Y0183580D01*
X0227061Y0181981D02*
X0229461Y0181981D01*
X0229759Y0180383D02*
X0227061Y0180383D01*
X0226379Y0178784D02*
X0231358Y0178784D01*
X0232956Y0177186D02*
X0224911Y0177186D01*
X0224911Y0175587D02*
X0262596Y0175587D01*
X0262596Y0173989D02*
X0226472Y0173989D01*
X0242371Y0189974D02*
X0247250Y0189974D01*
X0248848Y0191572D02*
X0240773Y0191572D01*
X0243970Y0188375D02*
X0245651Y0188375D01*
X0248774Y0196368D02*
X0240847Y0196368D01*
X0242445Y0197966D02*
X0247176Y0197966D01*
X0245577Y0199565D02*
X0244044Y0199565D01*
X0244788Y0207557D02*
X0244833Y0207557D01*
X0246432Y0209156D02*
X0243189Y0209156D01*
X0241591Y0210754D02*
X0248030Y0210754D01*
X0247994Y0217148D02*
X0241627Y0217148D01*
X0243226Y0218747D02*
X0246395Y0218747D01*
X0256627Y0217148D02*
X0262596Y0217148D01*
X0262596Y0215550D02*
X0224911Y0215550D01*
X0226510Y0213951D02*
X0262596Y0213951D01*
X0262596Y0218747D02*
X0258226Y0218747D01*
X0259825Y0220345D02*
X0262596Y0220345D01*
X0262596Y0221944D02*
X0260161Y0221944D01*
X0260161Y0223543D02*
X0262596Y0223543D01*
X0262596Y0225141D02*
X0260161Y0225141D01*
X0260161Y0226740D02*
X0262596Y0226740D01*
X0262596Y0228338D02*
X0259007Y0228338D01*
X0257409Y0229937D02*
X0262596Y0229937D01*
X0262596Y0231535D02*
X0255810Y0231535D01*
X0248811Y0231535D02*
X0240810Y0231535D01*
X0242409Y0229937D02*
X0247212Y0229937D01*
X0245614Y0228338D02*
X0244007Y0228338D01*
X0262596Y0239528D02*
X0055411Y0239528D01*
X0055411Y0241126D02*
X0262596Y0241126D01*
X0262596Y0242725D02*
X0055411Y0242725D01*
X0055411Y0244323D02*
X0262596Y0244323D01*
X0262596Y0245922D02*
X0055411Y0245922D01*
X0055411Y0247520D02*
X0262596Y0247520D01*
X0262596Y0249119D02*
X0055411Y0249119D01*
X0055411Y0237929D02*
X0069306Y0237929D01*
X0067708Y0236331D02*
X0055411Y0236331D01*
X0055411Y0234732D02*
X0067361Y0234732D01*
X0067361Y0233134D02*
X0055411Y0233134D01*
X0055411Y0231535D02*
X0067708Y0231535D01*
X0069307Y0229937D02*
X0055411Y0229937D01*
X0106222Y0226740D02*
X0108399Y0226740D01*
X0126222Y0226740D02*
X0128399Y0226740D01*
X0136222Y0226740D02*
X0138399Y0226740D01*
X0139181Y0220345D02*
X0135440Y0220345D01*
X0176222Y0226740D02*
X0178399Y0226740D01*
X0186222Y0226740D02*
X0188399Y0226740D01*
X0196222Y0226740D02*
X0198399Y0226740D01*
X0206222Y0226740D02*
X0208399Y0226740D01*
X0216222Y0226740D02*
X0218399Y0226740D01*
X0257291Y0138821D02*
X0257291Y0138821D01*
X0257291Y0137223D02*
X0257291Y0137223D01*
X0199162Y0052502D02*
X0195459Y0052502D01*
X0127314Y0105253D02*
X0077067Y0105253D01*
X0077067Y0106851D02*
X0125715Y0106851D01*
X0124711Y0108450D02*
X0077067Y0108450D01*
X0077067Y0110048D02*
X0124711Y0110048D01*
X0124711Y0111647D02*
X0077067Y0111647D01*
X0077067Y0113245D02*
X0124711Y0113245D01*
X0124711Y0114844D02*
X0077067Y0114844D01*
X0077067Y0116442D02*
X0124711Y0116442D01*
X0124000Y0118041D02*
X0077067Y0118041D01*
X0077067Y0119639D02*
X0123923Y0119639D01*
X0124807Y0121238D02*
X0077067Y0121238D01*
X0077067Y0122836D02*
X0152118Y0122836D01*
X0152024Y0124435D02*
X0077067Y0124435D01*
X0077067Y0126033D02*
X0152432Y0126033D01*
X0153388Y0137223D02*
X0093253Y0137223D01*
X0079826Y0151610D02*
X0077067Y0151610D01*
X0077067Y0153208D02*
X0078931Y0153208D01*
X0078992Y0154807D02*
X0077067Y0154807D01*
X0077067Y0156405D02*
X0079711Y0156405D01*
X0079711Y0158004D02*
X0077067Y0158004D01*
X0077067Y0159602D02*
X0079711Y0159602D01*
X0079711Y0161201D02*
X0077067Y0161201D01*
X0077067Y0162799D02*
X0079711Y0162799D01*
X0079711Y0164398D02*
X0077067Y0164398D01*
X0077067Y0165996D02*
X0079711Y0165996D01*
X0079711Y0167595D02*
X0077067Y0167595D01*
X0077067Y0169193D02*
X0079711Y0169193D01*
D18*
X0112311Y0153933D03*
X0102311Y0123933D03*
X0157311Y0158933D03*
X0252311Y0243933D03*
X0062311Y0243933D03*
X0062311Y0028933D03*
X0257311Y0028933D03*
D19*
X0127311Y0118933D03*
X0092311Y0133933D03*
X0082311Y0153933D03*
M02*
