%
M48
M72
T01C0.02000
T02C0.02362
T03C0.02756
T04C0.03200
T05C0.03937
T06C0.04000
T07C0.05200
%
T01
X127311Y118933
X92311Y133933
X82311Y153933
T02
X62311Y28933
X102311Y123933
X112311Y153933
X157311Y158933
X252311Y243933
X257291Y133106
X257291Y104760
X257311Y28933
X62311Y243933
T03
X246267Y131925
X249811Y126610
X249811Y111256
X246267Y105941
T04
X222311Y101433
X212311Y101433
X212311Y111433
X222311Y111433
X222311Y121433
X212311Y121433
X212311Y131433
X222311Y131433
X232311Y141433
X222311Y151433
X222311Y161433
X212311Y161433
X212311Y151433
X202311Y151433
X202311Y161433
X202311Y171433
X212311Y171433
X222311Y171433
X222311Y181433
X212311Y181433
X212311Y191433
X222311Y191433
X222311Y201433
X212311Y201433
X212311Y211433
X222311Y211433
X222311Y223933
X212311Y223933
X212311Y233933
X222311Y233933
X202311Y233933
X202311Y223933
X192311Y223933
X182311Y223933
X182311Y233933
X192311Y233933
X172311Y233933
X162311Y233933
X162311Y223933
X172311Y223933
X172311Y211433
X162311Y211433
X162311Y201433
X172311Y201433
X182311Y201433
X192311Y201433
X202311Y201433
X202311Y191433
X202311Y181433
X192311Y181433
X182311Y181433
X182311Y171433
X192311Y171433
X192311Y161433
X192311Y151433
X182311Y151433
X182311Y161433
X172311Y161433
X172311Y151433
X172311Y171433
X172311Y181433
X162311Y181433
X162311Y191433
X172311Y191433
X182311Y191433
X192311Y191433
X192311Y211433
X182311Y211433
X202311Y211433
X152311Y211433
X152311Y201433
X152311Y191433
X152311Y181433
X142311Y181433
X132311Y181433
X132311Y191433
X142311Y191433
X142311Y201433
X132311Y201433
X132311Y211433
X142311Y211433
X142311Y223933
X132311Y223933
X132311Y233933
X142311Y233933
X152311Y233933
X152311Y223933
X122311Y223933
X112311Y223933
X112311Y233933
X122311Y233933
X102311Y233933
X92311Y233933
X92311Y223933
X102311Y223933
X102311Y211433
X92311Y211433
X92311Y201433
X102311Y201433
X112311Y201433
X122311Y201433
X122311Y191433
X112311Y191433
X112311Y181433
X122311Y181433
X102311Y181433
X92311Y181433
X92311Y191433
X102311Y191433
X82311Y191433
X82311Y181433
X72311Y181433
X72311Y191433
X72311Y201433
X82311Y201433
X82311Y211433
X72311Y211433
X72311Y223933
X82311Y223933
X82311Y233933
X72311Y233933
X112311Y211433
X122311Y211433
X172311Y131433
X182311Y131433
X192311Y131433
X202311Y131433
X202311Y121433
X202311Y111433
X202311Y101433
X202311Y91433
X202311Y81433
X202311Y71433
X202311Y61433
X192311Y61433
X182311Y61433
X182311Y71433
X192311Y71433
X192311Y81433
X182311Y81433
X182311Y91433
X192311Y91433
X192311Y101433
X182311Y101433
X182311Y111433
X192311Y111433
X192311Y121433
X182311Y121433
X172311Y121433
X172311Y111433
X172311Y101433
X172311Y91433
X162311Y91433
X162311Y81433
X172311Y81433
X172311Y71433
X162311Y71433
X162311Y61433
X172311Y61433
X172311Y48933
X162311Y48933
X162311Y38933
X172311Y38933
X182311Y38933
X192311Y38933
X202311Y38933
X212311Y38933
X222311Y38933
X232311Y38933
X242311Y38933
X252311Y38933
X252311Y48933
X242311Y48933
X232311Y48933
X222311Y48933
X212311Y48933
X202311Y48933
X192311Y48933
X182311Y48933
X152311Y48933
X152311Y38933
X142311Y38933
X132311Y38933
X132311Y48933
X142311Y48933
X142311Y61433
X132311Y61433
X132311Y71433
X142311Y71433
X152311Y71433
X152311Y61433
X152311Y81433
X152311Y91433
X142311Y91433
X132311Y91433
X132311Y81433
X142311Y81433
X122311Y81433
X112311Y81433
X112311Y71433
X122311Y71433
X122311Y61433
X112311Y61433
X102311Y61433
X92311Y61433
X92311Y71433
X102311Y71433
X102311Y81433
X92311Y81433
X92311Y91433
X102311Y91433
X112311Y91433
X122311Y91433
X82311Y91433
X82311Y81433
X82311Y71433
X82311Y61433
X72311Y61433
X72311Y71433
X72311Y81433
X72311Y91433
X72311Y48933
X82311Y48933
X92311Y48933
X102311Y48933
X112311Y48933
X122311Y48933
X122311Y38933
X112311Y38933
X102311Y38933
X92311Y38933
X82311Y38933
X72311Y38933
T05
X229519Y82758
X239519Y82758
X249519Y82758
T06
X157311Y123933
X157311Y133933
X157311Y143933
T07
X237311Y163933
X252311Y163933
X252311Y183933
X237311Y183933
X237311Y203933
X252311Y203933
X252311Y223933
X237311Y223933
M30
