G75*
%MOIN*%
%OFA0B0*%
%FSLAX25Y25*%
%IPPOS*%
%LPD*%
%AMOC8*
5,1,8,0,0,1.08239X$1,22.5*
%
%ADD10OC8,0.07100*%
%ADD11C,0.07400*%
%ADD12OC8,0.13300*%
%ADD13C,0.07800*%
%ADD14R,0.05709X0.01969*%
%ADD15R,0.08674X0.04737*%
%ADD16C,0.05556*%
%ADD17R,0.10643X0.10643*%
%ADD18C,0.03556*%
%ADD19R,0.05524X0.08674*%
%ADD20R,0.08674X0.05524*%
%ADD21R,0.02965X0.05524*%
%ADD22C,0.04762*%
%ADD23C,0.04400*%
D10*
X0072311Y0038933D03*
X0082311Y0038933D03*
X0092311Y0038933D03*
X0102311Y0038933D03*
X0112311Y0038933D03*
X0122311Y0038933D03*
X0132311Y0038933D03*
X0142311Y0038933D03*
X0152311Y0038933D03*
X0162311Y0038933D03*
X0172311Y0038933D03*
X0182311Y0038933D03*
X0192311Y0038933D03*
X0202311Y0038933D03*
X0212311Y0038933D03*
X0222311Y0038933D03*
X0232311Y0038933D03*
X0242311Y0038933D03*
X0252311Y0038933D03*
X0252311Y0048933D03*
X0242311Y0048933D03*
X0232311Y0048933D03*
X0222311Y0048933D03*
X0212311Y0048933D03*
X0202311Y0048933D03*
X0192311Y0048933D03*
X0182311Y0048933D03*
X0172311Y0048933D03*
X0162311Y0048933D03*
X0152311Y0048933D03*
X0142311Y0048933D03*
X0132311Y0048933D03*
X0122311Y0048933D03*
X0112311Y0048933D03*
X0102311Y0048933D03*
X0092311Y0048933D03*
X0082311Y0048933D03*
X0072311Y0048933D03*
X0072311Y0061433D03*
X0082311Y0061433D03*
X0092311Y0061433D03*
X0102311Y0061433D03*
X0112311Y0061433D03*
X0122311Y0061433D03*
X0132311Y0061433D03*
X0142311Y0061433D03*
X0152311Y0061433D03*
X0162311Y0061433D03*
X0172311Y0061433D03*
X0182311Y0061433D03*
X0192311Y0061433D03*
X0202311Y0061433D03*
X0202311Y0071433D03*
X0202311Y0081433D03*
X0202311Y0091433D03*
X0202311Y0101433D03*
X0212311Y0101433D03*
X0222311Y0101433D03*
X0222311Y0111433D03*
X0212311Y0111433D03*
X0212311Y0121433D03*
X0222311Y0121433D03*
X0222311Y0131433D03*
X0212311Y0131433D03*
X0202311Y0131433D03*
X0202311Y0121433D03*
X0202311Y0111433D03*
X0192311Y0111433D03*
X0182311Y0111433D03*
X0182311Y0101433D03*
X0192311Y0101433D03*
X0192311Y0091433D03*
X0182311Y0091433D03*
X0182311Y0081433D03*
X0192311Y0081433D03*
X0192311Y0071433D03*
X0182311Y0071433D03*
X0172311Y0071433D03*
X0162311Y0071433D03*
X0162311Y0081433D03*
X0172311Y0081433D03*
X0172311Y0091433D03*
X0172311Y0101433D03*
X0162311Y0091433D03*
X0152311Y0091433D03*
X0152311Y0081433D03*
X0152311Y0071433D03*
X0142311Y0071433D03*
X0132311Y0071433D03*
X0132311Y0081433D03*
X0142311Y0081433D03*
X0142311Y0091433D03*
X0132311Y0091433D03*
X0122311Y0091433D03*
X0112311Y0091433D03*
X0112311Y0081433D03*
X0122311Y0081433D03*
X0122311Y0071433D03*
X0112311Y0071433D03*
X0102311Y0071433D03*
X0092311Y0071433D03*
X0092311Y0081433D03*
X0102311Y0081433D03*
X0102311Y0091433D03*
X0092311Y0091433D03*
X0082311Y0091433D03*
X0082311Y0081433D03*
X0082311Y0071433D03*
X0072311Y0071433D03*
X0072311Y0081433D03*
X0072311Y0091433D03*
X0072311Y0181433D03*
X0082311Y0181433D03*
X0092311Y0181433D03*
X0102311Y0181433D03*
X0112311Y0181433D03*
X0122311Y0181433D03*
X0132311Y0181433D03*
X0142311Y0181433D03*
X0152311Y0181433D03*
X0162311Y0181433D03*
X0172311Y0181433D03*
X0182311Y0181433D03*
X0192311Y0181433D03*
X0202311Y0181433D03*
X0212311Y0181433D03*
X0222311Y0181433D03*
X0222311Y0171433D03*
X0212311Y0171433D03*
X0212311Y0161433D03*
X0222311Y0161433D03*
X0222311Y0151433D03*
X0212311Y0151433D03*
X0202311Y0151433D03*
X0202311Y0161433D03*
X0202311Y0171433D03*
X0192311Y0171433D03*
X0182311Y0171433D03*
X0182311Y0161433D03*
X0192311Y0161433D03*
X0192311Y0151433D03*
X0182311Y0151433D03*
X0172311Y0151433D03*
X0172311Y0161433D03*
X0172311Y0171433D03*
X0172311Y0191433D03*
X0162311Y0191433D03*
X0162311Y0201433D03*
X0172311Y0201433D03*
X0182311Y0201433D03*
X0192311Y0201433D03*
X0202311Y0201433D03*
X0212311Y0201433D03*
X0222311Y0201433D03*
X0222311Y0191433D03*
X0212311Y0191433D03*
X0202311Y0191433D03*
X0192311Y0191433D03*
X0182311Y0191433D03*
X0182311Y0211433D03*
X0192311Y0211433D03*
X0202311Y0211433D03*
X0212311Y0211433D03*
X0222311Y0211433D03*
X0222311Y0223933D03*
X0212311Y0223933D03*
X0212311Y0233933D03*
X0222311Y0233933D03*
X0202311Y0233933D03*
X0202311Y0223933D03*
X0192311Y0223933D03*
X0182311Y0223933D03*
X0182311Y0233933D03*
X0192311Y0233933D03*
X0172311Y0233933D03*
X0162311Y0233933D03*
X0162311Y0223933D03*
X0172311Y0223933D03*
X0172311Y0211433D03*
X0162311Y0211433D03*
X0152311Y0211433D03*
X0152311Y0201433D03*
X0152311Y0191433D03*
X0142311Y0191433D03*
X0132311Y0191433D03*
X0132311Y0201433D03*
X0142311Y0201433D03*
X0142311Y0211433D03*
X0132311Y0211433D03*
X0122311Y0211433D03*
X0112311Y0211433D03*
X0112311Y0201433D03*
X0122311Y0201433D03*
X0122311Y0191433D03*
X0112311Y0191433D03*
X0102311Y0191433D03*
X0092311Y0191433D03*
X0092311Y0201433D03*
X0102311Y0201433D03*
X0102311Y0211433D03*
X0092311Y0211433D03*
X0082311Y0211433D03*
X0082311Y0201433D03*
X0082311Y0191433D03*
X0072311Y0191433D03*
X0072311Y0201433D03*
X0072311Y0211433D03*
X0072311Y0223933D03*
X0082311Y0223933D03*
X0092311Y0223933D03*
X0102311Y0223933D03*
X0112311Y0223933D03*
X0122311Y0223933D03*
X0132311Y0223933D03*
X0142311Y0223933D03*
X0152311Y0223933D03*
X0152311Y0233933D03*
X0142311Y0233933D03*
X0132311Y0233933D03*
X0122311Y0233933D03*
X0112311Y0233933D03*
X0102311Y0233933D03*
X0092311Y0233933D03*
X0082311Y0233933D03*
X0072311Y0233933D03*
X0172311Y0131433D03*
X0182311Y0131433D03*
X0192311Y0131433D03*
X0192311Y0121433D03*
X0182311Y0121433D03*
X0172311Y0121433D03*
X0172311Y0111433D03*
X0232311Y0141433D03*
D11*
X0229519Y0082758D03*
X0239519Y0082758D03*
X0249519Y0082758D03*
D12*
X0252311Y0163933D03*
X0237311Y0163933D03*
X0237311Y0183933D03*
X0252311Y0183933D03*
X0252311Y0203933D03*
X0237311Y0203933D03*
X0237311Y0223933D03*
X0252311Y0223933D03*
D13*
X0157311Y0143933D03*
X0157311Y0133933D03*
X0157311Y0123933D03*
D14*
X0246759Y0124051D03*
X0246759Y0121492D03*
X0246759Y0118933D03*
X0246759Y0116374D03*
X0246759Y0113815D03*
D15*
X0257685Y0115980D03*
X0257685Y0121886D03*
D16*
X0246267Y0131925D02*
X0246267Y0136681D01*
X0246267Y0105941D02*
X0246267Y0101185D01*
D17*
X0257291Y0104760D03*
X0257291Y0133106D03*
D18*
X0249811Y0126610D03*
X0249811Y0111256D03*
D19*
X0135893Y0104642D03*
X0128019Y0104642D03*
X0120145Y0104642D03*
X0112271Y0104642D03*
X0104397Y0104642D03*
X0096523Y0104642D03*
X0088649Y0104642D03*
X0080775Y0104642D03*
X0080775Y0168421D03*
X0088649Y0168421D03*
X0096523Y0168421D03*
X0104397Y0168421D03*
X0112271Y0168421D03*
X0120145Y0168421D03*
X0128019Y0168421D03*
X0135893Y0168421D03*
D20*
X0143767Y0155823D03*
X0143767Y0147949D03*
X0143767Y0140075D03*
X0143767Y0132201D03*
X0143767Y0124327D03*
X0143767Y0116453D03*
D21*
X0236169Y0073815D03*
X0243649Y0073815D03*
X0243649Y0063578D03*
X0239909Y0063578D03*
X0236169Y0063578D03*
D22*
X0062311Y0028933D03*
X0102311Y0123933D03*
X0112311Y0153933D03*
X0157311Y0158933D03*
X0252311Y0243933D03*
X0062311Y0243933D03*
X0257311Y0028933D03*
D23*
X0127311Y0118933D03*
X0092311Y0133933D03*
X0082311Y0153933D03*
M02*
